<?xml version="1.0" encoding="UTF-8"?>
<svg id="Layer_1" xmlns="http://www.w3.org/2000/svg" version="1.1" viewBox="0 0 1600 800">
  <!-- Generator: Adobe Illustrator 30.3.0, SVG Export Plug-In . SVG Version: 2.1.3 Build 182)  -->
  <defs>
    <style>
      .st0 {
        fill: #70513b;
      }

      .st1 {
        fill: #735540;
      }
    </style>
  </defs>
  <g>
    <path class="st0" d="M526.52,506.83l-58.25.14-.24-157.6c-12.58,6.8-23.27,12.69-35.96,16.12l-13.11-52.98c11-4.59,20.54-9.33,30.07-15.4l23.89-15.2c2.35-1.5,6.1-1.66,9.04-1.66h45.83s-1.38,37.14-1.38,37.14l-1.1,27.22-.39,132.31c-.02,6.38,1.62,11.78,1.16,18.2-.25,3.45,1.91,6.81.44,11.72Z"/>
    <path class="st0" d="M397.6,506.77l-57.49.25-.25-157.76c-12.65,6.45-23.12,12.63-36.22,16.24l-12.49-49.69c-.36-1.43-.28-2.69.32-3.75s2.27-1.17,3.74-1.81c17.69-7.72,33.25-18.12,49.47-28.54,2.56-1.03,6.46-1.34,9.32-1.36l44.96-.25-.63,27.3-.83,23.17-1.37,27.51-.06,115.82,1.04,13.15c.5,6.35,1.55,12.12.49,19.72Z"/>
    <path class="st1" d="M604.1,324.88c-3.62,1.13-6.91.61-10.75.49l-.21-15.27c-.06-4.34-1.93-6.36-5.64-6.37-4.23-.01-5.85,2.7-5.67,7.33l.56,14.29-11.11.03-.22-41.31-.94-5.13c3.99-1.52,7.92-1.64,12.23-1.32l-.32,13.36c-.13,5.26,6.52-2.3,15.54-.37,3.65.78,5.87,3.66,5.95,7.49l.56,26.78Z"/>
    <path class="st1" d="M555.57,315.01l8.91.4c1.64,3.02,1.34,5.96.91,9.26-5.46,2.82-11.77,3.06-17.58.22-2.7-1.32-3.65-4.75-3.72-7.89l-.32-14.7c-1.33-.8-3.97-1.23-4.23-2.43-1.71-7.87,2.67-6.26,9.31-14.07,1.07-1.25,4.38-.89,5.84-.45l.39,5.7c3.06.79,5.56.41,8.77.05.22,3.65.44,6.9-.39,10.53-3.07-.03-5.5-.55-8.61.36-.91,4.27-.97,8.64.72,13.04Z"/>
  </g>
  <g>
    <path class="st0" d="M711.53,513.11l-12.66-.92-38.77-5.18-15.79-.39.28-42.27.94-92.84.1-30.42-1.91-20.97-.99-14-2.62-31.64,23.94-1.65c11.52-2,22.53-4.51,34.24-5.59l15.72-1.45c24.24-2.24,58.62,1.95,76.15,19.1,10.43,10.21,15.71,24.03,17.26,38.55,2.87,26.84-3.02,45.29-22.11,65.82,27.47,13.65,33.54,38.77,30.93,67.83-5.59,25.48-20.41,38.83-43.54,48.63-18.39,7.79-40.28,8.89-61.17,7.38ZM754.9,350.85c2.13-8.3.59-17.07-5.63-23.08-13.06-7.76-31.94-6.29-47.21-3.98v41.07s9.6.53,9.6.53c18.47,1.03,38.99,2.05,43.24-14.54ZM752.95,449.57c5.01-4.12,6.93-9.47,5.93-15.64,1.32-9.21-4.96-17.96-14.67-19.21-13.95-1.8-28.1-.71-42.15.94l.13,40.07,34.69.26c5.8-1.15,11.78-1.97,16.07-6.41Z"/>
    <path class="st0" d="M971.06,459.13c10.22-3.57,19.58-12.41,21.19-7.4l12.27,38.28c-4.63,4.35-9.76,6.66-15.21,9.43-19.84,10.11-41.88,13.68-64.27,13.57-38.77-.2-70.95-8.3-84.11-46.78-5.25-15.36-6-30.97-6.08-47.24-.11-20.43,3.67-40.33,14.48-57.71l9.06-11.87c16.07-16.52,37.88-23.5,60.57-24.68,21.42-1.11,44.6,1.57,61.14,15.13,25,20.5,24.66,65.5,18.94,96.24-.33,1.77-3.58,2.61-5.36,2.61l-110.34.35c1.03,11.76,9.33,19.13,19.03,22.66,8.97,3.27,18.04,3.36,27.63,3.5,14.19.21,27.65-1.42,41.05-6.1ZM958.99,398.79c1.56-14.38-9.82-24.08-20.62-24.07l-28.55.02c-14.25,1.54-25.3,12.36-24.72,27l28.32-1.3,32.46-.81,13.11-.84Z"/>
    <path class="st0" d="M1385.1,412.48c0-6.99-3.36-12.84-8.67-15.86-7.96-4.53-16.69-4.16-25.44-2.92l-13.29,1.87c-3.87.54-7.67.65-11.83,3.02l.45,80.03.64,25.41c-.7,1.74-2.9,2.88-5.06,2.88l-49.86.05-.12-127.9-2.92-22.09-3.01-20.98c-.39-2.73.35-5.28,3.44-5.62l49.78-5.44,4.29,27.56c10.28-7.05,19.14-13.27,29.67-18.28,18.21-8.67,38.38-10.97,57.61-4.93,17.05,5.35,26.91,25.94,27.67,43.17l.97,22.08.67,92.43.59,18.04c-2.16.75-5.09,1.71-7.78,1.72l-43.73.06c-2.13,0-3.96-1.8-3.96-4.02l-.1-90.29Z"/>
    <path class="st0" d="M1191.02,497.51c-21.85,13.07-49.21,16.9-73.7,13.23-23.87-3.57-44.4-14.8-60.58-32.54-26.16-28.67-36.1-68.41-32.23-106.75,2.56-25.32,15.87-45.99,42.5-46.52,33-.66,68.02,20.12,92.5,41.68,22.8,20.09,45.36,54.06,50.22,84.45l.6,15.7c12.65-.69,21.67,7.32,24.02,18.53,2.33,11.1-4.51,22.15-15.14,25.47-11.1,3.46-22.22-1.37-28.19-13.25ZM1184.91,450.66c3-4.74.41-12.19-2.05-16.6-8.72-15.6-20.38-28.27-33.06-40.9-15.37-15.31-32.42-28.01-51.41-38.46-11-6.06-24.39-7.44-24.04,1.56.7,18.21,18.65,38.12,31.87,51.58,15.86,16.14,33.06,30.52,53.6,40.15,7.64,3.59,17.5,6.23,25.1,2.67Z"/>
  </g>
  <g>
    <path class="st1" d="M152.52,429.65l-19.73,2.34c-1.53-8.01-2.09-16.27-1.45-24.39,4.5-1.16,8.47.26,12.7.29l22.8.14c-5.78-9.05-10.52-17.41-9.43-27.75.48-4.6,1.61-9.6,5.46-12.43,3.28-2.41,7.87-4.52,12.11-4.57l38.02-.37c5.58-.05,10.86-1.56,16.68-.4v22s-35.7.1-35.7.1c-3.12,0-5.65.68-7.42,2.53-3.02,3.16-2.72,14.68.45,21.01l42.82-.09.02,21.89-77.33-.3Z"/>
    <path class="st1" d="M158.16,303.1c4.5-18.46,25.84-19.92,44.51-16.46l.48,46.16c8.06-2,9.89-9.19,10.12-15.81.33-9.64-.8-18.67-6.8-27.27l16.39-5.57c11.8,13.11,13.06,39.94,4.82,55.36-6.08,11.36-19.83,12.17-31.7,12.6s-22.54-2.01-30.59-10.54c-8.89-9.42-10.43-25.28-7.21-38.47ZM187.63,332.79c.74-10.49.09-20.1-1.13-30.39-3-.51-7.02.78-8.35,3.61-2.54,5.42-2.58,11.64-1.47,17.37,1.05,5.41,5.52,9.08,10.94,9.41Z"/>
    <path class="st1" d="M229.66,484.63c-.27,1.59-4.5.96-5.8.29l-63.19-.25c.8,7.46,1.81,13.79.72,20.89h-25.93s-.03-64.29-.03-64.29l25.84-.21c1.41,6.86.08,13.33-.34,20.92l50.98-.11,17.81-2.32-.06,25.09Z"/>
  </g>
</svg>