<?xml version="1.0" encoding="UTF-8"?>
<svg id="Layer_1" xmlns="http://www.w3.org/2000/svg" version="1.1" viewBox="0 0 688.84 688.9">
  <!-- Generator: Adobe Illustrator 30.4.0, SVG Export Plug-In . SVG Version: 2.1.4 Build 226)  -->
  <defs>
    <style>
      .st0 {
        fill: #c8a96e;
      }

      .st1 {
        fill: #70513b;
      }
    </style>
  </defs>
  <circle class="st0" cx="344.34" cy="344.4" r="344.5"/>
  <path class="st1" d="M497.15,539.9c-54.06,32.34-121.75,41.81-182.33,32.73-59.06-8.83-109.85-36.62-149.88-80.51-64.72-70.93-89.31-169.25-79.74-264.1,6.33-62.64,39.26-113.78,105.14-115.09,81.65-1.63,168.29,49.78,228.85,103.12,56.41,49.7,112.22,133.75,124.25,208.93l1.48,38.84c31.3-1.71,53.61,18.11,59.43,45.84,5.76,27.46-11.16,54.8-37.46,63.02-27.46,8.56-54.97-3.39-69.74-32.78h0ZM482.03,423.99c7.42-11.73,1.01-30.16-5.07-41.07-21.58-38.6-50.42-69.94-81.79-101.19-38.02-37.88-80.21-69.29-127.19-95.15-27.21-14.99-60.34-18.4-59.47,3.86,1.73,45.05,46.14,94.31,78.84,127.61,39.24,39.93,81.79,75.51,132.61,99.33,18.9,8.88,43.3,15.41,62.1,6.6h-.03Z"/>
</svg>