<?xml version="1.0" encoding="UTF-8"?>
<svg id="Layer_1" xmlns="http://www.w3.org/2000/svg" version="1.1" viewBox="0 0 1984 2162">
  <!-- Generator: Adobe Illustrator 30.3.0, SVG Export Plug-In . SVG Version: 2.1.3 Build 182)  -->
  <defs>
    <style>
      .st0 {
        fill: #fff;
      }
    </style>
  </defs>
  <path d="M1002,0l-.75,231.72c13.11,3.67,13.61,16.22,17.66,25.19,16.2,12.95,32.74,19.44,32.76,42.76l.04,42.75c0,6.01-3.99,12.81-7.5,17.35,3.2,6.51,7.63,16.06,8.28,23.04,1.87,20.05,11.26,32.69,24.26,46.3,45.44,47.6,42.16,125.04-8.03,166.98-49.02,40.97-119.11,34.41-159.74-11.96-41.51-47.37-36.98-116.41,9.18-160.21,22.79-21.63,14.59-42.77,27.87-64.67-4.58-3.69-8.13-9.35-8.02-15.09.35-18.15-.74-36.21,1.31-53.47s21.77-23.43,31.21-33.58c4.24-9.25,4.56-21.88,17.51-24.85l.32-232.27h13.62ZM984.95,322.54l28.7.86c2.31.07,5.72,1.97,6.58,3.67s-2.45,6.5-4.85,6.51l-63.43.26.96,14.52,85.06-.27c-.99-19.09,2.6-37.64-1.48-54.89-3.36-14.17-22.02-22.22-33.98-25.93-21.38-1.89-38.92,7.65-50.83,24.89l32.38.14c1.69,0,4.95,1.71,6.13,2.79s-1.31,6.56-3.04,6.59l-34.82.61-.43,3.26,44.54,2.26c2.38.12,5.95,2.83,5.85,5.01-.09,1.99-3.88,4.96-6.84,4.99l-43.53.43.08,3.36,32.95.96ZM1013.22,541.65c-16.23-5.46-14.86-35.78-11.56-58.08.67-4.52-13.66-4.87-13.18-.22,1.82,17.71,4.11,34.06-2.96,50.31-1.59,3.65-7.15,8-10.41,8-13.61-.02-17.49-34.96-2.84-55.33,1.75-2.43,3.78-5.32,4.01-7.29s-4.52-6.06-5.03-5.59c-4.9,12.47-8.88,22.45-15.24,32.51-3.31,5.24-13.5,8.72-17.08,3.37-9.03-13.49,2.77-47.55,27.58-50.69,7.23-32.1,10.88-64.2,13.26-96.55-4.45-.81-13.34-1.54-16.74.69-19.53,12.85-4.22,39.94-36.34,71.95-24.66,24.58-37.56,58.36-30.92,92.57,8.28,42.58,42.46,73.93,81.05,80.66,45.15,7.88,86.82-14.49,106.31-51.11,21.12-39.69,13.84-85.63-16.21-117.69-15.25-16.27-26.15-32.64-28.05-55.77-.56-6.83-5.43-16.99-11.7-20.59-4.06-2.33-12.13-1.68-17.42-.85,2.55,33.2,6.02,64.45,13.28,97.02,9.55,1.63,17.41,5.53,22.41,13.63,11.16,18.07,10.31,38.2,1.33,39.32-14.4,1.8-21.12-21.21-28.97-38.77-1.42.92-5.01,5.7-3.95,7.35l4.64,7.26c14.81,23.15,6.61,57.89-5.27,53.9ZM1005.71,473.82l9.72-12.17c-7.8-33.19-12.06-65.09-13.43-99.45-4.68-.88-11.27-.68-14.05.97-1.99,34.43-6.09,66.18-14.01,98.42l10.1,12.33c7.57-3.64,14.2-3.25,21.67-.1ZM945.81,503.76c11.59-11.11,14.25-23.28,16.92-36.1-14.34,6.77-21.48,22.6-16.92,36.1ZM1044.72,503.8c2.78-16.49-5.14-30.57-18.41-36.46,3.23,14,6.63,27.98,18.41,36.46ZM974.81,533.18c9.36-12.62,7.53-27.32,5.36-42.42-9.74,11.58-11.03,27.48-5.36,42.42ZM1014.72,533.21c6.61-14.05,4.21-29.53-4.66-40.83-4.19,14.05-3.77,28.88,4.66,40.83Z"/>
  <path d="M604.56,2004.66c-16.42-11.62-21.16-32.03-11.08-49.06-7.8-31.04.71-60.11,24.45-84.01l-66.79-11.32c-13.77-2.33-26.93-7.25-38.97-14.86-42.3-26.76-38.7-132.71-42.49-187.52-45.39-41.62-86.46-96.34-68.6-159.75-45.44-46.54-51.52-122.26-16.63-176.49-3.3-19.28-.44-37.19,5.89-55.32,11.73-33.57,33.48-59.77,63.46-78.6,33.28-20.9,70.68-30.88,110.26-25.83,22.73-20.03,55.46-18.27,78.88,2.95l74.35-12.85c33.97-5.87,66.93-11,100.9-19.98,9.13-76.09,23.63-153.8,66.86-216.96,42.78-67.15,126.26-83.5,201.57-95.89,39.69-51.03,96.48-95.09,161.12-103.09,85.73-9.37,141.57,48.19,176.82,121.3,82.15,16.68,171.28,46.14,227.92,108.19,14.97,16.4,24.64,35.69,30.08,57.51,22.84,91.59,6.14,205.34-19.88,296.56l23.86,39.68c19.44,43.92,17.63,94.25-8.58,134.68-13.65,21.05-32.08,35.73-53.1,49.43l-8.93,154.4-4.58,61.83c-3.26,43.99-43.48,74.21-80.6,95.03l-46.32,25.98-172.92,86.47c-13.44,6.72-27.49,9.25-41.64,12.48-20.54,4.7-39.02,5.02-60.17,1.91l-320.69-47.12c-1.69,15.34-7.3,27.82-18.36,38.83-45.45,45.2-106.92,70.82-171.46,73.35-23.87.94-46.49-2.49-69.4-8.89-8.5-2.37-17.67-7.68-25.23-13.03ZM1006.98,1272.95c.14-13.91,4.85-23.26,17.63-28.75,41.2-17.71,114.77-16.97,157.64-2.62,10.93,3.66,19.58,10.99,21.77,21.92l22.7-1.8c1.73-9.72,6.27-20.77,13.72-24.56,23.06-11.75,39.32,13.81,60.65,19.99,17.14,4.97,56.38-9.33,90.71,29.88l20.84-49.43-35.59-11.06c-15.67-4.87-23.29-21.13-19.12-36.06,4.12-14.76,19.53-25.73,35.48-21.14l35.77,10.31c23.71-98.09,26.87-211.56-6.24-308.37-12.62-36.9-31.61-69.71-58.24-97.81-55.24-58.27-126.94-56.06-193.28-13.97-66.11,41.95-106.93,112.28-143.98,180.07l-31.84,58.26c-41.29,75.54-105.74,123.75-150.99,212.98-33.63,66.33-46.03,144.83-12.13,214.52,92.83-21.86,177.12,19.7,249,77.13,13.59,10.86,21.93,22.96,15.22,42.62,21.93-4.25,40.19-9.33,58.98-16.62,2.77-26,6.51-49.14,13.74-73.02,9.07-25.06,21.23-47.41,41.12-65.49.28-.87.62-6.64-.63-6.73l-4.85-.35-31.54-.55c-20.07,20.71-48.09,30.32-77.54,27.55-68.15-6.42-89.63-71.56-88.99-136.88ZM896.63,1107.99l40.75-48.77c49.56-59.62,77.8-134.5,119.2-196.64l18.27-27.41c-53.47,8.72-109.69,22.16-150.18,55.43-16.44,13.51-28.48,30.68-39,49.19-32.46,57.13-45.27,122.29-52.97,189.24,23.14-6.03,42.84-12.25,63.93-21.04ZM1650.56,1289.06c19.42-64.33,27.72-126.51,29.16-190.92-1.31-55.35-5.17-113.73-45.89-152.06-55.46-52.22-127.19-76.08-203.07-93.7l15.96,52.66c21.25,95.8,16.69,182.85-3.8,279.2l72.39,34.38c18.55,8.81,32.27,23.25,46.31,38.27,32.99.22,62.89,11.05,88.93,32.17ZM462.7,1368.74c2.61,8.12,11.12,14.16,18.35,14.38,19.39.58,24.49-28.67,27.27-51.01,3.78-30.39,21.69-53.03,49.11-64.59,3.6-1.52,7.9-3.86,11.3-1.5,9.22,6.42-17.46,25.15-13.37,60.11,1.44,12.31,8.23,24.44,21.02,28.04,5.67,1.59,14.02-1.68,17.3-5.67,12.99-15.8-5.7-38.84,21.49-67.34,16.85-17.66,19.94-43.66,5.48-63.42l4.03-5.93c4.11-6.05,17.56,8.3,19.02,30.99,10.08-6,12.61-17.47,12.1-28.43-1.49-32.44-41.44-63.95-72.42-48.5l18.63,9.82c2.09,1.1,3.93,6.51,3.75,8.64s-5.18,5.31-7.05,4.27c-39-21.58-78.88-18.17-119.08.87-38.38,18.17-68.32,49.67-79.48,90.98-4.16,15.38-5.9,31.6,1.76,45.08,6.21-36.26,20.4-66.28,45.39-90.6,2.81.47,7.08,3.03,7.55,5.29.41,1.94-1.09,6.09-2.25,8.27-22.08,22.91-34.41,51.78-36.99,83.43-1.7,13.1.39,25.9,8.22,36.03,5.76,7.45,19.02,9.39,24.16,1.91-6.73-43.13,8.24-83.44,33.79-117.86,1.62-2.18,9.04-1.49,10.12.72.93,1.89.66,6.36-.68,8.36-20.85,31.3-39.85,72.38-28.52,107.68ZM619.33,1418.3l8.41,79.39c42.37-57.17,114.34-78.02,180.65-97.1-21.29-68.45-4.53-142.38,28.69-204.34-7.58-5.07-13.71-1.97-21.33-.59l-146.08,26.41c-2.72,17.76-12.91,31.51-27.84,39.27-5.97,14.95-14.33,26.23-24.5,38.49s2.54,37.21-13.57,59.21c7.12,19.9,13.4,38.85,15.57,59.28ZM1168.25,1266.5c4.73,1.46,10.23,6.35,13.68,3.34l9.02-7.86c-12.53-7.75-23.54-11.84-37.46-14.03-39.22-6.17-98.76-7.41-132.53,13.96,3.45,4.16,6.84,7.02,10.67,8.92,2.85,1.41,9.36-3.38,12.88-4.47,39.87-12.3,83.06-12.39,123.74.13ZM1483.27,1270.96c-19.64-12.54-39.26-20.99-58.24-28.43l-19.61,51.77,77.86-23.34ZM1271.1,1421.27l-31.84-6.35c.02,14.15,7.86,24.78,20.35,30.11,56.46,24.13,137.02-.17,140.21-59.42.15-2.82,4.34-7,6.79-6.87s7.32,5.14,6.72,8l-5.91,27.76c11.77-1.37,21.35-8.64,26.21-19.34,15.13-33.27,8.99-81.6-28.66-88.64l6.35,24.21c.74,2.84-3.48,8.47-6.27,8.46-2.44,0-7.27-3.8-7.6-6.4-4.91-38.61-36.69-63.74-75.61-61.55-17.4.98-32.52-2-46.52-12.78l-18.07-10.42c-4.13-2.38-12.3.77-14.19,4.16-1.77,3.16-2.42,11.85.83,13.81,10.52,6.35,18.33,15.54,22.13,28.79,25.47,3.35,48.78-16.09,52.88-3.14.74,2.32-2.88,6.06-5.72,7.27-47.98,20.54-81.44-2.13-94.53,2.74-9.94,3.7-12.48,13.94-11.92,23.33.4,6.76,6.48,14.42,14.27,18.34,28.86,14.49,51.99,4.98,51.46,17.64-.11,2.72-4.95,6.37-8.11,6l-27-3.14-13.89,13.45c1.45,22.39,26.87,27.58,50.56,30.84,2.72.37,5.77,5.86,5.06,8.17-.61,1.98-5.61,5.45-7.98,4.98ZM1393.48,1605.31l104.03-35.54c44.05-18.86,86.62-37.43,127-63.02,33.45-21.2,56.65-54.24,60.66-93.85,6.85-67.75-40.37-137.97-114.4-142.12,7.22,19.1,10.47,37.32,2.49,54.83-9.23,20.25-27.12,33.75-47.52,42.02-23.78,9.64-47.87,14.68-74.44,18-5.11,22.36-19.94,38.26-42.51,42.7,18.81,29,26.19,59.31,24.06,91.6-2.17,32.97-17.27,59.4-39.37,85.38ZM1234.59,1288.47l17.39,5.93c-7.58-22.94-41.22-22.51-46.66-15.18-1.08,1.45-.27,6.59.45,10.13,9.97-3.34,18.99-4.23,28.82-.88ZM1191.11,1280.84c-26.57,10.87-51.99,13.8-79.12,14.07-31.12.31-60.74-1.46-91.27-13.93-.4,60.03,24.33,118.06,87.31,115.83,60.14-.36,84.3-57.96,83.08-115.98ZM1518.28,1299.85c-4.97-7.2-11.41-13.03-18.56-18.7l-69.1,20.04,18.03,24.17c22.65-4.35,60.27-8.35,69.62-25.51ZM450.08,1455.86c13.84-17.27,32.91-26.02,53.85-27.24,44.79-4.22,84.05,21.46,100.39,63.15,3.55,9.06,3.47,18.93,10.23,27.44-.45-43.53-5.14-84.07-14.44-124.89l-8.22-27.53c-16.28,3.05-30.65-1.57-40.27-14.56-9.61-14.2-12.14-30.73-8.12-48.45l-4.04-6.32c-2.26-3.53-15.26,14.54-18.48,40.12-3.36,26.73-10.75,55.43-36.14,58.3-11.88,1.34-21.55-4.39-29.41-12.78-12.42,5.76-26.63,7.23-37.77-3.02-9.38-8.63-14.86-20.23-15.43-34.07l-11.07-9.08c-25.53,48.55-19.06,109.13,17.54,149.51,10.72-17.48,23.74-26.11,41.38-30.58ZM1196.74,1340.39l-2.39,4.78c-.49.99,4.75,1.83,4.93.74l.81-4.93c.12-.72-3.03-1.24-3.35-.59ZM1183.21,1371.17c18.58-.07,28.51-2.4,41.6-10.75-7.26-6.53-12.95-4.85-20.32-2.01l-16.76,1.11-4.52,11.65ZM1313.54,1633.71c.13-5.46,3.13-9.09,7.81-9.86,41.48-6.8,75.22-32.75,90.51-72.35,15.28-39.57,8-84.21-17.67-119.08-30.43,35.46-93.34,42.73-135.21,26.6-19.24-6.66-32.31-22.35-33.37-42.79l-.51-9.81c-.12-2.33-7.14-5.82-8.81-4.12-19.25,19.53-33.13,47.58-39.01,75.47-8.89,42.16-12.68,82.77-15.69,126.42-7.79,112.87-4.8,224.56,6.44,337.13l63.96,8.45c24.08,3.18,44.21-9.97,56.18-29.98,18.32-36.81,20.87-93.94,21.9-137.77l3.47-148.32ZM680.95,1520.7c26.26-25.27,53.02-46.29,82.44-65.09l55.06-26.3-6.44-15.52c-38.83,10.35-74.79,21.82-110.17,39.77-24.55,13.29-46.82,28.74-62.47,52.48,15.79.93,28.4,5.81,41.58,14.65ZM716.36,1604.87c-2.36-33.18-32.71-71.59-60.72-82.5-14.63-5.7-31.53-2.52-39.32,12.17l25.53,21.87c2.02,1.73,1.37,8.66-.74,10.12-1.81,1.25-6.94.78-8.82-.89l-20.36-18.14-2.17,15.14c-.4,2.78-5.68,5.65-8.62,5-11.98-2.64,9.65-36.94-14.46-82.08-21.93-41.04-75.11-57.92-116.47-30.73,45.34,14.92,68.24,47.89,84.54,92.15,8.82,20.5,16.56,40.91,28.44,59.78l35.43,44.45c10.74,13.47,19.24,26.96,20.77,45.57,15.68-7.39,24.77-19.54,32.35-33.55,15.39-28.47-6.76-49.77,5.8-53.23,2.44-.67,8.04,2.77,8.65,5.28l5.2,21.31c16.34-1.6,26.19-14.87,24.99-31.74ZM614.1,1718.75c13.05-9.08,14.1-25.83,7.13-40.12-12.9-26.45-41.58-40.69-67.58-100.18l-24.26-55.5c-15.03-34.39-62.95-72.52-94.35-45.26,44.61-2.19,72.05,34.39,88.71,72.31l31.15,65.01c15.02,31.35,62.97,57.71,59.2,103.75ZM1041.53,1548.17c-32.31-28.12-67.05-46.03-103.98-59.83-22.55-6.73-43.96-10.64-68.47-7.94,40.65,45.36,110.01,73.1,172.45,67.76ZM559.08,1645.3c-15.06-20.99-24.09-37.55-32.82-57.58-16.63-37.59-34.92-86.88-76.15-96.18-12.41-2.8-27.6-1.14-34.69,10.06-16.31,25.74,4.11,80.96,27.38,107.56,16.49,20.99,34.53,38.63,57.21,53.72l59.06-17.58ZM678.02,1681.73l66.39,17.84c.61-73.81,12.47-139.87,60.69-196.37-33.87,15.91-59.07,40.53-85.6,64.5,8.8,17.13,12.79,34.84,8.45,52.71s-19.98,28.79-36.98,29.92l-12.95,31.39ZM1143.61,1732.46c.33-59.77,2.28-115.88,8.21-173.99-55.3-6.7-117.65,9.76-158.56,47.17-2.58.35-8.18-1.15-8.59-3.44-.45-2.53.46-6.51,1.56-9.97l43.87-29.02c-53.57-2.46-100.3-16.55-141.36-46.81l-31.48,20.84c-48.1,46-52.13,111.75-52.1,176.48l104.59,19.3c62.18,9.63,123.22,16.63,186.07,17.15,18.01.15,35.33-5.1,47.8-17.71ZM1334.3,1921.04c67.99-32.29,133.02-65.56,197.05-103.24,31.97-18.81,57.98-38.5,65.68-75.48l4.97-56.42,8.35-154.77c-89.4,48.86-184.45,82.92-283.38,106.37l-3.43,152.39-8.07,91.43c-4.22,20.29-10.63,36.2-21.02,56.51,15.2-4.25,26.06-9.8,39.84-16.8ZM596.88,1724.5c8.68-7.25,3.29-19.77,1.18-28.16-7.08-15.11-17.5-28.53-29.55-40.1l-60.78,19.25c14.49,22.64,33.56,40.03,58,49.03,8.75,3.22,23.4,6.45,31.14-.02ZM619.44,1857.46c-12.35-41.66-13.7-80.3-7.55-122.63-45.02,21.04-94.14-15.78-118.39-56.05l-9.5-9.55,7.85,102.43c1.13,14.78,6.14,28.89,11.81,42.16,8.61,17.28,23.34,27.42,42.16,31.15l73.61,12.51ZM708.13,1831.51c-12.49-15.32-11.67-32.31-3.09-46.66,9.01-15.06,23.76-24.18,41.4-29.32l-2.84-42.34-75.77-20.35-26.29,18.35c-7.55,5.27-14.04,9.97-15.53,19.45-6.8,43.33-6.66,87.25,9.02,129.17,19.6-10.17,37.84-13.68,58.93-11.33l14.17-16.98ZM887.41,1900.44l266.97,39.57c-6.95-64.99-10.08-124.92-10.53-189.19-16.25,9.49-33.22,13.18-52.01,13.41-51.93-1.9-102.43-3.88-153.7-12.97l-132.14-23.44,1.55,20.66c18.48,1.82,33.81,7.32,45.98,19.98,13.47,14,16.5,34.92,5.6,52.25,12.67,19.77,19.54,41.25,21.02,65.21.29,4.75,3.07,10.26,7.26,14.54ZM758.16,1888.67c-28.88-25.53-67.44-34.15-103.63-22.32-35.87,11.72-60.15,51.15-46.2,87.39,10.73,15.17,31.95,22.89,50.53,25.95,65.85,10.85,132.88-9.87,182.07-54.6,34.77-31.62,29.8-49.39,10.05-92.94-15.45,11.2-34.48,20.38-36.67,10.2-2.29-10.66,14.57-7.08,29.28-22.78,12.41-13.24,11.27-32.75-2.57-44.87-8.47-7.41-20.74-11.12-31.35-12.28,1.16,11.36,2.91,21.11.21,29.41-4.14,12.77-15.85,18.72-27.15,19.17-11.47.45-24.66-3.81-29.94-15.56-3.4-7.57-3.51-16.24-4.77-27.1-24.97,8.34-43.31,30.25-32.8,50.44,10.2,19.58,31.13,16.18,34.77,24.36.91,2.05-2.07,8.42-4.5,8.32-8.14-.36-18.53-4.76-26.18-9.18-2.59.57-6.71,4.8-8.2,8,28.71,5.21,72.24,33.47,56.26,40.64-1.87.84-6.84-.17-9.2-2.25ZM614.1,1995.37c13.66,7.63,27.19,12.18,42.78,14.58,75.49,11.63,152.6-14.57,206.06-68.47,8.12-10.58,15.8-20.17,10.59-35.23-14.98,22.81-33.93,39.89-57.19,54.15-47.07,28.86-101.46,41.35-156.22,33.35-22.11-3.23-40.29-11.99-57.66-25.72-3.55,12.9,2.88,20.48,11.65,27.33Z"/>
  <path d="M1545.99,710.13c-31.04,34.75-114.95,21.8-162.67,8.33-52.76-14.89-102.02-36.8-145.39-70.22-19.09-14.71-36.54-31.67-46.41-52.78-9.79-20.96-3.5-42.72,16.01-54.12,76.8-44.87,288.51,31.82,339.44,117.36,9.67,16.25,12.02,36.86-.99,51.44ZM1205.97,579.22c-2.3-23.27,21.89-29.43,44.43-32.49,2.75-.37,6.66-5.58,7.88-8.79-17,.18-32.37,3.63-46.3,11.78-13.46,7.87-18.71,22.87-13.44,37.43,4.84,13.37,12.73,24.29,23.28,34.14,5.73-15.92-13.72-20.56-15.85-42.07ZM1490.29,650.39c-3.13,4.67-3.74,8.75.18,13.79,14.25-8.64,18.14-26.58,7.49-40.43-20.1-26.16-87.29-54.99-123.47-66.61-28.43-9.14-56.54-16.91-86.23-18.15-18.5-.77-35.01,12.31-32.69,32.03,4.72.08,8.6-3.07,10.28-7.38,13.46-34.7,91.05,1.9,124.33,20.5,24.7,5.28,48.34,11.67,70.92,22.79,20.38,10.04,39.91,27.48,29.2,43.47ZM1245.76,576.59l.65-19.31c-11.93.59-25.52,3.78-30.44,15.13-3.47,8.01,3.01,19.64,8.34,25.47l21.45-21.29ZM1292.22,561.15c-4.83-2.18-11.35-2.03-14.53,2.52l14.53-2.52ZM1352.29,673.45c-37.28-6.07-112.27-27.94-109.35-62.03,1.75-20.37,37.75-33.35,56.85-33.39l57.46-.1-16.55-7.78-42.8.89c-19.61.41-38.46,7.17-53.82,18.84-13.67,10.38-16.42,28.47-6,42.28,6.69,8.87,15.56,16.19,25.48,22.58,52.9,34.08,111.91,56.14,174.32,65.6,13.85,2.1,27.83.6,38.78-7.65,9.5-7.16,12.34-22.45,7.5-32.88-13.57-1.56-1.66,25.49-26.14,30.22-31.59,6.1-75.79-18.92-105.74-36.58ZM1459.44,660.36c-19.68-28.69-45.82-48.28-73.91-66.54-22.39-5.26-44.35-7.18-67.48-7.32-12.86.37-23.7,1.36-37.14,5.31,7.28,11.79,13.69,21.3,23.24,30.16,16.33,15.17,32.57,30.74,52.8,41.25,31.41,5.76,71.34,8.78,102.48-2.86ZM1332.54,659.31c-23.48-18.5-44.12-36.18-59.05-60.44-.95-1.54-3.36-4.77-4.37-3.86l-4.26,3.85c-1.99,1.8,42.52,62.36,67.68,60.44ZM1480.77,666.31c-9.76-21.9-24.9-37.76-41.7-53.4-7.5-6.98-16-13.23-25.9-12.08,26.06,21.27,50.77,42.11,62.01,72.02l6.1-.35c1.12-.06.14-4.71-.51-6.18ZM1287.97,643.58c-13.15-14-22.61-24.93-31.6-38.19-13.37,14.29,13.39,34.26,31.6,38.19ZM1461.43,620.31l20.47,26.41c5.22-13.04-7.84-24.48-20.47-26.41ZM1489.28,713.53l-10.35,9.36c17.51-.48,34.04-2.68,49.03-10.55,15.72-8.26,21.53-24.88,14.8-41.01-5.83-13.96-14.89-25.25-27.6-36.18-8.55,13.67,19.98,19.04,21.21,49.02.8,19.46-23.33,28.4-47.1,29.36ZM1495.65,703.14c10.56.48,27.67-4.14,30.86-17.07,2.88-11.68-6.89-22.87-15.05-29.69l-16.59,18.19.78,28.57ZM1396.87,685.47c24.66-.48,46.06-2.18,68.49-8.12l-1.78-7.59c-27.19,8.36-52.68,8.13-83.04,7.32,4.34,4,9.86,6.28,16.33,8.4ZM1466.77,687.81l-47.27,7.17c20.83,8.59,45.63,11.24,47.27-7.17Z"/>
  <path class="st0" d="M1044.72,503.8c-11.78-8.49-15.18-22.46-18.41-36.46,13.27,5.89,21.19,19.97,18.41,36.46Z"/>
  <path class="st0" d="M1014.72,533.21c-8.44-11.95-8.85-26.78-4.66-40.83,8.87,11.3,11.27,26.78,4.66,40.83Z"/>
  <path class="st0" d="M974.81,533.18c-5.67-14.94-4.38-30.84,5.36-42.42,2.17,15.1,4,29.81-5.36,42.42Z"/>
  <path class="st0" d="M945.81,503.76c-4.56-13.5,2.59-29.33,16.92-36.1-2.67,12.82-5.33,24.99-16.92,36.1Z"/>
  <path class="st0" d="M614.1,1995.37c-8.77-6.85-15.19-14.44-11.65-27.33,17.38,13.72,35.55,22.49,57.66,25.72,54.76,8,109.15-4.5,156.22-33.35,23.26-14.26,42.21-31.34,57.19-54.15,5.21,15.06-2.47,24.65-10.59,35.23-53.46,53.9-130.57,80.11-206.06,68.47-15.59-2.4-29.12-6.95-42.78-14.58Z"/>
  <path class="st0" d="M1196.74,1340.39c.32-.65,3.47-.13,3.35.59l-.81,4.93c-.18,1.09-5.43.25-4.93-.74l2.39-4.78Z"/>
  <path class="st0" d="M1497.97,623.75c10.64,13.85,6.76,31.79-7.49,40.43-3.92-5.03-3.31-9.12-.18-13.79,10.71-15.98-8.82-33.43-29.2-43.47-22.58-11.12-46.22-17.5-70.92-22.79-33.27-18.61-110.87-55.2-124.33-20.5-1.67,4.31-5.56,7.46-10.28,7.38-2.31-19.72,14.19-32.8,32.69-32.03"/>
  <path class="st0" d="M1480.77,666.31c.66,1.47,1.63,6.12.51,6.18l-6.1.35c-11.24-29.91-35.96-50.75-62.01-72.02,9.9-1.15,18.4,5.1,25.9,12.08,16.81,15.64,31.94,31.5,41.7,53.4Z"/>
  <path class="st0" d="M1332.54,659.31c-25.16,1.91-69.67-58.65-67.68-60.44l4.26-3.85c1.01-.91,3.42,2.33,4.37,3.86,14.93,24.26,35.57,41.94,59.05,60.44Z"/>
  <path class="st0" d="M1396.87,685.47c-6.47-2.12-11.99-4.4-16.33-8.4,30.36.81,55.85,1.05,83.04-7.32l1.78,7.59c-22.44,5.95-43.84,7.64-68.49,8.12Z"/>
  <path class="st0" d="M1287.97,643.58c-18.22-3.94-44.97-23.9-31.6-38.19,9,13.26,18.45,24.19,31.6,38.19Z"/>
  <path class="st0" d="M1466.77,687.81c-1.64,18.42-26.44,15.77-47.27,7.17l47.27-7.17Z"/>
  <path class="st0" d="M1461.43,620.31c12.62,1.92,25.69,13.37,20.47,26.41l-20.47-26.41Z"/>
  <path class="st0" d="M1292.22,561.15l-14.53,2.52c3.18-4.56,9.69-4.7,14.53-2.52Z"/>
  <circle cx="1003.03" cy="297.29" r="4.85"/>
  <path d="M942.53,1393.47c-1.02,3.85-4.99,6.88-7.35,6.94s-6.77-3.95-6.19-6.31c16.68-68.13,47.38-129.68,89.82-185.3l73.41-86.84-16.7-9.95c-4.1-2.44-8.67-8.78-8.63-13.22s3.02-11.59,6.88-15.06c40.58-36.42,71.56-78.87,93.3-128.76l33.43-76.74c11.87-27.25,24.23-52.76,39.55-78.38l27.73-37.77c1.28-1.74,7.7-1.42,9.39-.08,1.96,1.57,2.07,7.09.45,9.27l-24.11,32.46c-38.55,62.42-57.54,129.4-94.19,195.75-20.4,36.92-48.19,66.65-78.58,96.63,1.49,9.76,19.73,8.61,22.81,19.74,1.42,5.13-.33,13.82-3.9,17.84-25.26,28.46-49.28,55.42-72.07,85.96-39.26,52.6-68.07,109.48-85.05,173.79Z"/>
  <path d="M1247.14,1066.9c27.6-30.94,24.99-63.63,35.92-64.55,2.52-.21,7.22,4.67,6.52,7.54-10.64,43.88-41.39,97-83.05,78.82-38.51-16.81-23.79-66.86-9.45-104,1.17-3.03,6.05-6.3,8.6-5.34,4.19,1.58,5.82,6.12,3.96,10.31-14.02,31.6-25.89,77.79,4.6,87.45,12.65,4,23.94-.19,32.89-10.23Z"/>
  <path d="M1083.73,1017.53c29.01-26.71,30.1-60.95,41.02-59.57,2.25.28,5.86,5.5,5.13,7.7-9.64,28.75-30.9,68.4-58.5,72.83-11.66,1.87-22.66-1.61-30.32-8.66-21.35-19.66-4.39-62.41,9.87-91.16,1.19-2.41,6.8-4.3,9.06-3.27s4.13,7.08,2.99,9.39c-10.57,21.39-25.55,56.06-15.57,71.41,8.5,13.08,25.71,11.11,36.33,1.32Z"/>
  <path d="M1084.8,1194.06c-1.61-2.18-3.03-7.9-1.51-9.31s4.97-2.99,7.25-3.62c27.04,11.73,55.38,8.59,80.7-6.16,2.29-.75,7.58-.01,8.97,1.74,1.62,2.04.61,7.43-1.41,9.8-29.42,16.67-61.53,20.06-94,7.55Z"/>
  <path d="M1489.7,1164.88c-.62,4.17-4.14,7.22-6.72,7.25-3.32.04-7.35-4.18-6.75-8.18,6.62-44.4,16.49-86.76,34.02-127.64,19.08-44.49,49.29-84.27,99.78-85,2.44-.04,7.1,2.13,7.94,4.26,1.03,2.63-1.46,8.43-3.92,9.84-25.12-1.44-45.53,9.19-61.88,26.96-35.78,42.32-53.95,115.54-62.47,172.5Z"/>
  <path d="M1392.38,626.74c0,11.51-9.33,20.84-20.84,20.84s-20.84-9.33-20.84-20.84,9.33-20.84,20.84-20.84,20.84,9.33,20.84,20.84ZM1383.06,626.67c0-6.33-5.13-11.46-11.46-11.46s-11.46,5.13-11.46,11.46,5.13,11.46,11.46,11.46,11.46-5.13,11.46-11.46Z"/>
  <circle class="st0" cx="1371.6" cy="626.67" r="11.46"/>
</svg>