<?xml version="1.0" encoding="UTF-8"?>
<svg id="Layer_1" xmlns="http://www.w3.org/2000/svg" version="1.1" viewBox="0 0 280.2 372">
  <!-- Generator: Adobe Illustrator 30.3.0, SVG Export Plug-In . SVG Version: 2.1.3 Build 182)  -->
  <defs>
    <style>
      .st0 {
        fill: #fff;
      }
    </style>
  </defs>
  <path d="M166.05,349.85c-6.75,4.87-14.75,2.94-19.58-3.54-7.59,5.3-16.44.77-20.7-7.09-3.07-5.67-4.36-11.77-2.75-18.28-4.89,2.81-10.44,1.1-12.95-3.84-1.89-3.73-1.59-7.91-.71-12.23-13.54-5.89-19.21-20.58-13.69-34.09,1.77-4.32,4.34-8.01,7.55-11.52l-6-1.78c-3.21,5.53-6.67,10.68-11.37,14.89-6.84,6.13-16.16,6.5-23.57,1.19-7.92.21-12.09-1.66-14.52-9.26-16.6-8.36-27.08-29.13-23.31-47.16.63-3.02,2.82-4.5,5.09-5.89,1.36-3.33,1.69-7.69,4.26-10.67,1.68-1.95,4.99-2.65,7.35-1.75,3.65,1.38,4.99,5.06,5.02,8.83,3.14-1.55,6.61-3.51,10.07-2.83s5.4,3.69,7.89,6.14c2.97-3.8,7.3-5.34,11.64-4.82.4-1.73.75-3.99,1.63-5.21,3.12-4.3,17.84-2.19,25.71-.44.53-23.92,5.58-46.89,14.88-68.66,6.41-15.01,14-29.12,24.38-41.55,5.57-6.67,11.84-11.97,19.47-15.95,6.62-3.45,14.72-3.82,21.18.12,3.65,2.22,6.96,5.59,9.39,9.01,10.54,14.81,16.2,42.11,17.61,60.52l1.13,14.7,3.42-5.36c-1.06-3.16-1.3-7.03-.56-10.66,1.64-8.08,3.56-10.36,12.67-11.23-1.79-4.48-2.31-9.14,1.05-11.53,4.75-3.37,9.94.99,14.74,4.93,6.89-.25,12.5,6.56,15.11,13.02,5.34,13.17,5.99,29.39-1.17,42.23,1.58,6.67-1.35,12.93-8.21,14.88-.83,18.11-7.59,40.96-25.96,45.16-7.6,1.74-14.99-.48-22.07-4.18-3.24,7.47-7.26,14.16-12.78,20.35l10.79,9.93c11.36,10.45,21.37,32.99,8.24,45.18-4.58,4.25-10.24,6.56-16.34,7.67.78,7.45-2.05,13.34-8.66,13.85-2.23.17-4.18-1.33-6.68-3.22.35,7.77-2.18,15.46-8.7,20.16ZM124.48,253.22c7.29,7.41,15.61,11.75,25.13,13.6,22.85,3.09,39.09-12.26,47.46-32.62,5.62-13.67,8.39-27.73,9.7-42.56,2.65-29.98.35-67.19-11.12-95-2.36-5.73-5.38-10.74-9.47-15.21-7.19-7.87-16.56-8.06-25.61-2.44-18.2,11.29-30.96,34.55-39.35,54.31-9.22,21.72-14.34,44.6-14.58,68.04,9,2.26,17.17,5.27,24.73,9.83,3.01,1.81,5.28,4.22,6.48,7.39-1.81,13.9-2.09,24.96-13.37,34.67ZM216.43,173.26c10.59,13.09,22.07,5.82,22.39,9.34.05.57-.93,2.05-1.52,2.07l-7.89.24c-.51,3,1.5,5.72,4.39,6.79,4.65,1.72,9.93,1.6,14.42-.34,3.51-1.52,5.87-4.56,4.88-8.4-1.97,1.82-4.44,3.55-7.09,4.37-.62.19-1.84-1.7-1.5-2.21,1.86-2.82,8.75-2.96,11.94-14.07,3.39-11.81,2.02-24.5-3.82-35.43-2.44-4.56-7.66-8.51-10.05-6.61-.77.61-1.31,3.21-.97,4.14l5.21,14.25c2.14,5.86,5.89,6.41,4.12,8.31-1.91,2.06-5.25-1.17-7.18-6.52l-3.65-10.12c-1.46-4.04-3.17-7.6-.62-11.72l-4.29-3.91c-1.05-.96-4.51-1.61-5.45-.58-1.98,2.59-.63,6.29,1.41,8.35,3.4,3.44,5.53,7.15,6.77,11.9,1.46,5.56,5.63,9.95,3.56,10.44-6.1,1.44-6.23-13.98-11.41-17.71-2.74-1.97-9.23-.84-10.9,2.1-2.14,3.77-3.56,13.39.75,13.97,4.98.67,5.41-5.05,6.77-9.78.24-.82,2.62,0,3.16.45l2.16.2c.51.05.83,1.78.57,2.21l-1.59,2.6c.99,1.63,2.47,3.73,2.78,5.48,1.11,6.36-2.68,17-8.61,15.1l-3.56,3.57c-.52.52-2.39.4-2.73-.17-1.59-2.69,5.69-3.83,3.81-12.02-.45-1.98-1.94-3.63-4.03-3.66-1.58-.02-2.98,1.66-3.72,3.16-2.54,5.13-2.14,9.74,1.49,14.22ZM226.82,165.17c4.09-4.44,4.91-11.44,1.63-15.15l-2.8,3.89c-.78,1.08-.54,2.32.02,3.74l1.14,7.52ZM235.08,198.8c.55-1.84-.25-3.29-1.78-3.7-4.93-1.47-7.96-5.69-7.45-11.1-6.47-1.92-10.94-6.41-14.52-12.14-.34,17.88-1.99,34.59-6.71,51.6,3.65,2.18,7.98,3.99,12.52,3.82,11.76-.43,16.86-16.52,17.94-28.48ZM76.32,243.19l-7.8-3.46c-2.41-1.07-5.62,1.52-13.81-6.4-5.46-5.28-1.38-10.82-4.9-10.75-.93.02-2.33-1.37-1.96-2s1.5-1.35,2.04-2.17l1.52-2.32c1.11-1.7,3.37,5.09,8.06,5.91,1.56.27,3.89-.73,4.47-1.81.72-1.36.22-3.63-.87-4.82-2.22-2.4-3.7-5.72-7.09-6.91-2.76-.97-8.63,1.46-9.88,4.12-1.93,4.12.42,8.63.9,12.62l.74,6.15c.08.65-.74,1.92-1.3,2.13s-2.19-.44-2.26-1.04l-1.17-8.95c-.64-4.92-1.03-9.26-.51-14.19s-1.24-7.85-3.73-7.58c-3,.32-4.87,5.42-5.21,9.79,2.93,1.11,4.37,3.4,4.86,6.18.84,4.87,1.82,9.41,3.28,14.19,1.67,5.48-.49,10.93-2.73,9.68s1.03-4.04-.64-9.24c-1.56-4.84-2.47-9.18-3.29-14.27-.18-1.12-1.32-2.56-2.11-3.14-.69-.51-3.24-.44-3.79.38-1.62,2.43-2.4,6.4-2.2,9.8.74,13.08,7.08,25.52,17.52,33.32,9.43,7.04,16.92,2.02,17.48,5.23.12.72-1.13,2.11-1.85,2.12l-8.16.06c1.61,3.27,5.17,4.57,8.69,4.14,8.66-1.08,17.4-9.77,12.77-15.86-4.2,3.39-8.89,5.3-9.2,2.95-.08-.6.56-1.78,1.11-2.05,4.8-2.38,9.76-6.95,11.04-11.81ZM123.6,212.36c4.25,1.81,7.37,4.52,10.61,7.96-.68-4.38-4.82-6.62-8.43-8.37-10.55-5.11-21.63-8.14-33.33-9.92-5.15-.78-12.52-.3-12.6,1.73-.07,1.8,3.48,5.1,6.44,6.36-.77-1.14-2.4-3.56-1.28-4.4,1.59-1.19,4.19-1.27,6.23-1.15,11.29.67,22.05,3.39,32.36,7.78ZM68.13,217.37c2.97-2.89,5.51-3.18,8.89-3.2.9-.97.15-4.29-1.51-4.55-3.75-.57-6.82,1.24-9.12,3.91l1.74,3.84ZM107.54,255.88c11.84-.43,20.73-8.69,23.92-19.39,1.18-3.95,1.57-8,2.2-12.15-13.99,2.43-32.67-3-45.78-9.29l-7.1-3.92c.71,4.15-.61,5.89-3.31,7.46,0,3.71.2,9.18,1.5,12.36,3.18,3.2,3.99,5.94,4.71,10.18,1.24,7.33,14.7,15.08,23.86,14.75ZM74.88,229.99c-.52-3.64-2.88-5.85-5.95-7.5.28,3.73,2.71,6.38,5.95,7.5ZM79.66,240.24c.21-4.53-2.58-5.89-5.51-6.47-4.69-1.87-7.81-4.96-8.62-10.12l-2.9,2c2.01,8.72,8.59,12.62,17.04,14.6ZM63.43,235.37c-2.41-3.54-3.78-6.3-4.34-9.94l-4.37-1.34c-.37,5.15,3.83,9.17,8.7,11.28ZM85.75,250.51l-5.88-6.91c-1.24,3.16-2.27,5.28-3.9,7.68,2.17,3.09,2.49,6.66,1.44,10.51,3.83-2.99,6.52-7.14,8.34-11.28ZM188.28,293.87c3.3,2.88,3.64,6.74,2.44,11.12,6.46-2.42,10.51-5.64,9.04-12.15-2.52-11.12-13.01-21.5-22.93-27.99-16.74,9.61-36.06,6.92-50.72-5.48-7.97,4.34-14.85,8.81-18.65,16.62-2.31,4.74-1.54,9.91,2.36,13.61.62-4.44,2.98-6.79,6.17-7.82,3.5-1.12,6.79.57,9.48,2.43,8.61-1.89,18.4-2.72,25.18,2.65,2.41-1.41,5.26-2.05,8.1-1.61,6.66,1.05,12.91,2.76,18.25,6.91,3.74-2.28,7.95-1.23,11.29,1.69ZM133.87,343.28c3.38,2.62,7.91,2.43,10.87,0,.5-1.43.85-4.04.92-5.72.57-15.76,1.51-30.83,3.31-46.64-2.6-5.73-14.33-5.14-21.65-3.54l1.25,6.49c.12.6-1.21,1.86-1.73,1.76s-1.5-.87-1.6-1.39l-.8-4.15c-.39-2.04-1.93-4.1-3.44-4.7-2.03-.8-4.88-.52-6.13.88-2.29,2.56-1,5.45-1.08,8.32-.14,4.89-.98,9.48-1.6,14.38-.51,3.97,1.04,8.68,5.06,9.95,2.39.75,5.14-1.85,5.68-4.02l2.07-8.31c.16-.63,1.2-1.75,1.84-1.67s1.6,1.53,1.49,2.23l-.7,4.35,2.42-1.4c.52-.3,1.88.52,2.28,1.32l-4.34,6.2c-4.52,8.53-1.84,19.66,5.89,25.65ZM182.5,329.33c3.86-.91,4.39-5.35,3.99-10.14-1.06-12.73,3.47-18.87-.38-22.6-1.59-1.53-4.1-3-6.53-1.73-4.07,2.13-2.58,8.01-5.88,8.23-.7.05-1.84-1.75-1.56-2.43l2.51-5.95c-5.1-3.7-11.25-5.48-17.48-6.15-1.27-.14-4.37.59-4.63,2.02-2,17.02-3.17,33.67-3.43,50.76-.05,3.11,1.42,4.88,3.76,6.22,4.23,2.43,8.37,1.89,12.31-1.43,7.3-6.83,8.11-18.46,2.03-26.83-.19-.66-.36-1.93-.25-2.5s1.74-.73,2.16-.34l1.84,1.72.14-3.32c.03-.81.32-1.93.83-2.3.41-.29,1.89-.21,2.13.23s.47,1.48.47,2.12c.05,7.83,2.49,15.7,7.96,14.41Z"/>
  <path d="M217.44,68.37c-20.25,10.07-70.89-13.46-65.14-31.43,2.09-6.53,11.64-8.44,19.38-7.93,15,1,29.28,6.39,41.15,15.48,4.48,3.43,8.23,7.69,9.65,13.07,1.15,4.39-.87,8.73-5.04,10.8ZM219.02,61.92c4.78-13.37-38.34-36.02-59.41-27.86-3.64,1.41-5.4,5.17-3.73,8.72,9.55,20.23,58.45,32.23,63.14,19.14Z"/>
  <path class="st0" d="M85.75,250.51c-1.82,4.14-4.51,8.29-8.34,11.28,1.05-3.85.73-7.42-1.44-10.51,1.64-2.4,2.66-4.52,3.9-7.68l5.88,6.91Z"/>
  <path class="st0" d="M63.43,235.37c-4.87-2.11-9.07-6.13-8.7-11.28l4.37,1.34c.56,3.64,1.93,6.39,4.34,9.94Z"/>
  <path d="M154.11,254.84c.23.83-.28,2.31-.84,2.46s-2.05-.47-2.24-1.1c-4-13.08-4.59-28.06-3.4-42.02.06-.72,0-2.37-.53-2.68-2.94-1.79-7.81-1.28-7.31-7.6,4.62-42.74,15.79-84.05,33.06-123.31l1.98-.67c.55-.19,1.33,1.79,1.06,2.41-17.12,39.14-28.27,80.22-32.74,122.88-.27,2.56,8.49,1.18,7.97,8.43-1.02,14.18-.93,26.96,2.98,41.22Z"/>
  <path d="M175.09,185.86c6.78-6.88,5.09-15.49,8.28-15.57,4.01-.1-2.11,22.43-14.37,21.13-11.98-1.28-12.69-24.35-10.02-26.75.41-.37,1.93.15,2.32.66-.88,7.95.89,21.25,7.14,22.52,2.29.47,5.02-.32,6.65-1.99Z"/>
  <path d="M130.6,180.93c7.44-7.42,5.78-18.08,8.92-18.37,3.35-.31.23,13.32-5.85,20.2-2.45,2.78-5.9,3.79-9.6,3.18-2.77-.45-5.45-3.02-6.91-6.14-2.72-5.68-2.9-11.62-2.17-17.95,6.38-4.38.25,6.84,5.56,16.96.94,1.8,2.68,3.39,4.44,3.88,1.45.4,4.34-.47,5.63-1.76Z"/>
  <path d="M156.95,225.98c-.63-.56-1.16-2.33-.69-2.87.59-.67,2.49-.49,3.09.08l1.25,1.19c.34.32,1.74-.29,1.96-.67l2.22-3.75c.33-.56,1.62-1.12,2.21-1.01,1.75.33.79,4.22-2.38,7.31-2.33,2.27-5.14,1.98-7.67-.28Z"/>
  <path d="M207.97,57.69c-1.44,2.38-4.08,3.62-6.94,3.69-11.21.29-22.25-3.56-31.07-10.42-2.31-1.8-3.49-4.35-3.88-7.15l-1.48.48c-.75.24,1.22,2.97-.77,4.05-.55.3-1.95-.42-2.3-1.02-1.41-2.4-.31-5.34,2.32-6.59,9.97-4.71,29.18,1.96,39.66,8.29,5.48,3.31,11.27,8.1,8.75,12.87-.59,1.12-2.99,2.37-4.35,2.12-.55-.1-1.68-1.44-1.49-1.96.71-1.94,3.29-1.29,3.15-2.93-.05-.59-1.3-1.65-1.58-1.43ZM205.11,56.25c-2.35-3.25-4.45-4.71-7.3-6.3-7.55-4.21-15.57-6.76-24.4-6.75-1.24,0-3.05.83-3.99,1.82,5.84,8.49,18.89,12.14,29.17,13.19,2.28.23,4.44-.41,6.52-1.96Z"/>
</svg>