<?xml version="1.0" encoding="UTF-8"?>
<svg id="Layer_1" xmlns="http://www.w3.org/2000/svg" version="1.1" viewBox="0 0 1984 2164">
  <!-- Generator: Adobe Illustrator 30.3.0, SVG Export Plug-In . SVG Version: 2.1.3 Build 182)  -->
  <defs>
    <style>
      .st0 {
        fill: #fff;
      }
    </style>
  </defs>
  <path d="M900.83,2031.13c-68.54,38.58-187.22,39.26-266.13,26.28-31.6-5.2-75.04-17.17-94.83-38.89-12.68-13.92-11.06-32.23,1.28-45.58,10.77-9.92,23.14-16.89,36.96-23.04,32.77-12.57,66.45-18.17,102.82-21.31l-.02-257.84c-88.23-3.22-175.06-10.7-261.9-27.71-50.37-9.87-97.71-22.12-144.86-41.11-32.29-12.52-86.12-44.31-90.46-74.68-3.12-21.77-2.93-43.29-2.94-65.11-.01-15.18,5.86-29.03,15.44-39.81,23.02-26.53,52.43-40.35,85.08-54-17.88-15.58-28.31-35.65-27.58-58.19,1.07-32.74,27.93-55.17,60.08-51.55.05-9.03-.42-19.92,4.71-25.91,10.39-12.13,25.33-17.73,40.97-21.32,52.83-12.13,107.28-12.22,160.36-1.27,13.19,2.72,24.53,7.94,36.05,13.91,20.71,13.09,14.61,50.73,12.63,80.19l64.18-5.85c-3.7-10.62-5.86-21.24-6.66-32.26,1.67-56.26,28.6-106.21,56.86-153.87-19.03-28.89-20.48-55.83,5.7-77.57-17.13-56.93-22.78-128.16,22.17-167.9,27.76-24.54,76.61-43.82,114.29-33.5,30.5-128.38,85.14-260.91,167.56-364.53,41.69-52.42,99.11-102.27,164.82-117.09,42.23-9.53,84.7-5.72,122.86,14.2,32.76,17.1,59.88,40.12,83.12,68.9,84.45,104.56,126.38,265.34,139.71,397.88,13.56,5.34,24.88,11.52,37.53,19.73l33.59-28.05c15.97-13.34,34.34-23.72,54.04-29.75,11.65-3.56,24.14-.72,32.61,5.54,20.66,15.28,13.46,46.79.09,71.98,21.23,42.96-10.7,82.37-40.74,117,8.83,47.32,6.87,95.78-9.68,141.56l-22.58,51.55c40.73,45.34,56.51,114.59,7.51,157.5-18.83,16.49-41.35,24.59-68.08,26.62l-8.34,86.06c21.75,18.99,24.6,61.84,18.08,89.09-3.99,16.65-16.81,27.84-29.76,38.25,4.6,87.03,19.5,170.69,40.48,254.25,3.59,14.28.88,26.18-12.16,34-17.51,10.5-41.46,7.21-52.42-11.23-23.49-79.12-34.57-159.51-37.53-244.41-30.89,10.88-63.35,18.65-97.57,23.69l6.45,297.79c-.41,12.55-5.95,21.86-13.85,28.41-9.51,7.88-21.59,8.98-33.46,6.43-18.51-3.97-27.47-19.61-25.45-39.03-4.45,13.67-10.65,25.13-21.24,35.15-64.32,60.76-128.18,91.41-218.54,83.22-39.08-3.54-95.31-19-101.87-57.7l-13.7,3.17c-1.01,16.39-10.75,29.34-25.64,37.72ZM1064.78,1316.52l50.97,9.06,13.68-9.49c-1.25-7.39-1.49-13.9,1.41-19.85,2.11-4.34,11.13-6.43,14.95-10.4l19.24-19.97c-14.51-30.02,2.48-54.05,30.03-71.5-4.48-19.63.46-38.88,14.79-51.37,13.81-12.04,33.16-12.17,51.59-6.25l25.34,8.14,80.23-88.36c-.23-6.47-.22-15.52,3.71-19.98l117.53-133.24c-2.85-136.64-40.96-307.02-115.13-422.3-19.94-30.99-43.17-57.59-72.07-79.88-88.51-68.28-191.79-29.58-263.68,46.39-97.74,103.29-162.36,255.82-194.19,394.47,14.57,14.11,20.04,32.23,15.77,52.26,18.34,14.55,23.31,37.94,17.17,60.27,25.55,27.25,20.42,76.64-4.5,104.94-9.61,10.91-22.62,15.67-36.97,14.09-.92,15.12-7.23,26.56-19.86,35.04,4.13,64.19,16.53,127.61,40.79,186.86,64.16,2.83,125.86,7.96,188.45,17.58l-7.01-51.29c.64-5.37,4.92-10.07,9.71-9.88,3.14.12,8.32,4.65,8.92,8.37l9.12,56.3ZM1647.1,863.3c5.8-11.98,8.83-21.84,11.29-33.47-1.13-5.73-2.81-11.89-6.06-15.28-9.46-9.87-31.15-.75-48.19,9.38,17.28,11.87,28.99,22.53,42.96,39.38ZM1593.64,945.8l45.2-67.7c-12.61-19.29-26.96-33.68-47.2-45.79l-65.21,56.42c-40.87,41.48-79.18,83.73-118.02,129.69,29.53,12.49,52.53,32.65,66.51,62.1,41.57-43.53,81.05-87.61,118.73-134.72ZM838.47,1000.77l7,.92c3.32.44,2.61,16.04-20.31,21.78-2.76,6.49-2.83,19.67,1.5,25.43,7.93,10.55,21.76,7.96,30.22-.22,15.21-14.69,19.37-35.81,17.84-56.68-1.02-13.84-7.58-23.04-19.82-29.29-48.01-24.48-83.13,2.73-89.83-8.33-1.18-1.95.22-8.11,2.51-8.9,30.44-10.4,60-14.85,91.44-.94,5.76-15.84-2.5-32.23-17.91-39.82-48.82-24.02-86.81,9.33-91.55-3.5-.91-2.47,1.49-8.54,4.05-9.49,29.48-10.97,59.27-17.69,88.36-6.01,3.13-19.03-10.26-34.44-29.55-36.74-22.36-2.66-43.12,4.3-63.34,13.86-64.14,30.32-63.74,103.99-42.31,166.12,12.05,34.94,34.19,45.18,23.82,54.75-2.21,2.03-10.17,2.66-12.06.06l-22.81-31.36c-10.6,9.89-10.35,25.24-4.38,38.54,11.02,24.55,48.71,51.61,78.45,49.24,13.7-1.09,24.42-10.29,24.3-24.67-20.23.62-39.98-4.3-35.59-16.15,1.06-2.85,7.45-5.34,10.51-4.78l17.57,3.23c7.76,1.43,17.63-2.86,22.67-7.92,4.64-4.68,11.03-17.16,6.67-23.16-9.48-13.03-13.05-26.36-9.27-42.82l-19.45-7.43c-3.59-1.37-4.38-10.59-1.5-13.4,8.61-8.39,24.87,16.36,52.8-2.34ZM1526.83,864.64l-22.19-11.95,1.97,31.97,20.22-20.02ZM1524.51,1082.06c13.16-22.56,24.26-40.68,40.26-57.35l57.22-62.7c15.01-16.45,33.88-48.03,28.93-69.93-10.03,9.15-9.98,20.13-14.31,30.91-8.45,21.07-23.48,38.2-38.72,54.92l-64.77,71.09c-7.89,8.66-14.82,22.65-8.62,33.05ZM1556.68,1150.52l17.94,16.95c27.4-49.54,39.23-104.5,30.98-162.02l-24.33,24.61c3.95,42.33-6.37,81.61-24.59,120.47ZM1463.41,1092.93c-12.46-30.58-35.21-51.78-64.96-62.34l-13.72,15.01c31.49,11.03,53.54,31.28,64.89,61.48l13.78-14.15ZM1496.65,1084.39l-1.94,23.85,47.7,31.4c12.62-28.85,22.95-57.68,20.84-88.34l-22.21,35.59c-5.37,8.6-16.13,12.43-23.86,8.88-9.23-4.24-10.5-13.27-11.23-24.08-3.12,2.72-8.98,8.92-9.29,12.7ZM1374.48,1174.43l57.91-64.27c-8.79-22.56-27.34-38.67-49.49-46.32l-88.16,97.83c29-2.04,54.48.91,79.74,12.76ZM1460.99,1176.26c-20.66-10.28-28.2-19.97-29.26-40.62l-42.34,46.83c21.97,13.39,36.78,31.36,54.8,52.11l16.8-58.33ZM805.73,1190.5l-7.14-44c-15.98,13.79-35.53,14.54-55.51,8.33-17.19,29.43-32.68,59.04-40.64,94.3,38.14-7.01,74.29-36.81,103.29-58.64ZM1274.23,1159.27l-25.09-8.74c-9.9-3.45-21.75-.62-28.89,6.52-6.52,6.52-9.73,16.9-8.65,27.69l50.2-17.18c4.48-1.53,8.02-3.58,12.44-8.3ZM1327.02,1408.28c7.52-12.43-5.85-2.57-20.77-2.42-2.19.02-6.29-4.67-6.05-6.84.2-1.81,2.83-5.64,4.62-6.29l29.56-10.72c12.6,15.36,27.8,23.59,44.92,24.34,17.51.76,35.47-6.17,46.85-20.18,18.14-22.35,15.06-45.37,26.68-44.66,14.16.86,4.41,31.04-7.87,51.2,17.22-.21,29.48-11.01,36.83-25.39,15.86-31.04,15.53-68.74-1.6-99.16-6.4-11.37-17.6-18.23-29.8-18.4l8.94,34.13c.72,2.73-3.9,8.13-6.53,8.25s-8.13-3.39-8.76-6.03c-6.99-29.4-21.83-52.6-43.46-72.68-24.99-23.2-55.8-35.93-90.72-34.39-41.61,1.84-107.78,19.97-128.21,52.45-7.66,12.17-4.19,25.75,8.71,32.7,10.4,5.6,24.39,6.63,36.25,2.37l48.56-17.42,35.49-16.73c3.07-1.45,9.26,5.54,9.14,8.85-.48,13.47-25.13,13.15-51.08,33.33-13.52,10.51-24.94,24.29-29.56,40.13-4.38,15-.78,30.25,13.87,38.09,17.82-23.9,75.18-56.19,79.29-39.82,1.13,4.49-1.15,10.25-5.49,11.67-22.51,7.35-42.04,18.97-57.94,36.08-12,12.92-10.35,31.91,3.53,43.25,14.86,12.14,36.9,14.04,54.62,4.28ZM1494.84,1258.45l15.37-48.13-31.69-24.36-13.14,47.97c13.4,4.67,22.87,13.27,29.45,24.52ZM536.9,1252.2c5,.23,12.32-4.77,16.6-10.52-8.39-6.53-16.27-10.7-26.34-13.35-53.1-13.99-108.69-14.23-162.28-2-12.82,2.92-23.6,7.44-34.49,15.41,3.19,6.4,11.12,11.7,16.34,11.11l24.59-9.7c49.48-11.53,119.29-13.76,165.57,9.05ZM1523.43,1292.13l15.66-49.89-15.13-17.34-17.19,55.91c-.84,2.73.05,8.99.74,12.04l15.92-.72ZM330.18,1288.72c3.96,39.73,17.9,76.35,46.33,102.79,21.98,20.45,53.49,24.9,82.16,21.6,71.7-8.26,97.27-84.13,96.79-151.51-11.79,5.68-23.5,10.47-36.79,13.16-59.35,11.99-135.42,11.01-188.88-12.18-.73,4.59-1.09,8.43-2.6,9.79s-6.45,1.69-8.96,1.89c-21.61-4.94-41.44,5.64-47.43,26.47-4.5,21.98,4.07,43.11,21.78,56.85,13.56,10.52,29.72,15.39,47.74,14.5-1.85-17.29-25.61-5.75-45.75-26.62-12.1-12.54-17.22-32.9-6.81-47.75,9.03-12.88,28.3-15.35,42.43-8.97ZM1545.79,1282.15c5.13-3.46,8.29-9.39,3.68-15.77l-3.68,15.77ZM834.61,1294.47l-9.64-25.69-37.2,25.06,46.84.63ZM1220.28,1317.88c2.57-14.26,6.99-23.08,14.44-34.5-20.85,5.05-39.23,6.18-57.23-6.04l-11.27,12.61c20.39,9.82,33.03,22.19,43.2,40.37l10.86-12.44ZM326.21,1344.06l-10.38-43.14c-1.8-.54-9.16.2-11.94,1.67s-5.63,7.77-5.83,11.29c-.95,17.01,12.34,29.02,28.15,30.18ZM1190.86,1355.23c10.11-5.09,7.77-11.78,6.07-18.26-10.29-20.47-43.08-47.57-52.77-30.57,23.53,8.77,40.45,24.89,46.7,48.83ZM1180,1370.69l-12.25,23.11,45.42,5.07,7.58,26.34,5.35,6.03c1.25,1.41-1.89,6.58-3.4,7.78l-175.08,138.51c-9.03.38-16.2-.81-25.3-2.3l-261.27-42.79c-25.03,9.94-51.64,7.16-72.67-9.35l-241.47-23.98c-3.82-.38-8.54-5.27-8.5-8.16.14-10.5,13.12-5.64,14.84-17.77l2.78-19.58,241.91-117.23c55.99,11.09,105.26-7.9,159.14,4.55,25.24,5.72,48.02,15.7,67.54,32.66,44.14-15.3,92.8-12.76,139.61-2.38l3.97-19.27,22.89-12.21c-65.08-13.15-127.78-19.81-193.01-23.96-48.71-3.1-95.18-5.06-143.33-3.78-19.91,9.1-39.34,15.75-60.41,18.74-18.4.43-35.56-1.55-48.43-15.6l-81.15,7.62c-9.33,34.44-24.25,67.44-54.4,87.77-45.62,30.76-124.84,26.43-159.03-22.65-17.89.63-35.13.23-52.19-7.8-31.71,12.04-72.33,30.51-91.84,56.89-20.76,28.08,1.95,57.22,31.09,74.8,26.29,15.86,53.7,27.51,83.37,36.7,47.85,14.81,95.24,25.51,145.27,33,190.29,28.49,382.53,27.74,572.8-1.06,78.73-11.92,195.31-38.27,257.76-82.68,24.33-17.3,40.03-46.84,20.3-66.97-38.15,4.57-68.04-9.05-75.3-47.04-12.96-4.26-27.2-14.76-39.91-14.13l-22.68,1.12ZM1121.02,1394.51l-12.28,2.11-37.2,39.61c23.23-10.56,45.19-18.04,69.64-20.27,8.72-23.02,19.53-43.48,32.18-63.24-5.4-13.39-15.62-23.84-28.91-28.3-19.82,14.72-40.4,26.7-62.5,38.02-2.97,23.09-9.73,44.55-17.86,65.28l37.09-38.32,1.28-13.82c.41-4.4,9.89-8.55,14.03-7.22,5.32,1.71,10.3,6.37,11.65,10.97,1.5,5.09-2.57,14.42-7.13,15.2ZM1229.85,1358.33l-8.68-17.19-8.56,10.41,17.25,6.78ZM566.95,1453.93c62.66-8.68,116.86,2.56,160.6,46.66l183.99-119.08c-18.16-15.09-40.54-22.87-63.68-27.73-49.89-8.47-95.61,7.55-147.79-2.37l-213.96,104.58c27.5,3.49,53,.43,80.85-2.07ZM1501.52,1440.28l7.67-72.29c-9.96-4.59-9.58,11.88-24.5,26.36l-4.24,37.16,21.08,8.76ZM1161.71,1407.64l-6.98,17.52c-3.8,9.54-31.54,4.08-67.92,21.68l-35.25,17.06c-2.8,1.35-9.99-.51-11.96-2.79-1.69-1.96-2.87-8.43-1.75-11.37l24.47-64.43c-48.91-9.48-94.91-13.65-140.5,4.67l-154.47,101.77c35.88-6.34,69.29-5.3,103.86,3.06l66.08,21.85c31.54,10.24,62.87,16.25,95.64,19.06l158.93-125.04-30.15-3.04ZM1376.44,1447.38c8.9-4.35,13.69-14.49,15.93-23-16.46,1.53-30.07-.48-43.79-8.07l-10.67,10.03c5.18,12.75,6.63,22.94,7.14,36.38l31.38-15.33ZM1103.96,1513.85l102.03-80.35c.44-4.35-.35-9.27-2.43-13.75l-161.71,126.41c.05,4.88.85,8.92,2.66,14.38l59.44-46.7ZM1515.67,1489.36c10.01-16.92-26.67-37.97-51.33-44.17-3.46,52.61-49.42,78.4-94.43,96.65-22.46,9.1-45.44,14.31-67.76,26.08,62.68,2.79,185.63-31.4,213.52-78.56ZM569.24,1478.69c51.97-6.27,99.38,5.42,145.12,29.84-30.82-32.52-74.71-46.73-118.41-42.94l-53.97,4.69c-25.43,1.9-48.75,2-74.22-1.62l-.49,9.57c35.06,4,66.63,4.72,101.97.46ZM678.97,1506.36c-33.21-16.31-68.99-19.17-104.97-16.5l-28.4,3.42,133.38,13.07ZM253.9,1572.27c32.01,15.91,64.1,27.79,98.98,37,56.92,15.03,113.16,25.4,172.09,32.03,190.3,21.43,411.85,16.84,599.09-25.08,44.19-9.89,86.07-22.56,127.23-40.75,33.89-14.98,79.87-41.99,75-80.07-20.07,19.12-41.6,33.27-66.62,44.37-48.17,21.36-97.78,35.05-149.94,45.97-191.24,40.03-416.01,44.39-609.92,18.63-59.8-7.94-116.88-18.76-174.36-35.89-44.81-13.35-91.74-32.15-125.62-64.71-6.39,30.03,26.92,55.02,54.06,68.5ZM1026.94,1549.57c-39.41-2.98-73.47-13.45-109.7-24.78l-55.02-17.21c-40.72-9.85-82.3-7.88-120.65,7.73l26.4,3.17,261.4,42.76-2.43-11.68ZM1227.19,1622.39c80.35,2.72,157.6-2.74,230.13-35.11,20.47-9.13,39.55-20.86,55.21-36.64,9.95-10.03,9.76-25.24,9.05-38.4-12.73,11.31-25.74,21.81-41.43,29.94-67.39,34.92-137.54,45.78-213.03,46.29-15.42,9.22-27.84,19.8-39.93,33.92ZM1531.4,1845.3l-30.49-151.81-11.21-102.21-26.46,13.3c1.8,83.27,13.14,165.11,36.89,244.8,2.75,5.7,13.25,7.28,18.19,6.59,4.24-.59,12.39-5.09,13.07-10.68ZM1079.29,1828.93c-10.55-16.63-10.69-36.25-2.09-51.8,7.73-13.98,22.74-21.18,37.72-26.82l-.29-59.17c2.72-19.53,7.27-38.35,13.82-56.65l-74.37,14.38-13.76,89.58c17.97,13.22,23.27,36.66,14.99,57.68l17.25,40.37,6.73-7.56ZM1336.43,1926.72l-6.31-288.52-27.15,2.13-2.57,301.38c-.08,9.74,17.4,11.74,23.63,9.28,9.17-3.61,12.66-12.01,12.39-24.27ZM1261.81,1802.59l-4.23,19.14c13.48,25.53,18.43,51.68,24.34,80.7l3.33-261.23c-3.51-.52-7.34.48-10.27,2.48l5.27,132.29c.93,12.83-5.71,22.56-18.44,26.62ZM1262.42,1785.01l-5.28-143.91-26.97.25,1.47,111.57c15.05,6.38,20.95,17.63,30.77,32.09ZM1213.48,1745.69l-1.13-102.86c-17.72,31.12-18.52,65.73-15.92,100.01l17.05,2.85ZM1024.34,1729.6l11.57-78.05-31.14,4.46-10.75,67.54,30.33,6.05ZM979.81,1662.06l1.98,19.42c10.1-29.09-2.53-24.85-1.98-19.42ZM874.55,1767.83c7.59-15.11,19.55-24.72,35.37-31.32-5.12-23.11-9.11-46.32-9.67-70.07l-126.77,5.32.5,148.25c31.56-21.46,67.04-22.35,101.93-12.73-4.77-13.76-5.35-26.53-1.37-39.45ZM755.64,1971.14l-.03-299.4-56.92-.24.18,299.13c16.49,12.83,40.22,13.71,56.76.51ZM773.6,1846.18l.11,82.13c49.14,4.75,114.15,12.28,146,48.89l16.97-4.7c-3.24-34.74,6.2-67.49,29.01-92.81,23.05-25.59,55.74-35.73,90.33-34.18-2.76-11.85-7.49-23.78-12.49-33.69l-28.02,16.36c-4.28,2.5-11.55-2.65-11.78-7.2-.69-13.23,21.1-9.93,34.19-30.89,7.56-12.11,4.55-27.05-6.34-35.7s-21.84-11.95-36.39-12.9c3.65,15.43,16.51,22.94,3.31,33.54-20.27,16.28-50.63,18.72-72.76,3.29l-11.36-25.55c-9.36,5.25-18.24,11.98-22.67,20.9-7.56,15.22.31,32.14,15.07,39.73,30.43,15.65,57.65,1.05,57.79,17.39.03,3.16-5.2,8.84-8.42,8.86l-26.65.09,9.19,12c1.87,2.44-.3,9.9-3.04,11.32-2.89,1.5-10.06.5-12.27-2.22-19.24-23.78-44.93-37.69-75.42-41.24-27.58-3.86-56.62,4.59-74.35,26.59ZM1148.76,1902.12c-28.01-29.32-66.06-41.25-105.55-39.21-33.4,1.73-62.51,18.31-77.89,48.59-12.81,25.24-16.4,55.73-5.04,82.42,4.73,11.12,17.93,18.42,28.51,23.23,22.8,10.36,46.55,13.09,71.39,14.22,77.52,3.52,137.76-30.2,191.62-83.48,7.28-7.2,12.65-17.41,12.41-27.76-.7-29.83-6.59-58.58-19.63-85.77-17.31,14.05-39.34,23.54-40.92,10.47-1.76-14.62,20.14-10.17,34.18-29.02,11.51-15.45,5.31-37.36-11.67-46.03-8.49-4.34-16.25-6.24-26.94-8.73l4.22,16.26,8.73-.7c3.86-.31,3.04,16.53-15.33,26.29-49.91,26.54-94.84-11.88-83.81-16.61l6.87-2.94-2.41-15.44c-7.21,3.31-15.23,7.11-20.6,12.89-13.83,14.88-8.95,38.47,8.09,48.1,23.57,13.31,42.35,6.67,40.76,19.98-1.5,12.52-29.91,6.82-48.53-4.13-1.75-1.03-6.04-3.68-7.18-2.33s-3.1,4.96-3.48,6.3c29.43,5.26,85.3,35.4,74.54,53.09-1.56,2.56-9.5,3.28-12.35.3ZM853.81,1959.9c-26.14-7.58-52.34-11.45-79.83-14.26l-.84,28.48c-.17,5.88-8.18,14.36-13.86,16.95-34.4,15.68-77.47,2.27-78.08-19.41l-.72-25.86c-34.79,3.79-66.79,9.98-98.49,22.06-15.94,6.08-35.09,19.39-32.89,30.82,3.37,17.51,46.82,32.55,71.07,37.53,65.65,13.46,132.66,14.16,198.85,3.1,29.52-4.93,90.33-22.57,89-44.13-.91-14.74-33.63-29.31-54.2-35.28Z"/>
  <path d="M876.84,479.22c-10.84,14.2,3.21,42.41-30.95,56.16-16.32,6.57-33.55,2.57-44.9-8.06-20.46-2.75-34.19-.82-40.38-23.78-8.83-5.18-13.64-13.49-13.83-23.88-8.94-7.84-13.39-17.48-10.59-29.79-9.63-14.87-24.41-25.42-42.01-30.14-40.2-10.8-72.15-36.79-88.43-75.52-20.49-48.75-11.57-103.2,23.01-142.31s87.37-54.68,137-39.97c78.03,23.12,116.65,106.55,84.59,180.83-7.1,16.44-7.61,34.15-2.41,51.11,10.9,4.88,17.15,13.76,16.35,25.96,7.55,6.92,11.89,15.46,11.34,26,8.42,9.82,9.28,22.86,1.23,33.4ZM719.65,293.75c.17-5.79,4.83-11.67,10.25-12.9,14.12-3.2,26.23,18.71,22.74,42.49l19.63.46c-3.86-22.34.03-43.75,14.69-42.69,4.76.34,10.72,4.41,12.52,9.43,5.42,15.16-1.24,30.17-15.37,38.59,5.32,30.68,15.4,60.06,32.94,85.8,7-4.79,15.37-13.38,13.85-20.53-4.39-20.71-3.16-38.85,5-58.36,13.68-32.75,13.43-69.14-3.33-100.57-27.29-51.16-86.04-74.8-140.62-56.96-52.07,17.02-86.54,69.08-80.23,125.59,5.18,46.36,36.41,86.22,81.45,98.41,22.44,6.07,41.39,16.31,54.28,36.45,7.85,1.99,18.04,1.09,25.77-2.2-10.5-29.68-27.14-52.7-45.39-76.52-14.06,5.14-29.9,2.91-38.63-9.34-3.59-5.03-3.98-12.89-.91-17.67,7.49-11.64,26.27-2.31,41.04,13.48,4.25-4.84,8.53-11.65,11.21-17.94-14.06-7.95-21.33-19.49-20.88-35.02ZM742,316.37c1.41-10.36-.76-20.6-10.43-26.28-3.94,11.06,1.59,20.52,10.43,26.28ZM782.62,315.98c9.59-7.54,11.24-18.18,3.3-25.17-5.23,8.1-6.02,18.19-3.3,25.17ZM808.82,421.53c-18.49-26.68-28.25-56.2-35.02-86.69l-23.21-.69-13.87,20.65c19.36,23.68,36.05,49.41,47.09,79.34l25.01-12.6ZM718.72,351.52c-5.56-6.82-12.35-11.75-21.65-13.03.26,12.21,11.51,15.47,21.65,13.03ZM853.51,481.6c6.57-5.6,11.62-13.14,12.91-21.73l-13.71,10.55c-1.21.93-5.68.96-6.25-.45s-.29-5.88.83-7.18l10.09-11.67c3.63-4.2,1.81-13.73-2.32-14.64l-15.04,13.03c-1.48,1.28-7.55.99-8.02-.72s.35-6,1.54-7.21l10.78-11.05c5.78-5.93,5.51-15.21.26-20.76-23.49,28.35-56.04,45.27-92.77,46.16,1.33,29.74,62.49-4.55,60.07,7.04-2.08,9.98-29.6,15.89-47.38,17.74-1.14,17.6,27.81,9.25,51.39,1.23,2.23-.76,7.45.98,7.59,2.88.78,10.48-27.45,16.14-45.65,19.17,12.2,15.4,56.74-6.24,75.66-22.39ZM819.39,521.06c14.53,5,32.83-2.7,35.63-18.87l-35.63,18.87Z"/>
  <path d="M416.95,1183.93l-6.91,5.24c-1.66,1.26-6.23-1.47-8.54-3.78,9.21-13.59,15.22-28.4,11.73-44.67-3.06-14.28-14.01-22.9-26.38-29.74l-37.07-20.5c-31.25-20.66-40.81-59.13-23.23-91.99,12.85-24.01,36.94-42.57,65.5-40.87,24.41,1.46,51.11,21.34,65.87,3.19,14.49-17.83-2.48-37.38-22-52.56-24.91-19.37-29.79-52.01-11.17-77.86,11.89-18.46,31.51-28.96,53.09-34.2l5.26,3.71c6.78,4.78-21.89,10.31-27.45,39.99-3.9,20.85,6.1,37.63,25.71,45.16,12.88,4.94,26.34,11.13,36.1,21.51,18.79,20,23.19,49.91,11.8,74.66-8.92,19.38-27.08,30.75-47.79,34.47-40.3,7.24-70.04-17.21-87.79,9.37-7.39,11.06-6.75,26.26,3.41,36.05l21.22,20.44c14.79,14.24,24.99,31.45,24.34,51.4s-9.03,38.32-25.71,50.97ZM424.77,1155.91c13.08-20.8,6.56-46.19-10.21-62.51l-24.18-23.52c-13.31-12.95-16.08-32.91-7.52-47.9,19.55-34.24,54.51-14.62,87.15-15.7,22.76-.76,44.02-13.44,51.24-34.59,10.59-31.01-4.81-61.23-34.64-72.31-10.81-4.01-22.27-9.66-29.99-17.86-16.67-17.7-15.16-42.38-4.22-63.69-14.58,9.45-25.16,23.93-27.65,40.92s7.11,32.85,20.97,43.69,27.37,24.25,28.39,43.58c.64,12.08-6.95,22.26-15.67,27.79-22.18,14.09-47.13-5-68.42-5.47-25.74-.57-46.17,17.42-55.97,39.71-12.6,28.64-2.39,59.8,25.1,75.13l39.51,22.04c18.69,10.43,28,29.48,26.11,50.69Z"/>
  <path d="M464.68,1175.84l-6.13-1.29c-1.45-.3-2.24-4.82-1.33-6.04,14.02-18.79,24.55-32.78,6.52-56.26-6.35-8.28-11.47-16.88-15.6-26.48-2.93-20.03,7.43-38.12,25.67-46.6l5,.88c5.03.88-13.75,23.38,9.24,39.88,20.99,15.06,27.48,40.64,14.91,63.42-8.07,15.1-21.99,24.75-38.29,32.5ZM497.19,1106.11c-11.15-18.94-31.17-24.27-32.02-46.34-10.72,12.58-6.93,28.98,3.68,41.3,12.11,14.05,18.15,30.29,13.07,49.84,14.43-10.52,19.16-26.99,15.26-44.8Z"/>
  <path class="st0" d="M569.24,1478.69c-35.34,4.26-66.91,3.54-101.97-.46l.49-9.57c25.46,3.62,48.78,3.52,74.22,1.62l53.97-4.69c43.7-3.8,87.6,10.41,118.41,42.94-45.74-24.42-93.15-36.1-145.12-29.84Z"/>
  <path class="st0" d="M678.97,1506.36l-133.38-13.07,28.4-3.42c35.98-2.67,71.76.18,104.97,16.5Z"/>
  <path class="st0" d="M326.21,1344.06c-15.82-1.16-29.1-13.17-28.15-30.18.2-3.52,3.06-9.82,5.83-11.29s10.15-2.22,11.94-1.67l10.38,43.14Z"/>
  <polygon class="st0" points="834.61 1294.47 787.78 1293.83 824.98 1268.77 834.61 1294.47"/>
  <polygon class="st0" points="1229.85 1358.33 1212.6 1351.55 1221.17 1341.14 1229.85 1358.33"/>
  <path class="st0" d="M1545.79,1282.15l3.68-15.77c4.61,6.38,1.45,12.32-3.68,15.77Z"/>
  <path d="M912.49,973.25c-38.4-43.98-38.48-129.42-25.09-187.37l-9.38-5.99c-2.7-1.73-2.83-10.49-2.23-13.68,2.87-15.23,16.83-22.71,27.53-30.55,17.52-42.27,54.27-97.05,100.48-85.38s58.19,77.94,61.2,126.33c24.28-129.07,59.31-255.37,104.08-379.04,1.03-2.83,9.27-4.29,12.11-3.64,3.25.74,6.73,7.21,4.96,12.29-32.02,92.25-60.35,184.13-82.39,279.41l-21.83,106.55c-14.2,81.8-22.28,162.79-27.6,245.64-.42,6.52-3.83,10.16-9.41,10.44-4.17.21-10.12-4.56-9.66-10.25l12.17-148.44c-16.51,37.87-30.1,73.93-65.2,94.55-23.65,13.89-51.58,9.95-69.74-10.85ZM892.87,764.19c51.14-19.11,101.93-17.05,152.32,5.04-.74-30.96-8.06-71.2-28.4-91.59-14.46-14.5-33.31-13.21-49.2-1.82-18.47,13.24-31.42,32.81-40.36,53.66l27.03-.17c2.38-.01,6.36,5.57,5.3,7.47s-4.64,3.88-7.47,4.58c-21.73.55-45.55,2.36-59.23,22.83ZM898.62,833.77c-3.44,40.66.93,92.19,26,125.44,11.69,15.5,31.5,19.35,48.21,9.46,49.33-29.21,70.95-121.67,72.71-179.63-19.05-7.77-37.36-14.53-57.16-17.13l-41.98,22.21,41.48,10.45-11.72,33.53c-4.79,13.7-15.6,24.42-27.57,32.35-14.89,9.87-34.08,5.16-42.19-11.16-3.73-7.51-5.36-16.29-7.78-25.53Z"/>
  <path d="M1219.04,974.8c-50.71,21.95-44.3,56.15-59.85,53.24-5.7-1.07-8.73-7.54-6.59-13.06l3.74-9.64c-10.7-8.02-19.47-17.57-26.04-29.79-28.94-53.83-28.26-121.14-16.58-179.97-9.18-1.53-14.65-7.46-13.73-15.54,1.87-16.38,13.9-27.53,29.31-32.76,16.68-43.21,57.9-94.55,104.58-84.83,19.23,4,35.36,17.5,45.49,34.14,42.04,69.06,32.42,178.33-1.74,250.62l27.14,6.24c5.96,1.37,9.52,8.9,6.5,14.34-2.66,4.79-8.44,5.98-14.36,3.81-26.12-9.57-52.91-7.59-77.86,3.21ZM1121.52,774.14c54.92-14.85,112.15-9.49,165.63,17.48-.32-31.93-8.76-62.4-25.62-88.72s-46.75-29.99-70.46-11.54c-16.19,12.6-28.29,29.22-37.37,49.07l21.59.42c2.32.05,6.52,4.06,6.4,6.19s-4.07,5.55-6.22,5.66c-19.38.96-47.25,4.1-53.94,21.44ZM1124.69,855.41c-1.09,31.48,2.44,63.35,13.88,93.92,6.39,16.14,15.12,30.54,28.72,40.88,22.57-27.4,54.45-40.73,88.75-43.68,22.18-41.37,31.65-85.86,32.81-132.8-23.81-12.78-47.54-23.01-74.54-25.73l-38.95,22.08,40.82,10.93c-5.59,28.14-17.93,59.45-45.5,69.53-21.58,7.89-38.14-10.21-46-35.13Z"/>
  <path d="M1194.64,1090.87c-79.8,42.96-180.08,48.45-260.49,3.26-2.49-1.4-5.54-6.83-5.74-9.33-.24-3.09,3.54-7.07,7.92-8.59,60.26,32.32,128.16,39.23,194.16,20.34,42.16-12.07,80.21-31.85,110.2-64.13l-17.18-1.29c-3.23-.24-8.27-3.44-9.13-6.48-.81-2.86,2.43-9.99,5.43-10.68,33-7.65,63.33,15.8,65.34,49.5.2,3.28-5.44,8.22-8.39,8.37-13.2.67-8.33-18.08-20.19-29.5-19.23,20.69-38.21,35.77-61.92,48.54Z"/>
  <path d="M1296.2,614.14c-39.4,14.87-120.82,44.57-137.66,7.23-2.35-5.21.48-12.34,5.11-14.37,6.39-2.8,9.69,2.35,15.44,6.44,9.62,6.85,26.85,5.56,38.8,2.75l73.18-17.24c3.25-.76,8.41,2.36,9.79,5.37,1.15,2.51-1.56,8.65-4.66,9.82Z"/>
  <path d="M977.38,608.48c-25.88,10.16-34.65,30.07-44.15,21.78-15.43-13.46,53.26-72.83,115.45-35.47,6.21,3.73,8.75,11.08,5.46,16.21-3.91,6.1-10.6,5.17-16.69,1.39-17.53-10.89-39.77-11.88-60.07-3.91Z"/>
  <path d="M1120.77,1164.76c-49.17,22.86-109.62,8.13-102.66-9.39,1.87-4.71,7.79-6.5,12.93-4.33,26.66,11.27,55.42,9.61,81.76-2.4,3.81-1.74,10.36.11,12.19,3.25,2.19,3.76.39,10.73-4.22,12.87Z"/>
  <path d="M1000.87,1508.14c-1.71,1.03-7.81.22-9.24-.8-1.79-1.26-2.37-6.48-1.26-8.52l9.67-17.8-28.1,9.16c-2.27.74-8.23-.12-9.43-1.95-1.43-2.19-.3-7.63.93-10.12l2.61-5.29c2.89-5.87-43.68,21.52-58.15-11.96l-29.52,5.71c-2.74.53-9.09-1.62-11.1-3.01-2.33-1.61-3.63-7.29-2.56-10.71,9.98,5.25,15.23,5.63,24.42,2,7.49-2.96,20.63-5.73,25.9,1.7,6.45,9.09,12.89,14.19,25.28,11.18l23.84-5.78c2.76-.67,9.88,1.73,11.02,4.32s.29,7.92-.79,13.24l23.16-8.28c2.29-.82,7.23.19,9.05,1.44,2.12,1.45,3.52,7.67,2.43,10.39l-4.67,11.61c22.16-17.22,40.2-10.24,37.33-3.5-2.55,5.99-10.1-1.53-22.55,5.96l-18.25,10.99Z"/>
  <path d="M655.67,241.78c-23.94,38.23-8.83,67.58-18.63,67.14-2.05-.09-6.06-3.18-7.2-5.03-3.03-24.53,1.91-48.2,15.71-68.01l7.85-2.86c2.12-.78,3.78,6.34,2.27,8.76Z"/>
  <path d="M671.49,222.43c-1.47,1.06-5.94,1.07-7.03.17-1.36-1.12-2.1-5.9-.97-7.26,6.63-7.97,15.85-11.87,19.61-7.53,1.03,1.19.57,5.86-.7,6.77l-10.91,7.85Z"/>
  <path d="M646.47,337.7c-7.83,3.74-14.29-13.37-7.54-17.09,6.92-3.82,15.66,13.21,7.54,17.09Z"/>
</svg>