<?xml version="1.0" encoding="UTF-8"?>
<svg id="Layer_1" xmlns="http://www.w3.org/2000/svg" version="1.1" viewBox="0 0 1984 2162">
  <!-- Generator: Adobe Illustrator 30.3.0, SVG Export Plug-In . SVG Version: 2.1.3 Build 182)  -->
  <defs>
    <style>
      .st0 {
        fill: #fff;
      }
    </style>
  </defs>
  <path d="M1097.09,1992.97c-61.57,11.8-189.66,25.78-215.93-33.82-9.89-22.44-5.84-46.43,3.03-70.13l-238.41,48.34c-22.62,4.59-41.88,2.44-62.86-6.75l-344.36-150.94c-9.21-4.04-14.67-19.08-15.5-27.98-2.23-24.08-3.32-46.68-1.26-70.29,1.43-16.35,14.44-32.52,30.48-35.06l149.88-23.72c-3.68-18.77-1.51-34.48,2.32-52.41l74.87-350.57c5.71-26.74-17.72-46.64-37.77-63.32l-19.67-16.37c-2.84-2.37-2.78-12.05-.86-15.04,2.13-3.32,7.45-8.58,12.38-9.62,33.27-7.02,64.31-15.94,98.27-21.31,72.6-11.48,145.1-11.35,218.27-6.43,25.4,1.71,49.37,6.12,74.57,11.05l-.07-184.52-46.89,11.56c-69.02,12.64-137.86,11.78-206.92-.19-18.32-3.18-35.63-7.35-52.33-13.45s-22.21-17.78-27.48-32.93l-44.75-128.79-16.91,4.95c-2.78.81-3.79,9.64-4.4,12.62l.89,78.19c1.77,14.77-8.73,25.95-24.01,25.96-8.14,0-21.54-4.19-24.18-13.48-2.57-36.11-2.52-71.85,1-108.11,1.61-16.64,11.12-32.65,27.22-36.41l25.61-5.99-9.48-26c-22.2-9.81-17.6-18.62-17.5-42.58l-43.52-2.17c-16.3-.81-25.95-14.37-26.31-29.2l-2.16-87.66c-.55-22.38,15.11-34.22,35.84-34.43l289.92-2.87,416.55-.34c-10.02-13.55-19.69-25-25.57-39.74-15.77-39.52-14.17-82.69,2.06-122.08,13.97-33.9,40.31-53.6,73.66-68.69l-1.06-24.3c-.53-12.1,4.68-23.84,16.19-28.32l27.3-10.63c.99-15.11,8.35-27.99,23.57-32.46,58.49-17.19,120.72-18.51,179.22-.8,7.75,2.35,19.06,7.38,20.52,14.74l3.77,19c10.69,3.38,23.79,8.14,31.61,13.64l4.06,4.49c.95,1.06,3.78-.78,6.12-2.27-6.25-9.68-2.86-18.08,4.44-24.56,9.77-8.67,20.58-8.7,31.35-3.63,22.72-12.42,45.68-21.93,71.37-25.88,37.12-5.72,74-7.29,111.44-3.95,48.38,4.31,91.12,28.49,106.3,75.61,5.99,18.58,9.87,37.21,11.17,57.27,3.88,59.84,6.79,117.67,6.25,177.85l-1.67,185.03-7.06,84.69c-1.88,22.5-12.26,43.81-29.22,58.74-18.9,16.64-43.04,23.55-68.14,26.01-8.38,14.46-8.53,28.75-31.82,27.15l-.06,112.69c4.9,1.25,11.3.46,15.87-2.81,10.42-7.44,3.29-24.67,12.48-40.43,5.15-8.84,14.12-12.39,23.92-10.89,7.59,1.16,16.33,9.42,17.71,19.16l3.74,26.34c16.11,18.84,16.49,45.62-.78,64.08l-3.42,26.54c-.97,7.53-8,15.48-13.38,17.99-7.4,3.45-19.46,2.69-25.09-3.57-14.8-16.46-4.11-35.75-14.31-44.91-4.37-3.92-11.45-5.35-16.66-3.42l-.33,705.19c0,18.62-14.09,32.59-30.62,36l-148.81,30.74c25.8,14.7,33.92,41.99,17.82,64.37l.4,2.6c29.94-8.06,60.08-6.45,87.35,8.7,40.07,22.26,59.68,72.29,43.06,115.68-11.03,28.79-54.87,40.92-87.53,42.67-62.04,3.32-146.31-4.37-199.66-34.26-15.45-8.66-22.35-22.59-22.89-40.32-.92-30.46,7.56-60.4,16.52-89.33-9.36-10.49-14.23-23.81-9.46-39.29l-119.06,23.91c-3.96.79-9.35,4.3-10.68,7.24-4.11,9.16,15.57,43.28,15.03,91.6-.21,18.94-7.81,34.6-24.78,43.26-21.98,11.21-45.12,19.07-69.83,23.8ZM1377.87,185.5c2.56-5.5-.64-10.93-6.61-13.06-59.45-21.24-116.05-17.62-176.21-1.8-6.98,1.84-12.17,8.3-12.75,14.81,64.99-11.06,130.71-11.93,195.57.06ZM1703.01,717.99c-2.03,17.57-14.55,28.03-32.51,29.36l1.84,50.09c46.83-5.5,76-24.19,82.82-74.3,6.82-50.12,7.28-98.81,8.18-149.7,1.77-99.84,1.02-197.74-6.7-297.27-1.47-18.89-5.46-35.81-11.69-52.91-15.41-42.25-56.97-59.27-101.05-61.85-51.8-3.03-114.46.67-159.6,25.7,11.11,13.04,18.32,24.48,23.98,39.8,22.4-11,46.41-15.37,71.28-17.45,27.39-2.3,54.24-2.93,80.39,4.55,21.61,6.18,37.97,21.52,40.5,43.67l7.15,62.52c5.01,92.42,4.58,183,3.38,275.64-.54,41.59-1.46,80.58-7.97,122.16ZM1457.23,187.95c-2.24.43-5.24,3.57-8.68,7.37,20.8,13.78,32.96,33.98,37.28,58.84,32.66,6.79-11.19-69.59-28.59-66.2ZM1293.54,231.28c43.63-2.3,84.82,5.19,126.34,14.27.39-7.91,2.57-19.31-.86-27.1s-16.31-11-24.63-13.17c-57.36-14.95-115.75-16.85-174.54-10.11-25.53,2.93-81.41,11.78-81.02,27.43l.59,23.86c43.79-10.52,85.9-14.74,130.03-15.02l24.08-.15ZM1460.3,262.72l10.61-8.73c-4.04-14.67-10.89-27.68-21.18-38.94-3.83-.32-13.52,4.83-13.66,9.05l-.92,27,25.15,11.62ZM1608.87,482.98c16.64.04,31.41,14.89,31.44,30.97l.28,200c15.11-1.2,24.1,6.01,25.8,18.31,11.85,2.74,20.54-6.84,22.17-18.26,5.28-37.13,6.8-72.24,7.43-110.22,1.66-100.49,2.06-199.04-4.58-299.12l-7.34-48.27c-5.47-35.99-70.16-36-107.34-31.78-22.56,2.56-44.34,6.8-64.38,17.68.54,4.5,1.36,13.73-1.18,16.72-5.86,6.9-17.83,12.49-25.71,11.36-5.36-.76-7.35-2.27-12.31.45,22.61,17.81,37.66,38.99,45.36,66.63,13.96,50.08,7.26,105.43-29.68,145.2l120.04.32ZM1504.18,340.93c-7.61-21-16.15-35.26-28.68-48.51-18.2-16.06-39.4-26.63-63.24-32.93-43.46-11.49-87.06-14.83-132.23-14.34-82.03.89-197.01,7.64-220.04,97.19,145.33,37.54,299.91,43.94,444.2-1.41ZM1507.52,355.29c-147.39,45.12-302.58,40.13-451.57.62-7.96,47.92,2.86,96.84,42.48,126.88l367.06.03c38.15-27.65,51.12-80.97,42.03-127.53ZM1625.42,1200.93l-.27-203.54c-7.65,14.68-16.91,20.7-31.12,21.46-8.41,10.41-17.66,22.34-30.09,24.97-15.22,3.22-29.56,1.26-41.75-8.22-20.55-15.99-28.48-41.66-26.13-67.7,2.14-23.62,14.17-45.76,35.04-56.4,25.44-12.97,47.98,2.23,63.85,21.01,10.51,3.42,24.18,7.69,30.1,22.9l.07-439.11c0-9.84-7.13-18.46-17.75-18.46l-927.17.23-315.76,2.69c-9.92.08-17.67,8.2-17.41,17.09l2.44,84.52c.21,7.42,2.06,20.65,14.05,21.05l304.61,10.18,453.41-4.65c46.96-38.1,106.58-51.55,159.21-21.55,26.04,14.84,47.17,34.83,63.73,60.23,23.1,35.41,40.53,72.49,55.75,112.17,39.06,101.89,52.22,209.11,56.27,316.77,69.24,10.38,135.37,40.85,168.93,104.39ZM1314.02,1503.17c-20.51-68.6,31.3-142.57,95.31-165.82,16.85-58.42,26.12-117.03,30.1-177.4-7.77-.56-15.03-2.06-21.62-5.36-13.01-9.89-19.22-24.58-13.39-39.15,5.68-14.19,18.77-22.7,36.64-20.3-4.74-141.52-29.55-282.31-100.02-403.91-15.82-27.29-35.32-49.82-61.72-66.59-76.24-48.43-149.9,6.64-202.85,67.98-32.85,38.05-59.09,79.58-80.81,125.37-57.92,122.1-83.42,256.88-73.72,391.76,5.65,78.54,25.28,159.01,67.36,225.05,50.28,78.93,143.24,134.12,237.54,113.99,32.69-6.98,61.53-24.01,87.17-45.62ZM920.76,662.9c1.71-3.62,1.81-9.83,1.82-16.5-9.3-.34-17.56.76-27.1,3.08-30.88,7.51-60.79,12.57-92.88,15.34-89.45,7.73-178.26,7.65-267.5-1.88-40.08-4.28-76.19-11.31-115.15-22.44l-.07,23.59c13.72,5.82,25.7,9.75,40.1,12.43,39.85,7.43,78.75,10.46,119.66,12.68,89.25,4.83,177.17,3.62,265.9-7.21,22.52-2.75,71.08-10.29,75.24-19.09ZM851.19,1174.73c-2.11,7.53-1.21,19.45.44,27.21l24.16,113.82c16.63-11.63,28.25-26.07,37.76-43.56-20.97-141.48-4.19-283.84,48.55-416.08,24.88-62.38,57.51-120.04,100.45-171.29l39.04-40.84-165.04,1.83c6.75,34.5-15.27,28.56-19.29,41.56l-58.97,190.8c-3.69,11.93-7,21.02-18.18,28.21l-.49,196.56c8.96,2.77,16.18,5.84,20.01,10.87,3.57,4.7,4.52,14.73,2.94,20.36l-11.38,40.55ZM597.17,914.17c65.04,8.26,127.95,7.1,190.78-5.87,18.01-3.72,34.05-9.63,50.48-18.61l62.88-201.92c-115.57,21.76-234.36,22.87-349.14,14.63-38.07-2.16-72.67-6.82-110.82-14.45l4.71,18.25,24.06-2.4c14.8,3.48,22.82,23.4,13.28,35.66-4.45,5.71-13.86,6.67-22,8.37l48.48,138.36c5.44,15.53,60.21,24.55,87.3,27.99ZM410.55,761.27c.46-10.55,6.99-20.25,16.68-22.1l38.72-7.41c3.18-.61,7.22-3.95,7.02-6.47-.16-2.1-4.99-6.84-7.78-6.43l-50.41,7.47c-12.13,1.8-19.9,11.54-21.18,24.11-3.39,33.47-2.83,67.51-2.3,101.45,2.37,2.87,8.41,5.13,11.57,5.1,2.92-.03,8.39-4.47,8.29-7.79-.93-29.73-1.95-57.3-.61-87.92ZM1651.53,734.49c-.96-3.71-5.29-6.48-10.94-6.66l-.25,97.83c24.39-1.41,18.78-61.74,11.18-91.17ZM1688.66,1039.84c2.08-.82,6.08-4.61,6.45-6.89l4.92-30.46c15.74-15.29,15.03-37.33.22-52.96l-4.02-29.91c-.41-3.04-6.17-7.47-9.04-6.91-2.47.48-7.2,4.74-7.46,7.35l-1.97,19.83c-.82,8.29-3.8,12.92-10.1,18.15-9.6,7.97-9.65,26.09-.59,34.5,6.7,6.22,10.15,12.28,10.13,21.61-.03,16.41,3.34,28.88,11.47,25.68ZM1532.66,950.51c3.39-6.73,11.92-15.06,19.38-15.43l24.46-1.24c-7.55-9.07-17.61-13.67-29.52-12.57-8.47.78-18.01,7.16-24.26,15.89-16.7,23.32-15.97,55.79.64,79.24,5.96,8.42,15.41,14.01,23.63,14.56,10.97.72,20.53-1.81,28.31-12.06l-22.9-2.01c-20.62-1.81-34.91-36.27-19.76-66.37ZM1607.92,998.69c-8.33-2.11-14.18-2.99-17.47-5.87-6.85-6.01-7.94-25.24-.56-32.06,3.88-3.58,11.26-4.78,17.49-6.15-5.73-9.23-17.97-6.96-24,1.43-11.54,16.06-5.64,46.13,11.82,48.62,4.37.62,10.87-2.56,12.73-5.97ZM1570.08,1003.6c-9.82-17.07-10.51-36.37.06-53.56-5.71-1.65-16.18-2.23-19.99,1.99-11.31,12.5-12.58,32.91-2.36,46.22,4.41,5.75,15.14,5.99,22.3,5.35ZM1646.64,984.44l-.44-16.8-43.8,2.23c-1.92,1.08-3.74,6.98-2.84,8.97s5.19,4.29,7.61,4.37l39.47,1.23ZM789.8,1137.42c21.42-2.7,38.81-6.31,57.31-14.48-9.25-5.62-16.95-8.22-26.37-10.12-48.55-9.77-96.79-13.27-146.73-13.25-45.5.02-89.2,1.25-134,8.23-29.93,4.66-57.78,11.99-86.48,19.18l64.64,7.54c90.36,10.53,180.26,14.44,271.63,2.9ZM509.93,1667.34c-20.88-6.05-37.43-14.12-54.26-25.09s-27.43-29.78-23.27-50.72l39.6-199.22c2.01-10.1,7.08-17.96,16.5-22,16.41-7.04,33.44-12.07,51.57-14.24l75.53-9.04c21.53-2.58,39.13-18.82,54.55-33.45-19.54-13.96-30.09-35.15-29.13-59.31.64-16.07,7.65-31.13,21.08-40.14,8.89-5.97,19.43-7.72,30.45-3.99,7.04,2.38,15.73,10.43,19.6,19.48l16.2,37.88c8.48,19.83,38.96,13.64,61.63,33.55,25.63-5.82,43.44,5.51,57.67,27.75,2.51,1.99,14.19-2.61,13.42-6.33l-24.55-118.64c-2.7-13.06-1.65-27.02,2.06-39.19l7.43-24.38c-19.71,5.61-35.89,9.95-55.45,12.35-94.94,11.63-189.56,9.01-284.24-4.75l-53.92-4.72,26.46,27.91c14.42,15.21,19.74,34.72,15.18,55.05l-13.24,58.97-64.88,306.68c-5.3,25.04,7.37,49.21,26.9,63.35,16.28,11.79,34.05,18.67,53.2,25.15,49.88,16.87,100.94,24.14,153.92,25.57,76.9,2.07,166.24-7.87,233-44.42,27.59-15.11,41.11-42.36,34.87-73.14l-13.49-66.52-27.94-131.88-12.95,4.61,38.77,195.24c3.61,18.16-3.64,35.8-17.88,46.72-18.7,14.34-39.37,24.52-62.89,31.21-101.5,28.85-209.11,29.34-311.48-.32ZM1540.63,1319.61c15.87-16.48,26.34-33.48,31.17-53.98,3.08-25.11-7.09-48.72-26.75-64.88-26.06-21.42-57.36-34.46-90.51-39.44-3.16,59.33-12.59,114.38-27.67,170.64l22.77-.46c7.45-17.01,22.01-27.53,40.41-29.45,18.83-1.97,35.05,5.15,50.59,17.58ZM644.17,1514.13c21.41-16.73,43.61-28.78,70.25-35.73,44.98-11.73,88.74-31.48,89.17-82.62.03-3.05,3.17-7.51,5.51-8.38,13.61-5.04,11.14,22.86,1.98,46.94,14.49,3.41,26.16-6.31,30.11-19.76,10.93-37.27,1.07-96.12-39.88-100.63,2.21,8.37,4.79,17.63,5.03,25.82.08,2.61-6.78,7.16-8.6,5.45l-6.69-6.28c-2.46-22.23-19.08-36.46-40.17-39.74-18.37-3.43-32.62-13.29-39.52-30.61l-13.13-32.95c-2.23-5.59-8.78-11.43-13.52-12.02-5.83-.73-13.17,1.66-17.39,5.63-9.82,9.24-12.9,22.84-10.55,36.21,6.24,35.48,41.16,40.82,36.18,54.65-.87,2.42-8.85,2.42-10.91,4.03-16.68,15.08-36.52,29.48-58.33,37.37-21.18,7.66-40.22,16.91-58.61,29.62-16.16,11.17-30.27,35.22-17.66,48.13,24.54-22.61,51.85-36.08,82.95-45.28l.61-13.99c.18-4.14,3.79-8.84,8.01-8.38,2.98.32,6.58,4.71,7.32,8.18-1.18,28.19,9.01,53.61,29.75,72.3.88,3.14,1.28,7.22.51,9.44s-8.38,3.44-10.14,1.64l-12.44-12.73c-19.65,7.93-39.05,19.17-54.13,35.3-15.26,16.32-23.14,36.77-9.45,47.11s36.75-5.45,53.74-18.72ZM1411.87,1592.92c-25.05.07-43.59-14.24-54.86-34.01-3.77-6.62-5.32-14.35-12.15-19.31l47.75,157.62,18.79,60.92,22.51,3.78,169.3-34.14c12.59-2.54,21.79-9.93,21.74-24.12l.15-391.03c-12.9,21.26-24.82,39.97-41.53,58.37,9.45,19.75,13.84,42.22,7.02,63.45-5.28,16.43-17.53,27.03-34.26,29.01-1.12,16.69-6.32,30.12-13.94,44.95,13.92,6.18,19.24,19.19,18.27,33.85-2.3,34.64-44.3,71.12-80.79,77.49-26.75,4.67-51.11-4.58-67.99-26.82ZM1542.16,1526.14c-.74-1.21-4.14-3.7-5.55-3.74s-3.25,1.76-4.85,3.34l-21.28,21.1-4.51,22.52c-.39,1.93-5.06,4.59-6.93,4.59s-6.99-2.44-6.84-4.37l1.08-13.62-16.62,5.33c-3.33,1.07-9.12-3.15-9.31-6.43-.81-14.19,37.02-5.07,63.94-57.87,26.56-52.09-7.35-82.68,6.08-87.98,11.28-4.45,16.91,19.57,18.82,38.54,11.66-1.09,18.94-10.75,21.2-22.45,4.8-24.82-5.39-48.15-20.68-67.84-13.29-17.11-28-32.54-49.29-38.59-15.77-4.47-34.26.32-41.74,15.01l28.49,16.18c2.37,1.34,2.49,9.46.48,11.17s-7.53,2.55-9.9.71c-21.44-16.65-47.14-18.56-72.43-9.35-51.37,18.71-94.26,78.63-86.53,131.36,2.3,15.74,8.61,30.47,21.83,39.13-1.29-21.38,1.77-46.86,12.78-44.01,12.77,3.31-7.55,30.86,6.67,65.73,6.73,16.49,19.37,29.84,37.47,33.33-6.96-25.31-4.76-60.47,7.76-55.18s-5.24,28.43,10.31,56.58c10.55,19.09,30.81,30.59,53.23,25.82,40.86-8.7,82.46-52.64,66.32-79.02ZM1041.18,1641.57l-2.29-128.1c-29.43-24.43-54.21-52.23-72.22-86.1-14.67-24.86-25.87-50.48-33.66-77.58-13.37,13.3-26.99,23.73-42.54,32.38l40.5,192.52,4.01,34.31,106.21,32.58ZM533.02,1405.24c11.21-17.48,23.71-27.09,40.14-37.89-21.07,1.34-39.34,4.55-58.43,9.02-9.95,3.34-18.81,6.09-26.82,13.21,15.61,8.65,28.64,12.21,45.12,15.65ZM742.68,1485.62l-42.06,13.04c-32.6,10.11-56.94,41.71-89.01,50.88-20.92,5.98-39.98-5.76-43.48-28.9-22.31,4.61-40.94-7.68-44.87-30.32-2.45-14.11,6.13-27.92,12.85-40.23-6.79-7.35-9.7-19.2-8.43-29.75l-43.42-14.69-34.46,172.25c-4.32,21.59-3.52,40.91,17.15,53.89,17.18,10.78,36.91,18.35,57.88,23.96,96.8,25.9,198.76,25.05,294.8-3.45,33.26-9.87,74.26-28.23,67.02-62.53l-32.81-165.01c-11.02,21.29-31.06,30.51-52.93,22.74-15.36,19.19-35.27,30.45-58.23,38.15ZM569.23,1502.88c11.97-19.3,23.68-36.24,42.82-47.02l32.13-18.1-10.67-28.26c-36.81,11.7-64.24,24.52-88.39,55.41-8.26,10.56-8.91,24.22-.67,35.03,4.58,6.01,19.95,10.73,24.79,2.95ZM1186.03,1812.16l130.63-27.23c9-7.59,18.6-14.38,29.69-19.57l-22.78-76.82-43.72-143.18c-29.58,16.33-62.02,23.32-95.49,23.27l-.68,101.38c.96,18.34-11.31,33.23-28.91,36.69l-39.35,8.04,8.34,40.33c33.33,6.61,61.49,23.78,62.26,57.1ZM1168.54,1681.63l.46-113.59c-24.36-2.82-44.94-8.08-67.03-16.5l6.2,111.36,60.37,18.74ZM406.82,1692.35c-16.35-17.01-13.59-38.56,4.51-55.51l-153.2,24.17,329.09,127.69c16.27,6.31,29.81,9.24,47.12,5.8l237.1-47.04,178.03-35.67-7.03-53.85-110.58-34.36-4.64,18.1c12.25,11.43,15.9,28.87,6.68,42.33-8.65,12.62-21.38,22.09-35.43,28.37-19.8,8.84-39.66,15.89-61.04,20.85-97.93,22.75-223.53,23.43-322.18,3.47-35.02-7.09-82.83-20.44-108.43-44.36ZM919.5,1678.94c7.26-8.47,5.22-20.85-3.46-25.21-27.95,29.11-81.25,46.69-121.45,54.83-108,21.86-239.93,17.85-340.18-28.93-14.03-6.55-25.28-15.4-36.33-26.68-8.59,5.21-9.67,16.77-3.41,24.76,18.85,24.03,70.13,37.85,104.02,44.32,93.12,17.79,188.37,18.45,281.95,3.1,37.3-6.12,96.29-19.86,118.85-46.18ZM1013.12,1834.88c-14.16-20.85-11.06-43.84,6.81-59.23,10.68-9.19,23.23-13.86,37.3-18.95l-5.63-29.83-405.32,80.89c-18.72,3.74-38.52,4.91-56.33-1.96l-347.41-134.07c-4.04,4.29-6.47,10.71-6.34,16.25l1.46,60.2c.14,5.86,4.85,16.89,11.02,19.59l343.37,150.09c14.42,6.3,28.07,9.06,43.88,5.86l258.78-52.27c28.84-38.4,70.89-46.44,118.42-36.57ZM1147.56,1692.39l-37.02-13.47,2.29,21.13,34.73-7.66ZM891.24,1933.15c.49,18.92,10.25,33.85,26.59,41.32,18.07,8.27,37.66,12.5,58.21,13.41,55.19,2.45,134.72-6.46,182.4-31.24,11.8-6.14,17.69-17.3,17.84-30.77.28-26.46-5.74-52.7-14.05-77.66l-20.57,7.95c-2.86,1.1-9.04-2.68-9.34-5.39-1.19-10.61,13.99-8.89,27.31-19.12,6.74-5.17,11.09-14.93,10.81-22.6-.7-19.57-22.83-32.4-44.39-37.92,4.41,12.46,4.29,22.69-1.97,31.97-5.99,8.89-16.5,13.66-27.98,13.59-17.4-.1-30.29-10.92-32.86-27.9l-2.52-16.61c-13.31,3.9-24.4,8.51-33.12,17.15-10.91,10.82-10.57,26.51.07,37.17,23.05,23.11,51.37,10.41,53.72,24.48.41,2.47-3.62,8.47-6.47,8.1l-21.06-2.73,19.92,22.6c1.93,2.18,1.05,9.03-1.16,10.85s-9.43,1.73-11.21-.92c-20.45-30.42-53.27-44.8-89.47-42.99-46.72,2.34-81.98,38.75-80.71,87.25ZM1598.47,1947.91c6.28-35.33-10.87-72.73-43.54-88.75-44.45-21.79-95.97-6.37-124.63,33.26-2.13,2.95-7.49,4.45-10.19,3.12-2.43-1.2-4.97-8.01-3.14-10.05l21.4-23.97-20.82,2.27c-3.53.39-8.57-5.16-8.18-8.87,1.25-11.99,28.86-1.99,51.28-20.3,6.75-5.51,11.24-15.12,10.94-23.42-.77-21.21-30.79-35.1-55.74-36.3,7.03,14.8,6.45,30.22-4.26,40.47-9.34,8.94-21.85,11.9-34.03,8.32-10.43-3.07-19.51-12.25-22.43-24.61l-4.55-19.23c-9.92,4.94-17.53,9.69-23.68,16.92-8.51,10.01-9.41,23.36-1.25,33.75,13.6,17.33,33.27,11.88,33.67,24.02.08,2.44-4.89,7.68-7.24,6.83l-23.2-8.38c-7.93,24.41-14.13,50.29-14.16,76.02-.01,14.6,6.55,26.55,19.5,32.94,13.05,6.44,26.51,11.34,41.12,15.06,58.91,14.99,211.73,35.07,223.14-29.11Z"/>
  <path d="M268.31,856.7c11.46,2.39-11.55,24.27-16.26,51.45-7.02,40.55,17.93,78.91,57.2,90.64,18.51,5.53,37.35,5.22,56.73,6.16l54.31,2.63c25.26,4.72,44.86,18.19,60.25,39.6-2.7-30.33-23.6-51.75-50.45-61.58-40.38-15.2-88.84-2.44-120.44-33.4-26.31-25.78-28.63-67.01-9.54-98.12,21.22-34.57,60.61-54.86,29.35-111.78l-29.11-34.51c-18.52-21.96-26.7-49.42-20.42-78.36-16.62,20.76-17.66,47.93-8.43,73.15,10.23,27.95,29.49,41.93,29.57,53.39.01,2.02-6.5,4.23-8,2.36-23.59-29.56-44.01-61.72-37.35-100.73,6.98-40.87,43.81-65.36,50.58-56.96,1.27,1.58.07,6.37-1.4,7.88-26.14,26.76-17.61,68.7,6.79,95.78,9.34,10.37,18.22,20.33,26.27,31.68,18.91,26.66,18.91,61.16-.75,87.29l-24.89,33.07c-18.45,24.51-19.01,58.87.44,82.81,10.66,13.11,26.63,20.93,43.32,22.9l44.99,5.31c24.6,2.9,47.28,11.63,66.08,27.46,22.48,21.46,30.49,52.79,22.87,82.72l-6.99,4.43c-1.54.98-4.84-3.88-5.19-5.79-8.12-43.92-42.04-58.89-85.86-60.12l-60.12-1.68c-23.34-.65-44.45-9.54-61.39-24.68-27.91-24.96-38.46-61.6-25.74-97.33,5.2-14.61,15.87-37.27,23.55-35.67Z"/>
  <path d="M542.21,1011.97c1.53,21.17-8.29,56.76-17.17,54.78-1.58-.35-3.92-3.8-3.79-5.56,3.24-43.63-25.93-94.02-68.07-106.56l-52.3-15.57c-14.69-4.37-27.77-10.73-38.64-21.3-19.59-19.05-19.41-50.56-8.94-51.14,2.08-.12,4.9,4.91,4.57,7.16-3.02,20.12,8.08,37.94,26.3,46.27,26.89,12.28,64.78,9.17,106.42,25.3,28.56,11.07,49.38,35.45,51.63,66.62ZM504.29,964.9c-9.13-5.52-16.74-10.35-27.09-11.03,27.33,17.19,43.75,42.53,51.88,74.76,6.69-23.73-4.31-49.02-24.79-63.73Z"/>
  <path d="M231.49,845.27c-28.58,27.33-2.58,54.49-7.23,60.27-1.32,1.65-6.41,1.92-8.75,1.12-13.08-22.48-13.02-47.65-1.14-70.56,6-14.32,13.65-28.46,15.33-44.26,3.92-36.98-13.18-70.96-41.05-94.54-1.56-1.32-3.6-4.71-3.88-6.44-.34-2.08,4.4-4.8,7.11-5.22,29.24,11.72,54.34,29.27,70.24,56.06,14.12,24.58,16.24,55.74-2.79,77.5-8.4,9.6-18.83,17.44-27.84,26.05ZM259.86,764.34c-6.64-20.31-18.93-38.67-38.09-49.27,16.87,29.94,23.8,60.94,16.3,93.34l-8.05,21.97c24.46-15.38,38.61-39.21,29.84-66.04Z"/>
  <path d="M699.15,1042.2c-3.06,12.25-12.84,19.12-22.2,19.95-11.98,1.06-22.36-3.93-28.77-14.62-7.61-12.7-6.13-28.29-.94-42.72l19-52.79c.68-1.89,4.73-4.91,6.66-4.55s5.12,3.65,5.69,5.88c4.32,16.87,9.28,33.73,16.11,49.85,5.1,12.04,7.83,25.51,4.46,39ZM686.22,1036.45c-.58-9.08-.89-17.68-3.66-24.55l-11.56-28.67-11.94,32.28c-3.18,8.59-1.41,18.65,2.55,26.52,4.44,3.59,9.95,6.49,14.61,5.32,3.59-.9,7.2-5.99,10-10.9Z"/>
  <path class="st0" d="M1371.26,172.44c5.97,2.13,9.17,7.56,6.61,13.06-64.86-11.99-130.58-11.12-195.57-.06.58-6.5,5.77-12.97,12.75-14.81"/>
  <path class="st0" d="M533.02,1405.24c-16.48-3.44-29.51-7-45.12-15.65,8.02-7.13,16.87-9.88,26.82-13.21,19.09-4.47,37.36-7.68,58.43-9.02-16.42,10.8-28.93,20.41-40.14,37.89Z"/>
  <path d="M1201.13,1137.84c.27-7.18,3.44-15.27,7.47-22.9-19.47-8.75-34.85-21.98-43.92-41.73-13.9-30.26-18.3-62.86-16.97-95.63-5.51-2.87-10.87-6.83-12.18-10.38-4.58-12.38,5.95-25.36,20.72-33.57,6.31-20.94,15.18-41.2,28.06-59.28-8.38-.89-15.76-3.07-21.3-8.33-7.33-6.96-8.49-23.49.28-26.63,9.61-3.44,7.07,14.11,13.34,16.89,15.34,6.79,34.14-15.08,47.18-30.49,13.72-16.22,27.85-31.05,46.35-41.48,24.9-14.02,56.9-5.56,69.33,20.14,2.06,4.26.41,10.11-3.51,12.2-2.67,1.42-8.15-.96-9.96-4.7-9.15-18.87-31.5-24.69-49.78-13.33-16.7,10.38-30.4,25.13-43.02,41.04,26.87-2.36,49.63,10.05,63.17,32.14,32.42,52.88,27.86,127.1,1.53,184.66,20.72.8,50.54,7.56,50.23,20.51-.07,2.75-7.55,6.36-9.98,5.03-27.66-15.16-58.99-12.03-84.91,5.24-18.77,12.55-33.32,29.52-37.29,52.4l-6.89,4.39c-1.92,1.22-8.03-3.69-7.94-6.2ZM1209.04,948.4c33.12-4.24,63.62-1.69,94.91,6.3-2.64-43.64-16.41-94.58-60.06-100.59-40.24,1.78-63.97,48.58-72.9,86.57l-16.67,11.75c-1.93,1.36-4.1,6.81-3.3,7.84l58.03-11.89ZM1211.16,1017.49l40-24.19-38-16.74.81-13.27-51.23,9.3c-3.03,47.05,7.52,112.88,53.34,128.73l20.62-21.13c-16.06-16.12-26.41-39.2-25.53-62.7Z"/>
  <path d="M986.09,1094.61c-23.79-30.64-23.58-79.64-20.91-118.11-4.07-2.8-9.14-7.12-10.17-10.65-1.11-3.77,1.22-11.98,3.89-14.48l14.8-13.85c10.32-38.4,38.52-88.5,76.89-83.45,65.61,8.64,64.82,197.11-6.65,249.46-18.98,13.91-43.07,10.12-57.86-8.93ZM973.57,957.9c36.54-9.18,73.02-9.02,110.81-.02.01-30.1-9.15-82.56-33.82-88.21-28.37-6.5-50.43,34.82-59.69,65.14-3.05,9.99-7.21,15.71-17.3,23.09ZM1052.05,1074.61c-28.41-7.75-35.52-33.33-37.99-60.45l33.49-18.15-31.05-16.81.78-13.1-35.98,5.35c-6.62,38.03-3.92,87.13,18.87,116.11,8.48,10.78,24.09,13.81,33.85,4.41l18.02-17.36Z"/>
  <path d="M1131.99,1186.56l-35.61-7.13c-5.86-1.17-16.3-8.99-15.89-15.35l3.78-58.13,15.76-110.14c8.52-59.52,22.39-116.27,37.41-174.53,15.91-61.68,35.58-119.87,58.72-178.83.91-2.33,6.36-4.6,8.6-4.22,2.61.44,6.34,6.73,5.08,9.97-34.66,89.29-60.7,179.66-80.02,273.85-15.56,75.87-27.93,150.56-34.01,227.66-.25,3.19.48,9.21,1.52,11.39,1.22,2.55,6.41,5.31,9.44,5.79l26.52,4.16c3.05.48,6.78,5.24,6.89,7.93s-5.09,8.2-8.19,7.58Z"/>
  <path d="M1016.16,1231.25c-4.26-2.46-6.07-8.14-4.58-10.56,1.93-3.15,7.03-4.89,10.55-2.86,88.23,50.89,209.68,14.1,261-74.67-5.81-.62-14.34,1.74-19.54,3.44-2.79.92-8.15-3.18-8.22-5.84-.32-11.74,28.03-18.67,47.28-8.93,19.76,10,28.79,38.71,17.92,41.78-13.32,3.76-5.78-18.06-22.94-26.75-25.45,49.34-70.4,81.54-122.43,98.57-52.86,17.29-109.98,14.1-159.04-14.18Z"/>
  <path d="M1187.29,1509.73c.8,4.88-.43,9.39-3.29,11.09-2.57,1.53-9.59-.54-11.01-4.14-17.84-45.46-29.74-91.68-34.65-140.55-.31-3.06,1.67-8.26,3.69-9.54,2.51-1.58,8.51-.1,10.95,2.55,4.82,48.76,15.08,94.58,34.3,140.59Z"/>
  <path d="M1191.03,1283.41c-30.99,19.86-95.98,15.34-92.43-.16.56-2.47,4.22-5.68,7.26-6.93,24.5,9.7,49.5,7.66,73.18-3.58,3.77-1.17,7.61-1.64,10-.57s4.16,9.63,1.99,11.24Z"/>
  <path d="M1595.94,708.17c0,51.43-41.69,93.13-93.13,93.13s-93.13-41.69-93.13-93.13,41.69-93.13,93.13-93.13,93.13,41.69,93.13,93.13ZM1580.84,708.11c0-43.14-34.97-78.1-78.1-78.1s-78.1,34.97-78.1,78.1,34.97,78.1,78.1,78.1,78.1-34.97,78.1-78.1Z"/>
  <path d="M681.85,611.19c.02,2.83-3.3,8.24-5.45,8.25-2.51.01-6.41-2.33-9.41-4.87l-.5-92.38c.87-3.31,3.98-7.66,6.56-8,3.68-.48,8.25,4.02,8.28,7.94l.52,89.06Z"/>
  <path d="M621.17,1904.81c0,2.81-4.05,7.33-6.34,7.75-2.67.49-8.64-3.67-8.63-6.76l.05-75.49c0-2.41,4.75-6.46,7.02-6.78,2.66-.38,7.82,4.04,7.82,6.9l.08,74.39Z"/>
  <path d="M762.89,1357.99c-16.16-.83-30.47,8.75-39.36,19.12-1.57,1.83-8.82,1.14-8.96-1.04l-.63-9.88c18.55-23,49.51-29.66,75.67-15.85,12.04,7.37,16.22,18.7,10.28,22.53-9.3,6-12.82-13.64-37-14.88Z"/>
  <path d="M1699.74,992.66c-4.1,6.54-14.22,4.47-16.99-1.36-8.13-17.13-.81-35.15,10.17-35.27,9.74-.1,15.99,21.99,6.82,36.63Z"/>
  <path d="M1556.8,707.67c-.2-32.52-23.57-55.78-53.89-55.97-30.07.48-53.55,24.85-53.11,56.62.04,3.2-2.3,7.89-4.73,8.37-12.45,2.47-8.3-32.74,9.67-54.13,17.85-21.25,46.99-27.8,72.9-17.71,23.76,9.1,40.54,33.77,40.65,61.06l-3.54,6.32c-.97,1.74-6.32-2.29-7.96-4.56Z"/>
  <path d="M1517.43,704.25c-.03,11.07-.78,17.35-9.68,20.53-6.47,2.31-15.63-.82-17.59-8.95-2.79-11.59,6.77-16.67,16.46-19.34l18.04-24.95c1.08-1.5,7.36-2.92,8.03-1.41s.86,5.11.03,6.61l-15.28,27.52Z"/>
</svg>