<?xml version="1.0" encoding="UTF-8"?>
<svg id="Layer_1" xmlns="http://www.w3.org/2000/svg" version="1.1" viewBox="0 0 1984 2162">
  <!-- Generator: Adobe Illustrator 30.3.0, SVG Export Plug-In . SVG Version: 2.1.3 Build 182)  -->
  <defs>
    <style>
      .st0 {
        fill: #fff;
      }
    </style>
  </defs>
  <g>
    <path class="st0" d="M450.89,905.66l-6.53,24.48-14.7-8.01.55-41.6,13.49,2.52c1.74,8.41,3.3,13.09,7.19,22.62Z"/>
    <path class="st0" d="M494.12,676.15c14.93,5.44,17.26,15.06,21.79,28.84l-37.49-24.2c-6.84-4.41-12.45-8.84-18.09-15.07,12.31,3.1,22.66,6.39,33.78,10.44Z"/>
    <path class="st0" d="M500.76,821.78c-4.28,9.82-5.05,21.41-17.07,27.69l17.25-43.38c1.15-2.89,4.19-4.53,8.51-4.27l-8.69,19.96Z"/>
    <path class="st0" d="M466.22,919.35c-1.78,8.12-2.55,15.31-11.23,19.01l6.98-26.36c1.82.14,5.73.6,5.54,1.46l-1.29,5.89Z"/>
    <path d="M451.81,971.83c2.19.55,1.82,6.1-.57,7.47-1.88,1.07-6.3.56-8.4-1.07-1.69-1.32-5.48-5.82-4.03-7.07l5.85-5.03c.91,2.97.58,4.06,1.32,4.25l5.82,1.46Z"/>
  </g>
  <g>
    <path d="M965.62,1899.28l10.94,45.71c4.13,17.26,5.3,34.64,3.01,51.83-1.53,11.47-7.76,20.34-18.61,25.82-56.17,28.39-144.89,26.32-208.84,16.96-34.11-4.99-81.68-11.98-94.21-41.01-6.56-15.19-3.84-31.22-.62-46.87-68.3,24.49-131.74,51.59-196.1,79.75-4.66,2.04-10.56-1.04-11.68-4.87-.83-2.85.97-7.68,5.12-9.42l152.29-63.76-56.5-22.94c-28.07-11.4-57.02-17.42-87.75-20.34-57.19-5.44-113.51,9.15-158.2,42.01-4.18,3.07-8.35,3.93-12.36,1.21-3.83-2.61-3.84-9.19.25-12.23,28.45-21.16,60.27-35.24,96.27-42.38,83.51-16.55,163.7,10.81,238.27,46.98l41.31-14.93c24.53-35.37,67.65-51.3,113.39-41.05-6.55-11.35-10.2-20.85-9.86-32.41-29.33-8.83-56.45-19.93-84.27-32.09-61.07-26.7-109.45-34.88-176.19-18.43l-40.5,12.04c-93.3,34.97-181.71,97.83-254.02,162.26-2.27,2.02-8.9,1.25-11.01-.26-2.4-1.72-3.78-8.51-1.25-10.67l42.9-36.37c49.12-41.65,103.31-76.32,162.07-105.8,81.47-40.87,175.66-63.94,263.14-25.75l40.43-22.35c44.02-24.34,93.84-37.68,145.13-42.69l20.41-71.54c9.32-32.68,23.63-62.98,39.36-93.37-66.24-35.8-109.57-97.73-128.48-164.69-12.02-42.56-16.56-85.29-18.37-129.91-58.46,27.03-121.82,24.77-182.68,1.7-20.21,22.36-43.27,35.35-72.98,21.24-14.32,8.68-30.29,15.26-48.04,17.54l14.42,65.17c-4.93,19.43-20.32,35.14-40.49,42.25l-8.66-.54c-1.81-.11-3.83-3.86-4.09-5.89l-12.71-99.72c-26.21-1.31-50.71-8.2-71.25-22.39-21.03-14.53-27.27-37.89-17.16-60.76-13.59-11.06-23.11-24.67-22.98-41.22.13-16.35,9.66-30.54,23.83-41.47-16.77-25.8-9.01-57.31,19.5-72.54,20.48-10.94,44.69-12.96,69.63-10.54l4.74-33.48c-9.62,2.65-20.66,4.14-29.66-1.14-14.92-8.76-17.68-26.05-8.47-41.09-37.04-2.19-72.83-14.02-99.66-37.76-11.76-10.41-18.33-23.59-26.31-36.52-11.92-23.81-26.41-45.03-48.31-62.1-.43-2.33-.85-5.72-.65-7.39.86-7.24,65.16.42,89.58,4.4-12.66-46.08-8.08-85.74-.68-130.47.34-2.05,3.91-5.53,6.01-5.66,2.73-.18,6.65,2.38,8.25,5.01,14.57,23.97,34.75,42.77,58.82,58.95,19.87,13.36,36.25,30.13,45.09,51.61l16.3-8.63c-3.28-14.25,3.1-30.2,18.42-34.89,15.62-4.78,28.79,2.1,39.2,14.22l2.79-6.31c-7.55-4.64-13.42-10.06-14.93-15.69-2.53-9.4-.27-16.77,5.56-24.61-13.75-12.55-14.57-32.48.62-44.06,4.32-3.29,11.43-4.15,18.43-5.44-47.69-28.46-81.24-51.33-84.23-107.9.03-22.05,4.42-43,9.4-64.62l5.87-3.52c1.27-.76,4.91,1.76,5.67,2.99,20.85,33.67,48.98,41.7,73.23,63.61,36.45,32.96,30.98,79.41,23.35,121.8,15.25-22.42,30.45-42.27,46.61-62.32-9.72-63.34,8.04-105.15,66.76-138.2,18.69-8.3,37.01-15.23,56.67-21.88l7.15,1.18c1.86.31,2.14,5.38,1.16,7.12-9.55,17.05-15.68,36.07-17.78,55.42-6.05,55.77-44.35,81.9-96.95,102.35-13.32,18.7-25.38,37.5-36.48,58.12,27.07-23.95,58.59-35.66,95.02-32.64,30.6,2.54,59.39,10.73,88.17,21.29,2.42.89,5.51,4.73,5.47,6.8s-3.5,5.46-5.91,6.23c-42.77,13.64-60.94,41.62-89.3,50.49-27.55,8.63-55.77,5.04-84.9-2.56,9.58,14.91,7.46,33.17-8.78,40.75-14.84,6.93-30.78.86-40.41-13.31l-14.07,33.6c10.66-1.59,19.52-1.43,28.35,2.77,16.51,7.85,21.13,27.39,10.08,40.77-9.95,12.04-25.33,16.37-42.11,11.78-3.76,11.53-10.88,19.49-23.36,23.11l-4.02,14.3c11.03-1.5,17.68.91,25.46,7.15,38.27-28.79,80.07-30.84,128.46-25.42,25.75,4.56,49.45,10.59,74.25,18.37l4.61,5.44c1.11,1.32-1.48,6.04-3.33,6.83l-22.58,9.64c-20.07,11.26-35.95,25.24-52.41,40.2-35.84,32.56-79.44,35.3-127.83,28.89.29,11.85-5.22,21.78-13.65,27.03-10.76,6.7-22.65,6.7-34.46,1l-1.66,38.87c19.46-13.21,39.29-19.68,61.09-12.87,38.17,11.93,55.64,51.89,60.48,88.74,28.05,10.73,35.95,32.62,34.26,61.12,53.04,23.72,115.42,18.08,162.36-13.76,4.55-50.02,11.18-98.37,24.49-146.88,29.91-109.03,73.74-211.81,147.62-301.51,34-41.28,80.48-82.81,134.77-96.8,83.48-21.52,143.4,43.32,179.33,107.64,33.05,59.16,55.31,122.03,70.25,188.09,33.07-1.01,65.17.3,95.5,11.51,18.77,6.94,32.26,22.8,40.38,39.5,14.33,29.49,10.7,54.45,34.49,84.7,8.54,10.86,5.08,26.5-7.28,33.34-9.36,5.18-18.03,7.29-29.81,9.52l-.21,14.62c94.1,34.63,127.78,114.08,91.23,201.56,12.78,14.87,20.12,32.89,20.23,51.97-1.08,17.89-8.79,33.63-21.58,47.31-.86,20.41-8.03,38.85-22.03,56.05,18.36,14.08,26.56,35.45,26.03,57.5-.55,22.74-12.98,40.72-29.04,53.08-20.71,15.93-44.82,12.33-67.69,10.99-35.98,12.28-75.38,13.84-106.34-12.53-21.55-2.51-40.92-13-54.57-28.86-21.07-24.93-28.07-54.53-23.53-87.47l-37.62,39.78c38.56,59.68,67.3,128.85,85.86,197.49,51.5,5.49,100.44,21.43,145.47,45.89,89.7,48.74,172.51,105.28,251.77,167.17,3.44,2.69,3.19,9,1.2,11.2-2.82,3.13-9.62,3.58-13.74.3-80.52-64.15-166.08-121.65-258.64-170.54-37.79-19.96-78.64-31.85-121.55-37.91l13.34,64.44c19.19,1.94,38.35,7.49,54.35,17.83,20.89,13.47,27.27,37.53,13.51,57.8l.17,4.26c64.42-12.8,123.92,30.34,126.21,91.13l73.47,32.41c5.22,2.3,8.08,5.97,5.6,11.57-2.13,4.82-8.25,5.07-13.92,2.55l-67.12-29.79c-6.75,23.94-37.35,34.26-63.76,38.68-68.97,11.56-154.16,12.57-219.25-12.04-10.35-3.91-23.51-9.42-29.12-18.67-8.86-14.61-9.92-33.17-6.74-49.5l11.75-60.4c-5.13-6.63-8.75-13.2-10.65-22.22-78.18-19.58-159.53-25.95-241.35-16.03,2.52,11.78.06,21.9-8.15,32.25ZM636.97,576.05c16.09-21.86,30.97-39.54,49.63-58.23-17.77,5.96-33.16,13.41-48.33,23.04-1.59,12.32-2.65,22.99-1.3,35.19ZM682.53,574.8c2.91-18.34,6.39-34.71,10.59-52.21-18.22,19.4-35.46,38.72-50.49,61.26l39.9-9.05ZM613.42,612.36c4.43-7.32,11.11-14.37,12.82-21.63,3.14-13.36,1.87-25.95,1.42-40.83-8.07,6.94-14.12,14.1-20.05,22.3l5.81,40.16ZM476.6,634.51l-27.99-41.23c-5.34-11.29-9.64-21.69-13.87-33.01-4.09,21.36-6.39,42.59-.76,62.57,15.11,3.57,28.82,7.28,42.62,11.67ZM488.01,595.63l-42.28-30.46c8.35,22.63,21.41,41.79,35.67,60.5l6.61-30.04ZM666.4,610.31c5.57-8.61,10.15-17.36,14.05-26.88-18.65.73-32.54,7.06-46.29,15.95l-12.63,20.55c16.22-4.73,28.12-7.47,44.87-9.63ZM606.37,625.65l-5.54-41.03c-10.31,20.93-10.65,41.2-7.47,62l13-20.97ZM506.62,659.33c3.37-13.17,6.01-22.38,11-33.36-4.68-9.69-12.54-18.69-22.23-25-9.94,30.24-6.29,36.54,11.23,58.35ZM606.45,650.01c21.24-7.22,36-16.46,50.49-30.46-16.38,1.3-29.18,7.01-42.78,13.9l-7.72,16.56ZM498.48,669.36c-4.26-14.8-14.66-22.62-27.04-28.29-11.84-4.1-22.69-7.45-35.35-10.39,3.81,10.75,8.89,19.35,16.13,26.45,16.51,3.29,30.62,7.35,46.27,12.23ZM526.96,701.74c4.81-24.11,5.02-45.8-4.6-67.89-10.68,27.86-8.38,42.8,4.6,67.89ZM494.12,676.15c-11.12-4.05-21.47-7.34-33.78-10.44,5.64,6.23,11.25,10.66,18.09,15.07l37.49,24.2c-4.54-13.78-6.86-23.4-21.79-28.84ZM1194.78,1552.49c68.4-44.4,106.52-119.49,122.95-193.32-81.29-86.32-70.4-204.87,14.59-283.25-13.88-99.89-36.1-198.78-84.52-288.79-26.1-46.72-62.21-100.65-120.26-110.72-57.75-10.02-117.2,35.97-153.92,76.03-79.47,86.68-131.42,204.49-160.39,314.72-27.4,104.25-36,229.45-7.48,333.64,11.75,42.93,33.02,82.35,65.05,115.32,29.16,30.02,65.68,50.81,106.37,64.23,73.96,24.39,154.26,15.12,217.61-27.87ZM630.54,722.03l22.86-20.41-31.79,2.37-21.45,27.47c10.65-2.33,23.27-3.08,30.38-9.44ZM665.28,701.96l-19.01,18.13c25.78-3.14,47.34-5.23,70.22-5.99M584.46,736.65l23.73-28.34c-13.59,4.92-25.83,13.39-35.79,22.88-1.73,1.64.18,7.3,2.11,8.52s8.2-.95,9.95-3.05ZM514.7,748.67c6.64-5.66,4.01-13.92-1.26-19.74-6.12-6.77-15.56-10.11-23.41-3.05-7.06,6.35-5.86,22.19,4.01,24.58l20.66-1.79ZM679.88,749c13.99-10.14,26.7-18.24,40.99-26.07-25.92-1.05-50.57,1.69-74.4,7.48l33.41,18.6ZM557.29,760.35c6.95-6.45,8.27-17.41.6-23.26-8.89-6.78-20.24-2.37-26.08,5.66-5.33,7.33-4.95,15.82,1.9,20.83,7.2,5.28,16.29,3.53,23.57-3.23ZM672.86,755.25c-24.31-18.36-41.87-24.48-70.25-13.22,15.56,7.4,29.35,15.14,44.51,24.89,9.12-3.12,16.93-6.62,25.74-11.67ZM635.7,768.83c-18.01-11.32-45.32-27.59-59.41-16.53-1.96,1.54-3.04,7.29-2.8,9.29,20.4,6.57,39.96,11.02,62.22,7.24ZM368.9,795.41c-21.09-13.2-37.03-27.39-52.36-44.83,7.16,33.49,19.19,64.29,35.53,93.47,3.43-18.17,8.73-32.74,16.83-48.64ZM340.97,845.77c-14.28-31.43-25.19-59.68-35.36-91.95-3.6,22.72-4.25,44.78-1.9,68.41,11.56,8.94,23.17,16.54,37.26,23.54ZM503.15,760.92c-9.2,2.11-16.54,11.34-11.85,21.09,3.2,6.65,12.08,9.13,19.6,8,5.09-.77,13.14-6.78,13.48-13.34M556.89,804.63c7.21-2.7,8.88-10.38,8.18-15.92-.55-4.34-5.93-13.14-10.86-12.67l-16.47,1.58-6.14,13.66c2.71,8.74,13.84,17.62,25.3,13.34ZM381.25,888.83c4.02-21.14,10.32-38.5,19.5-58.05-6.37-10.82-14.66-20.68-24.5-29.22-11.46,18.93-16.13,38.22-14.6,59.03,5.55,9.91,11.35,18.86,19.6,28.24ZM474.08,841.02l8.9-19.54c-2.35-10.77-10.95-20.53-23.97-20.12-5.81.18-11.64,4.58-13.54,8.73-2.11,4.61-2.49,11.57-.07,15.52,12.13,1.96,19.73,6.29,28.69,15.4ZM500.76,821.78l8.69-19.96c-4.32-.26-7.36,1.38-8.51,4.27l-17.25,43.38c12.02-6.28,12.79-17.88,17.07-27.69ZM356.81,874.47c-2.04-4.51-5.93-12.13-9.67-14.42l-40.05-24.53c1.26,7.9,3.31,15.15,6.16,22.52,15.69,4.73,28.43,9.6,43.57,16.43ZM447.43,869.57c3.52-8.07,9.96-14.56,17.62-18.87-4.54-12.04-22.17-17.4-34.3-11.25-7.31,3.71-10.18,9.91-8.93,17.39,1.59,9.54,17.02,17.32,25.6,12.73ZM411.05,863.26l-4.39-22.64c-10.19,17.89-16.64,37.66-15.42,58.06l18.9,26.8c2.98-.58,7.71-6.08,7.65-10.06l-.56-34.99M536.7,871.77c6.8-8.9,4.06-18.77-4.6-24.17-11.03-6.87-27.04-3.29-34.26,6.91,4.76,6.99,7.37,14.89,9.81,22.58,7.32,6.13,23.2,2.33,29.05-5.33ZM329.85,905.15c-4.65-13.3-9.85-23.32-16.3-34.5-23.01-5.3-45.05-9.45-68.51-10.4,30.79,14.49,57.96,26.63,84.81,44.9ZM485.9,896.87c15.64-12.82,8.08-33.89-1.83-37.32-4.96-1.72-12.83-.44-16.56,2.49-9.9,7.77-13.73,19.6-8.93,31,1.81,4.3,8.29,8.72,12.37,8.98,4.99.32,11.07-1.97,14.96-5.16ZM325.02,913.48c-26.72-18.42-54.62-33.74-86.9-44.91,13.18,16.84,23.92,32.25,32.47,51.6,17.7-3.27,34.85-5.87,54.43-6.69ZM374.64,938.2c-3.65-17.99-7.77-32.03-12.63-47.72-12.27-6.54-23.06-11.57-36.82-16.99,7.37,14.43,11.78,27.79,20.49,40.15,7.08,10.05,18.99,17.15,28.97,24.56ZM450.89,905.66c-3.88-9.53-5.45-14.2-7.19-22.62l-13.49-2.52-.55,41.6,14.7,8.01,6.53-24.48ZM390.21,954.53c3.03-9.69,4.65-14.49,8.34-21.62-5.58-11.23-11.63-22.87-23.46-31.72l8.19,36.52c1.34,5.97,4.39,12.65,6.93,16.81ZM466.22,919.35l1.29-5.89c.19-.87-3.72-1.32-5.54-1.46l-6.98,26.36c8.69-3.7,9.46-10.89,11.23-19.01ZM548.96,923.72l-28.18,41.46,37.02-13.5,35.39-33.85M671.75,929.88c-21.79-7.74-43.59-10.26-67.14-12.15-9.83,8.97-18.19,17.21-27.21,27.54,31.95-8.15,60.56-13,94.35-15.39ZM367.88,947.4l-17.76-15.28c-19.23-15.24-47.18-10.13-73.81-4.57,7.59,12.38,15.82,21.16,26.27,29.13,22-6.8,41.26-9.11,65.3-9.28ZM511.1,963.58l23.48-33.71c-10.06,2.84-18.81,8.29-23.81,14.3l.33,19.41ZM442.95,948.31c-3.38-10.04-15.28-18.41-26.96-13.85-8.31,3.24-11.78,11.76-11.4,19.08.37,7.17,4.48,13.92,11.95,18.24,4.53-12.41,12.66-19.74,26.42-23.47ZM479.37,978.28c13.5-3.6,20.45-13.61,20.5-25.28-.46-9.95-9.9-17.17-21.19-14.64-7.01,1.57-13.65,6.84-17.2,12.08,13.22,5.72,17.49,14.99,17.89,27.84ZM641.77,964.99c11.23-9.8,22.14-17.61,34.93-25.56-35.71.35-68.56,7.07-100.99,16.17,19.18,5.64,34.46,12.71,50.43,22.81l15.64-13.42ZM401.7,980.64l-19.28-21.23c-21.24-6.92-47.04-2.7-70.52,2.93,23.13,13.69,46.84,19.64,72.76,22.02,5.25.48,11.24-1.32,17.05-3.71ZM467.07,975.28c-.36-11.96-10.89-17.42-21.56-15.32-8.68,1.71-14.73,7.43-16.5,14.07-2.18,8.15.53,16.02,8.77,20.22,6.36,3.24,14.59,2.34,20.47-1.59,5.02-3.36,9.06-9.65,8.82-17.38ZM619.47,984.95c-17.94-13.36-37.22-20.22-59.19-23.33-11.94,3.45-22.7,7.48-34.59,13.29,21.95,7.04,40.26,15.72,59.65,28.35,12.53-4.05,23.2-10.19,34.13-18.31ZM1483.83,1114.47c3.82-1.96,3.32-8.85,1.04-11.52-11.18-13.16-17.68-27.45-21.89-43.75-9.09-35.15-15.49-67.05-56.44-77.99-23.84-6.64-48.54-7.56-74.22-7.44l9.07,47.82c13-14.17,27-24.13,46.35-26.41,19.06-.24,35.6,8.95,46.74,23.06,12.86,17.25,20.66,36.79,22.58,57.76l4.22,46.07c7.16-1.5,14.6-3.51,22.55-7.59ZM573.54,1006.22c-18.59-11.95-37.43-21.82-59.53-24.19-6.4-.69-16.2,5.89-20.99,8.02l7.96,15.55c22.94,4.53,47.6,6.3,72.56.62ZM410.37,1027.44c13.96-.97,22.26-11.07,25.84-21.03-10.16-3.33-16.03-9.16-19.1-18.5-12.74,1.84-24.15,9.66-25.75,22.61-.55,4.48,1.39,10.71,4.53,13.28,2.76,2.25,9.22,4,14.48,3.63ZM459.37,1033.01c4.16,4.65,12.1,6.82,17.72,5.42,4.19-1.04,9.58-5.64,11.98-10.43,6.23-12.45-.89-28.49-13.65-34.78-6.35,6.36-14.03,10.41-21.05,14.56-4.96,7.06-.47,19.12,5.01,25.23ZM441.12,1076.24l2.52-33.12c.53-7.01-.51-13.65-3.02-20.05-3.05,3.85-5.18,7.71-5.58,10.97l-4.75,38.66,10.84,3.53ZM1440.87,1264.44l-2.35-22.53-.74-31.48c-17.94-7.35-37.31-9.86-57.15-9.05-8.1.33-15.84-.59-24.15-3.73l-8.52,109.58,17,23.07c3,4.07,3.06,9.23-1.24,11.94-12.63,7.96-32.62-30.88-40.49-50.61-25.05-62.81-12-132.63,35.67-183.15,3.08-3.26,9.76-2.32,12.09.36,7.42,8.56-11.36,16.26-16.56,34.01,30.73-5.79,59.1-2.81,89.76,3.93,1.33-25.68-.2-51.95-5.67-78.21l-8.1-25.67c-27.61,11.21-55.65,6.78-81.43-5.89-3.24,9.83-2.5,18.81.12,26.1,4.75-3.38,9.93-4.29,13.09-2.13,2.23,1.53,3.06,8.32.87,9.98l-11.16,8.43c-89.58,73.69-99.05,197.04-14.21,277.39l11.63,9.53c2.77,2.27,1.23,10.44-3.02,11.03-4.49.62-9.07-1.3-13.74-3.46l-5,17.11,24.36,6.11,30.53-16.02c-11.44-26.91-13.14-68.78-10.85-97.99.65-8.33,8.4-11.68,16.07-11.17,18.2,1.22,36.53-1.24,53.23-7.48ZM427.98,1141.73c3.3-17,9.25-30.97,18.16-46.17-29.38-14.84-65.09-15.24-92.61.65-18.83,11.26-22.65,32.9-10.35,49.29,27.85-10.72,56.99-13.13,84.79-3.77ZM460.85,1273.61l4.07,29.2c31.76-3.29,58.81-22.76,65.93-52.09.82-3.39,7.27-5.76,9.96-4.64,11.86,4.94.9,29.81-12.66,43.17,11.47,4.43,22.97,1.12,32.76-6.56,25.56-20.08,37.43-54.66,30.06-85.06-2.19-9.02-8.15-16.29-16.08-19.95-3.13,19.81-12.18,47.54-25.64,40.78-10.95-5.49,8.72-19.69,9.28-45.66.59-27.12-8.75-55.05-28.6-74.55-19.07-18.73-49.17-17.52-66,2.07-20.5,23.86-29.34,66.62-7.6,83.51,10.05,7.81,25,5.28,34.38-3.37,12.13-11.19,18.44-27.38,17.98-43.69-.11-4.03,1.89-7.96,5-9.35,18.54-8.26,16.56,45.57-17.87,69.65,2.66,20.87,27.11,22.35,20.98,33.45-6.2,11.21-29.25-5.51-37.29-29.31-4.6,9.52-7.19,16.14-15.57,22.09,11.6,15.81,12.14,35.92-3.09,50.32ZM449.78,1212.6c4.43,1.67,11.34-6.27,10.49-8.62-23.04-8.93-31.22-24.94-33.26-47.07-39.14-14.88-102.84.98-105.25,35.04-.85,12,4.38,23.47,15.05,30.89,31.83-25.71,72.99-25.32,112.98-10.24ZM1333.87,1271.31c4.39-34.52,5.99-65.59,4.03-98.92-13.59,32.06-15.01,67-4.03,98.92ZM380.46,1271.34c6.08-10.39,29.68,11.11,64.52-6.32,10.29-5.15,13.81-15.13,9.01-25.12s-14.38-14.73-25.13-17.77c-42.26-11.95-88.69,2.1-90.01,33.98-1.25,30.2,42.45,45.44,75.91,48.74l-.61-17.8c-19.64-.17-39.65-5.51-33.69-15.71ZM1487.78,1320.89c3.6.82,6.66-.55,7.35-2.75,13.32-42.43,2.54-78.31-40.23-100.24l.71,28.23c30.63,7.07,33.08,45.05,32.17,74.76ZM1399.78,1375.21c11.63-29.41,38.07-47.98,71.03-53.54,1.37-17.58-.45-35.58-6.84-51.18l-20.44,9.81c-18.3,5.6-36.25,7.25-56.44,7.17-1.76,26.36.67,51.55,6.29,76.9.88,3.97,3.53,8.17,6.4,10.84ZM465.26,1375.83c-8.03-32.7-13.48-63.47-17.65-95.07l-19.69,6.52c2.66,37.22,6.2,72.27,11.38,109.84,7.47-9.31,14.86-15.76,25.96-21.28ZM1482.59,1533.33l13.58,17.31c4.91,6.26,27.76-4.58,28.98,8.79.28,3.04-3.91,8.61-7.49,8.68l-18.29.36-.12,14.85c-.04,5.03-4.01,9.59-9.2,9.18-14.84-1.17-.1-23.5-19.17-44.82l-6.23,12.07c-1.41,2.73-8.06,3.68-10.72,2.29-15.93-8.3,18.1-55.29,57.01-58.15,28.17-29.1,33.15-68.58,2.4-96.07-2.09-1.87-1.06-8.67,1.18-10.35,10.17-7.59,26.95,14.18,33.95,32.21,22.72-36.49-9.11-82.7-51.61-91.54-30.07-6.26-59.95,8.06-75.55,30.96l29,.32c3.86.04,7.73,6.47,7.11,9.42-2.54,11.99-22.3-.18-55.93,12.29-32.12,11.91-60.16,31.79-81.81,56.8-16.76,19.36-26.67,41.29-28.75,65.96-2.68,31.73,11.33,64.87,42.31,82.12-8.69-21.41-14.58-40.54-13.18-62.19.35-5.31,4.5-8.31,10.05-7.74,13.48,1.38-2.53,33.99,24.53,69.52,18.85,24.75,51.23,34.35,81.87,24.67-30.34-17.09-52.51-70.36-35.47-73.59,14.86-2.81,5.63,20.98,30.02,47.54,15.24,16.6,39.13,25.83,63.09,21.59,18.69-3.3,34.53-16.25,40.82-32.67,8.9-23.25.84-48.6-19.37-64.45-12.89,1.69-24.21,6.85-33.02,14.62ZM1334.83,1409.63l-12.53-3.52-6.12,20.13,18.65-16.61ZM1149.61,1766.11c33.62-13.77,67.33-22.06,103.51-26.85l-24.1-68.17-26.33-56.22-20.62-36.01c-61.96,33.61-135.18,39.22-202.31,18.97-21.49,45.83-39.91,91.07-52.4,140.48,28.95,2.13,56.37,7.76,84.74,14.9l97.02,29.47,40.49-16.58ZM807.91,1818.44c11.69-3.54,23.83-5.92,36.4-7.32l10.1-57.61c-57.49,5.69-112.36,26.71-162.14,55.71,28.37,13.96,55.3,24.09,84.66,32.97,8.06-11.64,18.25-18.32,30.97-23.75ZM1135.44,1789.05l-97.3,38.61-36.42,9.34c-5.09,1.31-10.59-2.81-10.62-6.76-.04-4.67,3.06-7.43,8.14-8.62,30.7-7.15,59.08-16.47,87.57-29.52l-64.04-19.47c-32.76-9.96-65.43-16.46-99.76-19.17l-11.86,66.47c22.28,6.1,39.97,16.06,54,31.94,85.31-9.58,170.24-4.92,252.58,15.28,9.36-23.22,33.44-32.73,56.36-41.68l-16.75-70.76c-42.55,4.34-81.36,18.24-121.88,34.32ZM951.08,2010.09c6.52-2.97,10.59-9.28,11.4-16.11,1.83-15.44,1-30.83-2.83-46.23l-9.09-36.58-17.58,4.76c-4.87,1.32-10.46-4.38-9.78-8.32,2.01-11.7,24.45-5.42,31.72-21.73,10.19-22.86-18.59-40.11-44.67-50.17l-2.58,16.33c-2.35,14.85-17.3,23.82-33.05,23.37-15.06-.43-29.31-8.67-31.6-23.23l.13-25.2c-14.93,1.62-28.9,5.47-40.85,12.59-12.44,7.42-16.19,20.83-9.9,33.21,5.28,10.4,15.38,19.32,27.68,21.97l37.76,8.14c3.03.65,6.13,6.14,5.43,8.77-.62,2.32-5.77,6.08-8.56,5.74l-23.04-2.78,10.69,11c2.32,2.38-1.28,9.74-4.48,10.44-3.28.72-9.02-.24-11.56-2.92-24.16-25.41-60.68-36.59-96.16-27.16-58.63,15.58-69.89,79.46-50.26,95.16,11.04,8.82,24.8,13.71,39.21,16.62,69.15,13.99,169.1,20.95,231.99-7.67ZM1517.18,1996.45c2.62-43.18-34.06-81.56-81.26-83.33-18-.68-35.64,2.4-50.33,11.1l-23.57,19.37c-3.81,3.13-10.15,3.47-13.46-.1-2.34-2.52-1.54-8.59.95-10.96l9-8.55-25.83,1.74c-3.13.21-6.47-6.98-5.5-10.04,2.74-8.69,21.57-1.96,49.54-14.33,7.72-3.41,13.78-9.66,17.78-16.32,7.17-11.94,3.75-23.87-7.13-32.54-12.15-9.68-27.61-14.36-43.68-16.39.87,7.04,2.32,14.61,1.41,21.01-2.17,15.17-15.24,24.95-29.82,25.79-14.73.85-30-5.44-34.77-19.89l-3.29-21.25c-25.76,7.84-51.73,25.19-42.18,47.04,7.63,17.44,28.99,11.54,33.09,22.37.97,2.55-2.97,9.33-6,9.01-7.73-.8-12.75-2.41-21.24-4.89l-9.62,53.61c-2.35,13.08-1.06,27.75,5.56,39.47,5.63,5.61,16.01,9.65,23.99,12.35,60.63,20.49,134.65,20.78,198.07,10.89,26.56-4.14,56.84-11.23,58.29-35.16Z"/>
    <path class="st0" d="M1487.78,1320.89c.91-29.71-1.54-67.69-32.17-74.76l-.71-28.23c42.77,21.94,53.55,57.81,40.23,100.24-.69,2.2-3.75,3.57-7.35,2.75Z"/>
    <path class="st0" d="M1333.87,1271.31c-10.98-31.92-9.56-66.86,4.03-98.92,1.97,33.33.36,64.4-4.03,98.92Z"/>
    <polygon class="st0" points="1334.83 1409.63 1316.18 1426.24 1322.3 1406.11 1334.83 1409.63"/>
    <path d="M902.79,1208.33c-6.59-28.41-32.05-50.85-63.56-50.26-5.7.11-9.51-1.58-10.8-5.74-.88-2.85,2.64-9.63,6.09-9.51l19.51.68c-21.14-58.46-9.21-129.96,20.87-183.59,15.2-27.09,44.09-56.05,77.42-50.87,45.32,10.61,53.8,65.21,56.2,106.8,20.95-107.02,52.12-209.39,91.7-311.89,1.3-3.38,8.61-4.82,11.45-3.95,3.2.98,5.78,5.85,4.2,10.17-48.6,132.28-84.46,248.67-103.22,388.64-7.04,52.48-12.36,103.36-14.82,155.93-.25,5.22-2.3,9.3-7.05,9.72-6.37.57-10.3-3.4-10.02-9.5,2.33-49.83,7.35-97.85,12.62-148.06l-16.74,34c-6.57,13.34-17.42,24.03-28.52,34.19-9.06,8.3-18.97,12.44-32.64,15.09l3.43,14.46c.77,3.24-1.5,8.16-4.47,9.25-4.03,1.47-10.4-.25-11.63-5.57ZM907.05,1174.99c28.86-.13,49.67-30.73,60.85-54.12,20.19-42.26,27.61-89.39,20.93-135.27-2.58-17.72-8.11-34.41-18.85-48.15-11.66-14.93-31.5-17.44-47.21-7.16-34.31,22.46-51.63,71.07-58.76,109.87-6.09,33.12-5.39,65.75,5.64,97.69,2.85,8.24,7.47,13.13,15.62,17.49s14.69,13.44,21.78,19.65Z"/>
    <path d="M1119.91,1226.51c-1.78,4.24-7.92,5.7-11.14,4.71-3.74-1.15-6.36-6.72-4.83-9.98l5.01-10.66c-18.39-6.1-33.23-16.77-42.33-32.99-32.69-58.27-25.86-138.75,3.89-197.54,10.33-20.41,23.76-37.6,43.04-50.45,27.63-18.42,63.19-12.13,82.29,14.05,41.74,57.22,31.98,154.24-1.78,215.54,19.83.19,45.37,2.85,43.02,14.44-2.93,14.39-24.7-5.32-59.13,3.97-26.66,7.19-47.72,24.29-58.03,48.92ZM1119.62,1195.96c14.38-16.47,30.82-27.73,51.93-32.61,32.72-48.99,44.29-120.59,27.86-175.67-7.45-24.97-25.32-54.96-53.18-52.88-14.18,1.06-26.63,8.19-35.94,17.86-42.78,44.41-55.31,118.51-44.36,176.24,5.2,27.39,22.81,66.07,53.68,67.07Z"/>
    <path d="M1232.91,916.03l-15.29-18.98c-18.77-23.29-49.17-34.04-80.24-30.62-5.97.66-9.99-3.09-10.4-7.95-.33-3.93,3.27-8.43,8.67-9.03,69.83-7.8,115.54,51.49,106.47,66.67-.89,1.49-8.02,1.38-9.21-.08Z"/>
    <path d="M935.02,865.63c-19.47,10.1-26.44,23.53-36.51,22.11-18.25-2.56,34.24-63.47,98.55-44.76,5.52,1.61,8.98,5.93,8.3,10.29-.81,5.21-6.92,8.81-12.78,6.92-19.2-6.18-38.52-4.44-57.55,5.43Z"/>
    <path d="M1054.85,1561.94c2.15,3.77.26,9.33-2.55,10.82-3.48,1.85-10.08.83-12.32-2.97-14.21-24.11-22.65-49.39-26.55-76.89-.57-4.01,4.07-8.18,7.76-8.4,3.61-.22,8.76,3.12,9.39,7.01,4.05,25.03,11.14,47.4,24.27,70.43Z"/>
    <path d="M1009.9,1441.63c41.43,18.95,66.47-7.74,73.16,3.6,1.36,2.31.57,8.92-2.2,10.3-25.55,12.8-55.49,11.8-80.71-1.46-2.35-1.24-2.67-7.7-1.24-9.71,1.83-2.56,7.55-4.3,10.99-2.73Z"/>
    <g>
      <path d="M1049.3,1423.01c-76.37,9.68-136.35-50.95-148.25-118.53-17.05-9.4-47.5-24.83-38.2-34.81,2.65-2.84,8.43-3.18,12.14-.2,62.69,50.3,151.61,54.11,226.89,23.32,24.49-10.01,46.44-22.93,64.89-41.03l-8.95-21.58c-1.53-3.7,3.27-9.29,7-9.82,4.84-.68,9.36,2.65,10.39,7.63,3.97,19.25,20.82,31.47,42.29,29.8,4.75-.37,8.92,2.27,9.71,6.46,2.08,11.08-17.21,11.03-36.54,5.3-5.45,41.23-22.64,78.9-51.97,109.61-23.49,24.6-54.21,39.38-89.39,43.84ZM984.89,1396.77c55.5,26.88,116.71,4.34,152.02-40.69-29.42-13.5-60.11-1.44-78.91,24.17-2.15,2.93-8.3,4.4-11.02,3.14-2.54-1.18-5.18-7.58-3.79-9.74l7.69-11.97c-26.11-1.83-54.54,10.64-66,35.09Z"/>
      <path class="st0" d="M984.89,1396.77c11.46-24.45,39.89-36.92,66-35.09l-7.69,11.97c-1.39,2.16,1.25,8.56,3.79,9.74,2.72,1.26,8.87-.21,11.02-3.14,18.8-25.61,49.49-37.67,78.91-24.17-35.31,45.04-96.52,67.58-152.02,40.69Z"/>
    </g>
    <path d="M976.45,1051.01c-1.3,30.44-12,69.56-38.05,85.47-8.3,5.07-18.52,4.19-26.06-2.06-7.19-5.96-12.03-14.87-14.5-24.17-8.48-31.92-4.68-65.41,9.85-95.38,5.14-10.61,12.23-20.51,21.86-27.08,11.47-7.82,25.35-5.35,33.47,5.14,6.23,8.05,9.96,18.49,11.13,28.2l-36.91,30.57,39.21-.71Z"/>
    <path d="M1188.36,1058.3c.7,31.09-9.03,74.15-34.83,91.48-11.13,7.48-24.32,5.54-32.97-4.33-25.86-29.54-20.96-87.31-4.61-123.44,5.3-11.71,13.06-21.73,24.06-28.64,9.21-5.79,20.9-4.26,28.89,2.92,8.69,7.81,13.36,19.05,15.3,30.51l-35.77,35.31,39.93-3.81Z"/>
  </g>
</svg>