<?xml version="1.0" encoding="UTF-8"?>
<svg id="Layer_1" xmlns="http://www.w3.org/2000/svg" version="1.1" viewBox="0 0 1984 2162">
  <!-- Generator: Adobe Illustrator 30.3.0, SVG Export Plug-In . SVG Version: 2.1.3 Build 182)  -->
  <defs>
    <style>
      .st0 {
        fill: #fff;
      }
    </style>
  </defs>
  <path d="M961.32,1457.06c-75.14-46.24-121.9-118.49-144.43-204.09-17.79-71.89-23.78-144.53-20-219.14-54.76,23.69-102.11,30.03-156.4,7.49-57.47-23.86-102.22-68.2-129.95-124.77-13.65,3.36-27.67,5.2-41.59,2.46-22.56-4.43-37.46-21.74-39.06-44.87-27.76-5.95-51.15-19.66-70.72-39.31-31.77-31.9-43.28-66.96-93.36-94.68-13.65-7.56-27.15-14.94-39.23-24.5-16.67-13.19-21.22-35.63-9.35-53.64-10.73-7.68-18.32-17.52-19.98-28.31-1.92-12.53,1.24-25.23,10.89-33.59,13.69-11.87,31.85-13.83,50.87-10.78,11.26-40.58,60.85-34.89,98.38-18.46,33.17,14.51,61.44,35.52,89.8,57.74,14.81,11.6,31.72,19.57,50.78,17.81,4.52-22.12,10.07-41.97,23.53-58.81,18.77-23.49,48.92-34.28,77.52-24.72,11.92,3.98,20.55,13.5,23.96,23.52,4.15,12.18,1.75,25.85-6.7,36.1l-24.23,29.39c-13.39,16.23-15.54,35.62-9.88,55.72,6.98,24.79,8.27,49.24-.7,73.55,19.33,14.33,26.22,37.26,18.49,59.17-4.98,14.11-13.66,25.3-23.51,37.3,24.34,44.61,54.58,79.26,102.11,95.89,42.34,14.81,90.63-6.12,126.69-32.48,10.56-78.28,30.17-152.95,56.48-227.29s59.77-144.63,103.45-210.37c40.58-61.07,89.5-116.45,156.35-147.58,55.69-25.93,113.33-11.6,157.57,29.12,55.27,50.87,98.81,153.23,121.59,226.52,30.02,96.57,47.56,195.34,54.71,296.18l2.22,70.25c41.6,19.41,82.51,19.56,112.16-16.4,22.31-27.07,34.35-60.05,39.78-94.94-20.29-10.64-38.41-24.16-50.58-43.13-13.06-20.36-11.4-44.73,3.99-63.71-14.94-26.68-15.4-56.93-7.04-85.92,6.12-21.2,4.4-41.13-9.06-58.72l-21.65-28.29c-8-10.46-8.41-25.2-3.81-37.53,4.28-11.46,14.81-18.93,30.03-23.55-34.91-18.95-65.26-40.67-94.28-66.75-33.77-30.36-71.67-69.35-89.65-110.49-3.24-7.41-6.95-21.85-2.19-28.9,17.59-26.08,37.87-48.31,60.81-69.2,69.04-62.85,157.6-78.55,232.77-17.29,43.9,35.77,67.12,87.44,56.97,144.73,25.14,26.26,40.94,59.69,42.02,96.16l-1.38,21.7c13.2,6.64,22.7,17.2,26.36,30.7,5.63-13.48,10.65-25.6,19.64-35.7,11.6-13.02,29.65-20.13,46.53-15.35,34.38,9.75,29.3,57.84,17.82,92.67,15.67-1.93,28.9,3.37,37.02,13.39,8.97,11.08,11.28,26.25,5.02,39.84-6.73,14.62-18.66,24.68-29.87,35.73-24,23.65-42.23,50.35-58.78,79.35-22.15,38.83-47.8,73.54-90.23,89.79,2.78,28.68-17.63,50.75-46.21,54.42-7.02,53.19-29.31,102.37-66.22,140.91-43.79,45.73-101.11,55.08-162.4,36.67-9.1,129.04-38.46,267.61-132.41,361.73l30.92,54.79c41.74,90.13,71.19,184.33,86.25,282.93,21.46,2.75,40.7,9.16,58.25,20.13,27.25,17.02,33.11,49.31,14.05,77.59,32.09-7.11,59.78-2.48,86.18,12.5,38.19,21.68,62,61.86,59.77,106.22-1.77,35.21-33.98,52.03-67.61,58.99-80.75,16.7-189.56,18.53-263.54-17.99-10.49-5.18-21.42-12.93-26.34-23.52-14.32-30.84-.09-89.4,8.53-127.98-16.34-18.29-16.65-44.27-.75-62.93,14.48-16.99,32.44-28.32,54.71-33.76-10.65-59.07-24.61-114.23-44.03-169.64-16.4-45.34-34.96-87.92-59.41-130.42-69.31,38.06-150.14,46.72-226.51,22.78-39.25,85.09-64.75,174.86-76.79,268.12,23.88,8.58,45.39,21.33,60.26,41.27,13.48,17.82,13.85,39.41.14,57.24l11.54,47.47c5.55,22.84,6.92,46.09,4.32,69.15-1.63,14.43-9.21,25.32-21.45,32.82-20.33,12.45-42.8,18.9-66.97,22.85-63.89,10.45-127.57,7.14-191-5.63-33.66-6.78-79.78-18.72-86.78-53.17-7.68-37.8,7.75-75.45,34.2-100.37,29.03-27.35,68.1-35.67,108.54-25.32-16.75-22.89-16.34-51.43,3.76-71.1,17.68-17.29,41.65-24.04,66.45-24.8,11.85-101.2,39.33-197.33,81.84-290.92ZM1626.5,502.75c16.58-19.59,32.63-38.69,45.61-60.59,35.43-59.78,39.83-129.23-10.25-180.07-20.58-20.89-44.35-37.31-73.09-44.85-74.41-19.53-142.71,31.28-189.53,89.37,20.1,4.6,38.08,11.64,56.2,22.42,52.73,31.39,99.09,71.76,138.4,118.81,14.13,16.91,24.27,33.65,32.65,54.92ZM1543.22,486.54c-50.13-31.71-116.87-88.44-143.08-140.65-3.09-6.15-1.85-12.09,2.32-19.28-6.01-.96-12.89-1.11-20.32.04,1.88,14.97,6.35,24.56,13.71,35.66,38.88,58.68,110.66,122,174.75,151,12.08,5.47,23.86,9.18,37.21,8.72,1.53-5.2.64-12.1-1.59-16.59-17.55,8.68-43.48-6.55-62.99-18.89ZM1433.73,1050.87c-23.46-11.04-45.24-23.3-62.31-42.32-14.5-16.16-7.78-41.46,8.64-52.97,17.51-12.27,38.35-8.06,55.93,10.57-1.3-93.08-14.38-183.98-35.2-274.61-20.66-89.95-63.36-208.35-123.14-277.08-39.16-45.02-93.83-65.43-149.48-38.22-55.04,26.91-97.36,71.46-132.64,121.55-48.34,68.62-85.13,143.07-113.39,222.42-38.64,108.49-61.46,220.31-64.78,335.6-1.82,63.13,3.67,123.29,18.34,184.28,12.52,52.07,34.39,100.43,68.88,141.09,30.97,36.51,68.77,61.66,112.75,79.8,78.99,32.57,168.33,27.11,241.37-18.43,129.35-80.64,166.55-247.72,175.04-391.69ZM1737.86,489.62c4.78-34.01-6.44-62.17-26.71-88.49l-7.71,20.84c14.66,19.81,19,41.28,16.13,66.4l18.29,1.25ZM1700.49,489.46c1.82-15.12,2.03-31.76-6.78-46.25-14.8,26.29-32.1,48.44-52.4,70.8l3.36,18.97c4.11-30.04,26.05-42.64,55.82-43.51ZM1768.11,654.65c10.54-17.46,22.66-33.52,35.7-48.75,11.53-12.56,24.08-22.36,38.89-31.43,9.66-19.33,14.64-40.6,14.16-62.4-1.92-6.5-4.56-13.56-8.36-16.24-12.94-9.16-34.7,3.68-42.09,24.7l-16.15,45.98c-9.05,25.78-23.35,48.88-41.92,68.59l19.77,19.55ZM1576.23,774.07c-10.91,14.07-8.44,31.35,2.08,44.17,25.12,30.64,73.28,52.29,111.91,40.57,12.74-3.87,21.08-13.59,20.5-27.54-26.46,4.66-66.13-1.04-60.4-17.92,1.58-4.65,7.81-6.8,12.88-4.81,37.57,14.73,78.67-2.02,104.26-31.12,14.01-15.93,26.44-32.63,36.49-51.46,17.87-33.48,39.5-62.82,67.56-88.45,13.58-12.4,27.13-28.82,19.37-41.4-11.05-17.93-40.59-7.79-61.23,11.77-19.62,18.6-35.31,40.97-49.83,63.85l10.04,20.97c2.17,4.53-2.59,11.4-7.63,12.41-3.36.67-9-2.23-10.65-6.42-12.13-30.61-34.26-53.02-64.18-66.18-3.08-1.36-5.11-7.93-4.48-10.85.55-2.55,6.35-7.76,9.06-6.57l20.02,8.76c13.97-15.3,28.21-32.2,34.79-52.8,3.06-9.58.88-22.83-.49-32.95-1.9-14.08-12.91-24.99-26.83-27.91-28.61-6.01-72.07-4.65-74.77,21.78-.75,7.39,4.24,16.56,12.13,21.76,15.37,10.13,35.94,8.71,53.58,2.41,5.1-1.82,11.18,1.02,12.64,5.27,1.01,2.96-1.09,10.03-4.28,11.03l-21.64,6.77c-14.94,33.07-42.73,56.69-77.62,65.81-3.11,4.02-8.28,7.3-12.38,6.78-4.73-.6-8.77-6.62-7.4-11.6,7.15-26,2.16-50.8-13.74-72.61-17.94-24.59-58.71-29.81-66.47-12.71-2.38,5.24-2.87,14.17.51,18.69l18.9,25.3c18.86,21.23,24.41,47.56,16.77,75.05-9.23,33.21-9.21,75.57,20.03,90.43l16.02,8.14c-4.88-45.68,46.13-89.19,56.56-71.96,8.03,13.28-16.95,12.17-31.87,39.98-10.5,19.56-8.47,41.99,6.29,59.09l-6.74,13.69c-19.72-12.47-10.72-25.17-38.29-27.76-7.11-.67-15.44-7.14-21.47-11.48ZM1688.56,579.69c-13.07-4.58-23.46-9.32-32.49-18.03-14.92-3.95-26.15-14.15-29.55-30.36l-12,8.32c8.8,31.74,41.12,52.55,74.03,40.07ZM514.12,785.19c-8.22-19.8-22.87-31.2-41.7-37.98-2.97-1.07-4.64-8.5-3.2-11.25,1.32-2.52,7.44-5.17,10.4-4.29,32.28,9.54,53.83,34.79,56.69,68.92,31.42-10.6,36.77-50.2,28.38-83.21-9.23-36.33-6.09-56.7,18.21-84.42,12.49-14.24,27.51-30.79,20.07-43.93-9.23-16.29-46.33-14.94-66.66,11.39-10.23,13.25-15.82,29.05-18.14,45.68-4.25,30.51-51.39,21.75-80.1-.35-22.64-17.43-44.79-34.15-69.84-48.05-28.47-15.79-76.98-33.95-90.61-5.24,45.37,14.69,84.67,38.59,119.89,70.15l9.12-6.35c4.33-3.01,12-2.48,14.48,1.76,2.63,4.49,1.23,11.08-3.11,13.83-26.97,17.08-44.66,42.59-53.25,73.33-1.38,4.93-8.77,7.25-12.53,5.62s-7.54-8.18-6.19-11.87l7.19-19.74c-27.64-27.28-80.69-67.33-115.23-51.03-10.71,5.05-10.55,20.42-2.86,29.03,15.1,16.91,53.16,27.73,85.15,60.52,32.75,33.57,47.32,76.79,101.67,94.36,28.57,9.24,60.26,4.9,83.17-15.05,14.09-12.27,16.08-34.76,9-51.81ZM1678.3,602.89l-37.16-4.94,1.22,25.48c13.8-4.31,25.65-11.51,35.93-20.54ZM362.53,700.85l20.6-25.56c-30.73-27.8-67.07-48.99-106.06-62.26-24.41-8.31-54.91-9.24-60.39,7.07-1.95,5.78-.6,15.43,3.45,19.01l12.23,10.83c46.84-16.9,95.13,20.2,130.17,50.91ZM449.4,876.14c3.07,18.23,18.09,26.52,35.25,25.42,38.72-2.47,74.74-26.8,94.07-60.4,8.65-15.03,5.72-33.4-6.6-43.02-10.29,13.27-21.84,21.85-38.12,22.05-9.6,36.06-46.23,56.35-84.6,55.95ZM968.29,2002.12c13.09-3.55,30.21-8.19,38.49-19.32,15.64-20.99,1.26-81.61-8.08-112.69-7.91,2.95-12.82,4.55-20.8,5.47-3.56.41-9.48-5.37-9.55-8.7-.08-3.96,3.79-9.12,7.5-10.4l17.14-5.9c6.9-2.38,12.36-12.16,13.4-18.05,3.94-22.31-27.3-44.56-52.11-53.69-1.15,9.39-1.32,18.31-4.22,25.27-6.3,15.06-22.1,22.36-36.98,21.82-13.99-.51-28.95-7.92-34.22-22.89-3.79-10.77-2.04-22.67-1.39-35.32-15,1.92-30.7,5.72-43.51,13.84-15.16,9.61-20.16,26.65-11.89,42.74,13,25.29,43.4,29.45,71.72,34.31,4.18.72,8.12,6.41,8.02,10.32-.09,3.35-6.23,9.03-9.79,8.57l-26.49-3.48c5.28,4.46,10.41,8.86,13.32,15.22,1.78,3.89-3.3,11.33-6.89,11.96s-9.98-1.14-12.94-4.32c-25.25-27.15-60.59-41.82-97.95-35.58-45.59,7.6-77.66,48.76-75.81,94.56.95,23.53,23.03,35.59,46,41.06,75.19,17.9,162.36,25.48,237.02,5.22ZM1585.42,2013.59c24.41-4.96,49.22-15.07,51.8-38.31,6.01-54.29-43.73-105.61-100-103.65-28.19.98-54.17,13.9-72.59,37.07-2.74,3.45-9.54,4.93-12.99,4.19s-8.28-9.31-6.2-12.11l10.84-14.55-24.66,1.66c-5.2.35-9.97-7.99-8.59-12.11,5.03-15.04,41.47.84,69.52-29.14,6.98-7.46,11.03-17.23,10.28-27.54-1.76-23.99-34.06-36.96-59.29-40.62,1.17,11.29,2.77,20.9.58,29.6-4.14,16.39-18.92,25.66-33.63,27.01-15.36,1.41-30.66-5.13-37.96-19.74-4.08-8.17-4.81-17.48-6.3-29.07-26.12,7.36-54.67,28.41-47.54,53.53,1.88,6.64,9.35,14.84,17.61,17.66l15.66,5.35c3.36,1.15,6.89,7.98,5.92,11.48-.81,2.91-6.82,7.75-9.95,6.94l-20.68-5.39c-6.96,31.63-19.9,86.81-6.2,109.24,5.27,8.63,17.51,13.52,26.83,17.17,71.13,27.82,162.96,26.47,237.55,11.32Z"/>
  <g>
    <path d="M1042.52,923.44c-12.16,14.54-21.31,29.52-35.18,41.8-14.63,12.96-31.7,22.09-51.44,24.46-30.32,3.63-57.68-12.72-71.71-40.25-19.96-39.17-20-84.57-10.25-127.19,2.36-10.31,5.27-15.4,16.25-18.28,59-15.48,112.65-47.12,150.14-95.32,2.78-3.57,5.98-7.44,9.15-8.28,4.04-1.07,9.59,2.56,11.62,6.26l10.52,30.31c23.07-117.07,53.66-228.21,95.36-337.74,2.5-6.56,9.53-8.78,15.2-6.27,4.41,1.96,6.75,9.31,4.3,15.83-80.62,215.19-121.01,429.25-134.28,658.85-.27,4.75,3,10.52,6.54,11.32l33.18,7.51c5.12,1.16,9.07,5.71,9.68,10.79.46,3.89-4.48,11.26-9.53,10.52-15.71-2.32-30.33-5.83-44.45-11.16-12.25-4.63-17.38-15.84-17-28.12l11.9-145.03ZM1021.93,914.49c-18.61,3.66-32.78-2.34-43.72-14.99-11.17-12.94-17.26-29.93-18.76-47.49l41.86-35.43-42.94-4.6-1.5-10.84c-21.71,9.82-40.91,16.92-63.41,22.84-11.2,41.28-9.01,103.75,21.34,133.11,14.5,14.02,35.24,17.35,53.95,9.4,23.82-10.12,41.64-29.4,53.19-51.99Z"/>
    <path d="M1323.07,817.36c-1.29,44.06-11.31,85.01-34.21,121.33-12.91,20.48-29.28,36.77-51.08,46.79-35.65,16.39-75.23,6.89-99.34-24.18-14.21-18.32-24.05-38.99-29.4-62.34-15.35-67.01-2.56-137.31,35.26-194.35,3.74-5.65,12-5.33,15.54-.65,9.98,13.17,19.58,25.38,32.02,36.22,35.05,30.56,75.42,51.51,120.39,63.36,6.8,1.79,11.06,6,10.83,13.81ZM1214.77,907.78c-15.78-15.49-22.97-35.69-26.54-57.28l40.63-30.14-44.04-15.83c-.12-13.63,1.82-26.9,5.12-40.06l-36.75-36.26c-38.46,63.34-43.8,165.93,2.03,222.39,20.63,25.42,54.58,31,82.43,12.63,20.43-13.48,36.15-33.64,44.99-57.98-19.63,20.74-47.1,22.25-67.88,2.54Z"/>
    <path d="M1222.46,1207.46c-60.21-53.57-157.02-55.11-215.73-2.53-23.97,21.46-40.68,49.99-48.39,81.37-1.65,6.72-5.16,10.25-11.36,9.82s-10.78-6.59-8.69-13.89c11.33-39.46,31.58-76.07,65.01-100.74,79.52-58.7,191.77-42.92,254.16,33.21,12.66,15.45,21.57,31.3,30.46,49.87,1.73,3.62-2.56,10.9-5.9,12.14-4.53,1.68-10.85-.36-13.18-5.41-11.39-24.7-26.05-45.76-46.37-63.84Z"/>
    <path d="M954.9,1123.15c1.8,27.89-15.75,49.41-40.14,52.94-25.86,3.74-49.04-11.98-54.8-38.21-3.88-17.7-.51-35.4,5.46-52.64,11.26-28.55,27.69-52.84,47.77-76.15,2.6-1.38,6.96-2.99,9.27-2.94,2.69.06,7.07,5.13,7.22,7.87,2.8,49.95,23.07,75.94,25.22,109.13ZM935.74,1129.89c-.52-13.35-4.3-25.32-8.04-37.39l-15.57-50.29c-20.02,27.63-40.27,63.4-32.36,93.56,3.81,14.53,17,22.73,30.38,21.51s22.77-12.13,25.59-27.39Z"/>
    <path d="M907.36,750.3c-6.39,2.01-12.52-.54-14.37-4.39-2.75-5.74.06-12.78,6.32-14.54,55.45-15.63,106.73-52.13,136.75-101.57,1.86-3.07,9.99-3.56,12.73-1.78,3.52,2.29,5.55,9.1,2.96,13.58-29.91,51.69-86.64,90.57-144.4,108.7Z"/>
    <path d="M1321.08,731.75c4.66,1.35,7.01,7.86,6.93,11.04-.09,3.38-5.71,9.67-10.1,8.45-61.06-16.89-113.96-55.35-148.62-108.14-3.29-5-1.23-12.72,3.22-15.2,3.97-2.21,10.29-.67,13.48,4.28,31.2,48.47,78.95,83.26,135.09,99.56Z"/>
    <path d="M1143.6,1407.16c2.19,5.8-1.31,12.82-5.09,14.11-4.83,1.65-11.8-.23-14.14-5.85-16.5-39.65-27.23-80.27-32.17-123.1-.63-5.49,4.99-11.02,9.2-11.5,4.45-.51,10.62,2.97,11.32,8.3,5.42,40.88,16,78.65,30.88,118.04Z"/>
    <path d="M1143.64,1235.45c-24.07-20.91-55.77-21.45-80.14-1.47-3.42,2.81-9.16,3.5-12.48,1.93-3.82-1.81-6.88-11.01-3.3-14.47,28.39-27.46,72.83-29.59,103.86-5.16,3.34,2.63,4.7,8.63,4.24,12.01s-8.35,9.05-12.18,7.15Z"/>
    <path d="M1255.79,1313.11c-6.59-2.65-10.44-8.49-7.3-15.41,6.17-13.6,25.43,10.82,47.23-4.59,20.87-14.76,6.51-36.03,19.87-40.6,3.25-1.11,10.69,2.19,11.61,6.08,4.55,19.17-3.21,37.47-17.11,48.59-15.16,12.13-35,13.69-54.3,5.94Z"/>
    <path d="M1165.26,610.48c-18.39,15.68-3.66,44.24-20.32,45.36-17.27,1.16-13.15-41.45,5.74-59.11,15.08-14.1,37.13-10.41,52.07,2.58,4.96,4.31,6.59,10.52,2.82,15.52-9.81,13.03-25.04-17.37-40.32-4.34Z"/>
    <path d="M1076.97,655.6c-19.69,1.4-3.73-26.95-20.43-43.98-13.56-13.83-27.06,9.03-36.77,6.34-2.92-.81-6.85-5.73-7.31-9.02-1.5-10.92,32.69-32.25,54.7-14.08,21.05,17.37,23.91,59.73,9.81,60.74Z"/>
    <path d="M974.5,1326.5c-14.83,9.05-33.09,11.58-49.02,3.83-17.14-8.33-26.16-27.06-23.32-46.31.57-3.83,7.14-7.2,10.66-6.48,13.48,2.74,2.66,24.83,21.5,35.36,20.76,11.59,32.74-13,42.86-1.23,3.5,4.07,2.85,11.45-2.68,14.82Z"/>
  </g>
  <g>
    <path class="st0" d="M1703.44,421.97l7.71-20.84"/>
    <path class="st0" d="M1737.86,489.62l-18.29-1.25"/>
    <path class="st0" d="M1700.49,489.46c-29.77.87-51.71,13.47-55.82,43.51l-3.36-18.97"/>
    <path class="st0" d="M1693.71,443.21"/>
    <path class="st0" d="M1614.53,539.62l12-8.32c3.4,16.21,14.63,26.41,29.55,30.36,9.03,8.71,19.42,13.45,32.49,18.03"/>
    <path class="st0" d="M1678.3,602.89c-10.28,9.03-22.13,16.23-35.93,20.54l-1.22-25.48,37.16,4.94Z"/>
  </g>
</svg>