<?xml version="1.0" encoding="UTF-8"?>
<svg id="Layer_1" xmlns="http://www.w3.org/2000/svg" version="1.1" viewBox="0 0 1984 2162">
  <!-- Generator: Adobe Illustrator 30.3.0, SVG Export Plug-In . SVG Version: 2.1.3 Build 182)  -->
  <path d="M1053.03,1772.17c-21.15-37.55-12.79-84.35,20.88-110.1,19.81-15.16,42.69-19.03,66.72-20.57-20.98-13.28-28.85-34.31-27.87-58.64-47.56-9.93-94.31-32.18-112.82-78.87-18.8-49.7-9.3-97.2,11.57-146.25-118.87-50.37-200.04-159.06-250.09-276.91-44.11,46.14-73.96,101.57-72.99,167.5,42.71-30.4,98.77-26.88,138.44,6.94,24.49,20.88,38.63,50.12,38.37,82.64-.42,50.95-40.47,89.74-91.38,89.92-33.29.12-62.49-13.37-87.99-35.23,5.02,40.51,23.32,85.18,43.02,118.98,16.3.86,32.85,1.56,48.2,7.09,24.7,8.9,38.58,31.16,35.94,57.69,27.32,11.1,51.94,25.75,69.21,49.53,24.52,33.76,22.85,78.77.93,113.89,16.15,33.56,12.49,73.84-13.84,99.83l15,9.31.27,39.1,30.31,18.09,148.27-.14,80.66-47.01,155.86-.19,81.12,47.12,154.27.43,80.02,46.71c1.66,1.82,3.97,4.63,4.8,6.29.99,2-2.64,6.46-4.76,7.7l-81,47.15-152.31-.13-80.7,47.17-156.62.39-80.72-47.41-149-.03-80,47.15-156.68.38-80.96-47.62-153.19.15-81.09-47.22c-2.18-1.27-5.25-5.61-4.88-7.82s3.66-5.57,6.07-6.94l80.47-46.04h152.91s37.5-21.71,37.5-21.71l-.28-34.28,14.28-10.07c-18.78-8.74-32.99-24.39-40.26-44.9-20.28-57.21-15.58-129.46,22.05-179.46-19.38-35.89.38-66.9,35.08-85.83l-19.89-45.79c-24.13-55.56-34.06-117.54-9.91-174.7-31.28-111.95,17.95-218.43,100.75-294.76-41.32-130.62-57.75-266.54-30.04-400.08,16.48-79.41,52.69-164.2,114.32-217.41,63.68-54.98,143.85-55.97,218.66-20.71,92.5,43.61,172.4,131.17,226.06,219.07,51.72-96.61,139.65-159.66,249.52-130.6,37.59,9.4,69.61,29.67,98.32,55.47,26.32-10.62,55.23-4.38,71.78,18.91,43.01-4.74,86.4,9.27,119.69,37.37,18.69,15.77,25.11,39.18,20.93,62.28,25.09,23.98,23.85,57.23,2.2,83.94,5.64,28.35-6.79,53.21-30.54,68.79-33.82,22.18-71.26,27.79-103.12,2.01-9.83-3.03-25.17,2.29-35.55-8.99-19.63,38.58-56.92,64.41-100.94,65.12-30.59.49-57.9-12-81.07-30.83-31.53-25.63-51.23-59.82-63.52-98.3-3.97-12.41-5.68-23.74,2.24-35.28,29.3-42.73,88.92-68.78,140.18-79.26-.66-14.81,2.35-27.05,9.35-40.86-60.5-54.77-138.62-60.93-197.93-1.81-28.9,28.81-48.15,64.29-62.93,102.01,28.39,59.85,49.92,120.31,65.33,184.67,20.23,84.51,30.4,180,14.69,266.39,42.58-26.92,94.51-56.42,126.11-10.47,24.01,42.03,13.48,98.09,12.83,147.43,13.79-36.21,31.86-67.55,64.89-85.01,57.17-30.2,124.45-3.61,152.78,52.59,16.59,32.93,23.46,66.44,10,102.45-6.92,18.52-16.39,36.4-29.16,52.35-27.65,34.52-60.24,62.38-97.41,86.55-8.35,17.3-19.74,31.19-34.85,43.28-36.24,29-88.83,49.4-129.12,23.92-14.75-9.33-22.7-24.39-31.2-38.98-4.01-6.88-8.17-13.7-10.69-21.39-9.65-29.48-7.06-59.98,4.8-89.24-18.59-16.19-21.11-38.83-11.39-60.31,8.77-19.39,24.99-32.97,40.96-46.99,6.82-38.36,12.36-84.34,5.09-123.42-39.63,18.29-70.65,45.93-98.85,77.97-3.2,3.64-9.55,7.15-13.86,10-54.02,102.32-155.19,156.84-272.02,137.88-18.76,36.84-32.42,92.42-3.16,120.61,15.9,15.32,38.1,20.8,59.41,24.34,9.92-14.67,19.89-27.67,35.16-34.93,26.54-12.62,56.24-4.13,70.45,20.42,28.3-.24,53.62,9.63,71.65,29.76,16.1,1.6,26.59,12.1,30.61,27.55,8.18,27.67,7.37,56.92.86,85.43-1.35,5.92-7.5,10.53-13.53,12.98.71,37.85-6.1,74.98-25.59,107.66-11.08,18.58-26.58,31.7-47.04,39.21-48.99,17.98-100.78,24.48-152.49,16.35-13.78-2.17-27.41-6.09-37.89-13.78-12.4-9.11-17.38-23.72-8.7-38.61ZM1326.39,1237.98c-12.27-4.41-19.52-11.07-21.9-20.03-2.34-8.81-2.59-20.81,3.09-28.58,16.69-22.84,36.86-40.99,58.82-59.39,28.9-145.24-8.51-309.14-69.69-443.26-5.95,19.04-20.78,28.95-37.14,26.22-17.04-2.85-29.35-19.06-25.38-36.79,5.04-22.51,13.32-42.92,23.13-63.95-49.69-83.74-117.5-162.04-201.78-209.74-75.46-42.7-158.02-51.97-225.5,7.79-61.7,54.64-97.17,143.51-111.37,224.63-13.58,77.62-12.76,154.87-.52,232.93,11.9,75.9,32.37,148.66,63.1,218.83,55.19,126.03,158.81,252.16,300.28,273.98,100.15,15.45,197.25-33.21,244.85-122.64ZM1719.24,665.13c-.65,2.06-6.21,4.39-7.96,3.25-1.4-.91-3.7-4.55-3.39-6.21l2.16-11.39c-5.21-3.08-15.78-4.43-23.01-1.42-5.28,2.2-10.62,9.9-12.69,16.83-5.62,18.83,1.84,35.78,19.15,44.69,48.47,24.93,101.99-19.65,117.35-69.83,5.24-17.11,2.31-36.63-10.84-49.37-26.97-26.11-64.09-40.33-101.99-39.63-19.74.36-38.45,9.74-54.05,19.39-2.01,1.24-7.77-.55-7.76-2.5.03-11.29,18.79-18.78,34.99-25.52-13.81-17.03-38.01-17.7-57.32-7.56-25.84,13.57-44.74,38.26-43.99,67.78l32.99-2.93c1.53-4.04,6.66-11.41,10.73-10.94,5.15.59,4.9,8.58,2.32,12.61,15.22,2.19,28.46,8.27,37.17,20.59,10.72-9.7,21.62-14.28,34.77-17.4l-6.53-10.98c-.91-1.53-.13-5.91,1.11-7.21,4.63-4.89,14.24,4.98,20.55,17.96,12.02,2.86,23.63,8.54,31.51,18.21l23.51-8.4c2.58-.92,8.13,3.43,8.32,5.82.86,11.08-34.58,4.77-47.1,44.16ZM1532.95,668.34l41.29,5.48c11.86,1.58,23.88.75,34.39-5.16,8.52-4.8,14.99-16.04,9.7-25.21-7.32-12.69-28.94-2.95-30.41-12.38-1.67-10.66,20.9-11.5,35.33-2.38,7.07,4.47,9.8,11.88,12.06,19.24,3.21-4.1,6.08-11.8,5.29-16.43-2.38-14.01-32.04-18.48-53.02-16.47-48.98,4.69-95.62,22.01-134.99,51.31-11.54,8.59-22.7,19.34-27.56,32.34-4.04,10.82,6.97,19.75,18.24,21.09-2.62-11.59,1.99-23.9,13.39-31.37,21.57-14.13,45.6-24.15,70.92-30.62l43.31-11.07c11.01-2.81,24.35-3.94,34.39-1.17,1.44,21.39-40.13,9.24-72.33,22.81ZM1714.38,637.44c2.51,1.23,8.24-2.23,8.24-4.55,0-11.44-39.99-24.9-64.09,4.04l6.34,16.38c9.01-19.61,32.4-24.26,49.51-15.88ZM1432.39,731.87c12.16,32.41,30.93,58.69,56.46,79.23,21.52,15.54,45.98,26.95,73.18,25.06,46.46-3.23,81.73-36.7,93.45-81.02,9.08-34.33,5.22-68.89-6.03-103.92-19.8,29.72-49.35,47.66-81.66,62.58-44.61,16-89.36,30.25-135.4,18.07ZM1779.38,749.45c32.29-21.82,69.56-61.23,41.87-95.24-23.4,49.69-67.99,90.53-124.34,73.2-2.5,7.65-2.15,15.54,1.54,24.4,18.38,21.24,56.14,14.39,80.93-2.35ZM1682.85,723.56c1.79-.59-3.93-1.57-5.45-.72s-3.68,5.02-4.06,6.71l-.63,10.91c9.24-1.36,9.9-6.3,10.14-16.89ZM1724.5,794.5c27.92,6.64,53.99-3.36,74.31-21.67,10.24-9.23,17.59-20.48,16.89-35.28-32.29,30.25-67.68,50.95-112.31,35.72.73,11.66,10.03,18.6,21.1,21.24ZM1689,777.73c3.33-9.88.22-17.86-5.08-25.5-3.27-.49-11.47,1.71-14.33,4.45-2.57,2.46-4.26,11.46-3.15,14.86,3.21,6.67,17.76,10.76,22.56,6.19ZM1462.03,1349.3c-26.94,26.07-38.95,63.65-33.1,99.87,10.57-22.42,23.8-38.5,41.46-52.82l43.13-34.97c11.69-9.48,18.91-24.56,25.75-37.99l29.09-57.11c8.29-16.28,19.56-30.65,32.6-43.17,27.96-26.83,65.35-35.46,104.2-25.08-21.56-21.2-51.35-30.94-81.29-26.29-64.02,9.94-90.46,79.02-96.68,139.99-.39,3.78-4.91,7.32-7.88,7.01-2.36-.25-7.01-4.88-6.6-7.28l8.18-46.95c-38.99,2.51-75.86,25.2-94.58,59.45-7.87,14.39-7.43,30.98,2.97,42.37,12.09-18.33,30.82-39.62,35.83-26.38.8,2.11-.35,6.7-3.08,9.34ZM1550.43,1360.47l24.13-47.83c28.82-57.12,67.87-105.09,136.13-95.37-32.92-18.51-72.31-9.73-98.8,14.74-12.29,11.35-22.77,24.54-30.29,39.6l-27.98,56.06c-13.52,27.08-31.42,48.57-56.04,66.02-29.81,21.12-66.01,53.61-54.93,91.43,15.67-67.81,72.81-71.07,107.77-124.64ZM1613.06,1453.02c41.03-26.72,78.81-58.12,106.66-98.9,15.72-23.03,24.57-48.2,23.7-75.49-.73-23.12-14.61-41.67-37.12-47.18-44.68-10.95-83.58,26.04-107,63.98l-20.88,43.12c-11.79,28.65-30.32,51.08-53.91,70.57l88.56,43.91ZM796.62,1353.41c6.72-8.97,7.27-20.7,3.14-31.41-7.28-18.88-26.01-29.69-44.85-30.62-20.15-.99-38.88,8.34-48.95,26.39,18.26,37.45,71.41,61.34,90.66,35.64ZM1607.05,1465.03l-93.91-46.34c-23.82,11.92-42.59,32.58-53.2,57.23-8.09,18.79-1.43,38.58,17.99,46.53,40.44,16.55,105.76-18.53,129.12-57.42ZM1226.68,1688.18c-55.77-46.67-142.15-41.4-164.8,11.94-9.14,21.54-9.25,45.52,4.75,63.49,8.15,10.46,24.28,14.47,37.59,16.52,39.47,6.09,79.7,3.46,117.78-7.99,22.42-6.74,39.69-22.17,49.12-43.04,21.82-48.32,42.77-142.92,20.85-185.52-8.6-16.72-33.01-21.01-50.19-23.98,1.71,19.86,1.73,40.61-8.62,37.72-9.8-2.73.9-21.37-9.82-42.56-10.07-19.9-33.37-26.85-52.93-16.25-10.16,5.5-17.34,13.59-24.81,23.77,15.43,2.45,28.63,3.07,44.09,2.4,13.73,19.93,9.67,48.5-8.75,63.62-8.14,6.68-12.73,2.94-21.01,1.79l-32.75-4.57c.16,13.87,3.47,26.95,12.63,36.74,9.14,9.78,23.6,12.01,36.43,8.05,10.84-3.34,19.06-10.97,26.93-19.45,2.16-2.32,10.14-.58,10.81,2.27,2.33,9.9-20.66,28.14-38.62,32.11,23.52,6.05,73.72,31.91,61.63,43.47-1.78,1.7-7.56,1.78-10.32-.52ZM796.98,1833.73c23.77,15.42,51.25,10.4,67.81-11.27,21.13-27.64,18.35-74.78-10.25-89.34l-5.61,33.9c-.52,3.13-7.21,5.92-9.73,4.66-11.06-5.55,13.28-35.15-10.55-78.41-1.15-2.08.88-7.88,2.95-9.01s8.7.5,9.7,3.09l11.45,29.68,20.43,10.52c16.14-27.69,18.68-65.11-2.4-92.59-27.55-35.92-71.6-54.88-116.44-54.71-2.69.01-5.55-6.9-4.18-8.89,1.14-1.66,5.44-4.41,7.72-4.17l41.78,4.24c.68-18.07-11.57-34.05-30.16-39.59-35.22-10.5-74.32-3.73-105.49,15.77-20.45,12.8-33.22,36.34-22.25,56.28l28.84-19.79c2.21-1.52,9.66.57,9.65,3.12,0,2.12-1.17,6.1-2.25,8.75-25.38,11.66-42.02,31.65-53.55,56.87-15.03,40.59-17.75,84.45-5.83,126.27,9.3,32.62,32.01,57.52,65.31,51.14-6.62-11.84-11.55-24.8-12.14-38.08-.11-2.53,6.92-5.78,8.78-4.3,8.09,6.48,5.65,36.13,33.18,54.34,19.4,12.83,45.49,8.54,61.52-7.8-15.26-16.66-32.09-47.72-19.82-50.67,12.13-2.92,8.35,28.45,41.53,49.98ZM1104.14,1811.08c53.53,7.23,106.68.23,155.13-21.79,14.14-6.42,23.42-20.24,30.7-33.34,17.3-31.17,22.45-65.83,19.97-101.49,3.74-2.9,8.95-5.42,13.91-7.37,6.87-24.14,7.1-51.23,1.38-76.04-1.92-8.34-5.86-15.7-14.44-19.92,11.6,56.33-2.84,129.91-26.55,183.23-12,26.99-34.64,44.98-63.11,52.93-46.68,13.03-113.63,16.8-157.09-5.79-3.85,18.26,18.41,26.65,40.1,29.58ZM865.4,1852.86c-5.11-6.41-9.52-4.99-14.9-2.29-20.83,10.45-44.97,5.41-64.57-8.28-25.78,28.53-66.04,28.06-91.74.8l-20.47,1.22c-7.24.43-14.23,2.82-19.89,8.17l49,29.28,114.47.25,48.11-29.15ZM695.86,1920.94l.85-30.53-49.61-27.64.57,31.17,48.2,27ZM824.66,1921.17l47.59-26.98-.34-30.64-48.16,27.65.91,29.97ZM1296.57,1952.58l68.99-40.45-68.48-40.03-149.15-.03-69.35,40.04,69.3,40.58,148.69-.11ZM811.95,1893.61l-103.51.19.06,32.63,103.51-.19-.06-32.63ZM899.16,1912.39l-17.24-10.33-62.06,36.38-119.49-.07-65.93-38.51-20.87,12.75,68.22,40.2,148.26-.02,69.11-40.39ZM598.02,2000.63l68.12-40.54-70.09-40.73-147.73.12-70.37,40.51,69.53,41.12,150.54-.48ZM1064.13,2000.63l68.41-40.37-70.33-40.84-146.26-.06-69.81,40.67,69.5,41.1,148.5-.5ZM1532.11,2000.66l67.71-40.65-69.66-40.6-148.29-.02-69.8,40.59,69.83,41.02,150.21-.34ZM830.8,2048.14l68.29-40.84-69.64-40.58-147.03-.07-69.44,40.55,68.69,41.06,149.12-.11ZM1297.97,2047.97l67.91-40.61-70.13-40.78-147.3.1-69.35,40.65,67.63,40.84,151.25-.2Z"/>
  <path d="M576.78,1559.29c2.33,3.83,1.25,8.8-.5,10.11-2.03,1.52-7.76.44-9.47-2.26-75.26-118.89-128.42-267.27-149.29-406.73-28.13-188.02-10.62-379.7,51.55-558.82,1.07-3.09,5.27-5.76,7.46-5.28,2.54.56,5.04,5.36,4.19,8.25l-25.95,88.54c-35.29,134.55-45.26,273.85-31.12,412.95,16.36,160.9,69.29,315.16,153.13,453.23Z"/>
  <path d="M570.59,1753.85c1.82,1.8,1.39,8.01.22,9.46-1.41,1.74-6.54,2.5-8.77.32-169.04-165.13-285.29-376.96-314.34-613.35-.35-2.85,3.37-7.27,5.52-7.62s6.63,2.93,6.97,5.7c28.9,233.84,143.57,440.45,310.4,605.49Z"/>
  <path d="M457.21,1828.11l136.28,31.88,4.26,7.35c1.14,1.97-4.91,5.76-7.84,5.29l-186.09-42.2c-2.03-1.85-4.41-5.49-4.47-7.58-.07-2.5,5.43-5.42,8.33-5.39,22.16.23,61.25-.79,66.35-11.34,4.82-9.98-13.76-30.78-26.43-43.87-34.4-31.78-69.23-60.79-106.7-89.18-.63-2.46-.84-6.97.03-8.82,1.04-2.22,7.17-2.37,9.75-.64l227.2,152.22c3.28,2.2,4.84,7.71,2.9,10.09-2.24,2.76-7.15,1.81-10.45-.39l-118.61-78.66c14.97,21.94,41.79,37.96,34.05,64.61-7.14,9.02-16.36,12.14-28.56,16.63Z"/>
  <path d="M555.98,1124.75c.56,3.23-1.89,8.44-3.74,8.57-2.22.15-5.54-1.53-8.23-3.8-8.54-48.16-14.12-94.29-16.22-143.7-4.16-155.63,30.25-308.29,101.3-446.36,2.73-.86,6.6-1.12,8.15-.09,1.86,1.23,2.45,6.47,1.07,9.22-57.68,115.38-91.21,239.88-97.14,369.39-3.21,70,2.73,137.16,14.8,206.79Z"/>
  <path d="M936.82,1853.94l55.85-23.09c-25.37-4.54-52.05-15.38-47.42-41.43,2.4-13.5,6.23-27.04,13.19-38.9l44.12-75.25-78.71,72.67c-1.66,1.53-6.77,2.53-8.51,1.31-2.08-1.47-1.78-6.79-.16-10.36l135.44-126.05,7.54.18c2.1.05,2.39,6.54,1.81,8.79-31.61,39.37-59.95,79.45-84.78,123.27-13.44,26.91-30.43,58.19-2.94,67.11,37.57,12.2,67.04.19,68.45,10.76.33,2.51-2.78,6.85-5.52,8.02-33.09,9.59-63.25,20.92-94.19,36.03-2.72.26-7.04-1.08-8.33-2.96-1.58-2.3.73-8.68,4.16-10.1Z"/>
  <path d="M572.56,1349.66c1.72,3.55.84,8.11-.71,9.43-1.85,1.58-8.81,1.03-9.93-1.25-72.48-148.88-104.27-322.12-82.75-486.59.34-2.62,4.13-6.36,6.32-6.75,2.68-.48,7.3,3.91,6.88,7.33-5.71,46.19-8.34,89.71-6.27,136.4,5.3,119.15,34.28,233.9,86.45,341.43Z"/>
  <path d="M477.62,1491.29c1.75,2.86-1.11,9.27-3.25,9.78s-6.49-1.13-7.95-3.4c-21.82-33.97-39.12-67.89-55.11-105.24-41.15-96.12-64.31-197.66-71.24-302.18-.2-2.97,2.98-7.17,5.08-7.62s7.18,2.87,7.34,5.17c10.18,143.64,49.06,279.36,125.13,403.49Z"/>
  <rect x="889.25" y="1622.48" width="126.06" height="13.94" transform="translate(-922.79 1844.11) rotate(-66.23)"/>
  <path d="M1164.25,1206.26c-62.52,37.83-137.94,26.59-205.08,2.55-2.02-.72-4.89-3.98-5.56-5.82s2.71-7.42,4.51-7.05l13.09,2.71c3.25-19.58-.73-41.56-14.65-57.24-13.25-6.54-24.14-16.05-31.62-27.92l-49.09-1.24c-3.94-.1-8.24-5.33-7.62-8.86.8-4.54,5.43-6.71,10.57-6.11,44.9,5.28,88.36-3.33,131.62-20.53l-13.15-40.7-18.68,3.73c-20.03,4-32.07-3-37.84-20.86-46.44-143.74-73.34-291.88-77.68-443.22-1.09-50.75,2.44-98.76,7.31-148.93,2.3-2.64,6.22-5.49,8.64-5.66,3.13-.23,6.82,5.1,6.39,9-6.38,58.4-8.64,114.85-5.75,174.12,6.85,140.59,33.16,277.71,76.63,411.09,2.08,6.39,5.97,11.97,12.9,9.92l17.26-5.09c11.29-3.33,22.22,1.53,26.37,13.29l13.02,36.93c73.91-37.24,117.68-86.38,158.8-155.84,1.24-2.09,5.79-4.82,7.87-4.12s5.61,4.78,6.13,7.21l24.59,114.61c6.16,28.72,5.85,57.57.92,86.06-6.5,37.62-27.58,68.43-59.91,87.99ZM1072.75,1098.65c53.3-33.06,93.81-80.45,121.63-136.72l-5.78-26.75c-55.4,90.52-140.17,160.51-247.81,175.01,20.06,40.08,95.77,10.89,131.96-11.55ZM1075.77,1216.41c69.17-1.55,125.88-38.5,135.84-108.13-35.67,1.94-64.45,32.65-72.16,66.97-.51,2.25-4.38,5.26-6.32,5.25s-5.28-5.02-4.81-7.21l4.28-20.01c-30.13,9.06-54.39,31.86-56.82,63.13Z"/>
  <path d="M1058.45,968.61l4.58-14.74c-19.51.43-35.4-5.93-49.02-18.14-39.34-35.26-64.03-99.87-68.2-154.18-13.19,1.69-25.75-3.31-32.1-15.39-3.92-7.45-4.65-15.97-5.2-25.11l6.7-5.51c7.42-6.1,4.48,22.15,17.63,29.67,17.83,10.19,39.25-26.96,48.02-50.47l24.98-66.97c16.94-45.4,50.11-93.27,99.18-72.53,2.44,1.03,5.12,6.7,4.41,9.16-.9,3.13-6.58,5.9-9.98,4.62-32.75-12.36-55.7,13.95-69.45,44.68,39.32-2.11,74.91,31.1,94.29,64.13,23.98,40.87,37.24,86.33,39.5,134.74,17.64-6.06,39.16-11.7,42.92-1.47.85,2.32-2.26,8.34-4.91,8.49-44.49,2.46-76.6,31.77-99.81,68.5-12.85,20.33-22.18,41.76-31.85,64.11-.81,1.87-5.11,4.47-7.1,4.37-2.39-.12-5.37-5.44-4.58-7.96ZM1036.93,876.9l31.57-28.47c12.21,16.9,16.05,36.3,18.25,56.47,17.18-27.64,35.89-50.01,62.82-64.99-.51-63.32-26.34-141.89-76.99-178.38-15.06-10.85-32.87-16.48-51-12.32l-27.7,74.63c-7.5,20.2-18.33,37.76-34.66,52.24,3.35,40.9,15.17,79.71,36.54,114.47-4.89-27.88-5.86-65,17.24-73.25,11.01-3.93,24.92-1.99,31.49,5.91l-7.55,53.68Z"/>
  <path d="M879.53,994.25c-13.39,25.99-42.08,32.91-65.71,17.58-18.51-12-32.2-28.68-43.49-48.53-27.75-48.76-41.09-104.76-38.19-161.12,1.16-22.51,7.13-42.91,19.06-60.73,14.06-20.98,39.5-25.44,60.45-10.55,21.21,15.08,37.71,35.87,49.53,60,27.8,56.74,47.56,146.65,18.35,203.35ZM828.31,943.06l29.09-24.14c11.1,16.74,13.67,34.08,15.53,53.64,21.22-66.87-11.78-188.25-66.45-228.75-14.88-11.02-32.07-9.12-43.34,5.8-38.21,50.57-9.86,176.33,34.84,227.25-7.19-22.73-13.79-42.87-8.52-65.27,2.4-10.18,9.16-19.93,16.94-22.6,10.51-3.6,21.21-.62,28.78,4.94l-6.88,49.12Z"/>
  <path d="M1219.83,919.33c-9.81-13.82-26.15-18.29-41.17-12.69-20.92,7.8-26.78,22.02-34.88,18.59-8.61-3.65,10.18-24.75,31.4-31.54,22.74-7.28,44.62.27,57.05,20.44,8.63,14.01,15.13,32.42,6.11,33.62-8.67,1.15-7.45-12.86-18.5-28.43Z"/>
  <path d="M1230.76,1194.61c-29.15,60.09-98.76,65.1-99.66,52.36-.18-2.47,3.98-7.21,6.76-7.27,35.78-.7,64.12-20.25,80.39-51.67,1.24-2.4,7.55-4.41,9.87-3.23s4.03,6.97,2.65,9.81Z"/>
  <path d="M1136.81,1301.18c13.15,18.43,35.41,22.21,30.13,33.03-8.83,18.1-49.46-27.37-65.95-55.47-1.96-3.34-.16-10.3,2.92-11.67,3.61-1.61,8.77.31,11.08,3.53l21.83,30.58Z"/>
</svg>