<?xml version="1.0" encoding="UTF-8"?>
<svg id="Layer_1" xmlns="http://www.w3.org/2000/svg" version="1.1" viewBox="0 0 1984 2162">
  <!-- Generator: Adobe Illustrator 30.3.0, SVG Export Plug-In . SVG Version: 2.1.3 Build 182)  -->
  <defs>
    <style>
      .st0 {
        fill: #fff;
      }
    </style>
  </defs>
  <path d="M775.98,2022.97c-23.53-6.28-43.72-18.85-57.42-37.41-12.6-17.07-18.98-36.75-24.84-57.02-4.86-16.81-20.38-8.67-27.15-25.12-13.29-32.34-27.33-75.64-15.89-106.47,9.35-25.21,29.4-16.06,39.18-30.93,14.03-21.34,34.92-35.12,60.03-37.18,6.7-22.88,26.81-35.97,49.69-34.01,17.21,1.47,31.98,9.15,45.39,21.04,19.98-15.4,38.21-32.51,54.03-52.79,35.63-45.67,31.16-100.39,22.68-156.54-34.95-12.78-64.8-31.49-92.7-55.65-90.47-78.36-135.27-193.51-153.77-310.74-74.95,44.08-120.06,110.72-151.1,187.13,29.08,19.24,46.37,50.27,25.84,78.17,16.18,23.64,20.56,51.72,14.47,79.24-3.25,14.71-.88,26.8,8.18,38.92,17.2,23.02,29.92,49.92,11.64,71.71-9.34,11.13-22.8,14.32-38.32,13.01l2.3,18.52c19.49,1.46,39.11,1.72,57.83,9.31,26.7,10.83,29.9,68.9,27.53,102.07-3.52,49.22-15.52,96.45-36.45,140.81-12.66,26.82-37.18,61.66-65.62,55.4-31.67-6.97-61.52-18.07-88.78-34.95-26.44-16.36-45.18-38.24-58.35-66.02-23-48.52-10.81-112.75,23.93-153.29-4.09-19.11-3.88-37.18-.82-55.83l-18.31-24.53c-14.55,39.82-42.04,93.4-86.72,81.86-17.36-4.48-27.96-19.5-25.85-37.66,3.38-29.07,29.37-53.9,40-86.26l-35.88,24.95c-14.42,10.03-33.55,11.75-50.3,7.07-17.88-4.99-28.68-21.33-23.78-39.55,3.37-12.53,12.13-23.46,23.02-30.5l41.49-26.85c46.36-30,41.33-59.61,66.47-93.24,15.26-20.42,34.41-35.81,58.08-45.35-2.88-16.76,4.5-30.48,18.28-38.57,14.92-8.77,32.19-10.15,50.56-8.63,38.47-100.58,104.93-186.67,202.92-233.72-8.64-90.75.73-189.14,22.37-277.64,19.15-78.32,58.17-172.01,117.24-226.54,18.83-17.38,38.8-32.11,63.09-41.01,54.25-19.87,113.7-14.72,164.39,13.36,71.37,39.54,129.77,113.45,169.27,184.64,53.5,96.42,86.47,200.34,99.5,310.95l60.19-13.6c58.79-16.63,115.79-35.46,172.81-56.6-.98-34.77,12.75-63.8,46.71-63.8,6.65-32.32,25.04-60.76,54.01-75.69,20.17-10.39,42.77-10.39,61.53,3.76l106.31-48.02c29.77-13.45,65.43-29.96,87.15-8.26,8.82,8.81,12.01,21.68,8.89,34.46-8.28,33.89-48.87,53.4-82.37,66.19,23.58,20.26,21.2,50.7,2.45,74.17,11.14,12.8,14.68,28.99,8.96,44.59-13.34,36.41-52.9,45.2-90.59,42.51-30.01,19.62-66.72,25.1-98.85,9.42-18.51,17.44-45.26,17.75-64.54,1.62l-19.07-20.86-69.89,23.93-122.77,37.16-55.36,11.98-.29,88.33c-7.15,107.62-47.55,216.07-135.57,283.62,68.51,73.06,110.14,162.95,137.6,257.25,27.38-6.14,49.38-2.55,61.88,21.37,28.31-40.45,79.03-57.1,125.29-40.67,30.05,10.68,47.79,34.55,56.31,64.19,4.27,14.85,26.95,35.65,3.85,77.86-27.25,49.8-87.54,87.99-138.55,113.43-36.94,18.42-74.2,32.67-115.37,38.6-11.44,1.65-24.75,1.79-34.39-3.62-13.69-7.67-16.66-23.32-15.32-38.02-25.87-31.05-32.4-71.41-14.95-109.14-23.78-10.74-31.64-35.79-20.23-58.66,7.46-14.96,19.18-26.29,33.92-37.54-26.72-94.94-65.84-178.79-135.08-252.67-40.99,17.78-85.77,23.35-131.4,18.16,4.15,33.35,5.09,63.97-.81,95.13-4.43,26.32-13.31,49.88-28.51,71.69-20.11,29.92-45.27,54.31-74.44,76.46,11.01,31.72,11.33,59.63-13.29,81.55,3.47,1.97,9,3.71,12.13,3.39,22.36-2.33,42.55.57,62.16,9.01,42.99,18.48,61.84,64.65,43.65,107.86,10.99,19.23,4.45,41.32-15.66,50.38-52.38,23.6-137.09,20.58-195.85,4.89ZM1030.03,1507.69c56.14-2.23,106.15-25.04,148.03-61.84,83.88-73.72,115.87-191.62,115.3-301.92-.44-86.66-12.86-170.65-37.84-253.36-35.73-118.32-111.19-260.3-216.79-327.3-46.79-29.68-102.39-38.48-155.48-21.98-48.25,14.99-89.71,61.15-115.39,104.69-25.84,43.81-44.16,89.27-57.48,138.84-24.62,91.66-33.7,186.06-27.19,281.27,7.87-2.62,15.61-5.92,22.54-6.58,15.71-1.49,27.85,9.71,31.25,22.64,3.24,12.31-.27,29.73-13.21,35.28l-32.91,14.12c12.26,73.71,29.27,136.05,64.77,200.84,56.15,102.48,153.28,180.1,274.39,175.29ZM1817.1,924.98c3.83-9.58,3.52-20.25-2.07-28.83-4.21-6.47-13.45-12.18-23-12.68-23.02-1.21-36.26,9.73-41.01-1.4-1.27-2.99,2.38-10.12,5.9-10.73l36.41-6.4c25.08-4.4,48.47-15.96,69.41-30.03,19.22-12.92,30.48-36.82,18.25-48.8-14.95-14.64-50.63,3.2-74.82,14.25l-95.95,43.84,12.98,28.87,13.84,26.96c22.45-11.68,51.35-7.75,48.55,4.82-2.58,11.62-25-2.45-45.1,12.45,2.27,17.55-2.52,32.73-17.59,44.2,29.73,15.91,81.79-5.47,94.2-36.51ZM1709.62,972.48c-.72-9.39-15.97-4.57-32.27-15.65-8.94,25.96-39.82,42.81-44.51,29.2s25.95-9.73,31.03-41.58c-18.27-22.17-24.88-63.71-9.11-62.47,2.23.17,6.52,3.84,6.52,6.25.13,39.35,30.71,69.81,52.61,58.91,5.11-2.54,9.77-9.85,10.98-16.55,2.19-12.18-2.47-22.97-7.61-33.95l-15.82-33.81c-7.86-21.63-28.87-31.29-50.46-23.74-39.25,13.71-63.95,68.13-49.1,113.29,1,3.03-2.43,8.87-5.08,9.51-13.16,3.17-14.43-22.25-16.15-42.69-13.24.67-22.98,11.06-25.74,24.1-7.05,33.38,6.16,69.04,31.42,92.07,11.5,10.48,28.69,10.24,39.52,1.87l-13.16-13.97c-2.11-2.24.04-10.34,2.85-11.17,2.42-.71,8.14.34,9.92,2.15,28.62,29.09,56.77,32.21,94.84,15.15-9.88-5.86-16.75-14.37-18.95-24.14-2.6-11.54,1.78-22.7,8.26-32.77ZM1816.28,982.06c1.25-8.07-1.87-16.21-7.6-20.87-24.19,19.05-53.98,26.25-83.45,19.33-6.51,3.56-9.91,13.8-8.2,21.46,1.53,6.87,8.44,12.38,16.43,14.91,30.51,9.65,77.4.26,82.82-34.82ZM390.16,1510.95c2.72-3.07,7.65-5.1,10.19-4.05,12.7,5.28-10.92,30.63-4.2,63.17,4.09,19.79,16.08,39.31,33.03,50.21,20.03,12.89,48.26,5.73,56.24-16.65,4.61-12.95-35.84-9.3-37.61-43.73-1.71-33.22,24.77-66,47.38-57.27,6.09,2.35,12.33,10.83,13.29,18.82l4.31,35.84c12.07,8.16,19.48,18.67,28.02,30.63,5.45,7.63,23.11,4.95,29.57-1.29,7.86-7.59,8.4-20.78,2.96-29.96l-19.37-32.67c-16.65-28.07,3.37-51.74-5.86-84-7.07-24.71-23.46-43.65-44.99-57.33-2.84-1.8-3.19-9.15-1.31-11.77,1.76-2.44,9.06-3.07,11.66-.97l26.3,21.18c5.56-11.88,2.37-23.91-6.09-33.4-24.74-27.74-65.11-40.61-101.37-32.13-11.82,2.76-21.26,10.87-20.76,22.67l27.89-1.52c2.68-.15,6.58,5.73,6.62,8.35.03,2.24-3.65,7.19-5.92,7.16-51.04-.73-91.05,35.85-108.09,81.98-15.17,41.05-47.16,60.5-83.62,82.17-17.36,10.31-32.12,26.72-24.4,40.14,1.96,3.4,8.21,7.51,12.96,8.46,31.63,6.37,62.1-23.77,85.01-46.98,1.8-1.82,7.16-6.15,7.7-8.9l4.87-24.76c.83-4.2,4.88-8.01,8.18-7.69,4.07.39,8.12,4.96,7.54,9.25-5.78,43.1-20.75,82.07-44.48,117.84-10.66,16.07-18.72,38.69-7.97,47.86,15.53,13.24,37.51,1.48,51.92-18.13,13.35-20.33,22.26-42.31,30.01-65.7-4.82-23.2.54-44.28,10.4-66.83ZM495.18,1551.03l-2.67-28.41c-1.22-13-25.81.29-27.74,29.42l30.42-1.01ZM510.23,1629.63l22.32-1.94c-1.6-13.65-3.43-27.51-11.06-39.38-10.74-16.72-33.92-27.65-53.65-18.85l21.93,12.78c16,9.32,19.93,29.48,20.47,47.39ZM494.55,1633.36l-1.1-10.26-14.33,12.98,15.43-2.72ZM435.15,1657.07c3.18-2.44,3.31-13.69-.19-15.31l-13.68-6.31.37,31.99,13.5-10.38ZM461.76,1642.96c-6.13-2.82-10.19.45-9.77,4.98l9.77-4.98ZM512.11,1912.84c-5.91-25.81-8.19-45.81-7.79-69.05,3.66-67.7,21.47-145.1,65.8-199.25l-51.65.11c-21.84,2-41.98,8.5-61.31,18.31-34.05,16.84-56.47,47.22-64,84.5-4.05,20.07-6.25,40.17-.87,60.2,8.17,30.41,27.23,55.23,52.46,73.56,20.89,14.03,42.96,24.82,67.35,31.6ZM524.28,1894.43c1.16,10.32,4.4,16.88,10.07,23.83,7.3,1.34,14.88-.27,20.25-5.84,65.66-68.11,79.8-248.02,45.25-261.84-2.86-1.14-10.73-.29-12.85,1.94l-12.55,13.19,15.4-2.7c9.06-1.59,16.68,24,16.55,45.2-.29,47.95-8.85,95.22-26.43,139.56-8.79,22.19-25.27,57.36-42.95,55.12-4.37-.56-8.94-4.87-12.75-8.45ZM941.6,1877.18c-45.43-22.18-97.98-8.82-130.38,28.31-2.85,3.27-9.92.49-11.51-2.57-1.49-2.85-.2-7.93,2.19-10.84,15.01-18.3,34.44-26.61,56.52-38.59-25.2.53-45.8-2.73-62.99-19.31-2.16-2.08-.76-9.55,1.78-11.6,8.35-6.74,16.1,11.3,42.7,14.46,15.46,1.83,28.99-7.66,32.52-22.75,2.93-12.52,1.46-25.55-3.49-37.62l-23.62,16.56c-16.84,11.8-37.55-.86-43.99-18.3-5.15-13.95-3.05-25.98,9.38-34.44l21.36-14.54c-10.49-7.94-19.9-13.09-31.88-14.82-16.32-2.36-30.39,6.89-34.67,22.61-7.65,28.1,11.13,43.82-1.67,49.43-2.62,1.15-10.12-1.13-10.69-4.1l-6.37-33.26c-11.58.89-23.67,7.05-32.41,16.7-19.78,21.83-28.19,29-16.56,69.7,12.23,42.82,32.25,81.79,57.51,118.3,4.88,7.05,13.34,13.91,20.83,17.2,49.56,21.73,121.98,20.97,174.11,6.61,7.08-1.95,17.52-6.54,20.89-13,16.15-30.99,2.65-68.42-29.55-84.14ZM1247.46,1838.29c12.51-19.12,33.52-36.79,38.52-24.85.99,2.36-.16,8.47-2.59,10.21-38.76,27.62-50.45,84.29-20.36,123.3l28.42-15.59c20.89-11.46,42.96-20.88,60.59-37.33,31.91-29.78,49.17-75.02,88.05-105.76,26.86-21.23,59.55-30.05,92.37-22.93-8.82-24.33-28.39-38.85-52.57-43.6-39.85-7.84-80.48,12.34-100.28,47.75-11.5,20.57-17.78,41.37-21.48,64.85-.58,3.67-5.67,6.82-9,6.64-2.89-.16-8-5.63-7.37-8.73l6.7-33.01-12.93,3.11c-4.48,1.08-9.9-.42-11.53-3.99-1.52-3.35,1.09-11.17,4.21-11.79l23.8-4.73c8.73-8.6,7.9-27.19-3.32-34.49-25.13-16.34-98.56,16.84-116.66,58.61-5.97,13.77,1.75,29.47,15.43,32.34ZM1292.34,1963.49l31.84-15.35c30.2-14.56,55.88-34.89,76.15-61.77l29.26-38.82c26.52-35.19,71.3-63.84,115.33-56.32-8.33-10.32-21.07-12.03-33.21-11.99-34.56.1-66,18.44-86.21,46.28l-36.2,49.85c-31.97,44.02-50.84,48.51-89.57,70.17l-26.01,14.55c-4.84,2.71-4.51,13.55-1.62,17.99,6.07-5.17,12.53-10.86,20.24-14.58ZM965.76,2003.11c10.21-4.17,12.79-15.24,9.44-22.64-29.75,19.1-82.34,20.89-119.18,20.1-27.79-.59-54.02-5.01-79.69-14.96-15.24-5.91-27.4-15.75-36.69-29.46-30.21-44.61-64.59-110.07-63.18-164.73-28.59,16.53-7.3,79.23,8.17,109.49,6.73,1.35,18.31,4.07,20.23,9.62l16.13,46.55c10.84,24.59,30.62,42.12,56.87,49.37,56.7,15.67,132.85,19.14,187.92-3.34Z"/>
  <path d="M589.98,422.79c5.54-23.13-8.49-46.86-32.03-49.29-20.42-2.1-40.72,12.29-46.5,31.58-6.32,21.1,11.09,45.89,4.44,63.17-6.96,18.09-30.2,26.05-46.96,16.74-9.91-5.5-15.43-16.57-18.77-27.31-21.71-69.82,38.27-136.62,107.6-145.31,28.67-3.59,55.46,7.29,74.14,26.69,37.19,38.64,22.12,83.06,9.63,130.31-4.13,15.63-2.19,29.88,5.24,43.43,8.67,15.8,2.19,33-12.57,41.29-14.49,8.14-30.77,5.86-40.63-7.73-16.42-22.62-21.18-50.12-14.61-77.54l11.03-46.03Z"/>
  <path d="M928.86,275.74l38.73-37.98c15.55-15.25,15.82-41.9-1.77-55.69-15.7-12.31-41.29-12.02-56.02,1.52-19.13,17.59-14.45,57.07-41.6,60.68-11.38,1.52-22.42-1.37-30.38-8.92-23.16-21.94-1.55-81.73,48.45-105.29,59.91-28.22,145.56-8.23,159.42,62,6.17,31.27-4.36,59.44-26.65,80.97l-36.58,35.36c-10.31,9.97-15.12,21.77-15.94,36-1.03,17.84-15.19,29.29-32.55,28.54-15.93-.69-28.02-10.94-29.77-27.25-2.73-25.53,5.45-51.11,24.66-69.94Z"/>
  <path d="M1312.81,444.09l51.61-9.41c12.49-2.28,23.03-9.33,27.96-17.98,6.85-11.99,9.14-24.28,3.06-36.36-7.78-15.45-25.48-26.35-43.46-24.74-21.86,1.96-34.06,25.41-53.22,28.86-13.78,2.48-26.57-7.81-31.54-17.19-7.39-13.97-4.2-27.79,5.24-38.84,38.3-44.81,106.8-38.89,154.34.65,24.05,20,38.85,47.19,37.73,78.86-1.42,40.08-27.24,74.58-66.66,81.86l-52.1,9.63c-15.2,2.81-27.85,8.69-37.33,21.04-10.99,14.32-29.85,16.54-43.62,7.34-15.95-10.65-17.03-29.47-6.56-46.08,11.73-18.6,30.97-33.36,54.54-37.66Z"/>
  <circle cx="1239.02" cy="573" r="38.26"/>
  <circle cx="666.36" cy="595.14" r="38.11"/>
  <circle cx="938.52" cy="424.28" r="37.86"/>
  <polygon class="st0" points="494.55 1633.36 479.12 1636.08 493.46 1623.1 494.55 1633.36"/>
  <path class="st0" d="M461.76,1642.96l-9.77,4.98c-.42-4.53,3.64-7.8,9.77-4.98Z"/>
  <path d="M988.03,1074.97c-20.27,21.99-50.04,27.76-76.6,15.14-14.86-7.07-27.1-18.81-38.4-29.87-3.68,3.33-9.39,7.93-13.18,9.1-2,.61-6.4-1.79-7.4-3.56-1.2-2.12-1.29-9.1.6-10.5l10.86-8.04c-37.32-59.49-49.27-153.47-6.65-209.57,21.17-27.86,55.9-36.22,86.83-19.22,21.32,11.72,37.53,30.21,49.63,51.94,39.59,71.08,22,143.89,24.31,144.45l6.15,1.47c3.69.88,8.29,4.99,7.93,8.56-.51,5-5,7.03-9.86,7.36l-10.92.74c-5.25,15.63-11.9,29.64-23.31,42.02ZM938.86,962.93l28.94-31.31-37.38-12.08c.09-12.43,1.58-25.26,7.19-35.67,7.98-14.82,23.65-17.24,39.42-9.19-9.16-18.06-22.51-31.32-38.73-41-19.57-11.67-42.73-10.61-59.77,5.11-47.2,43.55-37.59,143.34-.84,198.72,37.41-23.92,78.79-31.82,122.45-25.64l3.64-32.41c-5.26,9.5-10.27,18.52-16.45,21.19-21.02,9.07-42.4-12.76-48.47-37.73ZM975.5,1064.34c10.1-10.39,16.22-22.68,20.83-36.9-38.31-5.17-75.29,3.25-108.75,22.92,8.68,10.44,18.67,19.64,30.92,25.06,19.91,8.81,41.34,5.03,57-11.08Z"/>
  <path d="M1145.58,1039.11c-79.73-37.21-115.09-214.51-62.12-279.53,15.17-18.63,39.69-24.67,61.82-14.42,18.17,8.42,32.82,22.37,44.08,39.76,36.47,56.31,49.66,124.44,38.32,190.67-3.32,19.38-10.78,36.5-23.15,50.79-14.69,16.97-37.65,22.67-58.96,12.73ZM1151.63,910.59l28.24-31.98-37.33-11.54c-1.56-23.47,5.31-52.49,25.15-54.32,8.19-.75,14.47,2.98,23.03,7.25l-21.23-35.53c-6.56-10.97-18.04-18.89-29.2-24.65-18.81-9.72-38.59-2.26-48.9,15.95-48.3,85.31,15.22,257.04,78.44,251.99,34.84-2.78,46.32-59.79,45.78-94.03-4.83,8.44-10.31,16.02-16.7,18.48-20.83,8.02-41.48-15.96-47.29-41.63Z"/>
  <path d="M1138.18,1268.26c-46.72,1.04-64.99,27.24-105.34,42.5-17.42,6.59-38.21,5.25-51.63-7.93-13.98-13.72-13.64-34.53-6.25-52.17,10.9-26.02,31.58-45.23,55.16-60.58,73.17-47.63,136.01-21.48,130-4.97-.86,2.37-6.79,3.15-11.21,2.61-16.42,35.13,17.49,51.94,6.63,70.61-2.58,4.43-10.95,9.79-17.36,9.93ZM987.67,1268.7c-4.42,6.6.55,18.04,4.61,21.93,5.58,5.35,13.32,7.63,21.81,8.15,35.12-6.4,56.48-32.46,92.78-43.11-14.2-15.58-35.97-20.46-54.96-12.5l8.28,6.85c2.2,1.82,2.57,9.51.09,10.71-2.12,1.03-7.36.34-9.71-1.17-20.39-13.05-48.25-12.72-62.9,9.14Z"/>
  <path d="M1081.67,1139.57c-16.74,4.63-25.69,20.01-32.47,10.51-1.74-2.44-1.56-9.92.9-12.12,13.97-12.45,27.74-10.96,34.84-20.35l-47.41-197.33c-31.12-117.76-70.04-231.75-118-343.34-1.99-4.63-1.15-10.6,1.97-12.21,5.28-2.72,10.56-.71,13.04,5.04,51.5,119.61,92.79,241.91,125.07,368.41l40.48,171.46c3.48,14.74-5.12,26.27-18.41,29.94Z"/>
  <path d="M1051.73,1462.77c10.78-37.35,14.38-72.86,16.35-110.75.4-7.73-.22-14.63-2.44-22.41,12.64-21.27,34.83-36.78,60.27-38.06,22.88,1.35,40.68-13.86,42.54-37.14l5.44-7.5c1.46-2.01,8.07,2.66,8.19,5.29,1.34,28.89-21.02,53.13-49.97,53.28-18.39.1-34.62,6.86-47.18,20.36.07,46.45-3.74,90.87-15.76,135.3-.86,3.18-4.2,7.6-6.69,8.18-3.42.79-8.35-2.02-10.73-6.55Z"/>
  <path d="M832.78,823.74l-8.74,1.23c-6.07.86-5.74-16.01,11.36-31.59,50.7-46.23,124.63-29.71,121.71-9-1,7.08-6.89,12.1-14.37,11-39.12-15.9-82.77-5.03-109.96,28.36Z"/>
  <path d="M1103.49,691.09c-37.35,1.46-44.47,39.78-61.44,27.96-16.74-11.66,9.5-35.39,32.17-44.52,49.96-20.1,91.47,25.81,79.2,35.97-8.79,7.28-18.63-20.64-49.94-19.42Z"/>
  <path d="M416.14,1453.47c-1.43,4.61-7.64,7.61-11.19,6.62-15.8-4.4,8.41-46.07,22.72-66.72,1.89-2.73,7.98-4.49,11.06-3.37,2.77,1,4.54,8.46,2.78,11.1-11.28,16.9-19.08,32.2-25.36,52.38Z"/>
  <path d="M471.07,1410.96c-11.27,34.2-5.73,53.93-18.17,54.54-15.23.75-4.69-36.57,3.22-59.57,1.36-3.95,6.57-6.88,10.5-5.71,3.28.98,5.68,7.03,4.45,10.75Z"/>
  <path d="M382.42,1430.02c-1.99,2.31-9.5,2.74-11.85.71-10.15-8.79,17.2-35.38,33.8-48.87,2.23-1.81,8.55-1.13,10.23,1.03,1.97,2.52,1.3,8.24-.69,10.55l-31.49,36.59Z"/>
</svg>