<?xml version="1.0" encoding="UTF-8"?>
<svg id="Layer_1" xmlns="http://www.w3.org/2000/svg" version="1.1" viewBox="0 0 1984 2162">
  <!-- Generator: Adobe Illustrator 30.3.0, SVG Export Plug-In . SVG Version: 2.1.3 Build 182)  -->
  <defs>
    <style>
      .st0 {
        fill: #fff;
      }

      .st1 {
        font-family: Auster-Bold, Auster;
        font-size: 155.71px;
        font-weight: 700;
      }
    </style>
  </defs>
  <g>
    <path d="M851.65,1589.54c-75.88,52.54-162.36,56.28-242.22,6.83-23.88,22.69-48.47,31.85-79.08,20.33-10.85,2.31-8.82,13.5-6.29,21.37,12.4,38.49-.02,82.59-30.67,109.07-36.62,31.63-89.56,29.76-126.53-.41-22.45-2.8-40.46-13.44-54.42-31.51-14.21-19.11-20.18-42.65-20.29-67.4-.3-65.01,26.08-137.13,72.54-184.06-2.82-9.2-4.51-19.58,1.89-27.15l25.69-30.39c31.3-37.04,88.29-71.37,122.47-28.23,39.26,3.72,72.76,30.53,89.8,65.79,19.75,3.66,37.21,12.94,44.71,33.23,7,18.92,5.77,39.18-2.74,59.88,89.76,51.33,161.62,12.25,225.81-61.45-73.52-31.37-124.73-88.66-154.76-161.82l-486.24-20.8c-18.89-.81-36.25-.11-54.87-7.14l255.56.29,276.54,3.07c-44.08-136.06-23.18-283.74,18.87-417.69-65.85-33.69-118.02-18.61-158.4,42.86,28.83,25.02,40.65,58.6,17.9,88.99,24.75,32.28,36.22,69.41,34.74,108.75-1.24,32.83-23.23,56.69-56.64,61.31l-2.5,15.75c-8.6,31.21-35.33,56.24-67.6,61.33-25.67,4.05-47.95-11.1-61.05-32.72-37.39,13.43-76.56-8.72-83.68-47.8-39-10.27-55.07-44-49.1-83.38,6.62-43.7,27.09-82.5,56.17-115,17.42-19.47,39.98-30.58,62.83-39.39,1.96-19.2,10.16-38.64,31.02-45.46,16.67-5.45,34.59-6.72,52.51-2.46,58.71-92.66,145.44-125.49,248.49-79.35,18.32-45.11,39.49-88.84,62.68-130.81-7.48-15.61-8.31-32.97,6.09-45.7,8.41-7.43,20.77-11.69,31.44-15.67l29.93-44.15c-15.83-22.77-.79-50.53,23.71-65.09l8.14-23.75c8.76-25.59,52.51-34.27,81.89-37.35,59.1-56.68,129.41-104.96,212.03-115.62,63.91-8.24,123.89,17.55,163.55,68.11,21.99,28.03,37.72,59.65,50.14,93.26,9.7,3.25,17.99,6.94,25.54,12.55,11.36,13.64,15.43,29.63,12.12,47.6,11.12,14.47,14.67,31.62,10.13,49.12-3.46,6.69-7.84,11.9-13.71,16.71l5.97,51.79c11.38,2.16,22.95,7.76,25.91,18.41.78,2.8-.71,8.51-2.56,10.13-2.16,1.9-8.73,1.69-11.19.16l-10.53-6.51c10.51,151.31-8.13,306.2-63.71,448.69,33.1,29.57,73.12,49.25,112.43,23.35,21.27-14.02,37.49-33.45,50.04-55.42-29.76-23.14-43.51-53.37-24.88-86.39l-7.59-9.97c-17.04-22.38-26.33-49.98-29.02-78.02-4.06-42.39,19.73-84.13,64.1-85.43,12.24-46.82,48.66-92.83,94.48-77.96,14.51,4.71,26.98,19.01,33.68,34.71,17.38-4.87,37.02-5.55,54.29,5.32,14.48,9.12,21.54,27.16,25.96,44.07,41.25,3.93,58.29,40.49,53.97,81.13-6.91,65.12-52.73,141.22-120.78,155.07.7,23.36-14.43,42.49-37.88,47.4-13.52,2.84-27.7,1.34-42.31.5-15.59,27.68-34.98,50.51-58.11,70.89-41.61,36.65-98.17,47.6-149.32,25.17-16.81-7.37-31.42-16.58-47.65-28.48-28.7,57.32-62.59,109.87-105.23,157.07l-9.18,23.59c-1.8,4.62-8.21,8.62-13.41,9.34-8.49,1.18-14.4,4.49-20.76,9.84-31.89,26.87-65.55,48.89-104.93,67.39,77.64,58.49,139.83,128.18,188.09,212.01,25.56-10.1,48.12-11.59,65.65,13.01,3-25.7,9.09-50.6,21.92-73.28,37.16-65.67,122.09-82.21,181.11-35.62l32.42,33.14c15.55,15.9,30.97,28.63,37.06,51.4,13.17,49.24-3.77,95.5-31.93,137.46-28.29,42.92-62.37,79.75-104.65,109.09l-7.48,10.77c-13.6,19.59-32.81,33.88-52.43,47.3-19.82,13.55-42.07,22.82-64.53,26.95-39.39,7.25-64.38-16.3-78.41-49.55-27.7-35.2-40.2-64.66-38.41-112.56-12.64-4.59-25.42-11.72-30.88-24.98-12.31-29.9-.87-57.68,15.92-84.63-54.96-98.99-128.35-175-222.54-235.16-27.85,2.94-54.82,3.8-82.67.49-26.66,36.27-57.15,68.2-94.16,93.82ZM1293.68,391.37l12.04,72.93c4.16,4.51,13.09,6.24,19.38,5.3,26.69-3.99,51.79-.7,73.62,16.47-29.9-80.65-88.08-146.55-178.97-140.07-71.76,5.59-134.37,45.08-188.63,91.7,87.88-7.63,173.21-5.43,257.95,22.98l-11.9-67.7c-.77-4.37,2.42-9.32,6.46-10.19,3.58-.77,9.22,3.58,10.04,8.57ZM1173.94,519.9c25.43.07,48.66-5.58,70.79-17.66l-68.72-8.5c28.75-12.81,58.75-8.47,87.85-3.23l25.19-12.25c-100.88-36.72-221.89-33.24-324.81-14.3-17.95,3.3-33.5,14.17-38.41,32.33,38.11-9.52,75.27-13.31,114.12-10.98,1.1.1,6.42,2.8,5.3,3.69l-4.82,3.8c-36.81,4.19-72.2,9.37-108.11,17.17-22.76,5.41-45.47,26.1-38.2,43.74,96.29-29.52,180.27-34.09,279.82-33.8ZM1352.47,519.37l33.18-23.33c-30.97-18.73-74.34-12.34-104.17,3.56l-40.38,21.53c34.73,24.81,77.39,22.14,111.37-1.75ZM1442.29,555.02l-40.34-21.17c15.69-6.34,28.44,2.6,41.97,5.63.13-12.45-3.45-23.24-11.39-29.04-18.95-13.84-37.42-.09-54.87,11.26l-34.89,22.67c38.63,14.03,73.6,32.27,107.68,53.52,7.78-13.49,5.77-35.54-8.17-42.86ZM1065.44,1113.36c-27.22-6.13-49.84-24.98-56.38-52.03-9.76-40.37,11.44-82.17,49.24-98.71,41.82-18.29,86.16-1.02,122.33,24.82,15.36,10.98,30.67,21.07,48.42,27.8,15.39,5.84,32.02,4.08,48.1,2.11l30.81-3.77c27.82-.94,51.15,18.6,53.59,46.46,2.09,23.94-4.92,48.4-22.6,64.83-19.94,18.53-48.31,19.42-72.79,8.73l-44.01-19.22-8.75,25.44c15.75,5.75,30.84,15.49,24.79,22.02-1.52,1.64-6.9,1.95-8.83,1.1l-21.81-8.6-25.71,63.95c37.09,2.93,72.85,4.6,109.04-3.23,2.66-.58,8.85-1.12,9.79.99l3.66,8.22-18.02,77.43c126.84-169.88,172.8-406.51,156.76-613.92l-25.09,13.16c26.35,45.36,18.39,111.23,3.05,160.18-5.58,17.8-14.66,33.64-25.37,48.8l21.88,7.97c2.99,1.09,4.48,8.03,3.28,10.4-6.53,12.94-45.92-22.2-104.02,16.39-5.13,3.41-8.15,5.04-8.4,12.47-.33,9.9-6.58,20.51-17.16,21.92-18.4,2.47-36.3,2.58-55.08.82-5.31-.5-8.32-8.72-6.23-12.61,2.3-4.28,7.72-6.04,15.6-4.69,35.99-134.03,56.85-268.62,53.07-408.13-28.88,1.23-53.58-8.26-74.85-25.35-17.23,4.56-33.91,6.79-51.79,6.91l-96.13,1.88c-56.74,3.08-111.09,12.74-165.6,27.74l-30.73,43.59c23.01,2.61,74.35,9.48,74.03,21.97-.06,2.18-2.24,6.06-4.06,8.2-26.42,4.55-47.85,17.38-67.52,34.35-14.51,11.73-31.24,17.38-50.2,11.99-23.25,41.64-42.75,83.75-60.62,128.66,26.84,16.53,51.24,34.79,72.82,57.41,14.16,14.84,10.67,38.53-2.96,50.35-15.84,13.74-36.31,9.6-50.33-4.85s-28.08-25.34-44.88-35.84c-41.55,131.75-60.46,276.17-15.94,408.05l111.42,3.2c4.69.13,9.6,7.04,10.1,10.67,2.39,17.15-25.24,13.83-49.43,13.11l-61.5-1.82c41.12,93.26,120.23,151.83,219.57,161.88,7.65.77,14.64-3.98,19.73-11.26l-62.6-30.86c-16.57-8.17-20.83-28.88-13.7-44.29,6.81-14.69,24.85-24.81,41.71-18.77,34.33,12.28,65.3,28.45,96.83,47.9l31.57-32.27c-39.32-9.58-75.4-20.44-111.53-36.92-5.16-2.35-5.65-9-3.31-13.38,25.79-48.23,42.14-99.19,48.46-153.45.27-2.29,2.77-6.79,4.76-6.81l7.73-.07c45.88,19.76,92.34,32.33,142.96,38.94l25.17-64.49c-18.83.65-31.88,4.23-48.21,9.2-3.88.65-9.81-1.65-10.77-5.12-3.45-12.51,41.36-18.25,64.72-19.05l8.77-25.43c-48.33-4.92-91.18,13.2-136.88,2.91ZM1366.27,712.41l37.27-24.79,38-20.45-7.48-60.74c-37.37-22.27-75.16-39.12-115.03-54.19l-5.35,130.21,7.91-7.04c1.28-1.14,5.37-1.73,6.73-.74s2.2,5.52,1.59,7.66l-9.65,33.76c-.67,2.34,1.21,8.23,3.12,9.65,7.01,5.21,29.84-4.65,42.89-13.32ZM920.65,631.1c-31.81-8.51-82.4-10.61-94.77,16.82-2.98,6.61.44,14.99,4.89,18.54,5.52,4.4,11.53,5.55,19.01,5.77,25.81-7.51,40.75-29.86,70.87-41.12ZM1353.72,910.54c-12.19-26.84-12.93-54.37-8.18-80.2l39.06-17.21-32.21-24.09c5.52-22.38,14.23-42.55,27.33-61.78-18.5,9.64-31.73,19.5-51.73,19.14-17.84,37.89-18.04,82.38-14.71,124.32,1.37,17.25,7.81,32.92,18.01,46.23l22.43-6.41ZM1635.58,866.43c10.54-23.08,23.51-41.24,42.09-54.61-1.74-14.42-12.5-24.91-23.68-29.35-30.95-12.31-63.75,27.55-71.87,63.22,19.31,4.56,35.97,12.03,53.46,20.75ZM1649.99,954.76c9.33,8.37,22.27,11.66,33.89,4.68,3.87-41.2,32.55-88.61,71.97-103.94-.74-15.04-8.16-28.7-21.16-36.3-32.97-19.26-71.15,21.04-85.65,56.56,9.51,10.17,16.46,21.12,19.07,34.32,3.44,17.36-3.98,33.72-18.12,44.68ZM1286.61,960.68c3.53-1.08,5.37-10.79,5.41-14.51l1.13-101-27.24,117.18c5.85.44,13.41.55,20.7-1.68ZM1715.88,991.59c26.74,12.4,54.03-23.71,59.32-60.44.36-2.52,5.43-6.79,7.45-5.59,11.99,7.14,1.45,49.35-24.53,72.37-12.57,11.13-27.95,15.3-44.32,10.31-13.47-4.11-23.05-17.19-29.07-30.44-14.69,1.54-30.79,2.34-42.38-8.32,7.08,24.38.06,48.36-10.89,43.64-9.59-4.14,4.37-25.03-7.9-47.59-28.21,2.23-70.52-20.13-71.82-39.92-.13-1.92,5.14-6.07,6.67-4.94l15.34,11.32c16.53,12.2,35.4,20.22,55.26,14.84,11.21-3.03,20.31-12.08,22.29-20.93,2.48-11.13.78-23.55-8.23-31.7-20.6-18.62-49.7-33.83-78.95-33.43-25.92.35-44.09,24.95-46.38,49.18-3.42,36.21,9.83,70.03,33.07,97.31,22.28,26.16,52.27,28.71,45.1,40.75-5.9,9.92-30.41-7.02-46.51-18.61-19.57,45.57,40.84,80.79,84.98,89.95,25.13,5.22,53.8-3.49,55.93-29.24-24.27-.04-59.13-11.78-51.41-22.39,1.34-1.84,5.65-3.41,8.85-3.89,33.98,17.08,70.87,9.38,100.44-14.11,41.39-33.83,77.56-111.24,57.11-158.82-9.29-21.62-33.05-28.28-52.9-16.29-44.71,27.01-69.34,101.77-36.52,116.99ZM547.13,1181.11c1.42-7.82-1.16-16.42-5.65-23.21l-26.08,22.15c-2.33,1.98-10.64-.28-11.41-3.14-.65-2.46.95-8.05,2.99-9.67,44.13-35,32.35-73.14,45.63-71.67,11.85,1.31,5.53,26.54-2.85,45.2l10.73,17.52c27.16-6.01,43.11-20,44.33-48.46,1.97-53.38-25.23-103.15-69.64-132.74-1.48-3.29-2.3-8.78-.9-10.87,5.18-7.71,28.88,11.52,41.89,24.43,10.13-15.5,7.98-35-4.2-49.15-26.9-31.26-80.78-54.79-117.89-37.81-11.29,5.17-17.83,15.66-16.96,26.56,20.64-.57,45.07,1.16,42.22,12.45-.64,2.54-6.12,5.86-9.2,5.29-31.93-5.88-62.55,1.78-87.53,23.12-36.58,31.25-59.87,76.61-65.93,124.56-2.99,23.68,9.8,51.11,32.3,56.35-.56-27.51,12.87-61.73,23.01-51.24,1.66,1.72,1.52,6.46.59,9.56-9.93,32.9-13.81,70.12,14.58,87.98,13.25,8.33,28.33,9.04,42.29,3.83-5.13-21.15-2.55-40.87,3.25-61.62,1.2-4.27,5.69-7.76,9.99-6.64,10.71,2.8-1.6,20.86.59,52.45,1.33,19.09,11.71,39.08,30.32,45.66,29.93,10.58,67.52-17.96,73.51-50.92ZM1310.28,930.29c.75.6,8.65-3.66,7.3-5.17l-7.07-7.9-.23,13.08ZM1137.75,1045.57l15.1-57.85c-17.96-10.05-37.34-16-56.56-16.79l-15.43,59.88,56.89,14.76ZM1069.79,1027.96l14.48-55.89c-26.21,2.85-47.17,19.21-56.48,43.52l42,12.36ZM1201.87,1059.24l8.47-34.25-47.68-29.84-13.73,52.81,52.93,11.28ZM1067.19,1038.98l-43.01-12.53c-5.69,26.3,3.51,54.38,30.04,66.13l12.97-53.61ZM1260.55,1068.57l8.15-34.11c-18.04,1.74-32.15.39-48.03-4.67l-7.82,31.71,47.7,7.08ZM1308.82,1074.75l10.27-44.68-37.92,2.68-9.2,37.33,36.86,4.68ZM1345.11,1077.85c2.78-16.98-.14-32.59-15.63-41.88l-9.08,39.32,24.7,2.57ZM1123.85,1098.77l10.55-42.75-56.27-13.68-13.69,55.04c19.84,5.42,40.9,6.33,59.41,1.4ZM1192.39,1093.42l5.95-23.34-52.63-10.75-9.93,38.56,56.6-4.47ZM1251.26,1108.09l6.53-28.21-48.42-7.61-5.23,22.15c17.92,3,31.55,7.87,47.12,13.68ZM1296.63,1126.24l9.2-40.63-36.7-4.26-7.9,32.68c11.66,6.13,21.81,9.66,35.4,12.21ZM1342.2,1088.73l-24.43-2.01-8.62,37.58c17.75-5.85,28.62-19.32,33.04-35.57ZM1241.67,1376.13c18.79-46.54,33.39-92.81,43.66-143.19l-47.52,4.02c-74.35-.35-146.05-13.81-215.87-42.17-7.41,52.23-22.54,99.17-46.08,144.53,57.08,23.09,115.16,38.34,175.82,42.61,31.22,1.17,60.21,1.38,89.98-5.79ZM345.38,1722.6c-8.96-17.13-15.5-34.82-16.88-54.83-6.16-88.73,42.38-183.32,103.59-245.39,18.49-18.75,38.52-33.03,64.19-41.13-16.67-13.96-41.72-6.46-59.96,7.21-22.69,17.01-43.44,37.13-58.46,61.66,4.16,10.42,4.62,19.75-3.85,28.06-39.27,38.51-60.69,98.83-65.64,153.67-2.96,32.87,5.73,75.12,37.01,90.76ZM1100.29,1455.31c35.55-16.46,65.42-33.89,94.53-57.14-35.54.86-68.49-2.07-101.86-6.9l-34.15,37.38,41.48,26.66ZM594.14,1586.93l-24.95-17.89-.97,8.55c-.18,1.55-7.22,1.07-8.47.05-14.05-11.54-3.34-46.39,18.61-67.37,16.41-15.69,36.06-16.58,36.35-8.96.09,2.49-1.99,6.28-4.86,10.24l21.65,16.65c6.55-12.56,7.49-28.54,3.13-42.67-5.14-16.67-19.53-25.59-36.78-25.42-31.2.31-42.14,26.67-52.8,18.27-10.97-8.64,18.16-28.73,42.35-33.62-23.45-37.04-62.91-61.72-101.47-42.72-54.94,27.08-104.01,104.22-125.43,162.15-15.11,40.86-23.43,92.05-9.21,132.66,16.29,46.52,69.39,70.63,114.76,48.61,32.2-15.63,49.99-52.05,45.75-87.56-3.92-32.84-27.99-62.03-61.12-72.59-4.08-1.3-7.1-6.57-6.26-10.03,3.91-16.1,51.11,10.07,66.71,36.33l5.18-5.6c-18.12-19.93-19.69-47.23-10.88-72.62,1.03-2.96,8.79-4.99,11.28-3.41,7.93,5.04-2.18,18.71.69,42.51,2.07,17.18,14.34,29.52,31.61,32.65,16.73,3.03,32.83-5.17,45.13-18.18ZM1269.88,1823.86c4.26-14.54,10.65-28.03,20.45-39.63,1.91-2.26,9.41-2.02,10.53.51.98,2.21,1.03,7.21.56,10.24-19.48,26.06-23.83,57.82-15.05,88.59,3.86,16.35,8.95,31.15,20.78,45.55,8.88-28.64,26.82-49.63,48.93-68.88,30.69-26.72,53.31-57.64,69.08-94.96l29.05-68.76c24.55-48.27,67.14-89.42,124.79-84.25-38.11-42.38-101.01-49.01-145.12-14.34-17.17,13.5-28.25,31.78-36,52.04-22.07,57.66,1.28,100.79-12.78,104.09-2.72.64-8.99-2.51-9.54-5.23l-4.07-20.27-28.5,20.44c-2.45,1.76-9.1-.2-9.97-2.75-.75-2.18-.38-8.37,1.47-9.87l23.46-19.11c3.69-8.73-5.07-23.82-15.01-25.78-9.9-1.95-20.16.09-28.94,4.69-29.01,15.21-51.25,39.97-63.29,70.38-9.6,24.24-4.74,52.59,19.18,57.3ZM1334.72,1938.63c7.27-14.28,17.4-27.8,29.08-38.69l47.75-44.53c18.46-20.31,31.8-43.63,42.99-68.8l30.17-67.85c10.56-23.76,25.47-44.42,45.01-60.81,21.52-18.06,46.47-23.91,75.37-17.97-50.18-32.43-102.54,4.55-130.71,52.62l-29.82,68.03c-12.89,29.41-25.71,58.71-48.36,81.55l-43.82,44.18c-20.44,20.6-39.46,50.4-25.36,74.17l7.71-21.9ZM1496.04,1905.73c46.14-34.71,84.15-74.7,112.24-123.36,24.68-42.74,41.82-112.46-6.88-126.29-53.82-15.29-90.96,40.97-111.06,88.46l-30.81,68.95c-12.02,26.91-29.94,48.38-50.75,69.62l87.27,22.61ZM1425.46,1969.43c22.75-12.75,42.18-29.67,60.82-49.65l-86.69-22.22c-4.92-1.26-10.31,2.43-14.33,5.58-19.68,15.44-35.41,34.37-41.38,59.13-1.54,6.41-.81,14.74,3.64,18.97,14.5,13.79,55.36.84,77.94-11.81Z"/>
    <path d="M1631.06,1390.94l-41.67-6.92c-5.59-.93-3.97-13.45-.12-16.68,19.99-16.78,39.45-32.13,63.85-42.11,41.58-17.01,85.68-23.37,130.82-20.79,51.96,2.97,108.71-5.65,148.31-41.16-11.42-33.64-50.86-46.44-84.47-57.4-6.94-2.26-3.32-11.92.35-15.37l17.22-16.23-15.7-33.71c-.76-1.62-.04-7.92,1.51-8.55l7.09-2.86c27.57,7.36,53.37,17.45,76.11,34.42,20.77,14.07,34.9,35.15,35.22,60.59l.76,59.57c.27,20.97-5.5,36.5-19.62,51.15-41.44,43.01-89.33,54.69-148.59,55.65-70.45,1.15-117.85,15.75-171.63,62-2.66,2.28-9.24,3.36-11.64,1.72-2.77-1.9-4.37-7.23-3.99-10.78l16.19-52.54ZM1943.35,1248.61c15.03-22.93,9.27-48.36-10.87-65.53-17.8-15.17-38.78-25.58-60.33-33.13l12.85,27.67-17.55,18.04c32.52,9.38,59.7,24.78,75.9,52.95ZM1648.28,1387.56l-10.64,38.56c32.04-24.7,66.72-40,105.79-46.86l66.59-5.07c32.19-2.45,64.27-6.01,92.14-21.89,20.95-11.94,41.01-27.39,49.76-50.01,4.61-11.92,2.39-26.82,2.7-39.89-14.47,16.08-27.74,27.94-45.88,36.4-39.53,18.44-81.04,24.43-124.79,21.57-59.29-3.88-126.26,9.53-173.64,50.34l31.36,5.89c4.28.8,7.82,6.54,6.6,10.96Z"/>
    <path d="M472,746.63l-321.45-5.52,3.47-3.95,575.52-15.4c9.09-.24,13.07,9.1,12.42,15.01-.91,8.23-7.37,11.27-16.11,11.22l-253.84-1.37Z"/>
    <path d="M864.61,1760.77l-133.35-7.52-4-1.54c-.69-.27-.74-2.06-.38-2.71.55-.98,3.48-1.8,5.6-1.79l455.1,3.14c9.63.07,14.21,5.02,14.55,12.86.35,8.13-6.62,13.16-16.48,12.69l-321.04-15.13Z"/>
    <path d="M666.86,643.86l-25.59,17.26c-13.97,9.42-32.54,10.87-47.41,3-10.65-5.64-15.53-17.17-16.15-27.1-1.65-26.21,22.83-43.41,49.57-45.59,31.64-2.58,62.13,3.47,91.33,16.02,2.5,1.08,5.06,6.78,4.68,9.29-.51,3.38-4.81,7.22-8.64,7.69-17.8,2.16-32.59,9.19-47.79,19.45ZM690.62,614c-31.46-8.99-67.08-14.36-91.22,4.97-5.68,7.53-8.63,15.86-4.91,23.5,3.48,7.14,10.83,10.73,19.66,11.62,26.69-3.27,45-29.72,76.47-40.1Z"/>
    <path d="M807.59,562.52c-39.74-26.16-72.18-17.85-92.65-32.98-10.44-7.72-15.95-18.43-15.38-30.5.52-11.12,7.4-23.36,19.43-27.8,15.77-5.82,31.96-.95,45.69,8.36,26.89,17.37,44.19,44.32,55.62,74.42l-2.97,8.06c-.68,1.83-7.53,1.89-9.74.44ZM796.56,537.45c-13.6-23.17-34.72-47.55-60.57-53.05-7.55-1.61-16.27,2.97-18.77,7.91-3.55,6.99-2.26,15.63,3.39,21.37,14.43,14.65,48.19,11.4,75.95,23.77Z"/>
    <path d="M315.21,1508.88l-123.58-8.61c-38.93-2.71-76.96-3.78-116.53-14.49,60.08-5.24,116.66-2.48,174.76-1.96l62.24.55c6.76.06,12.38,3.51,13.84,8.93,1.28,4.76-2.1,16.18-10.72,15.58Z"/>
    <path d="M1181.82,1708.51l-232.14-9.59-2.98-1.88c-.14-.09,1.05-1.8,2.07-3.38l233.03-9.38c8.42-.33,13.42,4.36,14.08,10.98.85,8.48-4.66,13.47-14.06,13.26Z"/>
    <path d="M484.7,848.5l-218.34-6.23-3.88-3.26c-.78-.65,2.67-2.4,3.93-2.91l217.48-12.4c5.91,1.72,9.81,6.32,10.16,11.34.39,5.56-2.56,10.49-9.36,13.46Z"/>
    <path d="M274.02,1568l-87.1-10.63c-1.13-.79-5.35-3.8-4.23-4.49l5.4-3.36,87.43-4.64c6.71.87,11.92,6.32,11.68,12.13-.27,6.83-5.95,11.02-13.19,11Z"/>
    <path class="st0" d="M1286.61,960.68c-7.29,2.22-14.85,2.12-20.7,1.68l27.24-117.18-1.13,101c-.04,3.72-1.87,13.43-5.41,14.51Z"/>
    <path class="st0" d="M1310.28,930.29l.23-13.08,7.07,7.9c1.35,1.51-6.55,5.77-7.3,5.17Z"/>
    <path d="M1173.87,906.24l8.29,17.72c1.11,2.37-1.57,8.67-3.8,9.24s-7.09-.8-8.56-2.84c-9.89-13.72-19.72-26.69-32.36-37.82-26.22-23.08-59.02-33.51-93.9-33.94-3.95-.05-9.01-4.37-9.19-7.48-.18-2.94,4.46-8.69,7.53-8.68l31.22.11c-10.75-54.87-2.82-109.18,21.04-158.37,10.45-21.55,24.88-37.77,43.1-53.91-13.26-11.58-26.93-20.53-43.67-24.04-14.48-3.03-29.15,7.09-32.96-3.65-5.11-14.4,30.35-24.07,62.89-5.95,19.29,10.74,34.31,26.28,49.03,42.86l51.67,58.26c7.61,8.58,17.8,15.19,30.11,15.21,6.35.01,13.2-7.94,14.65-14.05,5.42-22.9-3.77-39.03,6.38-42.72,13.1-4.75,17.66,28.25,10.61,51.85-4.38,14.64-16.37,24.63-31.97,24.27-.74,63.62-21.95,142.63-80.1,173.91ZM1152.81,791.87l43.14-14.68-34.59-27.78c6.76-21,16.85-39.88,30.57-57.53l-14.02-15.63-29.04-34.78c-18.3,14.08-32.65,31.79-42.38,53.17-21.08,46.31-30.6,104.68-14.79,153.81,28.1,7.85,51.32,23.04,70.64,45.04l11.7-4.01c-26.99-17.58-27.24-65.12-21.22-97.62Z"/>
    <path d="M952,764.04c.34,29.6-6.9,58.68-35.19,59.79-12.6.49-25.5-5.71-30.05-18.62-5.46-15.5-.77-31.56,6.74-45.88,12.48-23.8,32.02-40.63,54.78-55.16,3.27-2.09,10.22-2.58,12.74-.39,3.95,3.43,3.53,9.54.74,14.18-8.3,13.81-9.95,29.74-9.76,46.08ZM930.85,799.38c3.98-9.76,4.76-19.22,5.76-29.35l4.23-42.73c-13.12,10.95-23.7,22.07-31.93,35.58-12.03,19.74-12.38,41.95,2.22,45.12,7.67,1.66,13.97-1.79,19.73-8.61Z"/>
    <path d="M990.05,999.86c-26.05,61.51,15.37,94.19,3.73,102.5s-33.09-34.62-25.85-80.52c13.14-83.32,100.04-104.96,100.85-90.93.14,2.5-3.44,6.52-6.36,7.41-32.21,9.81-59.39,30.89-72.37,61.54Z"/>
    <circle cx="1038.84" cy="1224.03" r="10.13"/>
    <circle cx="1261.77" cy="1255.76" r="10.15"/>
  </g>
  <text class="st1" transform="translate(1082.97 1335.39) rotate(14.02)"><tspan x="0" y="0">11</tspan></text>
</svg>