<?xml version="1.0" encoding="UTF-8"?>
<svg id="Layer_1" xmlns="http://www.w3.org/2000/svg" version="1.1" viewBox="0 0 2528 1696">
  <!-- Generator: Adobe Illustrator 30.3.0, SVG Export Plug-In . SVG Version: 2.1.3 Build 182)  -->
  <defs>
    <style>
      .st0 {
        fill: #fff;
      }
    </style>
  </defs>
  <path d="M1271.49,1206.82c-57.69,59.76-100.29,131.79-120.52,213.59,11.31,12.75,20.96,26.55,23.35,43.12,2.23,15.43-5.37,26.35-17.01,33.73,6.93,26.33,2.92,54.66-18.14,71.99-5.34,24.37-26.71,40.6-51.39,42-38.21,2.17-89.01-23.68-112.1-54.97-15.54-7.88-28.43-17.05-41.63-28.57-31.87-26.28-53.38-63.07-58.82-104.51-2.06-15.7,2.75-31.06,8.76-45.14,6.36-17.51,18.16-30.72,34.63-39.35,23.17-28.04,60.45-36.93,94.19-23.44,41,16.39,57.65,44.71,69.76,86.24,9.22-2.68,19.08-3.28,30.32-1.06,15.77-58.92,42.25-113.61,78.3-163.04l41.3-50.74c-99.59-64.5-144.56-181.44-152.83-299.37-69.18,47.59-153.32,48.22-231.38,22.4-6.91,11.04-14.32,20.74-24.37,28.03-14.04,10.17-32.45,9.18-44.82-4.43-22.89,16.18-50.59,18.72-77.84,11.24l-45.58-12.51c-10.68-2.93-24.23,2.46-33.96,7.4l-39.79,20.2c-16.95,8.6-40.04,1.89-47.28-15.88-6.77-16.59,1.37-33.85,14.01-45.22,15.4-13.85,34.58-19.84,54.8-25.57-6.36-9.66-8.8-18.35-9.6-29.91-20.89,4.81-41.95,2.38-62.34-6.25-49.96,38.25-92.69,39.29-148.85,12.76-81.83-38.66-82.16-146.98-50.76-225.65,7.73-19.36,37.92-18.88,62.14-15.41,62.96,9.01,143.68,37.26,192.45,76.9,7.19,5.84,12.16,13.99,16.15,22.53,31.32-4.22,52.89,4.06,64.53,32.25l33.1,5.99c5.49-5.72,12.42-16.14,20.57-18.99,46.83-16.34,92.2,29.91,101.8,79.15,17.01-.76,30.87,8.39,36.32,24.83,4.15,12.51,3.51,25.05,1.64,39.95l54.14,12.3c53.5,12.15,118.72-9.82,162.9-43.84.63-111.54,27-222.88,71.16-324.69,33.86-78.07,87.16-163.34,158.04-213.76-7.23-32.32,7.08-66.1,37.89-80.35,8.37-3.87,18.82-4.26,28.41-5.73,16.43-24.98,36.36-47.14,63.93-59.54,28.41-12.78,54.44-26.82,80.45-43.77,29.23-19.06,65.38-17.75,92.6,4.43l20.83,18.94c18.03,16.39,35.49,32.35,58.17,41.9,61.6,25.93,59.71,98.83,41.43,157.98-7,22.63-8.11,44.53,2.07,66.47,13.27,28.6,21.68,59.71,2.01,84.89-9.16,11.72-24.75,14.66-36.9,8.69s-20.65-21.06-15.41-34.98l10.99-29.22c2.62-6.97-2.25-18.72-7.52-24.57-13.86-15.39-20.27-33.06-17.97-54.46,2.05-19.15-.72-39.64-20.2-49.53-7.71,14.4-1.37,33.35-7.2,53.58,10.96,26.51,15.82,56.63-2.82,78.24,15,37.7,26.98,74.8,35.78,114.57,22.44,101.48,28.07,203.72,13.99,307.23,41.14,74.78,58.35,155.45,71.74,239.44,15.9.69,31.58,3.68,43.86,13.48,15.46,12.34,18.54,31.79,9.02,48.75,28.94,24.39,42.03,61.01,37.56,98.53-.81,6.78.53,11.49,5.06,16.25,4.46,4.68,9.7,3.65,16.95,1.63,12.67-3.54,26.02.17,34.41,8.94,8.83,9.22,11.17,22.93,6.54,36.04-5.09,14.44-17.69,23.61-31.95,29.04,2.17,18.71-9.74,34.11-27.99,38.67-13.14,3.29-26.72,1.88-40.58-1.28-33.09,26.12-76.63-4.5-99.4-37.98-32.85-48.3-49.9-113.16-28.09-168.83-18.82-16.46-16.21-42.66,1.85-58.48,8.83-7.73,18.82-12.63,31.01-18.35l-20.07-104.81c-4.59-23.98-12.52-45.79-23.13-68.56-29.58,112.73-79.13,220.83-182.48,277.04l-19.99,9.06c-4.95,19.97-8.02,40.4-7.73,61.6.4,29.23,16.84,55.03,43.25,66.74,15.71,6.97,31.53,11.62,47.97,15.21,12.2-17.2,28.59-29.42,48.54-31.48,20.21-2.09,37.51,7.6,42.79,27.69,17.33,4.91,32.33,13.43,44.06,27.81,17.52,1.62,28.56,14.15,32.22,31.45,5.1,27.81-1.52,55.55-11.02,82.22l-15.77,44.23c-26.24,73.58-120.88,82.89-191.93,68.02-11.76-2.46-22.92-8.36-28.82-19.15-4.65-8.51-2.29-19.49,1.12-28.64-13.87-26.17-9.09-55.48,11.23-77.06,16.23-18.83,41.01-26.44,66.46-26l4.69-2.02c1-.43-1.06-3.69-1.68-4.24-18.07-10.28-25.51-30.22-20.22-52l-56.32-23.19c-55.66-33.11-66.06-85.49-54.19-147.55-53.13,8.36-105.39.59-154.82-21.27ZM1641.87,281.05c20.43-21.11,12.31-51.27,5.8-80.37-3.31-14.8-9.89-27.8-17.52-40.59-10.83-18.17-24.76-33.15-44.31-42.01-21.79-9.87-46.62-6.4-64.32,9.1,29.91,14.14,56.39,38.76,74.63,64.6,21.39,26.71,34.11,55.78,45.71,89.26ZM1634.66,298.32c-8.6-45.62-31.45-82.49-59.38-115.51-18.08-21.22-39.8-36.72-64.64-48.73l-18.03,10.4-49.45,24.87c81.42,9.33,144.1,64,191.5,128.97ZM1665.01,292.02c26.34-23.59,44.65-57.13,38.16-90.44l-55.86-31.54c8.06,18.93,14.03,37.11,15.46,57.93l8.68,4.5c1.74,20.66-4.47,37.98-16.25,56.06,1.81.96,6.71,2.76,9.8,3.49ZM1627.89,338.61l1.41-27.15c-12.35-21.51-27.69-38.64-44.55-56.21-15.31-15.96-31.41-28.19-50.09-40.08-29.59-18.84-60.91-33.41-96.52-35.25-11.9-.62-21.22,2.88-28.66,11.7l-20.66,24.49c47.53,2.88,89.3,15.63,128.98,38.18l31.99,18.18c20.22,11.49,37.18,27.63,54.08,43.54l24.01,22.6ZM1682.31,319.85c19.38-3.17,34.49-11.55,43.24-26.75,3.15-25.25,2.32-51.23-9.27-74.78-5.12,34.62-19.37,60.88-44.6,81.43,2.25,7.35,5.43,14.74,10.62,20.1ZM1514.99,315.04c29.49,20.64,57.31,41.82,84.72,65.07l33.2,33.53c6.32-23.63-.92-47.5-16.85-65.77-17.96-20.6-37.98-37.77-60.23-53.84-53.08-38.31-115.48-66.1-181.81-64.64-35.39.78-56.44,27.54-54.38,63.71l23.78-13.49c-.52-2.42-1.5-7.73.41-8.72l8.7-4.56c42.94-3.07,84.53,6.7,122.67,26.4l39.79,22.31ZM1606.34,404.8c-49.97-44.28-101.1-85.67-162.19-111.01-15.14,33.64-28.69,65.25-40.93,99.9-56.91,161.13-91.87,311.51-110.36,481.75,9.19,5.41,17.51,7.66,26.37,9.67,12.13.77,18.07,9.71,17.68,21.02l-2.31,65.89,107.45,11.9c2.76.31,5.86,6.35,5.26,8.87s-5.83,5.89-9.5,5.34c-70.62-10.6-139.8-15.67-210.94-16.64-2.27-.03-7.16-4.62-6.59-6.71s3.13-4.76,5.98-7l94.35,3.11,2.27-69.7-21.29-5.24c-7.73-1.9-24.06-9.58-22.98-20.59,17-174.33,61.8-369.17,130.12-530.39l26.66-54.2c-16.11-3.53-35.04-13.55-52.11-9.33-33.42,8.26-62.31,27.54-88.26,49.52-109.12,92.41-177.18,276.48-195.78,416.57-18.36,138.25.63,297.17,104.35,396.71,40.77,39.13,103.29,66.17,161.26,70.56-23.09-48.39-36.85-96.44-40.29-148.7-.15-2.32,2.51-6.22,4.4-6.48s5.61,3.06,5.84,5.21c5.74,52.54,19.69,102.58,41.52,150.99,171.9,1.48,257.21-164.97,287.13-315.58-12.03-24.47-25.16-45.79-40.16-67.26-6.19-8.85-3.59-20.59,4.04-26.74,6.71-5.41,20.65-6.81,27.03,1.79l19.9,26.8c14.01-118.74.36-246.06-37.27-357.52l-30.67-72.52ZM1681.89,363.16c11.77.51,20.59-.6,28.32-4.56l10-43.27c-11.49,8.68-23.27,12.78-37.45,13.29l-.88,34.53ZM1721.82,478.76c10.61-11.75,13.17-28.43,8.05-42.4l-11.33-30.91c-3.78-10.3-6.55-22.45-8.33-33.65l-27.41,2.99,17.82,28.12c18.54,29.26-.01,41.26-4.71,63.27-1.45,6.76,3.2,14.03,8.54,16.65,4.36,2.13,12.96.83,17.38-4.07ZM569.58,710.99c.93,3.83,1.58,7.49,3.25,7.33l6.87-.67c2.94-.29,9.39-3.62,9.33-6.48-.38-16.53-55.36-45.69-80.22-56.19-39.84-16.82-80.07-29.57-123.07-34.6-14.15-1.65-27.56-1.64-40.5,5.74,1.16,5.77,4.75,11.34,9.35,17.18,7.31-5.77,16.45-9.69,27.65-8.41,58.41,6.64,114.5,25.72,165.06,55.47,8.78,5.17,16.5,12.63,22.28,20.63ZM585.25,729.75c-28.54,2.77-53.63.22-80.16-4.99-36.34-9.21-70.68-21.15-104.41-37.27-23.09-11.53-43.37-24.52-62.06-42.58-19.63,57.7-19.17,136.79,24.42,175.99,26.33,23.68,62.14,33.54,96.83,34.06,64.12-10.91,105.69-64.8,125.38-125.23ZM655.64,760.42c0-15.26-3.16-22.79-10.57-31.64-12.52-8.36-26.98-11.18-42.32-7.98l-5.14,14.92c19.6-3.36,36.56,2.2,44.18,21.12l13.85,3.58ZM550.65,944.38c3.98,4.03,13.96,7.59,20.81,5.19,35.88-12.55,58.73-42.85,105.32-26.17,15.83,5.67,32.57,10.87,49.09,12.01,31.27,2.15,58.01-14.55,67.62-43.93.73-2.22,6.93-4.7,8.84-3.36,8.07,5.68-3.05,22.95-12.67,36.28,2.87,4.34,11.87,8.98,17.44,6.96,31.12-11.25,45.97-58.37,40.46-92.51-1.9-11.77-12.44-21.32-22.86-19.26l-2.52,30.11c-.2,2.44-7.59,6.04-9.2,4.24-1.33-1.5-2.56-4.8-3.41-7.85,5.92-28.26-1.07-55.27-17.86-77.74-10.85-17.05-27.5-28.08-47.55-31.11-16.01-2.42-28.78,5.99-34.62,20.6-6.26,15.67-14.34,29.7-24.07,43.59-5.98,8.53-8.16,21.42.22,28.71,9.72,8.45,23.43,5.96,34.01-.55,31.66-19.5,17.11-55.32,29.2-55.39,12.46-.07,7.08,34.92-8.82,56.22-2.39,29.6,28.78,32.03,23.54,41.82-5.41,10.1-31.11-7.02-35.47-30.28-4.22.86-8.74,3.06-11.02,5.7,4.89,17.45-4.04,32.87-20.87,38.93-24.83,8.94-52.02,6.65-76.79-4.17-16.88,3.2-33.17,8-48.51,16.38-21.32,11.64-32.94,32.78-20.32,45.55ZM597.64,750.69c-5.01-1.79-8.34,1.75-7.45,5.22l7.45-5.22ZM685.58,779.24l10.11-20.04-28.33-6.78,1.28,14.13,16.94,12.69ZM676.61,789.28c-13.58-14.67-31.81-20.89-50.85-17.95-3.26.5-9.14-3.19-8.04-6.11.91-2.43,4.54-5.31,8.68-8.83-10.89-3.35-22.71,3.74-28.35,12.94-6.28,10.23-6.4,22.89,2.42,32.35,16.31,17.48,41.92,25.78,65.49,20.59,1.6-12.36,4.73-21.99,10.65-32.99ZM583.5,802.91c-2.83-12.54-3-18.7-1.84-29.19l-17.9,29.98,19.74-.79ZM608.17,825.12l-14.32-11.55c-13.58,3.5-25.72,4.03-39.94,1.46l-10.92,12.15c23.52,7.96,44.83,6.08,65.18-2.06ZM695.8,873.22c8.65-3.73,14.51-19.53,6.95-23.14-11.06-4.74-23.77-4.73-31.04-16.57-16.87,5.57-32.94,2.72-49.39-2.53l-14.21,8.09c-2.97,10.59,1.14,23.21,11.81,29.35,22.68,13.07,51.01,15.51,75.88,4.8ZM1808.66,1369.41c13.38,5.99,28.63,7.96,42.32,4.07,10.29-2.92,18.03-10.94,16.93-22.01-33.71,4.04-62.49-22.42-77.32-52.36-1.2-2.42,2.17-8.65,4.73-8.85,7.76-.59,10.28,17.19,32.48,36.19,19.91,17.05,51.64,16.35,68.16-3.85,7.88-9.63,7.42-22.3.42-30.27-6.55-7.45-22.57-9.87-28.85-1.35l-4.88,6.63c-3.25,4.41-12.88-15.67-26.5-25.83l1.29-23.79c1.68-31.06-10.31-61.65-34.34-80.07-21.45,18.87-37.55,14.55-32.56,7.47,6.02-8.53,20.86-8.63,30.21-24.43,7.96-13.45,3.33-28.55-10.25-35.66-9.12-4.77-19.42-6.56-29.72-7.01l2.37,25.48,7.76-5.54c2.04-1.46,7.42-1.34,9.23.32,9.5,8.76-30.25,32.89-66.66,21.94-2.23-.67-5.44-3.77-6.21-5.62s2.71-6.79,4.67-6.6l10.65,1.05-3.07-24.12c-11.4,4.81-22.3,10.79-29.72,20.29-7.82,10.01-7.48,22.51,1.47,31.6,13.93,14.14,30.91,7.41,34.14,18.09.6,1.99-3.7,7.11-5.83,6.61l-24.06-5.62c-20.07,52.1,1.8,122.4,36.91,165.01,15.34,18.62,46.32,39.69,66.43,28.44-27.11-16.04-46.53-38.26-56.64-68.2-1.13-3.35,1.84-8.35,5.15-8.98,10.19-1.93,11.68,44.76,61.3,66.96ZM1152.39,1485.38c9.45-5.14,11.22-14.4,8.9-22.92-8.53-31.4-43.37-58.07-74.86-48.09-3.68,15.42,10.17,14.15,21.49,28.93,1,1.31-.14,8.3-1.78,8.18l-6.71-.51-10.58-8.9c-1.72,6.5-2.82,10.65-4.62,12.7-1.47,1.67-7.3-.38-9.24-2.49.93-29.21-5.1-59.14-20.25-84.89-23.73-40.32-74.98-60.42-113.39-31.73,42.76-1.01,72.89,33.15,88.91,69.82l20.11,46.01c12.7,29.05,32.71,51.87,59.37,68.76,12.54,7.95,21.05,19.32,27.67,32.5,11.26-16.65,13.73-38.34,5.82-56.14l-13.08-19.27c-1.44-2.12-1.3-7.81.58-9.41,1.61-1.38,7.4-1.07,8.81.75l12.84,16.68ZM1615.75,1493.36c-25.78-21.65-58.41-29.01-89.61-19.54-26.1,7.92-45.14,30.8-44.51,57.81.45,19.3,12.12,31.4,29.91,35.5,33.94,7.83,69.17,7.43,102.71-2.7,22.06-6.66,38.16-21.89,48.27-42.22,15.62-31.42,24.95-64.64,25.94-100.24.24-8.63.05-20.83-4.55-27.66-8.13-12.07-20.82-20.94-33.03-25.92l-3.75,26.58c-.35,2.46-5.94,5.9-8.08,4.91-9.23-4.25,7.83-26.29-7.76-49.07-6.55-9.57-17.62-14.55-29.44-11.41-13.27,3.52-24.04,11.01-32.32,22.71l29.16,4.85,4.91-10.02c.76-1.55,5.81,1.3,7.17,2.53,5.79,24.6-7.75,48.58-30.17,59.35-3.79.06-7.67-.05-9.57-1.37s-.49-7.18,1.26-11.43l-23.08-5.43c-3.38,14.18-1,30.78,12.53,37.75,23.77,12.25,44.2-15.79,50.64-6.33,1.26,1.84.09,6.66-1.81,8.32-11.68,10.21-24.82,11.06-41.6,16.56,20.94,7.82,40.23,11.58,55.29,26.91,1.72,1.75,2.33,7.83.88,9.67s-6.88,2-9.38-.1ZM1103.74,1547.35c9.93,8.27,13.61,19.74,17.98,32.18,12.24-19.58-2.97-38.61-22.08-51.23-29.14-19.24-50.53-45.42-63.91-77.94s-28.09-72.6-58.13-91.62c-20.77-13.16-47.55-14.97-66.58,1.1,47.06-8.06,75.2,18.51,95.04,58.11l22.58,47.4c12.45,26.14,31.74,45.92,53.74,64.24l21.36,17.78ZM1029.06,1529.12c5.96-1.98,12.3-6.93,18.87-11.53-17.06-20.48-29.66-41.11-40.13-65.25-16.3-37.6-40.67-84.33-84.05-80.79-8.57.7-19.54,6.58-25.13,12.8-26.24,29.17,2.5,91.12,31.66,121.35,15.3,15.87,32.73,27.68,51.36,39.21l47.43-15.78ZM1500.46,1593.21c63.4,16.37,159.35,9.42,181.9-55.14l23.76-67.99c6.56-18.79,10.5-60.16-6.13-71.42,4.13,44.83-6.48,89.74-25.57,127.83-10.43,20.82-26.55,38.91-48.58,47.17-41.3,15.47-100.01,16.61-139.44-3.53-3.36,10.27,2.45,20.08,14.06,23.08ZM1106.38,1588.51c4-11.83-3.67-24.67-12.78-32.13l-36.43-29.79c-10.06,8.98-19.09,14.29-30.14,18.14l-33.41,11.58c25.54,32.45,104.72,55.97,112.76,32.2Z"/>
  <path d="M1997.74,693.72c-28.23-1.54-53.1-12.46-76.71-26.49-13.38-7.95-28.51-13.86-38.68-25.39l-12.98-14.71-29.74,12.52c-6.72,2.83-17.34-2.63-19.65-8.05-3.11-7.29-.47-14.65,5.32-20.22l22.15-21.29c-30.57-74.08.96-155.94,67.53-196.97-9.92-2.18-15.26-7-16.31-15.58-3.57-29.14,12.65-55.73,40.42-66.63,9.95-3.91,3.12-26.94,23.81-27.13,10.23-.09,16.25,7.99,19.63,18.56,9.59,3.51,20.76-4.92,26.15-13.55,10.36-16.57,26.85-24.57,46.86-21.6,40.52,6.02,79.72,23.35,111.26,49.43,11.93,9.87,16.83,25.16,12.83,39.14-6.2,21.63-.99,37.04,2.2,35.73l5.27-2.17c10.42-4.3,21.42-3.25,26.55,6.05,5,9.06,1.39,20.71-9.2,26.8,15.07,30.28,9.38,64.3-18.81,84-7.44,5.2-17.37-.67-26.23-5.48,18.55,76.32-24.89,155.58-94.95,183.4l-26.41,8.01-1.5,22.67c-.59,8.85-6.03,15.28-14.19,16.25-6.72.8-16.35-2.98-18.25-10.9l-6.35-26.41ZM2075.77,377.32l-8.12,19.53,30.83,15.96c-1.31-8.23-3.82-19.95.18-26.04,16.44-18.11,44.32-19.01,65.09-8.89l4.95-27.51c1.92-10.67-3.33-20.47-12.26-27.15-27.59-20.6-58.97-35-93.12-42.64-9.02-2.02-25.99-4.49-32.1,2.3l-23.62,26.23c24.09,10.8,39.94,32.49,37.67,58.87-.56,6.52-9.97,11.05-15.96,13.47l26.29,12.01,9.64-21.25c-11.65-4.03-14.85-13.13-11.72-22.06,3.29-9.37,13.17-12.24,22.64-8.21,8.3,3.53,18.25,7.01,24.15,13.37,6.02,6.49,2.25,15.68-2.23,19.88-6.3,5.91-12.77,5.01-22.3,2.11ZM1962.65,303.44l4.86-.83c.81-.14.6-3.67.04-4.27-1.06-1.12-5.16-3.34-6.24-2.25l-3.97,4.01c-.42,1.12-1.32,4.48-.22,4.29l5.53-.95ZM2030.73,352.01c-4.92-19.55-19.77-29.38-36.42-34.9-35.89-8.54-80.09,9.08-82.92,47.64,38.42-17.02,78.11-20.52,119.34-12.74ZM2083.9,368.45c1.57.7,6.18-.84,7.46-1.89,4.87-3.98-9.86-12.33-25.12-15.03-2.23-.39-2.5,7.9-.57,8.77l18.23,8.15ZM2031.64,365.72l-42.4-6.26c-.19,6.56.22,10.6,1.69,15.79,15.99,1.28,28.41.32,40.71-9.53ZM1976.55,360.72l-9.42.67,1.06,14.9,9.42-.67-1.06-14.9ZM1956.34,376.67l-.4-12.55c-15.11,2.29-29.31,7.03-43.36,14.67,15.69,11.4,43.78-1.34,43.76-2.12ZM2178.41,496.57c22.34-15.69,27.13-40.74,16.93-64.45-14.88-5.6-23.55-18.74-26.56-34.75-16.35-16.79-42.72-18.42-60.96-3.44,5.57,39.75,34.56,85.28,70.6,102.64ZM2033.69,648.47c59.4-33.97,87.6-104.13,69.39-169.23-11.15-39.89-40.3-71.81-79.38-84.83-47.19-15.72-98.11-1.65-131.9,33-53.5,54.85-59.18,141.04-7.17,197.85,38.26,41.8,98.59,52.07,149.06,23.21ZM2201.6,409.89c1.64-1.89,2.18-7.61.74-9.21s-5.97-2.34-8.9-1.75-9.21,5.01-8.5,7.52,4.04,6.54,6.72,8.68c2,1.6,6.89-1.74,9.93-5.24ZM2039.77,678.83c83.06-20.5,132.9-111.41,103.16-191.77l-12.5-14.22-12.89-.11c6.96-10.21,5.31-13.28-.54-19.86-5.5-11.47-12.81-22.51-26.17-27.49,10.47,17.77,20.11,33.3,25.09,52.52,21.59,83.37-25.65,172.88-110.78,195.99l10.5,41.31c.37,1.46,4.47,5.44,5.35,4.39s3.31-4.66,3.42-6.2l2.6-38.61c.15-2.17,2.79-5.95,4.57-6.86,1.42-.73,5.44.18,5.84,1.72l2.36,9.19ZM1839.37,627.24l21.89-10.41-9.26-14.42-21.44,21.19c.84,2.35,6.73,4.63,8.81,3.64ZM1993.38,676.86l-17.47-.73c5.28,3.28,11.06,6.77,17.47.73Z"/>
  <path d="M2126.94,685.51c-2.77.75-9.51,1.3-9.12-.45l1.71-7.77c39.6-30.64,63.42-76.87,66.48-126.87.63-1.62,3.89-6.18,5.07-5.11l5.34,4.82c-1.83,53.58-25.95,103.17-69.48,135.38Z"/>
  <path d="M1812.79,539.86c.16,3.54-2.1,7.31-4.33,7.59-2.41.3-5.56-2.6-6.62-5.64-4.71-50.87,13.54-100.61,49.16-136.62l7.6-2.57c2-.68,3,6.1,2.02,8.18-33.33,34.38-51.07,80.21-47.83,129.06Z"/>
  <path d="M1922.17,248.77c.56,2.92.53,6.82-.87,8.02-1.68,1.44-6.73.49-9.33-.87l-39.42-80.7c0-2.46,1.39-7.39,3.35-8.06s5.48,1.23,8.1,3.01l38.16,78.6Z"/>
  <path d="M2259.56,381.75c-2.41-1.73-4.66-3.58-5.68-5.14-1.23-1.87,2.58-7.26,4.86-7.44l81.43-31.6c1.49,0,7.47,2.39,6.93,4.09l-2.37,7.45-85.17,32.64Z"/>
  <path d="M2220.08,607.83c-5.32,31.26-31.7,69.94-40.69,67.99-2.1-.46-4.47-4.41-4.52-6.67,16.48-19.46,30.02-38.71,34.52-63.97,1.36-2,4.01-4.52,5.85-4.92,2.2-.47,5.29,4.93,4.85,7.57Z"/>
  <path d="M1807.77,425.49c-28.33,36.34-20.76,70.84-30.74,67.23-16.2-5.87,16.68-84.8,30.45-75.25,1.69,1.17,1.69,6.22.28,8.02Z"/>
  <path d="M1875.02,304.24l-47.57-29.8c-2.9-1.82-4.65-7.66-2.29-9.98,1.86-1.83,7.08-1.39,9.78.27l46.64,29.4,1.84,6.69c.48,1.75-6.73,4.46-8.4,3.41Z"/>
  <path d="M2310.87,453.14l-54.91-10.87c-1.99-.39-5.08-5.27-4.51-7.09.68-2.18,5.09-4.54,7.76-4.05l55.04,10.18c2.41.45,5.32,5.47,4.99,7.52-.38,2.39-5.22,4.93-8.36,4.31Z"/>
  <path d="M2232.74,329.33c-1.48,1.65-8.38,3.25-8.99,1.46s-1.09-5.31-1.29-7.84l37.19-41.75c2.22-1.53,6.09-2.47,8.1-1.53s2.8,7.6,1.16,9.43l-36.18,40.23Z"/>
  <path d="M1981.33,239.31c-.04,2.65-4.15,6.44-6.28,6.08s-5.64-4.71-5.61-7.09l.65-56.19c.03-2.25,4.7-5.9,6.81-5.49s5.28,4.64,5.24,6.89l-.82,55.8Z"/>
  <path class="st0" d="M608.17,825.12c-20.35,8.14-41.66,10.03-65.18,2.06l10.92-12.15c14.22,2.57,26.36,2.04,39.94-1.46l14.32,11.55Z"/>
  <path class="st0" d="M583.5,802.91l-19.74.79,17.9-29.98c-1.16,10.49-.99,16.65,1.84,29.19Z"/>
  <path class="st0" d="M597.64,750.69l-7.45,5.22c-.89-3.47,2.44-7.01,7.45-5.22Z"/>
  <path class="st0" d="M1956.34,376.67c.02.78-28.07,13.52-43.76,2.12,14.05-7.64,28.25-12.38,43.36-14.67l.4,12.55Z"/>
  <path class="st0" d="M2031.64,365.72c-12.3,9.85-24.72,10.81-40.71,9.53-1.47-5.19-1.88-9.23-1.69-15.79l42.4,6.26Z"/>
  <path class="st0" d="M1852,602.41l9.26,14.42-21.89,10.41c-2.08.99-7.97-1.29-8.81-3.64"/>
  <path class="st0" d="M2083.9,368.45l-18.23-8.15c-1.93-.86-1.65-9.16.57-8.77,15.26,2.69,29.99,11.04,25.12,15.03-1.28,1.04-5.89,2.59-7.46,1.89Z"/>
  <path class="st0" d="M2201.6,409.89c-3.04,3.5-7.93,6.84-9.93,5.24-2.68-2.14-6.01-6.17-6.72-8.68s5.63-6.94,8.5-7.52,7.46.15,8.9,1.75.91,7.32-.74,9.21Z"/>
  <rect class="st0" x="1967.65" y="361.04" width="9.44" height="14.94" transform="translate(-21.13 140.46) rotate(-4.06)"/>
  <path class="st0" d="M1962.65,303.44l-5.53.95c-1.1.19-.21-3.17.22-4.29l3.97-4.01c1.08-1.1,5.18,1.13,6.24,2.25.56.59.77,4.13-.04,4.27l-4.86.83Z"/>
  <path class="st0" d="M1993.38,676.86c-6.4,6.04-12.19,2.55-17.47-.73l17.47.73Z"/>
  <path d="M1506.35,758.11c13.04-34.7,5.8-64.67,18.89-66.17,2.94-.34,8.68,4.77,8.6,8.23-.97,43.6-15.22,96.04-52.1,119.49-29.6,18.82-68.03,11.77-90.26-15.16-18.45-22.35-26.78-49.31-27.79-78.62-2.03-58.69,15.93-54.43,14.51-42.04-4.89,42.73,2.79,94.71,37.65,120.45,15.96,11.79,39.17,12.22,55.79,1.58,17.56-11.25,27.52-28.6,34.71-47.75Z"/>
  <path d="M1250.32,740.16c15.28-39.45,6.58-70.85,20.76-71.6,3.25-.17,8.98,5.34,8.68,9.45-2.86,39.59-10.91,79.13-37.12,108.47-16.74,18.74-42.64,26.05-65.2,13.85-12.89-6.97-20.88-19.81-26.74-33.04-11.33-32.95-12.37-66.93-4.77-100.81l7.03-4.08c1.6-.93,3.58,5.95,3.41,7.41-3.74,27.31-2.01,52.79,4.25,79.18,3.8,10.83,8.33,21.86,15.89,30.45,11.42,12.99,30.28,13.11,44.37,3.1,14.21-10.09,23.07-25.95,29.43-42.39Z"/>
  <path d="M1359.5,1029.02c-21.82-6.33-45.2-7.73-66.24-6.01-2.25.18-6.64-2.79-7.63-4.43-1.18-1.98,3-7,5.57-7.46,24.23-4.35,47.52-1.36,71.61,4.45,2.41.58,5.51,5.12,5.66,7.41.2,3.05-4.51,7.34-8.97,6.04Z"/>
  <path d="M2005.95,646.08c-50.95,15.19-101.4-5.49-128.24-50.35-35.65-59.57-15.01-140.76,44.24-177.21,47.63-29.3,108.5-21.5,144.86,20.72,29.33,34.05,35.95,81.15,21.86,123.46-13.02,39.11-42.14,71.29-82.72,83.38ZM2011.77,630.87c64.95-26.25,91.6-108.99,56.13-168.69-20.34-34.24-58.2-53.5-97.57-48.15-33.38,4.53-59.99,22.83-77.97,50.39-24.37,37.35-27.85,83.97-5.78,122.61,25.42,44.52,76.64,63.46,125.19,43.84Z"/>
  <path d="M1926.24,567.54c-1.48.93-6.58-.15-7.72-1.25s-.24-6.32,1.29-7.41l42.54-30.33c2.12-7.56,3.69-16.12,13.85-17.04l32.76-69.76c1.08-2.29,6.08-4.8,7.96-4.15s3.01,5.49,2.2,7.45l-29.38,71.02c1.6,5.7,2.91,14.1.29,18.83-4.74,5.67-11.94,6.22-19.85,5.07l-43.92,27.57Z"/>
</svg>