<?xml version="1.0" encoding="UTF-8"?>
<svg id="Layer_1" xmlns="http://www.w3.org/2000/svg" version="1.1" viewBox="0 0 1984 2162">
  <!-- Generator: Adobe Illustrator 30.3.0, SVG Export Plug-In . SVG Version: 2.1.3 Build 182)  -->
  <defs>
    <style>
      .st0 {
        font-family: Auster-Bold, Auster;
        font-size: 216px;
        font-weight: 700;
      }
    </style>
  </defs>
  <path d="M937.53,1206.04c-27.59,73.62-45.69,147.69-56.19,223.91,16.24,6.73,30.38,15.3,41.17,27.75,12.45,14.37,13.13,34.61.87,48.78l11.86,50.59c3.62,15.44,3.19,31.27.17,46.74-1.92,9.83-7.81,17.64-16.63,22.42-55.36,30-137.19,28.34-199.26,16.98-34.79-6.37-73.85-14.3-77.81-50.42-4.46-40.76,19.28-79.23,57.78-93.45,18.34-6.78,36.49-6.3,57.08-3.29-15.84-24.05-9.42-51.61,14.52-64.85,15.02-8.3,31.39-11.55,49.03-11.96,11.02-82.95,30.81-161.74,61.13-240.99-35.9,7.99-60.36-13.29-73.28-46.25-46.87-1.16-91.41-10.25-131.91-31.9-68.47-36.6-101.58-95.53-90.51-173.4,9.05-50.89,32.35-91.62,65.29-132.17-25.85-119.68-32.39-244.41-8.44-365.4,11.61-58.66,32-114.19,63.3-164.85,19.25-31.16,42.79-57.48,72.4-78.3,64.16-45.12,138.12-38.77,205.4-2.62,33.22,17.85,61.7,40.39,89.74,65.85,135.75,128.93,217.22,310.48,233.38,497.45,48.14,45.39,86.87,101.1,93.38,168.39,8.28,107.78-78.32,171.93-175.04,195.41l-29.37,34.8-29.24,282.4c13.34,2.81,25.9,7.42,36.9,15.18,20.87,14.75,23.84,41.34,8.37,62.58,33.26-5.75,65.35,2.28,87.72,26.11,20.65,22,30.39,52.97,21.75,82.19-4.87,16.44-20.14,27.09-36.9,31.49-70.65,18.53-170.99,19.23-235.45-16.86-7.08-3.96-12.23-9.74-15.7-16.96-3.25-13.87-5.28-27.6-1.85-41.54l15.56-63.21c-12.95-15.26-10.82-37.62,4.09-51.73,14.58-13.81,32.27-22.13,53-27.01l23.82-231.75c-26.44,13.35-52,21.5-80.09,24.14-37.21,3.91-73.4-.96-110.03-14.26h0ZM1044.78,825.32c26.95,28.06,37.9,74.92,44.86,113.72,1.94,10.84,5.02,20.44,11.32,29.36,9.09,12.87,16.19,26.07,22.57,40.48,24.25,2.86,41,21.67,45.54,45.71,26.68-2.41,51.52-7.66,76.93-17.06l17.81-43.77c18.44-55.15,26.83-112.15,27.94-170.3-12.78-15.49-26-28.22-41.41-40.04-14.42-11.06-17.22-30.11-7.07-44.17,10.14-14.06,27.45-16.99,44.9-7.88-15.55-146.76-72.82-287.04-163.39-400.84-33.28-41.81-70.38-79.08-113.62-109.97-56.12-40.08-128.51-65.85-193.45-37.25-29.57,13.03-53.46,32.44-73.98,57.49-56.29,68.72-85.24,165.69-94.41,254.12-10.41,100.36-3.43,201.2,19.17,299.62,15,65.31,37.51,127.15,68.17,186.29,15.31,29.53,32.86,55.55,52.59,82.05,2.74,3.68,8.69,6.86,12.5,4.05,5.92-26.07,16.89-44.77,44.21-50.24,5.13-13.37,10.58-26.08,18.1-38.32,6.61-10.76,9.5-22.04,10.91-34.69,4.36-38.98,13.59-87.21,38.84-116.35,17.39-20.07,48.54-21.75,65.85-.28,16.98-22.65,47.28-20.28,65.08-1.74h.03ZM970.56,852.02c1.41-13.04-8.13-21.78-17.11-23.78-10.31-2.3-21.55,1.22-26.67,10.4,17.24-5.36,33.78-.28,43.78,13.38ZM980.62,950.82c3.39,26.73,4.21,52.4,4.57,79.36.58,43.87,2.84,90.2,41.61,112.64,28.59,16.55,61.85,6.37,75.12-24.35,1.55-3.59,5.91-6.61,9.27-6.05,14.8,2.46-.41,27.11-16.95,41.32,15.64,7.88,32.76,2.38,43.79-10.33,10.76-12.39,16.05-28.48,17.73-45.16,2.86-28.42-.78-61.94-27.01-71.79l2.84,29.98c.37,3.93-3.98,8.31-7.61,8.73-3.25.37-8.36-3.61-8.21-7.57.77-20.48-3.95-38.61-13.82-56.23l-21.46-38.28c-12.23-28.12-9.43-76.15-40.72-119.65-9.25-12.87-22.98-20.54-38.78-14.68-3.51,1.3-7.51,6.19-9.12,10.01,18.85-4.06,35.68,3.92,46.44,18.98,8.21,11.46,14.52,23.38,17.74,37.36l15.82,68.71c.77,3.35-6.31,6.95-8.95,6.19s-5.87-3.97-6.6-7.13l-13.56-59.34c-3.35-14.64-9.63-27.94-19.15-39.2-8.39-9.92-23.58-15.68-34.26-7.11-8.34,6.68-9.16,19.24-9.72,28.64,8.44-5.63,16.17-9.37,25.9-7.98,18.86,2.69,30.94,29.97,34.91,50.54l12.57,64.88c2.51,5.44.96,10.99-5.34,12.36-3.01.69-8.6-2.37-9.46-6.87l-12.11-64.14c-3.64-19.26-14.54-46.86-29.91-40.84-15.67,6.13-18.13,36.82-15.57,56.99h-.02ZM1336.13,913.37c-4.07-24.34-12.9-47.15-27.91-67.52-2.13,30.1-5.14,56.79-10.42,84.84-5.96,32.8-15.06,63.3-27.45,95.13,44.96-23.04,74.25-61.85,65.79-112.46h0ZM927.08,1152.28c25.08-5.34,43.33-24.23,50.73-47.23-5.7-20.8-6.73-40.55-7.88-61.93l-5.22-97.15c-1.21-22.43-6.21-52.91-25.29-53.36-16.13-.39-21.97,27.99-23.16,48.4l-3.14,53.68c-.25,4.25-5.74,7.37-9.23,6.64-3.27-.69-6.26-4.46-6.02-8.11l3.29-52.18c1.69-26.7,8.1-60.2,34.1-64.02,11.46-1.69,20.9,3.31,29.17,10.91-.57-9.71-2.18-19.24-7.22-27.01-6.16-9.49-18.7-10.99-28.72-6.04-9.1,4.49-15.43,13.12-19.59,22.45-10.35,23.17-16.13,46.89-18.41,72.24-.94,10.49-4.28,20.64-9.07,29.78l-13.39,25.57c-19.59,37.42-5.95,64.6-17.65,67.49-13.09,3.23-11.42-18.31-8.73-38.36-10.95,4.85-18.08,14.17-21.41,25.55-8.24,28.22-4.29,59.12,11.08,83.95,11.38,18.39,33.12,26.11,52.71,15.92-15.86-11.25-36.1-33.95-23.15-39.63,4.03-1.77,8.8.42,11.09,4.7,10.5,19.57,31.73,32.69,55.1,27.71v.03ZM768.79,1064.66c-24.14-33.94-44.08-67.63-61.64-104.32-12.75-28.59-23.81-55.92-34.71-86.74-15.14,23.91-24.51,50.59-26.18,78.73-3.92,66.38,61.69,102.8,122.52,112.33h0ZM944.86,1163.33c-15.82,6.9-30.63,6.72-47.42,3.48,66.79,41.69,144.14,51.47,216.11,17.14,33.12-16.02,60.89-38.96,85.04-68.12l-30.51,2.69c-5.18,16.5-12.61,31.59-25.68,42.22-19.17,15.6-44.64,16.43-63.81,1.3-35.16,13.31-72.32-5.56-91.61-37.46-9.99,16.91-23.52,30.87-42.12,38.74h0ZM906.12,1615.25c7.81-3.57,13.68-9.52,14.64-18.13,1.43-12.84,1.64-25.95-1.27-38.65l-9.67-42.17-15.42,5.17c-3.48,1.17-9.01-2.46-9.62-5.91-2.23-12.57,17.95-7.24,28.21-21.58,12.74-17.79-11.72-39.13-34.95-48.39,1.94,19.51-9.32,34.35-26.21,36.65-16.15,2.2-32.86-7.51-35.3-24.91-.97-6.97.49-14.54,1.19-22.09-14.84.4-28.31,3.61-40.23,10.55-11.96,6.96-17.1,19.74-11.72,32.99,8.94,22.03,33.8,26.51,57.94,29.5,3.5.43,6.64,4.12,6.85,7.28.18,2.58-3.79,7.96-6.52,7.72l-22.12-1.99,7.79,7.64c3.27,3.21,3.49,8.95.15,12.06-2.33,2.19-9.07,2.02-11.73-.9-20.58-22.61-49.55-34.41-80-28.97-37,6.61-63.09,38.89-61.24,76.31.99,20.04,18.94,29.95,38.66,34.55,65.05,15.18,149.98,20.91,210.55-6.75h0ZM1275.91,1631.07c23.42-5.47,33.06-17.66,32.31-40.16-.79-23.98-13.93-44.29-30.92-56.88-20.08-14.88-43.76-17.74-67.03-11.79-17.13,4.38-30.21,14.8-43,26.49-3.4,3.11-10.4,1.7-12.01-1.85-1.56-3.43-.58-8.05,2.19-10.64l8.49-7.95-21.94,1.55c-3.67.26-7.56-6.01-6.64-9.42,3.28-12.15,32.38,0,56.99-20.43,7.21-5.99,11.26-14.45,11.31-23.35.09-17.96-21.72-28.51-41.86-33.37l-1.69,16.24c-2.06,19.74-19.88,31.06-37.61,27.12-18.52-4.12-28.34-20.64-22.98-41.52-15.73,4.25-31.06,11.41-41.52,23.68-8.44,9.91-8.26,23.1,2.29,31.12,11.44,8.7,25.77,7.16,21.85,18.66-.95,2.78-7.31,5.17-10.27,3.99l-13.96-5.59-13.69,58.36c-2.56,10.91-.86,24.96,4.32,34.7,17.7,13.11,37.7,19.35,59.36,23.89,54.7,11.46,110.74,10.06,166.01-2.85h0Z"/>
  <path d="M974.03,714.76c6.46-1.01,10.89,1.32,11.43,6.92.48,4.94-3.09,8.78-8.53,9.76-9.46,1.69-18.89,4.03-28.43,3.23-11.81-.99-20.29-10.89-22.63-22.64l-43.82-219.88c-15.97-91.33-29.53-181.46-37.68-273.62-.46-5.26,3.82-9.19,7.7-9.61,4.21-.45,8.6,2.7,9.07,7.81,14.88,162.3,46.21,331.11,81.16,490.35,1.35,6.13,3.44,12.11,11.26,10.88l20.48-3.22h-.02Z"/>
  <path d="M835.06,778.28c-4.29-3.31-6.14-7.89-4.34-12.19,1.85-4.4,7.18-5.28,12.15-3.09,25.9,11.46,52.47,19.16,81.27,19.83,60.67,1.41,119.69-24.75,156.53-73.01-5.65-5.79-9.54-10.01-12.92-16.58-1.73-3.37,1.19-9.46,3.95-10.74,3.78-1.77,9.28.14,11.25,3.88,13.57,25.89,39.45,12.12,43.6,24.07,1.04,3-1.19,9.63-4.68,9.99-9.37.97-16.93-.22-26.05-2.02-47.5,60.14-122.54,90.67-198.31,78.94-21.97-3.4-41.51-10.45-62.44-19.1h0Z"/>
  <path d="M725.13,596.62c-.62-5.06,2.08-9.44,5.55-10.35,4.25-1.12,9.28,1.87,9.99,6.62,4.55,30.14,17.9,62.3,47.04,71.26,20.59,6.33,40.26-3.02,49.49-22.57,9.88-20.92,8.93-44.45,2.92-67.15-1.22-4.63,1.59-9.56,5.68-10.67s8.91,1.74,10.06,6.28c8.54,33.95,7.48,75.13-18.5,97.99-22.42,19.74-55.72,18.08-78-1.48-20.35-17.87-30.83-42.17-34.22-69.93h0Z"/>
  <path d="M987.96,595.2c-11.07-18.77-23.57-57.52-7.99-58.07,4.13-.15,7.8,3.77,8.48,8.9,3.08,23.75,12.44,46.18,31.14,61.06,15.95,12.7,38.41,13.43,53.65.32,22.24-19.12,21.25-54.2,14.75-83.1-.96-4.24,1.95-8.99,5.42-9.68,5.11-1.02,8.9,1.81,10.22,6.98,6.45,25.41,7.37,51.69-3.1,75.51-14.62,33.25-52.57,45.66-83.67,27.36-12.04-7.08-21.69-17.1-28.89-29.28h0Z"/>
  <text class="st0" transform="translate(506.17 1946.39)"><tspan x="0" y="0">Welcome!</tspan></text>
</svg>