<svg xmlns="http://www.w3.org/2000/svg" width="981" height="1069" viewBox="0 0 981 1069">
<g>
<path d="M 396.15 1003.47 C354.75,998.25 337.04,991.09 330.65,977.00 C329.06,973.50 328.62,970.50 328.65,963.50 C328.73,948.09 334.47,935.39 346.36,924.29 C358.02,913.42 369.73,909.45 387.79,910.24 C394.00,910.52 398.93,910.46 398.74,910.12 C395.30,903.90 394.51,900.87 394.53,894.00 C394.55,888.85 395.10,885.49 396.28,883.30 C400.79,874.92 411.90,868.11 425.77,865.24 C433.67,863.61 434.01,863.43 434.48,860.52 C438.66,834.33 440.69,823.74 444.26,809.44 L 448.50 792.43 L 442.34 797.10 C434.26,803.24 427.64,805.47 417.50,805.47 C408.40,805.47 401.76,803.08 396.36,797.86 L 393.23 794.83 L 389.86 796.60 C384.83,799.25 374.73,799.02 368.74,796.12 C362.81,793.25 357.62,787.27 355.98,781.44 C354.76,777.08 354.64,776.98 351.42,777.58 C347.09,778.39 339.46,775.82 334.81,771.99 C327.23,765.75 325.18,756.03 328.91,744.03 L 330.83 737.88 L 328.62 737.04 C327.40,736.58 323.33,734.81 319.56,733.10 C308.59,728.13 306.58,728.71 292.00,741.12 C269.63,760.16 258.33,767.29 244.60,771.04 C238.05,772.83 234.73,773.13 225.10,772.81 L 213.50 772.41 L 152.98 752.21 C109.36,737.64 90.68,730.95 86.11,728.25 C73.65,720.88 63.14,706.77 59.52,692.54 C57.61,685.03 57.58,669.40 59.47,661.40 C61.94,650.92 85.05,584.85 88.82,577.50 C93.69,567.99 106.09,555.58 115.00,551.28 C129.06,544.50 145.13,543.52 160.81,548.50 L 168.36 550.90 L 174.54 544.57 C182.03,536.89 190.58,532.51 201.28,530.84 C229.22,526.50 255.00,548.69 255.00,577.08 L 255.00 582.74 L 265.39 586.44 C279.21,591.36 286.96,596.10 294.52,604.25 C306.18,616.84 312.32,632.45 320.48,670.31 C322.38,679.15 326.41,685.00 330.59,685.00 C331.90,685.00 335.20,685.84 337.91,686.87 L 342.84 688.75 L 347.90 682.44 C360.35,666.90 383.94,656.08 406.24,655.67 C411.60,655.58 415.99,655.28 415.99,655.00 C415.99,654.72 414.18,650.30 411.97,645.16 C389.68,593.51 387.07,502.62 405.52,421.00 C422.05,347.90 453.18,277.85 490.84,229.00 C499.66,217.56 521.68,195.82 531.56,188.80 C554.58,172.44 573.83,166.74 593.85,170.36 C619.21,174.95 640.38,193.50 660.81,229.06 C673.34,250.87 683.43,275.50 694.57,311.50 C696.61,318.10 698.41,323.66 698.57,323.84 C698.73,324.03 701.93,320.93 705.68,316.96 C724.18,297.33 751.40,279.93 775.17,272.52 L 783.65 269.87 L 784.95 264.80 C787.52,254.80 798.63,246.77 807.57,248.45 C810.53,249.00 811.16,248.64 814.66,244.35 C827.02,229.22 847.47,218.78 876.96,212.55 C883.49,211.17 892.36,208.83 896.67,207.35 C911.01,202.42 929.17,203.78 939.50,210.54 C945.18,214.26 947.30,217.57 947.77,223.43 C948.26,229.49 945.57,234.27 939.86,237.48 L 936.28 239.50 L 940.16 242.25 C949.56,248.93 951.72,260.70 944.96,268.40 C943.33,270.24 940.71,272.29 939.12,272.95 C936.86,273.89 936.10,274.98 935.62,278.00 C934.41,285.51 926.42,291.70 916.62,292.69 C913.24,293.03 908.50,292.50 902.67,291.11 C891.90,288.54 879.23,288.24 878.35,290.54 C877.58,292.53 880.16,295.33 887.14,300.08 C894.57,305.14 899.32,310.84 901.35,317.12 C907.04,334.75 896.52,349.72 881.03,346.01 C875.17,344.60 871.43,341.25 865.61,332.17 C859.50,322.64 857.74,321.63 845.95,320.92 C837.99,320.43 835.14,319.79 829.59,317.19 L 822.86 314.04 L 819.91 316.22 C817.82,317.77 815.10,318.53 810.57,318.81 C804.99,319.17 803.51,318.86 798.94,316.37 C796.05,314.80 792.13,311.64 790.22,309.36 L 786.74 305.20 L 781.56 306.98 C758.31,314.98 735.17,333.48 714.26,360.77 L 708.64 368.11 L 711.34 385.31 C721.83,451.94 722.67,509.61 713.94,564.26 C706.84,608.76 695.18,643.40 677.96,671.17 L 673.13 678.96 L 680.31 682.73 C698.82,692.45 722.86,715.00 736.88,735.81 C741.44,742.57 745.47,747.95 745.83,747.76 C754.19,743.33 758.90,741.71 763.52,741.71 L 768.73 741.71 L 769.34 734.61 C770.22,724.48 772.41,716.75 777.18,707.00 C781.99,697.15 790.19,688.27 799.15,683.18 C810.75,676.59 828.18,674.30 842.00,677.56 C845.82,678.46 853.63,681.84 861.00,685.80 C880.19,696.08 888.42,705.57 894.15,724.00 C896.12,730.34 896.48,733.59 896.45,745.00 C896.40,758.84 895.38,764.70 890.87,776.98 C885.69,791.08 872.66,811.35 859.36,826.00 C856.62,829.03 851.49,835.33 847.97,840.00 C839.45,851.31 824.89,866.29 817.63,871.24 C809.06,877.08 800.79,880.13 791.91,880.74 C783.21,881.34 780.65,880.67 767.21,874.28 C750.09,866.13 739.77,853.37 736.67,836.50 L 735.38 829.51 L 730.69 828.84 C723.74,827.84 719.53,824.77 716.43,818.44 C713.98,813.44 713.80,812.23 714.21,803.75 C714.52,797.34 715.43,792.32 717.18,787.40 L 719.69 780.30 L 714.49 771.25 C703.35,751.90 689.05,734.83 674.31,723.32 C665.66,716.57 650.55,706.99 648.59,707.02 C647.99,707.03 644.26,709.61 640.30,712.77 C613.93,733.76 574.30,745.59 541.71,742.19 C535.40,741.53 525.83,739.88 520.44,738.51 C515.05,737.14 510.52,736.14 510.38,736.29 C509.46,737.21 499.31,762.19 494.25,776.00 C487.30,794.97 482.27,812.52 478.07,832.50 C475.21,846.12 471.63,868.06 472.21,868.46 C472.37,868.56 476.54,870.63 481.48,873.05 C497.17,880.72 507.00,892.57 507.00,903.80 C507.00,905.70 505.85,909.81 504.44,912.95 L 501.89 918.65 L 505.58 933.07 C508.74,945.39 509.35,949.59 509.77,961.77 C510.17,973.61 509.96,976.81 508.56,980.48 C504.89,990.09 492.22,996.83 467.78,1002.17 C455.38,1004.88 413.39,1005.64 396.15,1003.47 ZM 460.46 993.54 C479.93,990.50 494.21,985.28 498.41,979.66 C500.26,977.17 500.50,975.48 500.50,964.68 C500.49,954.26 499.99,950.44 497.06,938.21 C494.37,927.04 493.31,924.05 492.18,924.48 C491.39,924.79 488.74,925.54 486.29,926.16 C482.26,927.17 481.63,927.08 479.74,925.18 C476.83,922.27 478.54,918.47 483.19,917.50 C492.37,915.58 498.86,908.37 497.57,901.51 C496.36,895.05 486.45,885.47 476.17,880.80 C473.78,879.72 471.73,878.98 471.59,879.17 C471.46,879.35 470.83,882.42 470.19,885.99 C468.85,893.50 466.86,896.62 461.41,899.73 C458.56,901.36 455.88,901.97 451.50,901.97 C443.54,901.97 438.34,899.11 435.17,893.00 C433.16,889.11 432.91,887.50 433.35,881.12 L 433.86 873.75 L 429.48 874.35 C418.78,875.81 408.47,881.25 405.50,887.00 C403.61,890.66 403.56,898.27 405.41,901.80 C409.41,909.43 419.67,915.19 433.73,917.69 C444.82,919.66 448.07,922.94 442.52,926.58 C440.45,927.94 439.08,928.04 434.27,927.20 C431.10,926.65 428.33,926.37 428.12,926.57 C427.91,926.77 429.14,928.54 430.87,930.50 C432.59,932.46 434.00,934.50 434.00,935.03 C434.00,936.30 430.28,940.00 429.01,940.00 C428.47,940.00 425.55,937.76 422.52,935.02 C415.49,928.65 410.31,925.40 402.49,922.46 C389.30,917.49 373.31,918.52 360.92,925.12 C345.86,933.15 335.93,952.72 338.44,969.43 C339.91,979.25 349.40,985.25 370.04,989.42 C381.23,991.68 398.73,994.22 411.00,995.37 C419.87,996.20 450.69,995.06 460.46,993.54 ZM 799.28 869.91 C808.92,866.67 815.85,861.89 825.56,851.77 C836.16,840.72 841.76,833.18 839.82,832.57 C837.90,831.97 792.86,823.80 790.57,823.64 C787.99,823.45 781.82,831.45 777.21,840.95 C774.16,847.22 773.59,849.44 773.61,854.95 C773.66,869.95 782.98,875.39 799.28,869.91 ZM 764.16 857.12 C763.74,851.02 766.26,840.93 769.67,835.12 C771.10,832.68 775.74,825.86 779.98,819.97 C789.09,807.31 795.98,793.78 799.38,781.91 C800.73,777.19 802.81,765.35 803.99,755.59 C806.55,734.47 808.79,725.27 814.01,714.42 C818.66,704.76 826.81,695.81 835.39,690.97 C840.20,688.26 840.94,687.52 839.39,686.96 C835.15,685.42 825.96,684.97 819.44,685.98 C789.42,690.63 772.44,722.47 779.97,760.00 C781.66,768.42 781.71,769.76 780.42,771.75 C778.22,775.13 776.33,774.50 773.77,769.56 L 772.25 766.62 L 770.53 769.94 C769.59,771.76 768.17,775.42 767.39,778.07 C765.73,783.64 762.61,785.52 760.25,782.37 C758.10,779.51 759.41,773.13 764.04,763.93 C768.90,754.25 768.93,751.64 764.15,751.18 C753.12,750.12 733.14,770.64 725.78,790.59 C724.17,794.94 723.59,798.83 723.55,805.33 C723.50,813.80 723.62,814.27 726.31,816.58 C728.04,818.08 730.36,819.00 732.39,819.00 L 735.66 819.00 L 737.39 810.94 C739.38,801.70 741.79,798.28 745.08,800.04 C748.13,801.68 748.39,803.42 746.62,810.48 C743.53,822.78 744.86,836.99 750.09,847.46 C752.22,851.73 761.83,862.00 763.69,862.00 C764.14,862.00 764.35,859.80 764.16,857.12 ZM 855.13 816.43 C865.56,804.31 872.48,794.06 878.12,782.41 C885.02,768.16 887.24,759.13 887.35,745.00 C887.44,732.57 886.03,725.94 881.30,716.60 C877.96,710.01 868.68,700.38 862.78,697.39 C848.81,690.31 831.34,699.64 821.59,719.40 C817.32,728.04 815.56,735.37 813.50,753.00 C810.49,778.84 806.91,792.06 798.92,806.89 C796.73,810.95 795.07,814.40 795.23,814.56 C795.39,814.72 806.53,816.93 819.97,819.47 C833.42,822.02 844.63,824.30 844.88,824.55 C846.26,825.92 848.48,824.16 855.13,816.43 ZM 430.23 793.81 C433.15,792.55 436.99,789.60 440.02,786.29 C445.48,780.31 446.26,778.42 442.75,779.66 C438.73,781.07 432.82,780.63 431.68,778.83 C430.09,776.34 431.99,774.66 441.68,769.97 C464.40,758.97 476.39,734.74 470.45,711.82 C468.54,704.44 469.16,702.00 472.94,702.00 C474.49,702.00 476.24,702.59 476.84,703.31 C478.46,705.26 481.00,715.84 481.00,720.65 C481.00,725.77 482.01,726.56 485.92,724.54 C498.11,718.24 499.35,697.92 488.65,679.66 C480.66,666.04 465.77,655.66 454.22,655.67 C448.80,655.68 441.10,658.42 439.58,660.87 C439.27,661.37 441.95,663.68 445.52,666.01 C451.92,670.18 453.93,673.14 452.64,676.50 C451.76,678.79 447.78,678.29 443.94,675.42 C432.35,666.74 416.35,662.95 400.32,665.08 C388.93,666.60 379.36,669.95 370.33,675.58 C362.17,680.66 352.63,689.38 353.23,691.20 C353.45,691.84 355.85,693.12 358.56,694.04 L 363.50 695.71 L 368.12 692.07 C374.47,687.05 381.35,683.54 383.35,684.30 C386.92,685.67 384.81,688.93 373.56,699.42 C351.42,720.08 336.00,742.97 336.00,755.21 C336.00,763.79 344.66,770.25 353.12,767.97 C357.09,766.90 363.47,760.40 376.16,744.50 C382.83,736.15 386.28,734.15 387.48,737.93 C388.49,741.12 382.79,750.73 372.78,762.71 C364.34,772.80 363.89,773.58 364.50,776.94 C365.92,784.72 371.35,788.99 379.85,789.00 C386.90,789.00 391.26,786.79 395.36,781.14 C399.85,774.95 400.87,772.89 404.04,763.53 C405.53,759.15 407.48,755.10 408.37,754.54 C410.53,753.17 413.39,754.97 413.83,757.96 C414.38,761.66 409.34,776.02 405.05,783.00 L 401.05 789.50 L 404.21 792.23 C410.08,797.30 420.63,797.94 430.23,793.81 ZM 478.76 778.45 C483.84,774.90 490.00,759.97 490.00,751.24 C490.00,745.53 488.11,743.18 484.00,743.79 C481.07,744.22 481.00,744.36 481.00,749.90 C481.00,757.49 478.55,766.50 475.00,771.97 C472.31,776.12 472.21,776.58 473.70,778.22 C475.66,780.39 475.98,780.40 478.76,778.45 ZM 469.87 769.25 C472.05,764.95 476.01,752.59 475.98,750.14 C475.97,749.24 474.60,750.97 472.94,754.00 C471.27,757.03 467.91,761.54 465.46,764.03 C463.01,766.53 461.00,768.88 461.00,769.25 C461.00,769.96 465.93,772.89 467.23,772.96 C467.63,772.98 468.82,771.31 469.87,769.25 ZM 240.94 763.45 C251.00,761.08 269.34,750.34 279.93,740.60 C295.97,725.87 303.67,721.03 311.08,721.01 L 314.65 721.00 L 318.33 711.49 C320.35,706.25 322.00,701.33 322.00,700.54 C322.00,699.76 322.45,698.84 323.00,698.50 C325.02,697.25 324.09,692.10 321.54,690.43 C320.19,689.55 318.77,687.85 318.40,686.66 C318.03,685.47 316.88,683.42 315.84,682.09 C313.53,679.12 311.50,672.27 309.47,660.50 C307.73,650.45 301.54,631.01 297.33,622.42 C295.82,619.33 292.87,614.86 290.78,612.49 C286.86,608.04 274.03,598.00 272.25,598.00 C271.70,598.00 270.69,597.33 270.01,596.51 C269.33,595.69 268.44,595.23 268.02,595.49 C267.61,595.74 264.01,595.04 260.01,593.94 C256.01,592.83 252.56,592.11 252.33,592.34 C252.10,592.57 251.82,594.02 251.70,595.57 C251.51,598.25 252.03,598.60 263.50,603.44 C273.62,607.71 276.36,609.36 281.00,614.00 C289.43,622.43 294.91,633.97 300.01,654.00 C302.32,663.08 304.41,671.85 304.66,673.50 L 305.12 676.50 L 303.16 674.27 C302.09,673.04 300.68,669.66 300.03,666.77 C299.39,663.87 298.46,660.60 297.97,659.50 C297.48,658.40 296.34,654.80 295.44,651.50 C293.30,643.62 289.44,632.76 287.36,628.73 C285.26,624.66 274.66,613.57 270.30,610.88 C268.49,609.76 267.00,608.17 267.00,607.35 C267.00,606.38 266.38,606.06 265.20,606.44 C264.21,606.75 260.52,605.88 257.01,604.50 C253.50,603.13 249.82,602.00 248.84,602.00 C247.85,602.00 245.30,604.39 243.07,607.40 C238.24,613.95 235.37,616.07 225.83,620.17 C220.24,622.58 216.57,623.44 210.38,623.78 L 202.25 624.24 L 200.46 621.20 C199.48,619.54 197.57,617.67 196.23,617.06 C194.17,616.12 193.50,616.27 191.98,618.02 L 190.18 620.10 L 185.34 617.84 C172.20,611.70 162.14,594.16 161.82,576.81 C161.73,571.65 161.48,571.03 159.11,570.11 C153.13,567.80 148.23,567.09 140.32,567.41 C135.73,567.60 131.72,567.36 131.42,566.88 C131.13,566.40 131.70,566.11 132.69,566.25 C133.69,566.39 134.50,566.05 134.50,565.51 C134.50,563.02 148.90,562.33 156.81,564.44 L 162.12 565.85 L 164.04 562.70 C165.09,560.97 165.62,559.23 165.23,558.83 C164.83,558.43 160.23,557.15 155.00,555.97 C142.33,553.11 132.33,553.60 122.00,557.59 C115.76,559.99 113.30,561.68 107.37,567.60 C97.59,577.36 94.49,584.11 79.61,628.09 C66.01,668.29 64.89,673.47 67.03,686.21 C68.65,695.86 71.56,702.17 77.90,709.78 C86.80,720.48 94.33,724.27 126.08,734.05 C132.99,736.18 140.83,738.86 143.50,740.00 C146.16,741.14 155.35,744.27 163.92,746.94 C172.49,749.62 186.88,754.35 195.91,757.44 C218.68,765.24 228.04,766.49 240.94,763.45 ZM 577.50 730.50 C604.76,724.91 630.94,710.47 649.59,690.73 C681.49,656.97 699.55,608.24 707.67,534.00 C710.03,512.42 710.01,462.24 707.63,437.50 C700.36,361.83 684.69,300.18 660.01,250.16 C645.17,220.07 628.34,197.91 613.67,189.15 C602.62,182.54 596.50,180.65 584.73,180.19 C575.23,179.83 572.99,180.08 565.73,182.36 C503.57,201.90 436.35,314.64 412.13,440.00 C396.88,518.88 402.08,603.41 424.97,648.94 L 429.10 657.16 L 432.30 654.72 C441.21,647.94 450.23,645.30 459.12,646.87 C468.72,648.56 476.83,652.90 485.16,660.80 L 492.54 667.82 L 504.02 663.57 C515.58,659.29 531.71,652.17 537.78,648.66 C539.94,647.42 540.90,646.21 540.59,645.13 C538.97,639.49 537.94,627.78 538.96,626.55 C542.64,622.11 547.36,625.13 548.44,632.62 C548.83,635.30 549.38,638.50 549.67,639.72 L 550.20 641.93 L 554.85 639.57 C557.41,638.27 564.22,634.09 570.00,630.28 C598.72,611.32 626.46,584.52 643.26,559.50 C652.78,545.34 657.74,535.18 662.69,519.78 C667.02,506.31 668.09,504.51 673.32,501.83 C678.48,499.21 687.66,499.62 691.76,502.66 C700.43,509.08 700.97,515.56 694.44,535.00 C683.32,568.12 660.31,600.77 628.00,629.29 C607.91,647.03 587.43,661.62 566.75,672.94 C562.49,675.27 559.00,677.78 559.00,678.52 C559.00,679.26 560.35,683.52 562.00,688.00 C566.17,699.30 565.78,703.00 560.46,703.00 C557.28,703.00 555.52,700.42 552.44,691.25 C550.92,686.71 549.27,683.00 548.78,683.00 C548.29,683.00 542.40,685.41 535.69,688.36 C528.99,691.31 519.59,695.19 514.81,696.97 L 506.12 700.22 L 505.50 705.86 C505.16,708.96 504.20,713.70 503.37,716.39 C502.55,719.07 502.24,721.61 502.69,722.03 C503.70,722.97 517.94,727.73 524.00,729.16 C541.12,733.18 561.85,733.70 577.50,730.50 ZM 337.22 724.00 C337.64,721.53 338.10,714.63 338.24,708.68 C338.47,698.95 338.30,697.71 336.56,696.43 C335.49,695.64 334.13,695.00 333.54,695.00 C332.63,695.00 323.50,721.71 323.50,724.37 C323.50,725.58 332.07,728.97 334.48,728.71 C335.99,728.55 336.63,727.44 337.22,724.00 ZM 345.00 717.17 C345.00,716.71 347.51,713.57 350.57,710.19 C353.63,706.80 355.88,703.61 355.56,703.09 C354.93,702.08 345.09,698.56 344.54,699.15 C343.82,699.90 343.54,718.00 344.25,718.00 C344.66,718.00 345.00,717.63 345.00,717.17 ZM 216.20 616.88 C236.93,612.48 251.73,591.27 248.17,571.06 C245.89,558.16 237.14,546.37 225.46,540.50 C219.92,537.71 218.73,537.50 208.50,537.50 C198.64,537.50 196.90,537.78 191.75,540.20 C183.72,543.96 175.68,551.87 171.73,559.89 C168.68,566.10 168.50,567.09 168.50,577.48 C168.51,587.48 168.76,589.02 171.27,594.12 C176.68,605.16 186.47,613.31 198.00,616.40 C204.78,618.21 209.34,618.33 216.20,616.88 ZM 892.00 335.45 C894.18,333.27 894.50,332.09 894.47,326.23 C894.42,317.82 892.65,314.31 885.73,308.98 C871.27,297.85 870.35,296.62 869.36,287.13 C868.43,278.30 869.45,275.07 876.07,265.87 C892.47,243.09 896.77,240.30 925.19,234.02 C936.68,231.49 940.00,229.34 940.00,224.43 C940.00,217.75 931.49,212.92 918.46,212.21 C903.33,211.38 891.35,215.89 878.00,227.44 C873.88,231.01 870.16,233.95 869.75,233.97 C867.93,234.05 869.26,229.03 872.09,225.20 C873.78,222.89 874.74,221.00 874.22,221.00 C871.86,221.00 852.13,227.38 846.28,230.03 C838.20,233.69 829.09,240.20 822.23,247.21 L 816.97 252.60 L 819.96 255.46 C823.49,258.84 825.75,264.65 824.16,266.24 C823.43,266.97 821.58,265.91 818.02,262.71 C809.67,255.20 802.04,254.14 796.80,259.76 C794.34,262.40 792.00,266.18 792.00,267.51 C792.00,267.87 793.36,267.86 795.01,267.50 C799.53,266.51 806.10,270.05 808.86,274.96 C811.62,279.88 812.62,287.59 811.09,292.22 C809.46,297.17 805.90,300.08 799.79,301.46 L 794.50 302.65 L 797.58 305.74 C801.29,309.44 807.52,311.50 812.31,310.60 C816.77,309.76 822.09,304.01 824.52,297.40 C829.04,285.08 833.13,289.36 829.65,302.78 C828.62,306.73 828.58,308.23 829.45,308.96 C831.73,310.85 842.54,313.00 849.76,313.00 C854.25,313.00 858.20,313.57 859.94,314.47 C863.64,316.38 870.15,323.84 873.87,330.42 C878.74,339.04 886.31,341.14 892.00,335.45 ZM 921.45 283.58 C925.28,281.98 928.51,277.77 927.64,275.51 C927.30,274.62 925.81,274.00 924.03,274.00 C922.36,274.00 916.84,273.28 911.75,272.39 C895.62,269.60 880.73,271.90 878.14,277.60 C877.51,278.97 877.00,280.44 877.00,280.87 C877.00,281.29 880.71,281.46 885.25,281.23 C891.44,280.92 895.37,281.32 901.00,282.85 C909.94,285.27 916.83,285.52 921.45,283.58 ZM 933.50 266.03 C940.60,264.38 942.93,258.68 939.09,252.37 C936.98,248.92 926.33,243.00 922.23,243.00 C918.54,243.00 908.13,245.90 903.71,248.15 C899.39,250.35 891.93,256.89 888.93,261.09 L 887.00 263.81 L 894.75 263.36 C899.70,263.07 906.83,263.60 914.50,264.84 C929.18,267.20 928.61,267.16 933.50,266.03 ZM 246.56 884.07 C244.98,882.32 244.76,878.23 244.25,840.07 C243.83,808.63 243.98,798.00 244.85,798.00 C245.48,798.00 246.00,798.21 246.00,798.47 C246.00,798.73 248.68,815.50 251.95,835.72 C260.06,885.87 259.58,881.42 257.10,883.90 C254.39,886.61 248.94,886.69 246.56,884.07 ZM 208.48 851.34 C206.28,849.14 206.63,847.69 214.45,826.20 C222.94,802.91 223.95,800.55 225.02,801.62 C226.12,802.72 218.46,849.74 216.88,851.65 C215.32,853.52 210.48,853.34 208.48,851.34 ZM 282.78 831.75 C280.84,830.23 266.32,785.34 267.42,784.26 C268.54,783.17 269.96,785.35 281.58,806.00 C287.58,816.67 291.99,825.64 291.99,827.19 C292.01,831.69 286.32,834.51 282.78,831.75 ZM 192.09 814.61 C190.51,812.70 191.55,810.71 198.78,801.75 C203.73,795.61 206.01,793.72 206.00,795.75 C205.99,796.16 203.86,800.78 201.25,806.00 C196.52,815.46 194.43,817.42 192.09,814.61 ZM 56.22 813.44 C53.75,811.71 53.18,806.89 55.25,805.26 C55.94,804.71 60.33,802.82 65.00,801.05 C69.68,799.28 81.82,794.52 92.00,790.47 C122.58,778.31 152.34,767.00 153.77,767.00 C156.98,767.00 152.74,769.62 135.93,778.04 C112.33,789.85 60.11,815.00 59.18,815.00 C58.77,815.00 57.44,814.30 56.22,813.44 ZM 116.45 812.57 C114.05,808.91 115.77,806.76 126.82,799.62 C145.20,787.74 162.10,777.76 162.74,778.41 C163.58,779.25 162.02,780.75 141.00,799.43 C122.15,816.18 119.69,817.50 116.45,812.57 ZM 292.04 789.89 C286.46,782.27 284.87,779.00 286.75,779.00 C287.16,779.00 290.88,781.84 295.00,785.30 C301.22,790.52 302.50,792.09 302.50,794.54 C302.50,796.83 302.00,797.57 300.29,797.81 C298.52,798.07 296.85,796.46 292.04,789.89 ZM 84.33 774.22 C82.12,772.82 81.75,768.53 83.69,766.79 C86.65,764.13 133.82,759.33 131.38,761.94 C130.23,763.17 90.06,775.01 87.13,774.98 C86.23,774.98 84.97,774.63 84.33,774.22 ZM 323.19 611.92 C323.45,611.15 327.84,609.20 332.95,607.59 C342.40,604.62 345.15,604.73 345.75,608.11 C346.31,611.25 344.30,612.00 333.56,612.66 C324.51,613.21 322.80,613.09 323.19,611.92 ZM 313.23 595.75 C314.00,593.36 348.45,565.00 350.59,565.00 C351.75,565.00 353.52,565.91 354.53,567.03 C358.39,571.29 356.10,573.48 334.99,585.71 C316.08,596.66 312.40,598.36 313.23,595.75 ZM 306.00 579.40 C306.00,578.08 346.02,512.56 351.73,504.54 C354.50,500.64 355.45,500.00 358.44,500.00 C362.19,500.00 364.00,501.99 364.00,506.10 C364.00,508.46 356.70,518.51 330.68,551.95 C308.93,579.90 308.84,580.00 307.33,580.00 C306.60,580.00 306.00,579.73 306.00,579.40 ZM 291.54 570.25 C295.31,548.02 300.23,525.40 301.64,523.84 C304.85,520.29 310.00,522.65 310.00,527.67 C310.00,531.60 293.72,574.00 292.22,574.00 C291.26,574.00 291.08,572.99 291.54,570.25 ZM 277.68 570.35 C277.31,569.97 277.00,565.07 277.00,559.46 C277.00,551.45 277.34,548.97 278.55,547.96 C279.83,546.90 280.38,546.95 281.68,548.25 C283.12,549.69 283.11,550.70 281.60,559.64 C279.98,569.23 279.07,571.73 277.68,570.35 ZM 138.68 522.25 C137.55,520.34 136.93,514.03 136.03,495.51 C131.39,400.15 166.06,297.55 229.73,218.23 C262.60,177.26 305.99,141.24 347.86,120.16 C363.62,112.22 371.01,109.41 373.56,110.38 C376.11,111.36 374.38,112.85 364.08,118.53 C313.28,146.54 267.68,185.98 233.33,231.60 C221.77,246.95 217.43,253.42 207.21,270.50 C167.01,337.69 145.98,413.56 143.32,501.00 C142.74,520.24 142.31,522.93 139.81,522.98 C139.43,522.99 138.92,522.66 138.68,522.25 ZM 186.34 400.75 C187.73,384.93 197.04,354.74 208.18,329.91 C224.86,292.75 245.23,262.40 269.89,238.00 C282.69,225.32 291.91,218.37 294.56,219.38 C295.87,219.89 294.25,222.08 286.79,229.85 C264.55,253.02 242.78,284.05 224.24,319.00 C212.53,341.07 200.45,370.35 192.37,396.25 C189.83,404.40 188.25,408.00 187.21,408.00 C185.95,408.00 185.81,406.81 186.34,400.75 ZM 216.01 755.90 C213.54,755.42 195.54,749.64 176.01,743.05 C97.02,716.42 97.96,716.80 89.36,708.20 C81.38,700.22 77.64,692.59 75.98,680.88 C74.28,668.87 75.56,663.83 92.77,614.46 C100.44,592.44 103.53,585.60 108.63,579.31 C112.36,574.72 122.57,568.00 125.82,568.00 C129.43,568.00 129.03,569.60 124.99,571.39 C119.65,573.74 109.92,583.80 106.23,590.77 C103.45,596.02 94.53,620.88 84.90,650.20 C82.78,656.63 80.58,664.84 80.01,668.45 C77.99,681.09 81.97,694.31 90.75,704.07 C98.71,712.92 98.43,712.81 169.50,736.60 C214.45,751.64 219.08,753.00 225.50,752.98 C235.34,752.94 240.00,751.66 252.00,745.72 C257.77,742.86 262.84,740.36 263.25,740.17 C265.23,739.27 263.64,742.45 260.75,745.17 C251.60,753.77 230.72,758.78 216.01,755.90 ZM 265.00 738.99 C265.00,736.36 285.14,721.81 286.67,723.34 C287.38,724.05 277.20,733.85 273.08,736.43 C269.06,738.95 265.00,740.23 265.00,738.99 ZM 251.71 707.74 C250.26,701.56 248.42,692.45 247.62,687.50 C246.82,682.55 245.01,671.97 243.60,664.00 C239.41,640.27 236.95,616.75 239.42,624.11 C241.05,628.95 245.16,647.78 246.05,654.50 C246.63,658.90 248.86,673.08 251.01,686.00 C254.93,709.69 255.86,717.47 254.89,718.45 C254.59,718.74 253.17,713.92 251.71,707.74 ZM 269.16 713.00 C269.16,711.62 269.38,711.06 269.66,711.75 C269.94,712.44 269.94,713.56 269.66,714.25 C269.38,714.94 269.16,714.38 269.16,713.00 ZM 268.08 709.48 C268.04,708.92 266.87,703.52 265.49,697.48 C262.95,686.40 256.77,650.60 255.47,639.50 C254.94,634.95 255.05,633.77 255.94,634.60 C257.16,635.75 262.94,665.02 265.51,683.00 C266.33,688.78 267.51,696.71 268.12,700.63 C268.74,704.56 269.00,708.38 268.70,709.13 C268.40,709.89 268.12,710.04 268.08,709.48 ZM 276.59 690.89 C273.53,681.50 269.52,655.00 271.16,655.00 C272.64,655.00 275.60,669.44 276.90,683.00 C277.68,691.14 277.57,693.89 276.59,690.89 ZM 528.25 604.34 C526.11,603.47 526.88,601.12 529.79,599.61 C531.33,598.81 535.49,597.41 539.04,596.49 C542.59,595.58 552.36,592.62 560.75,589.91 C577.36,584.56 580.44,584.09 581.46,586.74 C582.41,589.23 578.45,592.06 568.15,596.26 C552.84,602.50 533.43,606.43 528.25,604.34 ZM 481.31 592.36 C480.37,589.92 483.15,588.38 491.83,586.52 C515.37,581.47 533.50,576.44 533.79,574.87 C534.33,572.02 531.37,570.33 523.63,569.09 C511.44,567.12 508.00,562.86 508.00,549.70 C508.00,537.84 512.76,472.18 514.50,460.00 C514.88,457.34 513.86,458.78 510.23,466.00 C497.06,492.24 480.13,507.76 463.52,508.82 C449.14,509.73 438.95,499.10 433.45,477.41 C424.72,442.99 429.60,395.33 445.51,359.62 L 449.91 349.75 L 447.38 344.77 C442.89,335.90 446.82,334.13 454.14,341.75 C456.64,344.36 463.12,352.12 468.52,359.00 C482.67,377.00 495.16,391.00 508.57,403.90 L 520.32 415.19 L 524.17 392.35 C532.89,340.71 542.48,300.26 557.19,253.00 C563.11,233.98 575.10,199.54 577.12,195.77 C578.39,193.41 583.80,193.70 585.37,196.21 C586.69,198.32 586.65,198.45 575.53,230.50 C548.61,308.06 532.04,385.90 523.04,477.00 C520.67,501.04 518.01,539.42 518.00,549.71 C518.00,558.09 518.25,558.35 527.76,559.88 C531.10,560.42 535.21,561.58 536.90,562.45 C539.99,564.05 543.00,568.52 543.00,571.52 C543.00,573.45 543.95,573.22 556.00,568.31 C568.94,563.04 588.26,552.70 600.50,544.49 C614.48,535.12 618.03,532.09 616.01,531.28 C615.19,530.94 613.26,529.41 611.71,527.86 C609.37,525.52 609.08,524.72 609.99,523.03 C611.57,520.07 616.68,520.41 622.07,523.83 C629.63,528.62 635.31,536.83 636.58,544.78 C637.12,548.17 636.89,548.97 634.90,550.36 C631.75,552.56 629.00,550.69 627.00,544.96 C626.17,542.60 625.01,540.50 624.42,540.31 C623.83,540.11 621.58,541.38 619.42,543.12 C610.24,550.56 590.38,562.72 575.50,570.02 C551.50,581.80 528.87,589.09 505.87,592.45 C491.41,594.56 482.14,594.53 481.31,592.36 ZM 470.75 497.03 C475.49,494.87 475.81,493.99 473.18,490.15 C467.76,482.27 464.07,466.72 463.71,450.33 C463.47,439.04 462.80,440.51 474.18,427.37 C482.82,417.40 482.93,418.22 472.50,414.38 L 466.50 412.18 L 466.78 407.34 C466.93,404.68 468.33,397.34 469.88,391.03 L 472.71 379.56 L 467.93 373.81 C465.29,370.65 461.71,365.99 459.96,363.44 C458.21,360.90 456.40,359.20 455.94,359.66 C454.20,361.41 447.76,379.70 444.95,390.89 C443.34,397.29 441.35,407.25 440.53,413.02 C438.78,425.31 438.54,450.57 440.07,461.57 C442.47,478.81 448.81,494.20 454.88,497.49 C458.58,499.51 465.75,499.29 470.75,497.03 ZM 569.85 510.67 C553.27,504.47 543.65,479.45 543.55,442.29 C543.50,425.95 543.40,425.06 541.53,424.79 C537.83,424.25 536.44,419.92 537.66,412.76 C539.13,404.21 542.73,394.59 545.64,391.45 C550.34,386.37 551.12,390.76 548.09,405.25 C546.98,410.55 546.66,414.00 547.27,414.00 C550.82,414.00 572.56,398.90 595.20,380.70 C622.45,358.81 631.86,352.13 643.43,346.48 C655.05,340.81 667.17,338.40 668.37,341.53 C669.20,343.68 666.59,345.69 654.79,352.01 L 644.50 357.52 L 644.74 361.51 C644.87,363.70 645.07,373.38 645.18,383.00 C645.35,397.20 644.97,402.93 643.17,413.40 C637.10,448.77 627.17,473.68 611.78,492.10 C607.00,497.82 596.95,506.01 591.00,509.02 C585.45,511.83 575.11,512.64 569.85,510.67 ZM 586.84 499.99 C589.22,498.91 591.00,497.68 590.78,497.26 C583.87,483.75 581.58,476.19 579.88,461.27 C578.25,446.87 579.01,443.29 585.35,435.73 C588.23,432.30 592.29,427.37 594.39,424.77 L 598.20 420.05 L 595.85 419.06 C594.56,418.51 590.87,417.33 587.66,416.43 L 581.82 414.81 L 582.16 409.90 C582.35,407.21 582.43,405.00 582.35,405.00 C582.27,405.00 578.00,407.62 572.85,410.83 C567.71,414.04 561.49,417.75 559.03,419.09 C555.08,421.23 554.46,422.04 553.72,426.00 C552.48,432.70 553.60,461.40 555.42,469.48 C559.20,486.26 563.63,495.50 569.90,499.72 C574.18,502.60 580.86,502.70 586.84,499.99 ZM 198.25 614.34 C197.56,614.06 197.00,613.36 197.00,612.79 C197.00,611.43 205.77,612.37 207.29,613.89 C208.10,614.70 207.22,614.98 203.95,614.92 C201.50,614.88 198.94,614.62 198.25,614.34 ZM 181.59 601.92 C178.67,598.45 178.18,595.00 180.60,595.00 C182.75,595.00 188.00,600.74 188.00,603.11 C188.00,606.05 184.52,605.41 181.59,601.92 ZM 230.00 601.95 C230.00,599.31 234.31,595.00 236.95,595.00 C239.68,595.00 239.53,596.61 236.45,600.66 C233.55,604.45 230.00,605.17 230.00,601.95 ZM 213.50 601.79 C215.15,601.21 217.07,600.28 217.77,599.72 C218.47,599.17 219.33,599.00 219.68,599.34 C220.38,600.05 213.78,603.04 211.78,602.92 C211.08,602.88 211.85,602.37 213.50,601.79 ZM 208.00 598.52 C208.00,596.22 212.50,593.83 216.17,594.18 C223.28,594.87 219.12,600.00 211.45,600.00 C209.07,600.00 208.00,599.54 208.00,598.52 ZM 185.04 583.07 C183.74,580.65 183.72,575.99 184.99,574.00 C186.27,571.99 189.16,573.76 190.43,577.31 C192.29,582.53 187.49,587.65 185.04,583.07 ZM 207.24 580.90 C206.00,580.44 204.46,578.91 203.82,577.50 C202.84,575.34 202.97,574.52 204.68,572.22 C207.25,568.76 211.21,568.21 213.94,570.94 C218.73,575.73 213.65,583.28 207.24,580.90 ZM 244.58 579.36 C243.66,576.95 245.04,570.45 246.11,572.15 C247.25,573.94 247.24,579.73 246.10,580.44 C245.61,580.74 244.93,580.26 244.58,579.36 ZM 182.08 576.42 C182.13,575.25 182.36,575.01 182.68,575.81 C182.97,576.53 182.94,577.40 182.60,577.73 C182.27,578.06 182.04,577.47 182.08,576.42 ZM 229.60 574.83 C226.82,570.86 228.02,565.00 231.62,565.00 C233.13,565.00 235.26,571.15 234.82,574.22 C234.38,577.29 231.55,577.62 229.60,574.83 ZM 173.30 566.34 C172.48,564.19 176.04,557.50 178.00,557.50 C179.95,557.50 179.67,562.33 177.52,565.60 C175.69,568.41 174.19,568.67 173.30,566.34 ZM 200.20 555.80 C198.41,554.01 198.74,552.30 201.22,550.56 C205.45,547.60 211.00,549.08 211.00,553.16 C211.00,556.51 202.89,558.49 200.20,555.80 ZM 207.92 550.36 C208.91,549.51 203.36,550.13 202.00,551.01 C200.94,551.71 201.54,551.81 204.00,551.35 C205.93,551.00 207.69,550.55 207.92,550.36 ZM 227.82 550.46 C225.28,549.09 223.21,545.45 224.33,544.33 C225.84,542.82 234.00,548.09 234.00,550.57 C234.00,552.39 231.27,552.34 227.82,550.46 ZM 193.00 543.04 C193.00,541.70 195.84,540.31 200.27,539.48 C205.13,538.57 205.30,540.56 200.53,542.55 C196.55,544.21 193.00,544.44 193.00,543.04 Z" fill="rgba(0,0,0,1)"/>
</g>
</svg>