<svg xmlns="http://www.w3.org/2000/svg" width="1250" height="839" viewBox="0 0 1250 839">
<g>
<path d="M 779.91 803.57 C754.38,800.30 735.54,792.84 731.50,784.38 C728.35,777.81 728.35,766.40 731.50,748.43 L 734.24 732.77 L 732.12 729.00 C727.81,721.32 730.35,710.19 737.84,703.95 C739.85,702.28 744.76,699.28 748.75,697.30 C753.24,695.07 756.00,693.09 755.99,692.10 C755.98,688.67 750.80,665.80 747.03,652.50 C740.57,629.75 732.56,609.08 722.10,588.19 L 715.16 574.36 L 706.33 578.63 C692.16,585.50 680.44,588.14 661.50,588.72 C646.74,589.17 644.58,589.00 633.61,586.52 C623.93,584.34 621.56,584.08 620.88,585.17 C615.27,594.02 601.80,632.30 596.49,654.50 C593.31,667.77 589.41,689.88 590.15,690.37 C590.34,690.49 593.91,692.25 598.09,694.27 C612.66,701.33 620.74,712.83 618.07,722.72 C617.51,724.83 616.46,727.36 615.75,728.33 C614.66,729.82 614.91,731.92 617.29,741.30 C620.25,752.99 621.89,771.44 620.58,778.40 C617.83,793.10 588.31,802.05 547.12,800.70 C511.90,799.54 487.22,793.39 478.10,783.49 C467.93,772.46 471.66,749.83 485.77,736.92 C496.97,726.66 511.78,722.17 525.79,724.76 C528.70,725.30 530.93,725.46 530.74,725.12 C524.17,713.23 524.80,704.76 532.85,697.00 C537.75,692.28 543.70,689.62 553.84,687.62 C559.11,686.58 559.52,686.29 559.79,683.50 C562.40,656.44 576.15,607.10 588.06,582.12 C590.77,576.41 593.00,571.45 593.00,571.08 C593.00,570.72 589.96,568.43 586.25,565.99 C577.31,560.12 562.72,545.39 556.26,535.71 L 551.06 527.93 L 547.62 534.71 C536.43,556.78 518.86,578.43 503.68,588.88 C496.19,594.03 483.29,599.80 475.27,601.58 C466.06,603.63 451.14,603.14 442.88,600.51 L 437.27 598.72 L 432.77 601.81 C422.07,609.17 410.27,610.69 401.90,605.78 C397.57,603.25 397.30,603.22 392.01,604.59 C380.77,607.50 365.61,605.37 353.25,599.12 L 347.28 596.11 L 320.24 626.31 C288.78,661.45 289.19,661.00 288.03,661.00 C286.96,661.00 284.00,658.15 284.00,657.12 C284.00,656.72 300.14,638.25 319.87,616.07 L 355.75 575.75 L 354.12 571.77 C353.13,569.33 351.01,566.78 348.66,565.20 L 344.82 562.62 L 339.66 568.52 C327.52,582.40 272.04,643.86 271.15,644.40 C269.76,645.27 267.26,644.11 266.55,642.28 C266.22,641.42 266.61,639.77 267.42,638.61 C268.22,637.45 281.05,623.02 295.93,606.55 C322.87,576.73 322.97,576.60 321.06,574.55 C318.03,571.30 314.07,562.65 312.98,556.88 C311.19,547.47 314.43,536.72 320.91,530.56 C323.70,527.91 324.00,527.03 324.01,521.56 C324.03,510.78 329.63,502.29 339.67,497.83 C342.97,496.36 343.99,495.29 344.55,492.74 C347.29,480.04 358.21,472.52 373.66,472.70 C380.63,472.78 390.27,475.27 396.00,478.47 C398.32,479.77 398.73,479.65 401.70,476.79 L 404.89 473.71 L 403.04 470.08 C396.99,458.23 396.28,442.01 401.36,431.68 C405.11,424.04 413.61,414.87 417.14,414.66 C419.09,414.54 420.07,413.71 420.89,411.50 C422.16,408.09 428.77,403.00 431.93,403.00 C433.28,403.00 434.40,402.07 435.02,400.46 C436.21,397.31 440.53,393.41 444.50,391.89 C446.15,391.26 448.40,389.38 449.50,387.71 C450.60,386.04 453.75,383.51 456.50,382.09 C459.25,380.66 461.66,379.12 461.86,378.65 C463.15,375.69 468.78,370.85 472.09,369.85 C474.24,369.21 476.00,368.34 476.00,367.92 C476.00,365.78 482.09,360.40 487.28,357.94 C498.39,352.69 508.45,353.15 521.90,359.53 C525.96,361.46 529.41,362.92 529.55,362.77 C529.69,362.62 529.96,361.18 530.15,359.58 C530.46,356.98 529.93,356.32 525.50,353.74 C515.38,347.84 509.28,339.51 506.33,327.54 C504.86,321.58 504.30,320.68 501.09,319.03 C496.20,316.51 492.55,312.46 489.80,306.50 C487.72,301.99 487.51,300.09 487.55,287.00 C487.59,275.23 488.03,270.93 489.85,264.15 C497.89,234.26 511.30,216.00 525.22,216.00 L 528.50 216.00 L 531.90 202.82 C551.10,128.32 599.15,80.43 664.72,70.45 C677.20,68.55 707.09,68.31 722.02,70.00 C779.70,76.49 820.59,100.89 846.97,144.55 C863.86,172.50 874.56,214.97 873.91,251.51 C873.76,260.37 873.81,260.59 876.96,263.96 C892.78,280.90 894.55,327.18 880.44,355.11 C875.72,364.45 868.74,369.93 861.49,369.98 C858.85,370.00 858.20,370.63 856.08,375.25 C852.46,383.16 842.91,392.17 835.82,394.38 C828.89,396.53 813.83,398.04 806.68,397.31 L 801.43 396.76 L 800.20 409.13 C798.76,423.66 794.59,448.42 792.03,457.65 L 790.23 464.15 L 793.73 468.82 C809.65,490.06 833.88,504.43 850.85,502.68 C864.66,501.25 880.14,487.62 889.86,468.33 L 891.95 464.17 L 889.47 459.73 C883.63,449.27 884.40,438.75 891.56,431.27 L 895.92 426.73 L 894.83 421.64 C893.43,415.13 894.37,403.07 896.83,395.98 C901.92,381.25 908.00,373.59 922.76,363.29 C933.80,355.60 935.91,353.02 940.02,342.27 C945.55,327.78 950.14,323.55 959.57,324.26 C966.15,324.75 969.63,327.43 974.60,335.81 C974.70,335.98 976.74,334.74 979.14,333.06 C981.54,331.39 986.54,329.27 990.26,328.36 C996.99,326.71 997.03,326.69 997.65,322.76 C998.52,317.34 1001.69,313.96 1009.46,310.17 C1022.87,303.63 1041.91,300.55 1069.00,300.54 C1091.89,300.52 1101.26,301.91 1110.99,306.76 C1119.54,311.03 1120.16,312.75 1120.31,332.75 C1120.42,347.08 1120.11,350.80 1118.18,358.50 C1112.30,381.96 1099.38,397.69 1080.18,404.76 C1072.09,407.74 1054.72,408.92 1045.94,407.09 C1038.48,405.54 1028.55,400.75 1022.82,395.93 C1020.25,393.77 1017.21,392.00 1016.07,392.00 C1014.35,392.00 1014.00,392.63 1013.98,395.75 C1013.94,401.50 1010.90,406.98 1004.41,412.94 C1001.16,415.93 999.24,418.09 1000.15,417.75 C1004.91,415.98 1014.87,414.79 1021.45,415.21 C1032.14,415.90 1039.64,419.77 1042.86,426.26 C1047.26,435.13 1043.35,444.64 1033.74,448.49 C1031.24,449.49 1024.50,450.54 1017.35,451.05 C999.66,452.30 996.64,453.34 985.62,461.96 C973.60,471.35 963.03,475.79 951.65,476.23 C946.42,476.42 945.67,476.73 944.41,479.17 C942.42,483.03 937.27,486.65 931.87,488.01 C928.06,488.97 926.11,488.89 920.88,487.55 C916.23,486.36 914.42,486.23 914.14,487.08 C912.68,491.47 900.72,506.99 893.69,513.62 C878.25,528.18 865.80,533.56 848.00,533.38 C825.78,533.16 806.08,524.04 784.78,504.11 L 778.44 498.18 L 772.76 509.36 C765.64,523.40 757.69,535.35 747.79,546.85 L 740.09 555.81 L 744.45 563.47 C755.43,582.74 770.17,619.85 777.62,647.00 C779.51,653.88 782.47,666.51 784.20,675.09 L 787.34 690.67 L 793.28 691.90 C814.90,696.36 825.95,710.89 818.67,725.27 L 816.33 729.88 L 824.42 729.31 C829.15,728.98 834.87,729.24 838.22,729.94 C859.50,734.37 874.95,753.28 874.99,774.93 C875.02,791.09 864.64,798.41 835.88,802.51 C820.15,804.74 793.10,805.26 779.91,803.57 ZM 833.01 795.50 C862.21,791.66 869.90,785.72 867.02,769.22 C863.20,747.27 843.29,733.13 821.52,736.92 C812.28,738.53 806.69,741.23 800.53,747.06 C796.64,750.74 794.49,752.07 792.82,751.83 C789.54,751.36 789.37,747.90 792.44,744.25 L 794.98 741.23 L 788.71 741.73 C783.61,742.14 782.18,741.92 781.03,740.54 C779.10,738.21 780.84,735.59 784.60,735.18 C792.52,734.32 801.75,731.77 805.21,729.48 C812.65,724.55 815.14,716.02 811.08,709.36 C808.98,705.92 801.30,701.69 793.31,699.58 L 788.38 698.28 L 788.44 705.39 C788.49,711.01 788.08,713.06 786.50,715.17 C783.50,719.16 779.33,721.23 774.15,721.29 C765.12,721.40 759.77,716.32 758.54,706.49 L 757.88 701.16 L 752.69 703.32 C746.61,705.84 738.45,713.32 737.47,717.25 C735.92,723.48 739.78,729.09 747.50,731.82 C751.66,733.30 752.50,734.01 752.50,736.05 C752.50,737.99 751.92,738.57 749.68,738.82 C748.13,739.00 745.58,738.70 744.02,738.16 L 741.18 737.17 L 739.15 748.33 C735.95,765.87 735.77,767.69 736.53,774.29 C737.14,779.54 737.76,780.98 740.54,783.60 C746.28,789.01 768.10,795.16 789.50,797.39 C796.57,798.13 821.17,797.06 833.01,795.50 ZM 582.36 791.56 C594.49,789.36 606.16,785.35 610.16,782.01 L 613.50 779.22 L 613.45 768.36 C613.41,759.99 612.76,754.94 610.62,746.30 C607.87,735.17 607.84,735.11 605.36,736.05 C603.99,736.57 601.35,737.00 599.50,737.00 C596.92,737.00 595.97,736.49 595.44,734.83 C594.66,732.34 597.07,730.00 600.44,729.99 C603.16,729.98 608.04,726.71 609.65,723.81 C612.53,718.61 610.67,712.55 604.51,707.15 C601.08,704.13 592.05,699.00 590.17,699.00 C589.68,699.00 588.99,701.06 588.64,703.58 C587.77,709.97 585.27,713.69 580.21,716.14 C576.93,717.73 574.89,718.08 571.78,717.58 C562.36,716.07 558.44,711.05 558.68,700.75 C558.77,697.04 558.52,694.00 558.13,694.00 C555.44,694.00 544.76,697.54 541.26,699.59 C535.88,702.74 533.62,706.94 534.26,712.59 C535.18,720.77 542.71,726.97 554.82,729.50 C559.05,730.39 563.54,731.33 564.81,731.59 C566.65,731.97 567.06,732.63 566.81,734.78 C566.50,737.47 566.42,737.50 559.52,737.33 C554.56,737.21 553.04,737.44 554.27,738.13 C556.96,739.64 559.00,744.25 557.86,746.28 C556.28,749.11 553.36,748.26 547.84,743.36 C537.85,734.48 523.61,730.03 511.52,732.00 C494.53,734.76 481.55,748.23 480.25,764.47 C479.02,779.79 485.95,784.93 514.84,790.10 C521.15,791.23 529.96,792.54 534.41,793.01 C545.97,794.23 571.97,793.44 582.36,791.56 ZM 423.55 598.60 C430.60,595.38 435.26,590.98 440.40,582.66 C445.12,575.03 446.99,569.71 446.99,563.90 C447.00,559.99 445.24,554.00 444.09,554.00 C443.69,554.00 442.12,556.62 440.59,559.82 C439.06,563.02 436.31,567.40 434.47,569.57 C431.66,572.88 430.86,573.33 429.32,572.39 C426.56,570.71 426.57,568.25 429.36,564.59 C437.72,553.63 441.82,538.08 439.00,527.95 C435.92,516.86 419.98,512.19 414.45,520.76 C413.48,522.27 409.22,527.10 405.00,531.50 C395.11,541.81 394.00,543.55 394.00,548.80 C394.00,552.26 394.59,553.74 396.87,556.03 C400.55,559.71 404.13,560.57 409.34,559.04 C414.44,557.53 423.14,548.98 424.54,544.10 C425.64,540.27 427.94,538.38 430.36,539.31 C434.28,540.81 430.79,551.21 424.13,557.87 C413.96,568.04 401.36,569.65 392.54,561.90 L 389.25 559.01 L 388.80 564.44 C387.75,577.02 376.16,584.93 363.49,581.71 C360.74,581.01 360.12,581.36 356.57,585.61 C352.87,590.04 352.76,590.35 354.52,591.64 C357.71,593.97 367.20,597.17 374.25,598.28 C386.51,600.23 398.97,596.33 408.84,587.45 C411.56,585.00 414.03,583.00 414.33,583.00 C414.62,583.00 415.56,583.70 416.42,584.56 C417.83,585.97 417.83,586.43 416.47,589.06 C415.63,590.68 412.69,593.69 409.92,595.75 L 404.89 599.50 L 407.70 600.75 C411.27,602.34 417.07,601.56 423.55,598.60 ZM 676.07 580.38 C698.07,576.61 716.90,566.74 734.89,549.56 C747.78,537.26 761.74,516.83 769.79,498.50 L 772.87 491.50 L 770.44 488.50 C769.11,486.85 765.76,482.20 763.01,478.17 C758.44,471.48 758.00,470.33 758.00,465.15 C758.00,458.35 760.96,453.20 766.34,450.64 C772.03,447.94 777.19,448.93 782.15,453.65 L 784.80 456.18 L 786.34 449.34 C789.49,435.43 794.00,404.32 794.00,396.58 C794.00,395.91 791.64,394.61 788.75,393.69 C775.92,389.59 768.62,382.95 762.60,369.90 C755.68,354.93 753.49,340.27 754.30,314.50 C755.43,278.65 762.68,252.82 775.25,239.87 C777.97,237.06 779.35,234.80 779.14,233.51 C778.04,226.90 768.74,202.31 762.48,189.50 C753.10,170.28 746.61,160.58 736.02,149.97 C715.05,128.97 690.01,124.92 663.50,138.24 C638.76,150.68 610.84,179.36 590.90,212.82 C564.75,256.73 547.92,302.68 538.60,355.68 L 536.29 368.87 L 540.74 373.18 C553.03,385.12 562.72,404.44 564.54,420.66 C565.41,428.49 563.53,438.20 559.75,445.30 C556.73,450.99 547.06,461.00 544.59,461.00 C543.90,461.00 541.93,462.74 540.22,464.88 L 537.10 468.76 L 539.60 478.61 C543.20,492.78 546.56,502.15 552.02,513.25 C564.91,539.45 581.35,556.54 605.30,568.63 C628.70,580.44 652.60,584.41 676.07,580.38 ZM 375.00 573.95 C382.02,570.35 384.01,560.63 379.58,551.57 C374.42,541.03 361.57,531.95 348.70,529.74 C332.05,526.89 320.08,535.84 320.02,551.18 C320.00,557.44 320.85,560.33 324.66,566.85 L 327.20 571.21 L 331.18 567.35 C336.94,561.78 337.56,560.28 335.00,558.20 C332.56,556.22 333.11,553.42 336.13,552.46 C340.19,551.17 360.00,562.41 360.00,566.00 C360.00,573.48 367.83,577.63 375.00,573.95 ZM 474.18 570.02 C486.21,565.45 499.02,553.96 510.09,537.79 C516.31,528.70 527.88,505.73 532.05,494.16 C534.34,487.81 534.34,487.81 532.52,480.66 C531.52,476.72 530.59,473.36 530.46,473.20 C530.34,473.03 527.73,475.40 524.68,478.45 C521.63,481.50 518.52,484.00 517.78,484.00 C517.03,484.00 514.82,485.91 512.87,488.25 C510.91,490.59 508.01,493.16 506.41,493.98 C504.81,494.79 501.27,497.63 498.54,500.29 C495.81,502.96 492.44,505.37 491.04,505.66 C489.64,505.96 487.60,507.60 486.50,509.32 C483.84,513.47 473.69,518.64 466.45,519.55 C462.37,520.06 459.08,519.80 454.86,518.62 C449.41,517.11 448.77,517.10 446.48,518.61 C445.12,519.50 444.00,520.35 444.00,520.49 C444.00,520.63 444.70,522.72 445.56,525.12 C446.60,528.05 447.03,532.19 446.86,537.58 C446.63,544.57 446.88,546.04 448.74,548.39 C452.49,553.16 454.29,559.37 453.81,565.92 C453.39,571.70 453.47,571.92 455.94,572.36 C460.37,573.14 468.84,572.05 474.18,570.02 ZM 389.23 538.50 C390.11,536.85 392.21,534.18 393.91,532.56 C397.52,529.13 397.64,528.18 395.09,523.19 C386.91,507.14 357.66,496.89 342.13,504.62 C335.85,507.75 331.98,513.03 331.25,519.44 L 330.75 523.91 L 334.63 522.83 C339.82,521.39 351.15,522.39 358.42,524.94 C368.70,528.53 378.01,535.66 383.87,544.42 L 386.49 548.34 L 387.07 544.92 C387.38,543.04 388.36,540.15 389.23,538.50 ZM 408.69 516.27 C410.83,512.61 411.15,511.13 410.62,507.27 C409.34,497.89 401.70,489.09 390.10,483.63 C384.10,480.81 382.59,480.52 373.50,480.51 C362.15,480.50 358.26,482.00 354.25,487.95 C350.32,493.79 350.96,494.64 359.75,495.25 C368.92,495.89 376.62,498.32 384.47,503.05 C391.16,507.09 398.87,514.48 401.53,519.42 C403.73,523.51 404.70,523.08 408.69,516.27 ZM 443.49 511.88 C443.49,511.67 441.20,508.01 438.42,503.75 L 433.35 496.00 L 427.61 502.50 L 421.87 509.00 L 425.26 509.00 C427.12,509.00 431.08,510.26 434.07,511.81 C438.59,514.15 439.84,514.42 441.50,513.44 C442.60,512.79 443.50,512.09 443.49,511.88 ZM 473.87 509.96 C476.61,508.78 479.05,507.29 479.29,506.66 C479.53,506.02 478.44,501.45 476.88,496.50 C475.32,491.55 474.03,486.54 474.02,485.37 C473.99,482.49 476.29,480.79 479.69,481.18 C482.22,481.47 482.75,482.24 485.02,489.00 C488.88,500.50 488.39,499.78 490.85,497.60 C493.56,495.20 493.53,494.24 490.49,484.71 C487.22,474.47 487.24,471.31 490.58,469.78 C494.56,467.97 496.19,469.75 499.31,479.33 L 502.11 487.97 L 504.56 486.37 C505.90,485.49 507.00,484.24 507.00,483.60 C507.00,482.95 505.62,478.01 503.94,472.63 C501.08,463.47 500.98,462.68 502.46,460.42 C504.18,457.79 508.07,457.18 509.80,459.26 C510.38,459.95 511.87,464.00 513.12,468.26 C514.38,472.52 515.92,476.00 516.55,476.00 C517.17,476.00 518.48,475.12 519.45,474.05 C521.15,472.18 521.10,471.68 518.20,461.87 C514.98,450.95 515.13,447.73 518.90,446.53 C522.63,445.35 524.58,447.56 526.97,455.70 C529.89,465.66 529.80,465.54 532.49,463.01 C534.71,460.92 534.74,460.71 533.34,455.18 C532.55,452.06 531.22,447.39 530.39,444.80 C528.70,439.57 529.52,436.60 532.96,435.51 C536.63,434.35 538.50,436.55 540.92,444.92 C542.20,449.37 543.59,453.00 544.01,453.00 C545.63,453.00 552.34,444.49 554.58,439.61 C559.78,428.24 558.40,415.18 550.27,399.00 C544.75,388.01 541.34,385.00 534.38,385.00 C531.98,385.00 528.06,385.97 525.59,387.17 C521.81,389.01 520.87,389.14 519.51,388.01 C518.63,387.28 518.04,385.74 518.20,384.59 C518.57,381.98 526.13,378.00 530.71,378.00 C535.07,378.00 534.89,376.27 530.34,374.37 C525.83,372.48 521.24,373.20 514.84,376.79 C510.84,379.04 509.96,379.21 508.55,378.04 C504.97,375.07 508.60,370.28 516.46,367.58 L 520.30 366.25 L 516.60 365.03 C512.16,363.57 508.76,364.26 503.83,367.64 C499.30,370.75 495.64,370.50 495.16,367.06 C494.94,365.55 495.50,364.11 496.60,363.31 C498.17,362.15 498.19,362.00 496.74,362.00 C493.51,362.00 484.00,367.16 484.00,368.92 C484.00,369.35 487.75,372.19 492.32,375.24 C508.05,385.70 519.27,398.00 525.70,411.80 C529.29,419.50 529.34,422.21 525.89,424.06 C522.39,425.93 520.10,424.17 516.93,417.18 C513.30,409.17 504.74,397.73 498.81,392.96 C496.44,391.06 490.06,386.49 484.63,382.80 C475.12,376.35 474.68,376.16 472.38,377.67 C471.07,378.53 470.00,379.58 470.00,380.01 C470.00,380.44 475.08,384.38 481.30,388.77 C496.94,399.82 504.56,408.54 511.66,423.51 C515.10,430.75 515.17,431.09 513.55,433.56 C512.32,435.45 511.17,436.04 509.19,435.81 C506.93,435.55 505.85,434.20 502.41,427.38 C495.04,412.74 487.72,405.09 469.18,392.62 C460.98,387.10 460.82,387.04 458.46,388.76 C457.14,389.72 456.05,390.76 456.03,391.08 C456.01,391.40 460.16,394.52 465.25,398.00 C479.49,407.75 489.57,418.59 495.93,430.96 C501.66,442.12 501.99,445.46 497.49,446.59 C493.54,447.58 492.43,446.60 488.66,438.76 C481.33,423.52 469.38,411.74 450.28,400.89 L 446.06 398.50 L 444.02 400.54 L 441.97 402.59 L 448.24 406.95 C466.64,419.78 475.46,429.18 482.67,443.62 C487.53,453.38 487.74,456.40 483.66,457.95 C480.50,459.14 478.34,457.56 476.06,452.39 C470.18,439.11 459.51,427.30 443.36,416.21 L 433.23 409.24 L 430.36 411.53 C428.79,412.79 427.73,413.97 428.00,414.16 C428.27,414.35 431.42,416.49 435.00,418.93 C453.42,431.47 463.06,442.01 469.67,456.83 C473.53,465.47 473.53,467.00 469.68,469.43 C467.07,471.08 465.01,469.15 461.05,461.38 C456.59,452.63 451.47,445.65 445.24,439.82 C439.65,434.59 429.46,426.94 423.18,423.26 L 418.87 420.73 L 415.51 423.99 C411.31,428.06 406.38,437.21 405.52,442.50 C404.91,446.34 405.00,446.25 407.99,440.26 C411.28,433.66 413.82,431.49 417.04,432.51 C419.69,433.35 419.51,436.17 416.50,440.60 C413.32,445.28 411.13,452.64 410.42,460.98 C409.91,466.92 410.08,467.76 412.39,470.50 L 414.93 473.50 L 414.96 468.80 C415.07,455.46 421.62,441.38 427.34,442.19 C430.59,442.65 430.49,446.06 427.09,451.60 C423.91,456.76 422.02,465.36 422.01,474.68 C422.00,479.08 422.39,480.16 424.63,481.93 C426.08,483.07 427.55,484.00 427.88,484.00 C428.22,484.00 428.34,481.64 428.14,478.75 C427.08,463.52 435.53,446.05 441.55,451.04 C443.67,452.80 443.36,454.44 439.99,459.22 C435.44,465.67 433.03,485.12 436.42,487.93 C437.20,488.58 439.64,492.12 441.83,495.80 C447.31,504.97 452.53,510.79 456.32,511.95 C460.76,513.32 467.97,512.50 473.87,509.96 ZM 426.95 492.00 C426.97,491.73 424.37,489.82 421.17,487.76 C417.98,485.70 414.30,482.89 413.01,481.51 C410.08,478.39 409.45,478.39 407.45,481.44 C405.91,483.78 406.00,484.06 409.83,488.91 C412.02,491.68 414.61,496.02 415.58,498.56 L 417.34 503.18 L 422.13 497.84 C424.76,494.90 426.93,492.27 426.95,492.00 ZM 934.91 479.22 C938.60,476.47 938.51,475.24 934.53,473.58 C932.55,472.75 928.90,470.61 926.42,468.83 C922.82,466.25 921.97,465.08 922.20,463.06 C922.61,459.62 925.25,459.34 929.23,462.31 C937.29,468.35 945.57,470.41 955.50,468.85 C963.60,467.58 971.77,463.57 982.24,455.71 C993.97,446.90 999.10,445.11 1015.40,444.11 C1029.22,443.27 1033.50,441.98 1036.44,437.78 C1039.57,433.31 1037.50,427.81 1031.55,424.77 C1024.11,420.97 1014.02,421.40 987.75,426.61 C985.16,427.13 985.00,427.47 985.00,432.51 C985.00,437.03 984.68,437.97 982.95,438.52 C979.82,439.51 978.33,437.52 977.71,431.52 C977.01,424.67 976.58,424.00 972.91,424.00 C968.98,424.00 963.12,421.49 959.94,418.44 L 957.37 415.98 L 955.01 421.68 C950.87,431.68 942.54,438.46 940.60,433.41 C939.92,431.63 940.15,431.16 944.51,425.42 C949.14,419.34 951.35,411.29 950.76,402.65 C950.20,394.57 948.63,390.40 945.88,389.68 C942.21,388.72 943.75,385.27 949.58,381.40 C963.78,371.97 972.43,351.28 967.54,338.45 C965.54,333.24 962.79,331.00 958.38,331.00 C953.91,331.00 950.14,335.67 946.20,346.13 C942.19,356.74 938.25,361.43 927.02,368.99 C922.23,372.21 916.38,377.02 914.02,379.67 C908.40,386.00 903.47,396.37 901.90,405.18 C899.73,417.30 903.44,431.74 910.91,440.25 C913.61,443.32 913.95,444.23 913.03,445.95 C910.90,449.92 907.17,447.88 902.03,439.92 L 898.19 433.98 L 895.60 437.07 C889.84,443.91 893.34,455.72 904.76,468.06 C916.58,480.83 927.40,484.83 934.91,479.22 ZM 986.20 415.10 C996.91,411.42 1005.31,404.18 1006.55,397.59 C1007.39,393.11 1006.61,392.00 1002.60,392.00 C1000.79,392.00 997.29,391.39 994.81,390.64 C990.77,389.43 989.96,389.48 986.90,391.10 C985.03,392.10 982.38,392.94 981.00,392.98 C977.29,393.07 969.94,396.69 966.30,400.21 C955.23,410.90 968.83,421.08 986.20,415.10 ZM 1073.31 399.51 C1087.71,395.76 1098.98,386.20 1105.77,371.98 C1110.80,361.45 1113.00,351.82 1113.74,337.08 C1114.22,327.50 1114.09,325.76 1112.91,326.28 C1104.54,329.91 1098.41,332.18 1093.57,333.44 C1068.44,339.99 1029.16,339.80 1009.15,333.05 C1004.33,331.42 1003.38,331.35 1002.70,332.57 C1002.26,333.36 1000.43,334.00 998.63,334.00 C992.71,334.00 984.94,336.98 980.85,340.82 C977.55,343.93 976.84,345.32 976.33,349.77 C975.74,354.86 975.79,355.01 977.88,354.24 C979.06,353.80 980.81,351.91 981.77,350.04 C984.26,345.15 987.56,343.21 995.47,341.98 C1001.72,341.00 1002.58,341.07 1003.72,342.64 C1004.43,343.60 1005.00,345.55 1005.00,346.98 C1005.00,351.56 1007.93,361.29 1011.52,368.64 C1016.75,379.35 1016.16,381.15 1008.30,378.48 L 1003.55 376.87 L 1000.80 380.19 C999.29,382.01 998.04,383.79 998.03,384.14 C997.98,385.33 1005.18,386.13 1013.60,385.87 C1021.76,385.61 1022.09,385.69 1025.25,388.68 C1029.85,393.04 1035.90,396.60 1042.67,398.93 C1049.89,401.41 1064.90,401.70 1073.31,399.51 ZM 964.80 391.98 C965.18,391.98 966.09,391.59 966.82,391.13 C967.86,390.47 967.61,389.51 965.64,386.61 C964.27,384.59 962.96,382.39 962.74,381.72 C962.47,380.92 960.99,381.51 958.42,383.43 C956.26,385.03 954.38,386.42 954.24,386.52 C954.09,386.61 954.65,388.32 955.49,390.31 C956.32,392.31 957.00,395.14 957.00,396.62 L 957.00 399.31 L 960.55 395.65 C962.50,393.64 964.41,391.99 964.80,391.98 ZM 812.00 390.67 C812.00,390.49 809.98,388.15 807.51,385.46 C795.12,371.96 789.24,348.07 790.29,315.50 C791.11,290.04 794.65,273.56 802.99,256.38 C806.04,250.11 809.82,244.17 812.95,240.74 C815.73,237.70 818.00,234.95 818.00,234.61 C818.00,233.65 807.15,233.91 800.00,235.04 C783.20,237.70 774.16,247.60 767.48,270.67 C761.57,291.05 759.40,321.46 762.41,341.76 C767.17,373.96 778.36,386.99 803.77,389.95 C807.47,390.38 810.84,390.80 811.25,390.87 C811.66,390.94 812.00,390.85 812.00,390.67 ZM 833.58 387.53 C836.97,386.53 839.79,384.72 842.58,381.78 C846.20,377.97 850.00,372.78 850.00,371.66 C850.00,371.44 845.16,371.05 839.25,370.80 C824.11,370.15 819.05,367.32 813.66,356.50 C809.11,347.36 807.97,340.71 806.92,317.19 C805.78,291.52 806.16,288.99 813.50,273.50 C817.33,265.41 817.82,263.49 818.41,254.50 L 819.07 244.50 L 816.49 247.50 C811.69,253.10 805.05,268.09 802.01,280.22 C798.23,295.30 797.00,305.37 797.00,321.35 C797.00,360.56 808.62,385.82 828.07,388.91 C828.38,388.96 830.86,388.34 833.58,387.53 ZM 986.64 383.03 C999.75,375.51 1003.76,362.16 995.58,353.24 C991.58,348.87 988.69,349.21 989.64,353.93 C990.16,356.55 989.87,357.08 987.37,358.11 C973.07,363.96 969.00,367.88 969.00,375.81 C969.00,379.28 969.59,380.74 971.92,383.08 C975.74,386.90 979.93,386.88 986.64,383.03 ZM 847.83 363.25 C847.64,362.84 846.30,360.25 844.86,357.50 C838.13,344.71 835.09,325.85 836.95,308.52 C838.69,292.40 843.71,276.95 850.20,267.75 C852.49,264.50 851.68,264.29 847.28,266.97 C840.26,271.25 835.22,281.41 832.56,296.65 C830.37,309.18 827.03,312.96 818.12,312.99 L 813.73 313.00 L 814.26 325.75 C814.85,340.32 817.07,348.89 822.26,356.65 C824.47,359.96 826.61,361.88 829.00,362.69 C832.83,364.00 848.37,364.46 847.83,363.25 ZM 865.55 361.41 C869.96,359.32 874.59,351.96 878.11,341.50 C886.38,316.90 883.63,281.23 872.56,269.49 C869.84,266.62 868.55,266.00 865.20,266.00 C861.62,266.00 860.72,266.51 857.69,270.25 C850.29,279.37 845.78,292.24 844.02,309.25 C841.35,335.16 849.97,361.86 861.35,362.92 C861.82,362.96 863.71,362.28 865.55,361.41 ZM 532.41 346.75 C541.55,301.13 554.54,264.28 575.03,225.78 C581.83,213.02 583.80,208.49 582.84,207.90 C580.39,206.39 567.61,204.76 562.39,205.30 C556.06,205.95 548.53,209.14 544.65,212.80 C533.47,223.35 521.25,251.33 514.96,280.72 C512.29,293.23 511.22,316.87 512.96,324.83 C514.82,333.30 518.74,339.76 525.00,344.68 C528.03,347.05 530.83,349.00 531.23,349.00 C531.63,349.00 532.16,347.99 532.41,346.75 ZM 1010.58 323.75 C1010.52,321.99 1011.70,320.90 1016.00,318.76 C1025.25,314.15 1038.21,311.88 1058.71,311.29 C1078.56,310.71 1089.70,311.79 1098.75,315.18 C1104.49,317.33 1105.98,319.12 1104.00,321.50 C1102.94,322.78 1103.18,322.83 1105.75,321.94 C1109.04,320.79 1113.00,317.49 1113.00,315.90 C1113.00,314.37 1105.19,311.23 1096.89,309.43 C1074.85,304.66 1030.88,307.87 1014.30,315.46 C1005.08,319.68 1002.84,322.65 1007.25,324.78 C1010.45,326.32 1010.67,326.26 1010.58,323.75 ZM 504.86 300.75 C507.38,276.17 514.47,249.98 523.43,232.14 C527.70,223.63 527.88,223.00 525.91,223.00 C522.28,223.00 517.10,226.08 513.10,230.63 C499.21,246.41 489.76,285.82 495.96,302.13 C497.77,306.89 501.43,312.00 503.03,312.00 C503.40,312.00 504.23,306.94 504.86,300.75 ZM 822.77 305.16 C823.47,304.72 824.45,301.91 824.93,298.93 C826.38,290.04 828.99,280.95 831.55,275.90 C833.72,271.62 834.02,269.43 834.62,253.33 C836.83,193.63 821.31,145.38 789.76,113.83 C771.65,95.72 745.45,83.08 715.48,77.98 C704.17,76.06 700.11,75.85 684.00,76.32 C672.34,76.66 662.73,77.47 658.02,78.52 C599.22,91.58 558.61,134.04 539.20,202.75 L 537.15 210.01 L 541.33 206.64 C543.62,204.78 546.46,202.77 547.63,202.16 C549.11,201.39 550.77,198.10 553.10,191.28 C557.93,177.14 569.88,153.98 577.73,143.50 C606.90,104.61 649.08,85.72 699.19,89.11 C749.27,92.49 787.84,117.50 808.10,159.75 C820.15,184.87 827.09,221.51 825.65,252.44 C825.08,264.61 824.84,265.81 821.56,272.44 C817.06,281.56 815.15,286.97 813.58,295.05 C811.89,303.75 812.74,306.00 817.72,305.98 C819.80,305.98 822.07,305.61 822.77,305.16 ZM 846.42 259.50 C851.60,256.87 857.18,256.33 862.76,257.93 L 866.00 258.86 L 865.98 244.68 C865.89,176.39 834.25,119.19 782.76,94.18 C768.55,87.28 766.20,86.86 775.00,92.79 C805.26,113.16 825.24,143.26 835.00,183.17 C840.22,204.53 841.37,214.52 841.44,239.25 C841.47,251.76 841.50,261.99 841.50,261.99 C841.50,261.99 843.71,260.87 846.42,259.50 ZM 793.00 229.47 C796.03,228.64 802.88,227.68 808.24,227.33 L 817.98 226.70 L 817.43 222.60 C813.65,194.32 808.72,176.96 799.28,158.69 C784.04,129.17 758.67,109.14 725.69,100.58 C711.41,96.87 708.31,96.65 695.87,98.47 C654.81,104.45 621.95,128.97 601.71,168.73 C596.51,178.93 589.00,197.50 589.00,200.13 C589.00,200.80 591.78,197.33 595.18,192.42 C626.50,147.25 665.04,121.18 697.44,123.26 C713.64,124.30 727.33,131.16 741.62,145.41 C757.66,161.40 771.24,185.38 781.16,215.25 C784.04,223.91 786.64,230.99 786.95,230.99 C787.25,230.98 789.97,230.30 793.00,229.47 ZM 584.50 190.73 C590.46,172.40 602.49,150.63 615.01,135.49 C627.57,120.30 650.46,103.70 665.32,99.01 C671.64,97.01 668.66,96.68 660.05,98.43 C621.13,106.32 589.05,131.96 569.53,170.78 C565.73,178.35 559.00,195.42 559.00,197.50 C559.00,197.77 562.26,198.05 566.25,198.12 C570.24,198.18 574.85,198.58 576.50,199.00 C578.15,199.42 579.95,199.81 580.50,199.86 C581.05,199.91 582.85,195.80 584.50,190.73 ZM 642.00 557.76 C639.82,554.17 632.87,533.12 630.53,523.00 C628.52,514.29 628.59,511.29 630.86,510.07 C633.81,508.49 635.62,510.81 636.95,517.88 C638.25,524.77 643.35,541.75 647.10,551.64 C649.07,556.83 649.22,558.03 648.09,559.39 C646.06,561.84 644.17,561.33 642.00,557.76 ZM 623.71 500.91 C615.01,499.64 605.06,496.41 596.33,492.04 C584.82,486.28 581.45,482.44 585.83,480.09 C587.12,479.40 588.49,479.54 590.43,480.55 C593.92,482.36 594.46,482.00 597.58,475.85 C601.96,467.20 601.85,463.03 596.92,451.36 L 592.63 441.23 L 586.57 439.55 C578.76,437.39 576.00,435.57 576.00,432.56 C576.00,429.15 577.58,429.00 585.42,431.65 C595.65,435.12 608.01,436.45 618.53,435.22 C623.77,434.61 627.61,433.66 628.14,432.85 C628.62,432.11 628.90,429.09 628.76,426.13 L 628.50 420.77 L 622.10 418.46 C614.17,415.59 611.63,413.21 611.80,408.81 C611.94,404.90 621.32,359.14 626.51,337.00 C639.46,281.72 661.94,211.60 682.77,161.50 C690.04,144.02 690.89,142.47 693.34,142.18 C695.08,141.98 696.23,142.42 696.63,143.47 C696.98,144.39 692.92,155.92 687.19,170.29 C677.05,195.74 674.22,203.44 664.36,232.50 C648.42,279.47 635.44,327.92 624.56,380.98 C621.47,396.06 619.14,408.91 619.38,409.54 C619.62,410.17 622.51,411.44 625.80,412.36 C629.09,413.29 633.00,415.00 634.48,416.16 C637.09,418.22 637.15,418.50 636.48,425.24 L 635.78 432.21 L 638.14 431.49 C639.44,431.10 647.47,428.19 656.00,425.03 C679.37,416.37 683.23,415.70 693.07,418.60 C697.12,419.79 699.69,421.43 703.19,425.03 C710.65,432.73 712.70,442.66 709.42,455.30 C701.27,486.76 663.69,506.76 623.71,500.91 ZM 648.67 493.98 C663.77,492.09 677.69,485.85 687.81,476.45 C691.49,473.02 695.28,468.88 696.23,467.24 L 697.97 464.25 L 693.47 462.99 C682.14,459.82 670.56,465.36 659.28,479.35 C657.41,481.66 656.74,481.93 655.03,481.02 C652.32,479.56 652.47,477.06 655.55,472.52 L 658.10 468.76 L 653.33 469.47 C647.60,470.33 642.34,472.89 637.45,477.18 C633.59,480.57 628.02,489.41 628.01,492.18 C627.99,494.89 635.92,495.58 648.67,493.98 ZM 656.00 448.12 C661.22,447.05 669.10,444.88 673.50,443.31 C682.14,440.22 699.00,431.44 699.00,430.03 C699.00,428.05 691.68,424.78 686.22,424.33 C679.79,423.79 678.40,424.18 656.70,432.46 C639.35,439.09 627.95,441.78 613.49,442.66 C607.72,443.01 603.00,443.61 603.00,443.98 C603.00,445.31 607.80,449.12 610.62,450.04 C615.38,451.58 645.29,450.31 656.00,448.12 ZM 721.20 436.80 C720.54,436.14 720.00,434.65 720.00,433.48 C720.00,432.32 719.34,429.13 718.53,426.40 C716.78,420.52 712.43,415.95 705.75,413.00 C700.79,410.81 699.64,408.38 702.46,406.03 C705.54,403.48 716.56,409.31 721.61,416.15 C727.53,424.18 728.73,438.00 723.50,438.00 C722.90,438.00 721.86,437.46 721.20,436.80 ZM 671.75 392.63 C667.06,390.88 661.78,386.91 659.04,383.05 C647.90,367.42 645.88,336.49 654.15,308.50 C656.55,300.40 660.99,290.23 663.95,286.07 C666.36,282.69 666.48,282.00 664.65,282.00 C661.93,282.00 660.00,278.44 660.01,273.42 C660.03,267.53 661.80,263.61 664.61,263.20 C667.90,262.73 669.12,265.01 667.82,269.22 C665.88,275.56 666.90,276.39 675.77,275.66 C680.02,275.32 691.15,273.45 700.50,271.52 C719.25,267.64 728.95,267.03 731.07,269.58 C733.53,272.54 730.97,274.47 724.15,274.80 C720.77,274.96 718.00,275.49 718.00,275.96 C718.00,276.44 718.88,278.89 719.96,281.40 C722.93,288.34 725.00,301.07 725.00,312.43 C725.00,352.88 703.86,391.64 680.73,393.59 C677.62,393.85 673.98,393.46 671.75,392.63 ZM 693.99 379.01 C707.55,365.80 716.40,342.80 717.66,317.50 C718.32,304.27 717.15,294.15 713.99,285.71 C710.43,276.19 711.57,276.53 695.00,279.97 C687.03,281.63 679.07,282.99 677.32,282.99 C674.53,283.00 673.72,283.69 670.65,288.75 C666.94,294.87 663.99,301.77 660.92,311.50 C658.34,319.66 658.57,321.51 661.43,315.68 C665.78,306.78 670.85,303.00 678.42,303.00 C682.23,303.00 683.47,303.54 686.37,306.44 C689.44,309.51 694.00,319.01 694.00,322.35 C694.00,323.05 690.13,326.66 685.40,330.38 C680.67,334.09 677.10,337.44 677.47,337.82 C677.83,338.19 681.81,339.87 686.32,341.56 L 694.50 344.61 L 694.30 350.33 C694.08,356.90 690.90,369.33 687.98,375.05 C686.88,377.19 684.64,380.48 682.99,382.35 C681.35,384.23 680.00,386.01 680.00,386.32 C680.00,386.63 682.05,386.18 684.55,385.33 C687.22,384.42 691.11,381.82 693.99,379.01 ZM 576.41 381.58 C572.06,379.68 566.43,373.58 563.49,367.57 C555.53,351.29 555.93,318.93 564.41,293.67 C569.39,278.83 578.27,264.12 585.88,258.10 C602.89,244.63 617.76,251.03 625.15,275.00 C627.17,281.54 627.47,284.61 627.48,299.00 C627.50,316.76 626.23,325.34 621.33,340.50 C618.65,348.79 613.40,360.13 609.78,365.44 C600.17,379.53 586.69,386.05 576.41,381.58 ZM 593.79 372.04 C607.94,361.79 619.20,332.92 620.70,303.00 C621.62,284.67 617.68,268.96 610.38,261.88 C607.40,259.00 606.19,258.50 602.11,258.50 C590.96,258.50 578.97,273.25 571.23,296.50 C569.59,301.45 567.95,307.08 567.59,309.00 L 566.94 312.50 L 569.12 308.50 C576.04,295.77 583.31,292.04 591.04,297.25 C594.73,299.73 598.76,306.69 599.61,312.05 C600.14,315.37 599.86,315.74 592.13,322.00 C587.71,325.58 584.07,328.79 584.05,329.14 C584.02,329.49 587.71,331.06 592.25,332.64 L 600.50 335.51 L 600.31 341.21 C599.95,352.03 595.95,364.25 590.33,371.75 C587.30,375.79 588.47,375.89 593.79,372.04 ZM 585.20 236.80 C582.47,234.07 584.71,230.61 592.84,225.03 C597.39,221.91 607.13,219.00 613.05,219.00 C621.80,219.00 635.00,224.99 635.00,228.96 C635.00,232.74 632.02,233.00 625.82,229.75 C615.23,224.19 602.86,225.96 592.41,234.52 C587.75,238.34 586.98,238.58 585.20,236.80 Z" fill="rgba(0,0,0,1)"/>
</g>
</svg>