<?xml version="1.0" encoding="UTF-8"?>
<svg id="Layer_1" xmlns="http://www.w3.org/2000/svg" version="1.1" viewBox="0 0 1984 2162">
  <!-- Generator: Adobe Illustrator 30.3.0, SVG Export Plug-In . SVG Version: 2.1.3 Build 182)  -->
  <defs>
    <style>
      .st0 {
        fill: #fff;
      }
    </style>
  </defs>
  <path d="M975.23,1630.21c-7.6,38.69-10.39,77.64-12.52,117.74l4.07,75.4c12.98,3.5,23.8,7.96,34.33,15.43,15.11,12.67,17.13,33.12,5.24,48.42,12.27,23.28,14.19,48.94,10.05,74.16,5.98,13.99,5.39,29.1-4.03,41.03-14.76,13.27-31.12,22.89-49.98,30.14-58.52,22.51-121.2,25.11-182.43,11.51-16.96-3.77-32.35-8.59-47.18-16.58-15.92-9.42-22.23-26.65-14.98-43.91-9.35-23.2-8.27-48.41,2.87-70.88,30.4-51.26,86.2-57.86,139.58-32.45-8.73-27.33,10.96-43.21,38.64-52.67-5.61-49.02-5.17-97.72,0-146.95l11.63-78.44c-106.05-66.64-144.91-180.5-147.87-303.07l-56.8,4.9c-52.29,2.1-103.58-1.25-155.09-6.69-4.36,10.22-9.23,18.65-15.1,25.94-14.58,18.13-37.16,19.52-56.46,7.96-38.59,25.47-76.02,23.6-120.31,9.85-31.15-9.67-61.7-11.03-93.52-3.85-22.62,5.11-51.03,5.48-62.79-10.93-6.32-8.81-6.79-19.13-4.22-30.22-21.81-2.13-33.97-19.22-31.85-39.71,1.9-18.37,16.22-28.69,31.34-37.04-1.86-13.81-.38-29.45,11.95-39.91,26.7-22.64,68.32-17.26,104.41-11.63,19.37,3.02,38.66,4.1,56.45-2.46-13.39-18.83-22.73-37.39-22.98-59.15s9.5-39.95,28.42-47.68c18.03-7.36,38.05.4,43.92,19.52l10.25,33.44c5.11,16.66,16.07,28.25,32.33,33.9,19.05,6.62,33.43,20.18,42.61,37.75,13.61-.14,27.77,3.08,36.45,15.51,7.48,9.38,11.65,20.65,14.86,33.53,68.97,9.45,137.63,11.48,208.34,1.68,11.04-108.82,38.21-226.7,100.73-318.21,39.85-56.6,97.28-99.94,168.28-101.01,73.86-1.11,128.06,53.74,162.31,115.29,49.83,89.53,72.6,197.32,79.72,300.66l58.26,7.81c56.3,4.09,111.93,1.43,167.58-5.82,8.39-30.11,20.6-50.29,51.42-49.59,9.46-17.21,24.16-31.41,43.82-38.02,13.18-4.44,24.81-12.62,29.42-26.8l12.69-39.05c6.34-19.52,25.82-28.69,44.78-20.46,16.95,7.36,26.95,24.58,27.41,43.53.58,23.43-8.79,43.7-23.7,63.08,16.15,5.36,33.15,5.26,50.53,3.31l49.79-5.56c20.2-2.26,41.14,2.34,57.08,13.43,15.04,10.46,19.5,27.05,15.62,43.12,12.68,6.35,26.38,14.59,30.31,29.25,2.89,10.81,2.83,22.11-3.99,32.43-4.78,7.23-15.58,12.96-26.51,15.11,1.97,9.16,2.73,19.16-2.63,27.91-11.48,18.75-42.59,17.8-66.89,12.64-32.37-6.88-63.53-5.28-94.97,5.1-40.99,13.54-79.47,12.88-115.57-10.03-19.3,9.24-41.54,10.07-56.78-7.99-6.18-7.32-11.61-16.29-16.29-26.49-75.88,8.19-155.4,11.52-230.8-1.53-5.16,109.64-32.65,231.68-121.43,302.01,15.51,76.5,21.53,152.51,12.38,230.18,27.32,7.05,46.93,24.67,39.84,52.24,28.4-14.15,59.13-19.27,88.02-9.96,47.94,15.46,72,65.02,54.32,111.86,8.04,23.64-3.78,42.69-26.58,51.08-69.8,25.68-146.26,25.43-216.22.09-17.89-6.48-33.17-15.18-47.8-26.36-13.95-11.42-15.95-28.74-8.66-44.93-4.36-26.3-2.19-52.25,10.04-75.16-12.99-15.51-9.85-35.73,5.11-47.59,9.63-7.37,20.38-11.98,33.5-15.14,7.19-64.43,4.96-129.45-7.04-193.98-37.72,11.43-76.26,11.1-116.75-.06ZM1176.05,1558.91c25.4-29.25,42.91-61.22,55.73-97.25,18.39-51.72,28.08-104.24,30.14-159.73,4.46-119.8-20.15-260.17-78.81-364.88-13.89-24.8-29.2-46.8-49.99-66.35-28.63-26.91-66.75-45.32-107.06-41.94-53.51,4.48-98.96,34.02-132.68,74.71-77.09,93.03-110.89,246.47-115.86,366.35-2.12,51.04,3.02,99.29,16.51,148.04,27.48,99.3,97.5,180.47,199.86,202.31,68.33,14.58,135.92-8.01,182.16-61.25ZM263.75,1323.89c31.33-7.41,61.66-7.03,92.65,2,38.37,11.19,78.91,19.21,111.96-5.22s22.95-49.62,36.05-46.39c11.38,2.81-.62,29.49-13.94,46.25,10.76,8.68,25.79,5.26,34.58-6.12,21.87-28.32,25.29-68.44,9.83-100.94-4.9-10.3-15.5-16.92-25.17-16.63l1.26,23.7c.14,2.67-7.7,5.03-9.68,3.6s-4.46-6.03-4.34-8.64c1.25-27.43-14.34-48.03-39.63-57.03-16.22-5.77-30.41-15.12-36-31.91l-12.48-37.53c-2.01-6.04-5.79-15.29-11.45-17.93-10.46-4.88-22.52,1.29-28.34,9.83-16.53,24.23-2.71,57.11,16.61,79.1,4.41-.77,8.75-.52,9.86,1.76,7.4,15.23-40.15,24.65-77.46,20.35l-50.1-5.77c-25.33-2.92-63.63,10.9-56.21,38.3,37.22-9.64,73.71-8.1,111.28-1.02l5.39-9.85c1.3-2.38,7.15-4.18,9.64-3.07,12.43,5.57-19.6,30.52-5.07,82.29.66,2.34-2.42,7.38-4.73,8.08s-7.7-2.38-8.36-5.1l-3.6-14.84c-34.27-5.97-83.24-4.09-102.42,24.73-3.55,5.33-4.11,13.19-1.92,18.82,5.59,14.35,31.62,13.95,51.81,9.18ZM1813.38,1274.33c-22.95-7.14-46.66-7.48-70.32-3.6l-3.32,14.88c-.67,3.01-5.77,6.2-8.23,5.59-14.61-3.64,12.73-34.02-13.4-79.69-1.8-3.14-.63-9.44,1.99-10.81,9.37-4.88,10,9.02,17.4,12.7,37.77-7.19,73.67-7.52,110.11,1.14,4.59-31.35-36.16-41.43-66.46-37.67l-51.32,6.37c-22.77,1.48-44.69-1.23-64.31-12.24-1.1-2.27-2.52-9.09-.67-10.3s5.23-1.08,8.93-.97c23.72-27.27,36.32-70.49,6.07-87.69-4.01-2.28-13.25-3.37-17.36-1.63-3.34,1.41-7.83,6.47-9.23,10.75l-12.83,39.2c-6.44,19.66-20.99,31.59-39.67,38.23-25.05,8.89-40.48,30.67-39.58,57.45.13,3.86-3.13,8.3-5.95,8.63-2.32.28-8.4-3.18-8.24-5.7l1.41-21.97c-12.17.28-21.47,8.59-26.2,19.64-12.85,30.04-9.85,65.58,7.84,92.78,8.77,13.48,23.9,20.54,38.61,12.32-14.48-17.59-25.8-46.65-13.94-47.72,2.35-.21,7.39,2.72,7.96,5.04,7.6,30.9,31.35,50.84,62.67,56.08,55.62,9.3,92.85-29.3,167.49-11.73,19.72,4.64,46.5,6.26,53.16-6.64,8.57-16.6-9.08-35.14-32.63-42.46ZM236.12,1263.02c25.64-8.95,51.81-10.24,78.35-6.45l3.79-29.43c-39.46-8.13-106.35-9.82-131.56,17.11-7.4,7.9-8.22,19.36-3.54,27.79,3.46,6.24,16.47,14.18,23.42,9.07,9.41-6.92,17.7-13.96,29.53-18.09ZM1853.01,1282.67c11.35.81,20.52-5.05,23.9-13.19,3.68-8.86,1.67-19.45-5.98-26.97-24.45-24.03-92.14-23.67-129.92-15.77l3.56,29.81c37.15-5.35,80.15-1.62,108.45,26.11ZM731.91,1922.95c-8.35,17.55-9.34,38.9.26,55.18,7.88,13.36,54.85,23.38,78.62,27.19,64.48,10.33,140.67-1.12,191.19-43.49,4.63-21.7,2.53-43.65-6.38-63.98l-25.6,8.08c-2.11.67-7.13-3.37-7.62-5.53-2.55-11.24,13.07-6.08,29.37-18.3,9.33-6.99,11.17-18.78,3.79-28.03-6.12-7.66-17.15-13.11-26.33-13.73,1.06,8.15,3.82,17.56-.73,22.09-15.22,15.16-41.29,17.45-59.21,6.48-8.31-5.09-8.42-15.62-8.97-26.46-17.52,3.28-32.53,18.66-27.21,32.9,8.12,21.73,43.95,10.66,43.13,25.52-.15,2.69-5.43,6.65-8.11,6.37l-16.29-1.75,13.2,21.69c1.45,2.39-.74,8.87-3.06,9.88-13.89,6.01-13.13-39.41-78.46-55.1-36.19-8.69-74.69,5.51-91.57,40.99ZM1163.87,1936.85c-1.52-1.29-3.2-7.06-2.16-8.92l12.54-22.23-16.78,1.7c-2.7.27-7.61-3.81-7.69-6.55-.33-11.64,18.21-3.05,37.54-17.38,8.56-6.35,10.05-17.84,3.34-26.36-6.02-7.64-15.94-12.71-24.99-14.58-.11,11.03-.04,21.54-8.44,26.84-16.56,10.46-40.15,8.98-55.66-2.73-7.79-5.88-6.31-15.41-4.63-26.46-16.82,2.24-31.81,13.46-30.1,28.56,2.71,23.97,40.78,16.87,37.68,31.85-.49,2.39-5.99,6.13-8.43,5.38l-25.3-7.81c-8.77,20.73-10.19,43.02-5.9,64.63,70.29,52.46,163.74,56.89,245.47,29.8,8.26-2.74,18.46-7.98,24.38-13.7,12.47-24.85,7.05-54.18-11.36-74.13-21.13-22.9-51.34-29.7-81.02-22.77-64.18,14.98-66.08,65.44-78.5,54.88ZM1338.58,1994.82c-18.59,9.59-36.45,15.19-56.15,19.75-50.08,11.6-100.32,11.07-149.69-3.23-26.58-7.7-50.49-18.42-72.54-35.48-2.41,10.19,2.66,17.81,10.92,23.3,34.47,22.93,74.01,34.78,115.65,38.13,45.94,3.7,91.53-.76,133.8-18.23,10.34-4.27,18.93-11.94,18-24.25ZM746.51,2019.21c78.26,29.92,186.44,27.28,253.07-23.68,4.93-3.77,7.2-11.2,6.15-19.18-21.41,16.41-43.37,26.96-68.93,34.5-50.07,14.76-100.4,15.3-151.29,3.7-20.32-4.63-38.75-10-56.85-19.76-.45,11.73,6.62,20.13,17.85,24.43Z"/>
  <path d="M1181.61,760.67c-69.92,26.44-175.89,25.64-250.29,14.12-17.92-2.77-34.08-8.23-51.13-13.88-19.04,18.45-42.01,28.23-60.24,12.33-9.22-8.04-12.92-19.03-10.76-32.39l51.84-321.68c2.19-13.61,16.61-20.2,27.48-20.02-.86-4.42-1.97-8.59-1.39-10.72,3.31-12.3,49.44-15.21,73.01-17.99l-11.05-29.36c-13-14.34-22.38-30.99-24.71-51.58-13.61-11.85-21.73-27.91-25.7-46.13-2.62-12.01-16.6-14.7-24.56-51.28-1.52-6.98,5.65-12.05,11.56-12.42l-8.82-18.1c-1.19-2.43-.24-8.64,1.51-10.19s6.87-3.29,9.75-3.09c49.84,3.43,97.82,5.16,147.87,3.68,16.19-.48,32.05-2.78,47.36-6.51,15.76-3.83,28.21-.89,43.65,3.94,17.01,5.33,49.43-11.43,51.67,3.63,1.15,7.72-4.09,17.65-7.48,25.17l8.91,6.96c2.36,1.85,1.07,9.36.37,12.87,15.39-.11,32.25,4.32,42.24,17.23,13.5,17.44,10.26,41.13-3.54,58.19-23.59,29.15-56.93,47.24-93.63,55.78-8.91,2.07-16.5,6.25-19.63,14.7l-9.78,26.39c23.21,3.04,65.35,5.03,71.9,17.05,1.21,2.23.27,6.77-.7,12.09,18.49-2.7,32.3,6.58,35.06,23.9l17.37,108.81,33.96,211.5c1.95,12.13-2.71,23.18-10.98,29.98-19.83,16.33-41.49,4.08-61.12-13ZM1160.54,179.33l10.34-24.31-24.44,3.32c-12.37,1.68-23.1.59-35.02-4.15-14.33-5.7-41.63,5.49-75.51,6.84-50.73,2.01-98.9-.36-150.69-4.16,3.8,9.52,7.68,16.14,12.81,22.59l262.52-.12ZM896.85,391.06c16.64,6.41,33.89,8.73,52.42,10.24,50.3,4.09,100.06,4.14,150.63.58,20.34-1.43,38.84-4.24,59.69-10.42-25.07-11.71-66.59-8.66-74.7-13.38-1.01-.59-.56-4.57-.11-5.74l11.52-29.94-14.49.43c-1.1.03-2.04-5.17-.95-5.3l5.33-.64c19.76-2.36,16.26-12.01,31.44-15.15,40.11-8.28,92.67-35.83,103.23-73,5.36-18.86-6.07-38.47-25.86-39.84l-26.88-1.87,4.67-18.12-289.83-.12c6.2,24.16,10.44,39.84,31.14,41.56,66.06,5.47,130.74,7.59,196.18,2.27l2.93,4.43c.52.79-2.24,2.35-3.59,3.13-67.69,4.38-133.34,3.51-202.7-3.15,4.1,19.43,12.07,39.62,27.94,46.58,50.32,4.15,98.68,5.63,149.18,2.26,1.18-.13,6.69,2.33,5.63,3.3l-4.43,4.04c-50.26,2.32-98.56,2.15-150.62-2.25,1.86,17.47,9.55,33.76,24.19,44.35,34.86,3.33,68.23,3.95,103.17,2.59,1.58.41,5.04,1.87,4.5,3.02l-1.93,4.15c-35.19,1.49-68.82.42-104.78-2.01l12.98,35.42c-26.5,3.75-50.1,2.5-75.89,12.58ZM846.53,762.55c-3.54,2.06-11.44-.18-14.13-2.43-2.93-2.44-6.26-9.3-5.43-14.5l50.91-319.47c.97-6.08,6.67-9.49,12.07-9.52l60.54-.42c-1.43-2.98-5.53-6.61-8.21-6.7l-56.38-1.82c-8.9-.29-15.54,6.93-16.99,16.02l-51.57,321.91c-1.61,10.02,5.2,19.16,11.24,23.07,7.79,5.03,18.53,5.67,26.24.33l18.92-13.12-6.08-5.65-21.13,12.3ZM1194.98,750.3l-5.71,4.93,20.85,14.79c7.88,5.59,19.29,3.04,26.14-2.7,5.98-5.01,10.43-13.9,8.84-23.76l-50.88-317.29c-1.53-9.54-5.69-17.87-16.43-18.32-21.41-.91-41.97-.3-63.92,1.38-3.05.23-7.22,3.79-8.64,7.03l66.95.05c4.06,0,10.12,3.7,12.23,7.07l21.18,132.73,29.97,189.93c.71,4.51-1.83,11.42-4.48,13.64-9.84,8.27-23.15-.18-36.11-9.48ZM1091.77,423.53l4.79-11.83c-47.75,2.86-91.46,2.38-138.64,0l7.14,11.63c42.53,5.08,83.2,4.97,126.71.19ZM908.21,601.02c6.48-8.27,19.71-12.85,30-14.94,57.21-11.62,115.7-11.87,173.11-1.6,12.68,2.27,24.38,6.34,34.28,14.22,4.23,3.37,4.02,13.79,3.61,20.24,13.11,1.07,26.72,3.74,36.3,13.78,13.09,13.7,15.17,33.26,9.06,52.17-4.91,15.19-19.79,26.72-37.68,32.54,11.41,5.15,23.48,6.71,31.27,14.26,14.12,13.7,35.96,29.64,37.74,20.96l1.46-7.08-51.66-320.81-73.08.31-8.12,7.68c-42.6,4.51-83.48,4.99-126.09.81-6.27-.96-11.79-4.03-16.55-8.64l-65.07.21-51.44,320.51c-.4,2.5.6,6.94,2.07,7.95s6.82,1.17,8.44.04l22.04-15.47c4.95-3.48,8.45-9.96,14.04-12.15,17-6.65,33.42-9.78,52.3-13.3-14.26-19.61-22.02-39.47-24.99-61.93-2.13-16.13-5.68-32.96-1.06-49.77ZM1126.96,615.32c5.17-1.33,9.54-4.73,13.36-9.51-11.65-6.57-20.64-9.93-32.6-12.12-54.48-9.94-110.09-9.7-164.4,1.04-10.56,2.09-18.72,5.44-28.12,11.6,4.56,4.6,9.48,7.81,15.45,9.27,58.3,14.29,138.21,14.7,196.32-.28ZM1186.52,652.69c-6.55-19.85-25.34-27.1-44.95-21.61l-1.75-10.74c-15.62,5.98-31.6,10.51-48.78,12.5-52.81,6.11-125.48,6.45-175.54-12.53,1.65,67.18,38.21,128.82,108.35,131.85,34.15,1.48,64.64-12.17,85.68-38.79,18.09.33,34.68-.77,50.49-7.07,21.47-8.55,33.94-31.06,26.5-53.6ZM1185.2,742.96l-3.63-4.95c-21.24-9.88-43.56-15.74-68.04-14.95-42.84,52.45-128.91,51.66-171.96-1.09-22.99,4.25-62.1,7.79-64.99,24.26,14.78,9.04,28.51,13.41,45.19,16.52,73.92,13.76,149.37,13.29,223.28-1.13,18.23-3.56,43.59-13.96,40.15-18.66Z"/>
  <path class="st0" d="M846.53,762.55l21.13-12.3,6.08,5.65-18.92,13.12c-7.71,5.35-18.45,4.71-26.24-.33-6.04-3.91-12.85-13.05-11.24-23.07l51.57-321.91c1.46-9.08,8.09-16.3,16.99-16.02l56.38,1.82c2.68.09,6.78,3.72,8.21,6.7l-60.54.42c-5.4.04-11.1,3.45-12.07,9.52l-50.91,319.47c-.83,5.2,2.5,12.07,5.43,14.5,2.7,2.24,10.6,4.48,14.13,2.43Z"/>
  <path class="st0" d="M1194.98,750.3c12.96,9.3,26.26,17.75,36.11,9.48,2.64-2.22,5.19-9.13,4.48-13.64l-29.97-189.93-21.18-132.73c-2.11-3.37-8.17-7.07-12.23-7.07l-66.95-.05c1.42-3.25,5.59-6.8,8.64-7.03,21.95-1.68,42.51-2.29,63.92-1.38,10.74.46,14.91,8.78,16.43,18.32l50.88,317.29c1.58,9.86-2.86,18.75-8.84,23.76-6.85,5.74-18.26,8.29-26.14,2.7l-20.85-14.79,5.71-4.93Z"/>
  <path class="st0" d="M1126.96,615.32c-58.11,14.98-138.02,14.57-196.32.28-5.97-1.46-10.88-4.67-15.45-9.27,9.39-6.15,17.56-9.51,28.12-11.6,54.32-10.74,109.93-10.98,164.4-1.04,11.97,2.18,20.95,5.54,32.6,12.12-3.82,4.78-8.19,8.18-13.36,9.51ZM1104.4,616.68c8.06-1.14,14.17-3.27,21.56-8.32-8.57-6.42-15.22-8.7-24.39-10.07-51.72-7.74-103.85-7.16-155.4,1.63-5.62.96-11.28,3.75-15.06,8.48,6.03,4.64,13.2,6.91,20.83,7.99,50.92,7.17,101.56,7.51,152.45.29Z"/>
  <path class="st0" d="M1091.77,423.53c-43.52,4.78-84.18,4.88-126.71-.19l-7.14-11.63c47.18,2.37,90.89,2.85,138.64,0l-4.79,11.83Z"/>
  <path d="M948.93,1213.8c-21.89,21.91-54.11,21.81-76.04,1.04-50.65-47.98-48.25-174.43,8.85-220.91,21.53-17.53,51.22-15.85,70.8,3.67,49.81,49.66,47.51,165.02-3.61,216.2ZM973.49,1085.62c-2.27-37.42-22.03-88.17-56.91-89.24-38.51-1.19-60.94,53.3-64.9,94.36,40.86-9.15,80.63-12.84,121.81-5.12ZM939.77,1202.42c23.38-24.8,32.34-56.88,33.71-91-7.6,12.7-20.41,21.14-34.67,22.09s-28.16-4.35-38.44-14.9l24.33-22.25c-26.29,1.01-48.92,3.5-74.15,8.59.58,35.76,7.27,75.26,32.63,99.84,16.03,15.54,40.4,14.8,56.58-2.37Z"/>
  <path d="M1144.38,1219.04c-21.66,16.54-48.95,14.19-68.3-3.38-55.79-50.63-55.4-174.09-4.51-220,19.24-17.35,47.05-18.66,67.63-2.7,60.63,46.98,60.03,184.2,5.18,226.08ZM1168.97,1088.88c-1.28-15.5-3.69-24.91-7.1-36.44-5.94-17.87-14.9-34.57-29.46-46.72-17.28-14.42-40.8-11.96-56.05,5.21-17.94,20.2-25.86,47.68-27.58,74.94,41.63-6.68,79.2-6.65,120.19,3ZM1170.11,1109.68c-8.25,15.19-21.57,22.6-35.48,23.74-14.8,1.21-28.98-4.27-39.12-14.88l24.23-22.09-35.9.54-36.12,3.22c-.2,38.93,12.47,88.94,44.57,109.43,14.45,9.23,31.44,8.08,44.59-3.02,26.25-22.15,34.64-64.78,33.24-96.94Z"/>
  <path d="M1132.46,1295.5c4,31.23,35.49,24.83,38.15,33.43.82,2.66-3.74,9.17-6.74,8.75-9.67-1.36-18.53-4.34-27.12-7.54-13.39,12.35-27.09,23.49-43.65,30.87-58.03,25.82-122.57,24.5-180.37-1.71-2.73-1.24-4.56-6.99-3.42-9.21,1.31-2.56,6.83-4.56,9.75-3.18,29.81,14.13,61.9,19.46,94.68,18.69l.71-67.67-16.47-4.09c-12.36-.57-20.45-9.31-20-22.19,12.4-138.39,29.01-274.81,49.25-412.12,2.18-2.23,5.47-4.35,7.52-4.39s5.72,4.14,6.49,6.34c-20.37,137.98-36.93,275.77-49.35,415.52,5.81,3.36,11.82,4.56,17.69,5.48,12.42-.25,19.24,8.23,19.04,19.41l-1.14,62.85c38.39-4.89,73.34-18.26,100.5-45.14-5.66-6.79-9.42-17.11-8.2-25.32.32-2.15,5.15-5.04,7.07-4.66s5.32,3.62,5.61,5.88Z"/>
  <path d="M1049.78,1579.2c1.38,5.67-.38,10.35-4.7,11.36-2.89.68-8.12-2.78-9.1-6.73-10.66-42.86-14.83-85.07-18.86-129.12-.35-3.82,1.85-8.56,4.84-9.57,4.29-1.44,9.04,2.34,9.37,7.19,2.98,42.99,8,84.03,18.45,126.87Z"/>
  <path d="M954.8,949.44c-31.82-7.22-61.28,3.59-82.36,27.15-2.64,1.15-6.55,2.56-8.66,2.46-2.46-.12-4.97-5.34-5.35-8.76,23.28-28.55,58.53-42.94,95.2-35.86,2.48.48,6.63,4.47,6.73,6.76s-2.72,6.08-5.55,8.25Z"/>
  <path d="M1166.79,976.48c-22.62-24.23-52.29-33.63-83.34-27.12-2.09-2.71-4.54-6.42-5.1-8.52-2.67-9.99,59.53-19.69,99.89,27.19,1.89,2.2.93,8.44-1.12,10.01s-7.87,1.09-10.34-1.55Z"/>
  <path d="M1065.64,1407.68c-31.35,15.9-78.98,11.87-76.05-2.7,2.59-12.89,28.66,10.23,68.65-9.3,2.26-1.1,7.51-.06,9.49,1.6,2.09,1.75.89,8.89-2.1,10.41Z"/>
  <path d="M1642.04,1237.33c-22.04-15.36-47.84-13.2-66.91,4.11-2.81,1.19-7.7,1.73-9.74.43-2.73-1.75-2.92-7.89-.14-10.35,40.24-35.54,94.23-8.36,87.31,2.21-1.72,2.63-6.45,4.07-10.52,3.6Z"/>
  <path d="M484.51,1241.8c-19.15-17.44-44.69-19.29-66.68-5.61-3.38,2.1-9.65,1.06-11.14-1.98-1.97-4.02.48-9.03,4.54-10.65,27.75-15.49,59.3-12.76,83.02,8.41.74,2.73,1.06,7.25.09,9.23-1.13,2.3-7.86,2.4-9.83.61Z"/>
  <path d="M823.25,1904.79c-.62,16.08-26.66.67-52.67,21.46-3.01,2.4-10.88,1.48-13.02-1.03s-2.23-10.39.51-13.04c25.13-24.41,65.72-21.52,65.18-7.39Z"/>
  <path d="M1298.01,1927.63c-30.6-22.9-50.87-6.94-55.03-21.36-.92-3.18,2.78-9.44,6.79-10.32,34.52-7.56,67.19,14.17,60.78,27.63-1.33,2.78-10.01,5.95-12.54,4.05Z"/>
  <path d="M1052.11,488.11c12.25,20.23,17.05,44.16,1.82,60.73-14.14,15.39-44.22,14.76-57.37-4.99-6.45-9.68-8.21-22.25-4-33.5,8.41-22.49,20-42.2,34.9-62.95l24.65,40.72ZM1026.97,459.99c-15.86,29.14-44.82,67.04-18.4,86.6,11.09,8.21,26.64,8.15,37.19.05,26.99-20.72-3.49-58.35-18.79-86.65Z"/>
  <path d="M1110.49,284.75l15.05-2.87c12.82-10.97,20.74-27.25,23.15-43.69-5.19-.23-11.66-.63-15.46-1.97-1.71-9.07,15.18-3.23,20.86-8.29,13.89-12.39,36.05-16.28,50.97-2.84,29.23,26.35-41.12,80.16-85.3,84.46-.63-7.44.56-10.87,2.76-19.3l-12.79.54-3.25-3.36c-.73-.75,2.97-2.47,4.02-2.67ZM1130.4,297.93c30.5-7.25,82.66-43.7,69.7-64.87-6.36-10.39-37.12-10.08-41.81,7.25-4.16,15.39-8.48,30.59-20,42.02-4.33,4.3-7.22,9.06-7.89,15.6Z"/>
  <path d="M1162.66,691.68c-13.04,8.53-28.46,11.1-43.39,9.34,10.54-19.95,15.72-37.92,18.92-59.38,11.81-4.45,28.21-.93,35.28,10.72,8.02,13.23,2.56,30.59-10.81,39.33ZM1166.1,672.8c2.67-5.87,1.34-14.52-1.89-18.08-3.97-4.38-12.76-6.68-17.34-4.65l-11.33,41.06c12.16-1.76,24.9-5.86,30.56-18.33Z"/>
  <path d="M1104.4,616.68c-50.9,7.21-101.54,6.88-152.45-.29-7.64-1.08-14.8-3.35-20.83-7.99,3.79-4.73,9.44-7.52,15.06-8.48,51.55-8.79,103.68-9.37,155.4-1.63,9.17,1.37,15.81,3.66,24.39,10.07-7.39,5.05-13.5,7.17-21.56,8.32Z"/>
  <path class="st0" d="M1166.1,672.8c-5.67,12.46-18.4,16.57-30.56,18.33l11.33-41.06c4.59-2.03,13.37.27,17.34,4.65,3.23,3.57,4.56,12.21,1.89,18.08Z"/>
  <path d="M1049.37,525.91c-2.24,15.67-18.13,19.86-16.99,16.22.33-1.06,1.13-3.35,1.83-4.37l8.89-12.97c.7-1.02,2.8-2.88,3.75-3.63s2.69,3.54,2.52,4.75Z"/>
</svg>