<?xml version="1.0" encoding="UTF-8"?>
<svg id="Layer_1" xmlns="http://www.w3.org/2000/svg" version="1.1" viewBox="0 0 274.2 298.8">
  <!-- Generator: Adobe Illustrator 30.3.0, SVG Export Plug-In . SVG Version: 2.1.3 Build 182)  -->
  <path d="M228.37,274.48c-.67,2.77-3.98,4.84-6.62,5.47-12.48,3.01-30.77,3.6-41.08-3.53-1.47-1.01-1.87-4.56-1.89-6.39-.05-4.48,1.78-8.86,1.43-12.97-.33-2.78-2.45-5.43.31-8.37,1.99-2.13,4.94-3.86,7.83-4.84-2.55-14.85-7.15-28.75-14.33-41.7-9.61,5.52-20.52,6.49-31.57,3.28-5.23,11.96-9.21,24.41-10.57,37.3,3.03,1.19,5.7,2.8,7.44,4.73,3.58,2.66,1.68,5.7,1.46,8.93-.31,4.62,4.67,16.47-.17,19.71-10.19,6.84-30.56,5.18-42.92,1.37-4.3-1.33-6.34-4.98-5.92-9.29.96-9.93,9.99-15.63,20.06-13.46-2.67-3.76-2.19-7.94,1.11-10.42,2.32-1.74,5.13-2.54,8.44-2.75,1.59-13.82,5.55-27.49,11.51-40.42-3.52-2.38-6.3-4.65-9.5-7.62-.98,4.72-3.06,9.44-7.37,11.92l-5.51,2.25c-4.84,2.82-10.35,3.84-15.3.45-5.5,1.53-11.02-.44-13.67-5.02-2.89-5.01-2.42-11.01,2.05-15.3-3.02-2.54-2.59-6.9-4.33-9.76-3.17-5.22-4.65-10.76-.3-16.36-1.63-4.33-2.78-8.99-2.57-13.67,1.74-17.89,18.25-24.41,35.14-21.26,3.19-17.26,8.37-33.37,16.61-48.74-13.22-12.63-14.54-31.9-.83-44.28.95-.55,2.69-.85,3.25-.28,2.32,2.33-3.17,8.21-1.81,16.58.9,5.56,4.58,11.04,10.2,11.69,10.27-11.47,23.36-19.86,36.36-9.56,3.62,2.87,6.31,7.09,8.91,10.88,4.98.2,9.27-3.87,10.78-8.32,4.19-12.31-5.31-21.88,3.11-19.38,8.48,8.59,11.06,21.15,6.38,32.38-2.28,6.18-6.41,10.93-11.98,14.33,4.8,14.99,7.52,29.82,8.31,45.24.02.36.22,1.27.51,1.25l2-.11c-.13-6.49,1.12-13.26,5.97-18.14l5.61-5.65-7.19-4.83,25.01-3.5-11.33,21.34-2.96-8.51c-6.42,4.11-10.67,11.68-9.36,19.41,8.84.9,16.75,5.01,21.45,12.34,4.56,7.09,4.25,15.79,1.08,23.45,4.53,5.23,3.79,11.24.47,16.7-1.73,2.85-1.41,7.06-4.01,9.46,4.32,3.87,5.3,9.91,2.71,14.71s-8.46,7.26-13.9,5.25c-5.66,3.35-11.13,1.63-16.27-1.18-2.66-1.46-5.92-2.2-8.04-4.65-3.73-4.3-4.72-9.67-4.39-15.14l-5.63,6.37,5.79,11.31c4.91,11.45,8.36,23.23,10.45,35.47,3.07.7,5.99,1.58,8.31,3.17,3.63,2.5,4.2,6.67,1.53,10.45,5.78-.98,10.98.18,15,3.96,3.6,3.39,6.2,8.35,4.76,14.26ZM163.35,203.78c11.62-2.82,20.16-10.88,25.53-20.89,15.34-28.61,10.5-80.37-2.88-110.25-4.52-10.1-11.59-22.4-22.77-22.72-11.27-.32-22.14,12.46-28.32,22-7.56,11.67-12.61,24.03-16.59,37.43-5.74,19.36-7.38,39.44-3.79,59.31,1.16,6.38,3.24,11.92,6.68,17.41,8.74,13.91,25.59,21.73,42.14,17.72ZM112.01,170.52c-2.1-11.84-2.2-22.36-1.61-33.65-4.75-1.07-9.51-1.1-13.98.27-8.22,2.53-12.07,11.21-8.19,18.8,6.49.02,12.23,3.69,14.47,9.45l9.31,5.13ZM205.33,138.59l-4.26.52c-.24,10.17-1.52,19.08-3.72,29.31,9.65-7.06,12.38-19.21,7.98-29.83ZM222.44,158.92c1.7-4.09,1.74-8.71-.54-12.45s-6.11-6.2-10.44-7.04c3.21,10.77.7,21.05-6.45,29.45,1.84.01,2.9-1.23,3.72-2.8,2.62-5.04,8.13-7.53,13.71-7.16ZM95.78,205.18c6.43-3.18,5.33-10.43,7.65-10.84,2.16-.38.93,8-5.26,12.48,4.51,2.01,9.68.54,12.39-3.2,2.56-3.54,3.31-7.81,3.47-12.09l1.79.04c1.51.04.26,6.98-1.77,12.1,4.74-2.91,7.16-8.54,6.47-13.95-3-4.3-5.2-8.58-6.83-13.67-4.26-4.39-9.7-8.25-16.03-8.9-1.57-.16-3.33-.34-4.16-1.28,1.59-1.57,3.4-1.3,5.9-1.44-2.33-3.45-5.98-5.77-10.06-5.93-3.73-.15-7.12,2.47-8.75,5.19-1.9,3.18-2.33,6.91-.54,10.32.65-1.5,2.48-3.98,3.71-4.89.36-.27,1.93.63,1.71.96l-.76,1.17c-3.86,5.94-3,10.42,2.12,16.07,4.93.75,8.12,4.1,9.27,8.77-.84.53-1.96.85-2.32.42l-1.72-1.99c-2.02,3.53-.06,7.39-2.4,7.25-.58-.04-1.45-1.27-1.45-1.86v-2.12c0-.38-1.47.08-1.84-.04l-1.94-.64c-.41-.14.52-1.83.95-1.72,1.79.45,4.96-.89,5.08-3.7-.54-1.17-3.48-2.29-5.04-2.01-3.65,3.12-3.91,8.18-1.62,12.14s7.42,5.6,11.96,3.36ZM225.53,191.8l-4.7,2.28c.39,3.12,3.2,4.07,5.18,3.88.52-.05,1.82,1.22,1.46,1.53-1.99,1.71-3.99.44-4.02,1.3l-.09,2.07c-.03.62-1.07,2.06-1.58,1.75-1.89-1.17-.27-4.44-2.67-7.41l-2.15,2.27c-.32.33-1.45-1.14-1.45-1.37,1.61-4.77,5-7.86,9.92-8.56,4.61-6.23,4.69-11.13-.25-16.9l.76-1.04c.2-.28,1.71.13,1.91.41l3.46,5.01c2.39-5.82-.64-12.7-6.96-15.04-4.85-1.8-10.52.48-13.23,5.12,2.63.04,4.93-1.02,6.1,2.01-11.24-.41-22.5,8.21-25.64,18.22-2.1,6.69.09,14.23,5.87,17.77-1.36-4.05-2.84-8.14-1.41-11.47.28-.65,1.96.64,1.98,1.27.12,3.43.7,6.47,2.24,9.28,2.57,4.7,8.23,7.1,13.54,5-8.47-6.58-6.92-14.08-5.28-12.51l1.21,1.16c.51,6.16,5.56,10.73,11.57,10.99,4.08-.52,7.18-3.32,7.97-6.86.83-3.72-.37-7.72-3.74-10.15ZM99.34,275.46c10.44,2.93,21.01,3.7,31.49,1.82,3.08-.56,6.72-1.67,8.69-3.71,1.17-5.4-.29-10.53-1.73-15.33l-3.78.39c-.36.04-.26-1.73.08-1.86l1.65-.62c.95-.36,2.63-1.6,3.06-2.49,1.33-2.8-2.91-6.53-7.36-8.51.4,3.81-.95,6.2-4.03,6.85-2.37.5-5.98-.6-6.12-3.69l-.2-4.57-5.77,1.89c-1.4.46-2.7,2.98-2.56,4.24.83,7.68,13.26,6.13,11.52,8.36-.21.27-.98.85-1.34.83l-3.44-.25,1.62,2.08c.33.43-1.35,1.75-1.74,1.39-2.88-2.67-6.73-5.25-10.65-5.54-7.41-.54-13.25,3.96-14.35,11.12-.52,3.41,1.12,6.54,4.95,7.61ZM222.68,277.08c2.43-.7,3.6-3.21,3.56-5.24-.11-6.2-4.08-11.23-9.27-12.78-6.08-1.82-11.87.37-15.78,5.11-.83-.32-1.71-1.56-1.38-2l1.24-1.7-4.08-.16c-.42-.02-.52-1.85-.1-1.93l1.25-.23c4.38-.82,9.47-1.86,9.55-6.44.06-3.35-4.03-5.56-8.52-6.48.34,3.08.37,5.4-1.74,7.1-1.42,1.14-4.33,1.32-6.2.23-1.75-1.03-2.36-3.41-2.42-6.01-2.56.45-5.28,2.11-6.63,4.66-.44.84-.37,3.27.26,3.97s2.12,1.41,3.25,1.92l1.54.69c.36.16.04,1.56-.35,1.56h-1.53c-.51,0-2.14-.35-2.24.15l-.36,1.8c-.87,4.35-1.97,8.77-.42,13.2,10.17,6.72,28.04,6.12,40.38,2.59Z"/>
  <path d="M147.53,160.86c-7.47.36-5.63-8.83-4.81-19.83l.93-12.45c-3.16,5.04-5.34,9.48-10.18,12.13-1.85,1.01-4.12,1.73-6.12,1.16-5.82-1.66-7.35-11.57-7.43-18.9-.12-11.57,2.11-22.97,7.76-32.98,2.28-4.03,4.52-7.9,8.33-10.58,3.16,5.09,6.75,9.36,11.69,11.6l1.53,4.05c3.05-13.4,6.94-26.44,11.79-39.61.22-.59,1.2-1.36,1.7-1.25s1.06,1.44.85,2c-12.27,32.76-17.65,64.26-19.05,99.22-.2,4.93,6.14.96,8.07,6.58-.86,11.28,1.1,22,5.25,32.46l-.58,1.55c-.16.43-1.39-.11-1.87-.45-3.98-10.45-6.23-21.07-5.35-32.37-.13-1.22-1.17-2.39-2.51-2.32ZM129.74,122.63l4.98-5.91-4.44-1.62c1.35-9.65,3.99-18.56,9.13-26.79l-4.13-5.03c-11,13.32-14.71,32.37-11.81,48.9.52,2.99,2.02,6.27,5.13,7.46,1.01.39,3.34-.8,4.27-1.62-2.84-4.91-3.56-10.01-3.12-15.4Z"/>
  <path d="M165.12,142.02c-4.51,2.43-9.17-.47-10.85-4.79-4.87-12.53-2.2-31.6,4.72-43.7,6.44-1.98,12.69-5.62,17.59-9.74.4-.34,1.65-.82,1.87-.51l.98,1.41c3.04,14.9,1.77,30.1-3.44,44.32-2.44,5.33-5.48,10.11-10.86,13.01ZM165.08,139.1c-2.47-4.96-3.36-9.9-3.04-15.32l5.13-6.41-4.67-1.66c.9-8.42,3.27-16.17,7.1-23.86l-8.76,3.67c-6.24,11.63-8.95,30.1-3.6,41.84.63,1.39,2.28,2.86,3.43,3.05,1.36.23,3.19-.43,4.42-1.31Z"/>
  <path d="M164.8,170.29l-2.38-2.48c-.53-.55-2.33.03-2.93.5l-1.35,1.04c-.36.28-1.49-.61-1.41-1.06s.51-1.35.89-1.7c3.02-2.77,7.55-1.07,9.31,2.48l.79,1.6c.17.34-.91,1.29-1.25,1.1-.44-.24-.95-.7-1.68-1.47Z"/>
</svg>