<?xml version="1.0" encoding="UTF-8"?>
<svg id="Layer_1" xmlns="http://www.w3.org/2000/svg" version="1.1" viewBox="0 0 1792 2380">
  <!-- Generator: Adobe Illustrator 30.3.0, SVG Export Plug-In . SVG Version: 2.1.3 Build 182)  -->
  <defs>
    <style>
      .st0 {
        fill: #fff;
      }
    </style>
  </defs>
  <path d="M889.37,1566.27c-25.86,5.99-52.62,4.86-79.58,4.9-22.9,15.75-46.49,32.84-76.76,38.99,8.51,58.45,6.11,127.8-25.02,177.65-42.4,67.87-119.28,71.3-192.17,48.26-17.53,27.6-41.75,50.79-76.65,46.03,15.1,50.36,2.17,108.01-42.59,136.39-30.53,16.82-66.77,17.49-97.27,0-23.2,1.96-42.57-9.24-55.98-28.16-30.03-45.51-31.02-115.32-21.86-169.51,7.65-45.25,19.62-88.56,36.12-131.17,6.27-16.19,15.54-31.09,25.65-43.81,18.9-23.78,45.4-27.53,73.55-20.74l40.7,3.6c23.94,5.96,45.33,18.45,64.52,33.03,26.9-6.49,52.43,3.37,65.52,29.2,9.43,18.62,12.91,38.89,12.73,61.43,37.41,10.97,80.5,20.69,97.72-16.77,16.48-35.84,14.49-78.3,8.7-117.34-48.93-6.1-93.94-18.12-130.26-49.72-18.73,9.7-39.75,7.11-56.36-4.89-13.13-9.49-21.2-23.69-26.78-39.99-33.12-4.98-64.71-12.74-95.32-27.75-102.82-50.44-150.35-158.09-112.33-268.53,35.05-101.81,117.26-176.28,208.66-229.52,7-153.01,38.42-299.81,110.3-435.24,56.46-106.37,141.63-211.8,253.67-260,93.44-40.19,194.29-31.92,269.61,37.63,73.51,67.88,117.17,170.7,143.21,265.83,74.08,21.26,132.02,77.6,156.61,143.06,30.36,80.8,16.53,163.77-32.07,230.26l24.74,28.34c56.92-43.09,134.85-34.92,187.01,10.77,23.74,20.79,40.54,47.43,51.3,77.16,32.07,10.95,46.37,37.67,45.22,72.6,42.77,50.02,52.71,120.78,25.44,181.27-31.46,69.78-105.75,100.4-180.92,93.22-43.98-4.21-86.25-14.62-126.87-32.68-66.6-29.62-126.91-67.94-184.47-114.79-13.88,31.88-30.6,60.98-49.31,90.55-32.36,51.13-72.59,94.76-121.76,129.96l-34.96,21.65c40.13,119.45,44.77,250.21,39.56,374.16,23.68,4.3,43.65,13.18,57.08,30.28s15.52,37.87,3.57,56.95l18.31,17.93c71.48-30.08,168.38-13.08,188.32,67.03,5.86,20.55,6.28,41.39-.44,61.56,7.91,21.43,1.3,42.22-16.14,56.27-15.14,11.76-32.98,18.65-52.23,23.46-87.2,21.8-210.83,4.33-298.81-19.29-33.89-9.1-70.15-26.86-61.62-61.93,1.93-7.93,2.02-15.97-.54-23.83-6.51-36.47.24-72.56,16.21-106.73-19.2-21.48-16.67-52.82,5.28-71.96,14.83-13.13,32.55-20.63,53.41-25.61,7.46-116.13,2.65-237.77-33.65-349.5ZM975.17,1085.42c-14.32-7.45-30.85-3.66-43.93,3.53l-24.82,13.64c-15.34,8.43-37.91,8.69-38.85.51-.6-5.25,30.09-3.36,47.37-21.94-19.25-10.23-29.86-26.07-31.65-46.3l-19.18-.91c-15.12-.72-23.26-12.15-23.26-27.21-34.22,20.98-52.29,56.49-67.38,90.92-.4.9-1.79,3.29-2.53,2.88l-4.38-2.42c11.15-45.76,44.86-103.38,91.87-113.25,2.06-.43,7.62,1.17,8.58,2.94,2.37,4.36-13.27,9.43-10.71,23.02.76,4.01,8.35,8.63,13.39,8.45l42.11-1.51c3.47-.12,8.14-7.87,7.53-11.79l-16.45-106.13-8.05-52.64c-.7-4.56,2.1-11.01,2.54-15.57,8.68-153.75,140.25-258.57,292.81-230.64-23.92-80.3-54.44-153.18-106.45-216.64-83.91-101.27-198.39-111.22-311.29-48.02-44.75,25.05-82.3,57.47-116.14,96.05-107.26,122.32-169.65,285.46-192.35,445.6-5.37,37.89-9.75,73.25-9.66,112.16,24.98-16.92,53.53-10.07,66.26,12.35,12.56,22.14,3.01,50.62-20.65,61.28-16.28,7.24-31.02,14.31-46.09,24.49,6.05,91.25,28.16,181.41,73.39,260.96l43.47-28.39c16.6-10.84,28.38-22.97,37.54-40.92l18.08-35.43c8.82-13.22,23.09-20.68,37.86-19.35,13.85,1.24,26.43,9.63,34.04,23.08,18.85,33.35,13.57,76.75-13.01,104.83l-21.5,22.71c-7.26,7.67-11.12,19.7-7.72,30.53,29.12,8.54,58.76-4.39,73.98-30.33,9.16-15.6,21.88-27.53,36.96-37.83-41-40.36-64.03-93.46-67.59-150.13-3.03-48.26,176.02-62.85,226.13-68.09,7.79-8.55,17.01-15.88,27.88-16.65,9.76-.69,17.15,4.09,19.13,14.28l18.28-.71c3.01-13.35-3.01-24.9-15.57-31.43ZM1364.34,835.88c0-123.4-100.04-223.44-223.44-223.44s-223.44,100.04-223.44,223.44,100.04,223.44,223.44,223.44,223.44-100.04,223.44-223.44ZM970.06,1061.09c4.8,5.09,10.06,10.16,15.45,13.39,14.71,8.81,22.6,24.07,20.69,42.37,59.87.01,125.92.44,181.94,20.77,7.7,4.45,12.78,9.56,17.26,18.93l20.07-95.52c-116.64,41.18-239.66-6.37-298.95-112.95l7.71,57.91c-.05,10.44-3.29,24.13-14.67,25.56l-24.31,3.06c1.27,17.36,15.72,33.95,32.08,39.38l31.27-8.08c-6.29-8.56-15.06-17.54-11.41-29.1l22.87,24.28ZM1318.05,1056.14c9.18-14.24,18.25-25.64,29.26-37.44l-23.31-25.34-33.76,32.33,27.81,30.46ZM1456.04,1230.52c-1.42-1.63-1.68-6.58-.27-7.71,7.03-5.62,39.27-2.1,58.41-26.7l12.81-23.52c1.36-2.49,7.04-5.48,9.75-4.91s5.23,6.85,4.4,9.5l-4.18,13.45,22.87,25.01c17.54-13.23,23.42-36.63,32.18-31.41s-4.44,30.07-20.61,42.5c.76,2.07,3.84,6.34,6.07,7.28,9.46,3.97,51.83-25.92,50.49-73.82-.51-18.39-8.97-34.68-24.16-44.98,5.05,26.05.47,52.34-6.5,46.55-1.72-1.42-4.14-4.57-6.38-7.63,1.18-62.9-34.59-121.22-91.85-146.86-57.31-24.83-121.03-7.55-157.47,42.57-13.38,18.4-21.36,40.08-18.63,62.95,1.9,15.89,11.83,29.31,27.37,34.18,6.23-34.09,23.71-63.68,50-84.41,7.34-5.78,16.87-10.04,26.06-9.13,1.29,3.14-1.34,8.75-4.23,10.76-23.46,16.35-41.25,37.99-51.24,64.89-11.24,30.28-3.97,69.03,29.59,74.48,9.97-29.66,26.79-54.95,50.42-74.52,19.64-16.27,35.73-14.04,34.13-9.37l-2.01,5.86c-32.31,17.39-55.73,47.63-67.09,82.35-1.77,14.26-1.75,27.78,7.64,38.58,14.26,16.41,37.02,22.99,59.61,15.16l-27.19-31.09ZM1494.13,1274.04c-30.84,14.34-66.66,5.4-86.71-22.2-17.93,14.44-42.88,14.65-59.83-1.54-18.49-17.66-17.68-39.3-45.01-64.95-10.61-9.96-19.83-21.81-23.49-36.15-6.08-23.83,5.93-47.19,27.27-58.94,2.44-4.04,4.12-12.44,3.19-17.07l-33.7-37.05-30.67,17.32c-7.62,53.11-18.91,104.78-35.58,156.69,52.2,43.78,107.16,81.78,168.06,112.11,39.19,19.52,80.38,31.17,123.59,34.89,26.02,2.24,50.45-3.49,71.3-18.67,25.48-22.25,33.56-57.95,20.42-89.6-2.14-.31-5.86-.49-6.56,1.01-2.97,6.35,4.64,29.45-21.69,46.62-13.51,8.81-31.61,10.84-45.72,2.23-9.56-5.83-16.38-15.3-24.88-24.73ZM504.27,1374.88l8.42-11.25c-46.05-81.97-69.36-169.24-76.98-264.21-59.3,42.16-114.7,100.21-133.04,171.14-20.43,88.25,44.08,151.4,128.89,163.62,10.01-35.66,35.47-65.23,72.71-59.29ZM1400.52,1235.97l-2.13-17.34c-28.84-3.66-46.79-26.67-47.63-55.41-25.61-5.49-41.84-26.73-44.55-54.33-17.32,14.89-15.56,37.88-1.54,54.94,18.21,16.71,32.55,35.42,42.85,58.49,3.96,8.86,11.06,18.03,19.58,22.22,11.61,5.72,25.56.53,33.41-8.58ZM921.06,1156.36c53.08-6.68,103.69-7.8,155.54-4.97,26.94,1.47,64.56,6.86,81.6,23.95,11.47-2.2,22.96-7.43,31.41-17.56-11.82-7.98-23.89-12.1-37.11-14.73-109.87-21.8-295.63-11.29-403.08,22.14-12.61,3.92-24.07,10.03-34.94,18.72,9.42,10.01,22.16,13.12,34.53,15.48,4.49-5.51,10.33-11.78,17.69-14.67,19.95-7.82,39.82-13.95,61.22-16.65l93.14-11.72ZM837.34,1374.72c14.42-7.09,28.23-8.93,43.04-2.77,10.81,4.49,19.95,15.14,24.28,29.66,55.68,2.95,110.67-2.79,163.95-16.12,12.77-3.19,16.83-12.48,19.7-23.93,1.63-6.51,9.33-13.59,15.15-18.25,50.05-40.13,82.56-97.88,88.39-163.76-19.86,10.5-38.48,17.74-59.63,22.73-104.8,24.73-245.29,32.39-352.15,19.75-21.87-2.59-41.42-7.33-63.4-14.87,8.57,48,31.86,92.34,66.1,123.81,15.19-3.75,29.45-2.37,40.15,6.87,9.92,8.56,14.53,21.25,14.42,36.88ZM1558.09,1279.67c14.23-10.83,12.8-26.72,2.3-38.1l-33.42-36.18c-12.72,15.26-27.6,23.18-46.27,27.9l44.89,49.21c8.33,9.13,24.65,5.19,32.5-2.83ZM885.88,1435.7c3.52-9.13,4.29-20.04,2.79-29.64-2.4-15.37-16.79-24.85-32.24-21.31-7.26,1.67-16.84,6.53-22.64,10.69-22.71,63.45-78.96,112.25-145.65,122.83-4.36.69-13.11.04-14.76-3.1-2.72-5.2,4.2-11.59,9.46-12.35,31.5-4.54,58.74-16.47,82.94-37.1,24.66-21.03,44.34-46.92,53.67-78.32,3.57-12.03,3.08-26.29-5.14-35.65-7.59-8.65-20.77-8.1-30.54-4.07-35.84,14.78-42.81,52.84-70.9,67.17-39.32,20.07-95.08,3.48-99.3-15.67-.49-2.2,4.53-7.13,6.58-6.23l18.71,8.23c.08-16.24,5.4-28.44,15.27-39.11l24.09-26.03c18.73-23.73,19.95-58.46,3.6-83.31-5.33-8.1-14.15-12.14-22.95-12.04-6.91.07-16.66,6.11-20.54,13.84l-20.02,39.9c-9.14,18.23-24.19,29.88-40.97,40.94l-34.99,23.06c-16.14,13.06-30.4,29.73-36.04,49.86l-9.35,33.32c-.67,2.39-5.52,5.56-7.82,4.93-11.03-3-.26-38.41,7.55-58.43-58.21,7.57-65.07,103.13-40.05,147.11,10.04,17.65,28.98,27.36,48.78,21.79-18.67-21.82-27.89-62.44-16.74-61.05,11.73,1.47,11.03,34.04,36.97,58.43,24.56,23.1,55.35,34.98,88.09,42.23,40.19,8.9,80.27,9.47,119.59-3.08,29.9-9.55,58.4-24.12,78.13-49.88-35.74,17.4-70.32,28.22-108.14,27.42-4.14-1.17-8.89-4.62-8.94-7.84-.2-11.49,41.27-4.17,81.68-21.18,48.84-20.56,90.56-56.35,109.83-106.34ZM844.91,1519.79l-18.19,32.59c54.01,1.87,104.09-11.5,148.7-38.98,51.73-32.46,94.07-75.3,128.08-125.76l29.01-47.77-29.97,25.14c-1.19,17.19-12.03,30.48-28.66,35-54.72,14.87-110.85,19.65-168.22,17.24-4.75,41.92-30.53,74.56-60.77,102.56ZM274.7,1996.06c-12.2-24.16-19.87-45.25-22.91-69.7-5.16-42-2.03-82.9,6.19-124.5,11.22-56.8,28.6-124.24,71.08-163.55-17.14.32-28.26,11-38.08,22.93-8.98,13.69-16.73,27.9-22.34,43.79-28.31,80.24-52.89,180.83-20.68,260.54,6.72,12.35,12.95,25.46,26.73,30.49ZM416.22,1847.61c11.25,17.93,32.52,24.66,51.79,14.33,13.06-7.01,23.8-18.44,30.94-30.93l-38.27-13.92c-20.01-10.17-25.82-35.35-17.51-55,7.69-18.19,29.64-32.03,50.1-24.84l31.01,10.9c-.37-18.87-3.08-36.33-12.17-51.81-12.71-21.65-37.78-26.65-57.95-12-22.39,16.26-27.44,40.92-36.34,32.78s11.98-34.53,29.31-46.66c-22.87-17.68-49.26-27.2-76.91-28.63-14.54-.75-26.66,3.5-36.59,14.13-13.74,14.71-24.91,31.94-32.48,51.48-18.76,48.43-30.57,98.32-35.34,150.35-3.95,43.03,1.57,110.18,30.88,137.74,30.92,29.07,82.6,25.55,109.7-6.88,24.02-28.75,28.16-67.17,17.29-101.85-24.52-17.6-51.96-25.84-81.92-20.59-4.14.73-9.27-3.56-9.51-7.13-.98-14.64,45.01-11.22,70.47-2.11-15.12-25.21-19.96-68.98-3.86-65.29,10.11,2.32-1.41,26.01,17.37,55.94ZM1265.07,2101.5c-4.5-37.08-28.95-65.49-64.92-76.1-50.25-14.81-105.35-2.93-144.68,31.79-20.05,17.71-19.82,33.31-31.24,27.65-14.77-7.32,24.97-47.88,49.51-60.07l-13.58-13.31c-16.82,15.88-49.55,30.01-53.49,17.28-4.69-15.16,22.95-5.42,47.88-34.19,12.27-14.16,10.57-33.33-2.93-46.39-11.44-11.06-25.22-16.85-42.23-20.48l-1.51,20.64c-1.92,26.21-26.34,44.65-52.18,39.45-23.49-4.73-39.32-27.54-33.76-54.98-16.34,3.31-30.84,11.19-42.88,22.16-15.67,14.27-15.4,37.45,1.21,51,27.64,22.57,56.15,10.84,55.12,24.74-1.06,14.17-36.87,5.64-58.06-6.61-13.86,29.78-19.19,61.69-13.41,93.45,1.98,10.85,7.36,18.6,17.34,23.55,26.5,13.14,54.14,20.43,83.58,26.51,80.32,16.57,193.42,26.51,267.92-4.62,31.23-13.05,36.37-27.91,32.29-61.48ZM1264.29,2161.64c-15.18,11.8-31.18,20.46-49.58,24.88-94.19,22.63-210.36,11.38-303.09-16.06-17.36-5.14-31.78-12.49-47.56-21.1-5.11,19.73,27.62,35.62,47,39.91l77.01,17.06c59.07,10.6,117.85,15.61,177.76,10.15,35.78-3.26,101.44-18.7,98.46-54.85Z"/>
  <path d="M846.88,934.7c-.21,6.4-9.78,5.59-14.51,2.72-51.76-31.39-111.96-44.43-172.28-35.44-3.03.45-7.98-2.7-8.32-4.99-2.41-16.29,62.77-14.42,92.57-8.34l1.69-36.35,50.96,1.17-36.89-40.64,13.1-16.96c-29.02-27.92-67.16-61.97-106.55-55.31-29.34,4.97-41.86,25.01-50.36,21.8-6.44-2.44,1-18.43,16.14-27.82,48.81-30.25,97.06-3.46,136.51,32.45l42.01,38.25c12.16,11.07,38.24,28.31,45.16,22.64,10.54-8.63,7.69-39.22.25-60.33-1.42-4.03-2.32-10.94-1.89-15,4.28-1.46,10.54,1.93,13.09,5.97,18.52,29.39,21.54,80.66-11.8,89.58,2.24,26.82-4.45,51.15-18.32,74.25,2.94,2.79,9.55,8.51,9.43,12.34Z"/>
  <path d="M843.91,626.98c-24.38-17.3-49.72-27.47-79.32-25.62l-2.8-4.14c-4.43-6.56,38.54-17.41,87.37,17.64,28.58,20.52,63.5,21.01,92.57.72,11.95-8.34,24.65-15.59,37.88-21.75,19.34-7.05,38.13-10.45,58.3-5.86l4.75,5.05c1.06,1.12-3.54,4.44-5.33,4.44-39.69.06-59.67,11.51-91.52,32.2-31.66,20.56-70.19,19.21-101.9-2.68Z"/>
  <path d="M905.54,550.59c-2.4-4.14-3.43-13.92-2.55-19.33l15.74-96.91c5.62-34.58,7.3-67.3,4.79-102.53-.18-2.54,3.26-7.32,5.5-7.74s7.13,3.02,7.43,5.45c3.66,29.33,4.56,57.03.76,86.52-5.44,42.25-12.45,82.94-20.52,124.58-.95,4.89-5.14,11.57-11.16,9.97Z"/>
  <path d="M903.55,702.9c-24.08,11.66-51.35,8.79-74.04-4.62-14.49-8.56-26.89-19.23-40.49-29.19-27.83-20.37-60.77-29.48-95.02-23.48-1.91.34-6.18-2.79-6.37-4.72-1.2-12.12,61.81-17.8,106.29,15.33l31.98,23.83c24.5,18.26,52.87,22.07,82.59,10.71,2.59,3.97.18,9.64-4.95,12.13Z"/>
  <path d="M701.47,984.43c-18.09-6.47-34.56-21.27-29.82-25.98,5.83-5.8,17.69,10.67,43.09,16.92,32,7.87,64.11.83,91.27-17.35,5.25-3.51,11.6-6.1,17.95-5.92,1.07,4.84-2.32,10.32-6.42,13.69-32.53,26.67-76.35,32.87-116.08,18.65Z"/>
  <path d="M866.15,583.02l-3.44-6.31c-.85-1.56,5.69-3.03,7.38-3.01,21.37,7.52,43.48,10.33,63.82.24l25.35-10.09c-.19,5.66-1.47,7.55-4.38,11.08-25.85,19.64-59,23.19-88.73,8.1Z"/>
  <path d="M888.04,732.32c11.51,15.7,16.14,49.4,1.52,58.2,1.3-27.38-10.04-54.63-7.83-60.04.55-1.35,5.4.58,6.31,1.84Z"/>
  <path d="M1342.2,835.98c0,111.21-90.15,201.36-201.36,201.36s-201.36-90.15-201.36-201.36,90.15-201.36,201.36-201.36,201.36,90.15,201.36,201.36ZM1268.22,704.31c-44.62-41.34-105.26-59.32-164.81-47.16-86.2,17.61-148.58,94.59-147.26,182.66,1.05,69.95,44.35,130.92,103.22,159.66,65.54,32,142.31,23.33,197.61-23.04,30.29-89.35,35.02-179.73,11.25-272.13ZM1288.22,945.03c48.57-61.81,48.52-147.3,5.86-210.26,7.4,45.89,9.32,88.31,5.23,133.02l-11.09,77.24Z"/>
  <path d="M886.1,1526.91c-3.47,1.6-8.1,2.85-9.71,1.32s-1.95-6.45-1.85-9.8c19.1-25.55,31.27-52.97,37.11-84.37l7.4-5.25c1.66-1.18,5.01,5.4,5.64,7.35-3.4,33.8-16.71,64.08-38.59,90.76Z"/>
  <path class="st0" d="M1288.22,945.03l11.09-77.24c4.09-44.71,2.17-87.13-5.23-133.02,42.66,62.96,42.7,148.45-5.86,210.26Z"/>
  <path d="M1217.9,868.76c-75.03-30.62-147.94-6.98-211.34,37.82-2.64,1.87-9.48,1.58-11.75-.21s-3.65-8.79-1.95-11.36l16.03-24.25c17.02-25.75,41.35-46.39,70.28-57,14.99-5.49,32.1-10.49,47.03-1.32-37.28,8.06-70.71,21.49-93.03,52.69,59.62-30.55,133.15-42.28,192.41-14.57,3.61,1.69,6.02,8.07,5.21,11.18-1.04,4.05-7.19,9.34-12.88,7.02Z"/>
  <path d="M993.44,846.2c-15.2,1.87-25.1-6.53-25.69-20.48-.94-22.2,15.23-41.84,18.42-34.85,4.38,9.61-5.21,22.08-.48,37.43,17.25-.7,30.67-9.1,42.45-20.32l50.05-47.67c31.9-30.38,83.94-60.89,124.95-43.41,19.98,8.51,34.47,27.66,31.63,49.82-3.41,1.08-8.42-2.07-9.86-5.41-11.54-26.64-38.82-38.1-66.46-28.54-29.55,10.22-53.96,29.26-76.94,50.75l-46.47,43.45c-11.09,10.37-25.7,17.29-41.6,19.24Z"/>
  <path d="M1122.64,916.65c-28.88-4.93-55.13-3.09-82.54,4.47-2.87-.88-6.63-2.37-7.6-3.99s2.5-5.31,4.31-6.45c24.85-10.41,50.52-12.5,77.46-8.81,15.13,1.98,34.08,4.9,35.1,12.92.17,1.36-4.03,3.5-5.65,3.39l-21.09-1.53Z"/>
</svg>